<svg width="1600" height="900" viewBox="0 0 1600 900" fill="none" xmlns="http://www.w3.org/2000/svg">
<rect width="1600" height="900" fill="url(#paint0_linear_8_254)"/>
<path d="M0 575H1600V900H0V575Z" fill="url(#paint1_linear_8_254)"/>
<path d="M617.049 526.449C614.017 523.266 616.273 518 620.669 518H985.897C989.054 518 991.42 520.889 990.8 523.983L981.373 570.983C980.904 573.319 978.853 575 976.47 575H665.448C664.08 575 662.772 574.439 661.828 573.449L617.049 526.449Z" fill="#A67029"/>
<path d="M817.429 270.576C819.62 265.637 827 267.201 827 272.603V501C827 503.761 824.761 506 822 506H720.688C717.071 506 714.651 502.279 716.117 498.973L817.429 270.576Z" fill="#F6F6F6"/>
<path d="M848.543 389.752C846.301 384.877 839 386.475 839 391.841V501C839 503.761 841.239 506 844 506H894.197C897.843 506 900.263 502.224 898.74 498.911L848.543 389.752Z" fill="#F6F6F6"/>
<path d="M756 231.054C756 229.038 757.949 227.595 759.877 228.185L771.078 231.607C772.982 232.189 775.018 232.189 776.922 231.607L789.036 227.906C790.967 227.316 793.031 227.324 794.957 227.929L806.502 231.558C808.454 232.171 810.546 232.171 812.498 231.558L823.101 228.226C825.033 227.618 827 229.062 827 231.088V253.541C827 254.971 825.991 256.202 824.588 256.482L811.434 259.113C810.157 259.369 808.842 259.372 807.564 259.124L793.436 256.376C792.158 256.128 790.843 256.131 789.566 256.387L775.934 259.113C774.657 259.369 773.342 259.372 772.064 259.124L758.427 256.472C757.018 256.198 756 254.963 756 253.527V231.054Z" fill="#B54028"/>
<circle cx="1113" cy="181" r="96" fill="#FCEA9E"/>
<circle opacity="0.3" cx="1113" cy="181" r="155" fill="#FCEA9E"/>
<path opacity="0.1" d="M1382 181C1382 329.565 1261.56 450 1113 450C964.435 450 844 329.565 844 181C844 111.297 870.511 47.7859 914 7.55787e-05C914 7.55787e-05 1036.64 0 1115.5 0C1194.36 0 1312 7.55787e-05 1312 7.55787e-05C1355.49 47.7859 1382 111.297 1382 181Z" fill="#FCEA9E"/>
<path d="M178.862 277H480.142C486.138 277 491 272.135 491 266.133C491 260.132 486.138 255.267 480.142 255.267H462.005C462.254 253.957 462.397 252.605 462.397 251.22C462.397 239.728 453.083 230.412 441.601 230.412C435.605 230.412 430.208 232.952 426.407 237.012C424.471 224.365 413.551 214.678 400.365 214.678C399.66 214.678 398.955 214.715 398.25 214.771C397.456 183.834 372.137 159 341.02 159C317.68 159 297.604 172.975 288.691 193.015C281.931 188.614 273.868 186.047 265.202 186.047C241.759 186.047 222.698 204.761 222.1 228.07C211.431 228.956 203.045 237.895 203.045 248.799C203.045 248.92 203.049 249.039 203.053 249.159C203.056 249.224 203.058 249.29 203.059 249.355C202.066 249.116 201.036 248.976 199.971 248.976C195.222 248.976 191.074 251.497 188.755 255.267H178.862C177.906 255.267 176.978 255.391 176.095 255.623C171.436 256.847 168 261.089 168 266.133C168 268.406 168.697 270.516 169.89 272.26C171.846 275.121 175.135 277 178.862 277Z" fill="#FCFCE4"/>
<path d="M1338.4 650H207.733C202.357 650 198 654.357 198 659.733C198 665.108 202.357 669.465 207.733 669.465H914.227C919.219 669.465 923.265 673.511 923.265 678.503C923.265 683.494 919.219 687.54 914.227 687.54H804.701C796.063 687.54 789.06 694.543 789.06 703.182C789.06 711.82 796.063 718.824 804.701 718.824H833.565C838.556 718.824 842.603 722.87 842.603 727.861C842.603 732.852 838.556 736.898 833.565 736.898H647.735C636.689 736.898 627.735 745.853 627.735 756.898V760C627.735 771.046 636.689 780 647.735 780H958.894C969.94 780 978.894 771.046 978.894 760V756.898C978.894 745.853 969.94 736.898 958.894 736.898H926.044C921.053 736.898 917.007 732.852 917.007 727.861C917.007 722.87 921.053 718.824 926.044 718.824H1442.36C1451 718.824 1458 711.82 1458 703.182C1458 694.543 1451 687.54 1442.36 687.54H1207.67C1202.68 687.54 1198.63 683.494 1198.63 678.503C1198.63 673.511 1202.68 669.465 1207.67 669.465H1338.4C1343.78 669.465 1348.13 665.108 1348.13 659.733C1348.13 654.357 1343.78 650 1338.4 650Z" fill="url(#paint2_linear_8_254)"/>
<path d="M263 828C263 823.029 267.029 819 272 819H558C562.971 819 567 823.029 567 828C567 832.971 562.971 837 558 837H272C267.029 837 263 832.971 263 828Z" fill="#76E0E2"/>
<defs>
<linearGradient id="paint0_linear_8_254" x1="800" y1="0" x2="800" y2="900" gradientUnits="userSpaceOnUse">
<stop stop-color="#2A61F4"/>
<stop offset="0.583333" stop-color="#A0CDF5"/>
</linearGradient>
<linearGradient id="paint1_linear_8_254" x1="800" y1="575" x2="800" y2="900" gradientUnits="userSpaceOnUse">
<stop stop-color="#5189F4"/>
<stop offset="1" stop-color="#6BE4DB"/>
</linearGradient>
<linearGradient id="paint2_linear_8_254" x1="828" y1="650" x2="828" y2="780" gradientUnits="userSpaceOnUse">
<stop stop-color="#70B1EF"/>
<stop offset="1" stop-color="#70D2E1"/>
</linearGradient>
</defs>
</svg>
