<svg width="1600" height="900" viewBox="0 0 1600 900" fill="none" xmlns="http://www.w3.org/2000/svg">
<rect width="1600" height="900" fill="url(#paint0_linear_12_191)"/>
<path d="M0 649H1600V900H0V649Z" fill="url(#paint1_linear_12_191)"/>
<circle cx="1113" cy="181" r="96" fill="#FCEA9E"/>
<circle opacity="0.3" cx="1113" cy="181" r="155" fill="#FCEA9E"/>
<path opacity="0.1" d="M1382 181C1382 329.565 1261.56 450 1113 450C964.435 450 844 329.565 844 181C844 111.297 870.511 47.7859 914 7.55787e-05C914 7.55787e-05 1036.64 0 1115.5 0C1194.36 0 1312 7.55787e-05 1312 7.55787e-05C1355.49 47.7859 1382 111.297 1382 181Z" fill="#FCEA9E"/>
<path d="M178.862 277H480.142C486.138 277 491 272.135 491 266.133C491 260.132 486.138 255.267 480.142 255.267H462.005C462.254 253.957 462.397 252.605 462.397 251.22C462.397 239.728 453.083 230.412 441.601 230.412C435.605 230.412 430.208 232.952 426.407 237.012C424.471 224.365 413.551 214.678 400.365 214.678C399.66 214.678 398.955 214.715 398.25 214.771C397.456 183.834 372.137 159 341.02 159C317.68 159 297.604 172.975 288.691 193.015C281.931 188.614 273.868 186.047 265.202 186.047C241.759 186.047 222.698 204.761 222.1 228.07C211.431 228.956 203.045 237.895 203.045 248.799C203.045 248.92 203.049 249.039 203.053 249.159C203.056 249.224 203.058 249.29 203.059 249.355C202.066 249.116 201.036 248.976 199.971 248.976C195.222 248.976 191.074 251.497 188.755 255.267H178.862C177.906 255.267 176.978 255.391 176.095 255.623C171.436 256.847 168 261.089 168 266.133C168 268.406 168.697 270.516 169.89 272.26C171.846 275.121 175.135 277 178.862 277Z" fill="#FCFCE4"/>
<path d="M1338.4 680H207.733C202.357 680 198 684.357 198 689.733C198 695.108 202.357 699.465 207.733 699.465H914.227C919.219 699.465 923.265 703.511 923.265 708.503C923.265 713.494 919.219 717.54 914.227 717.54H804.701C796.063 717.54 789.06 724.543 789.06 733.182C789.06 741.82 796.063 748.824 804.701 748.824H833.565C838.556 748.824 842.603 752.87 842.603 757.861C842.603 762.852 838.556 766.898 833.565 766.898H647.735C636.689 766.898 627.735 775.853 627.735 786.898V790C627.735 801.046 636.689 810 647.735 810H958.894C969.94 810 978.894 801.046 978.894 790V786.898C978.894 775.853 969.94 766.898 958.894 766.898H926.044C921.053 766.898 917.007 762.852 917.007 757.861C917.007 752.87 921.053 748.824 926.044 748.824H1442.36C1451 748.824 1458 741.82 1458 733.182C1458 724.543 1451 717.54 1442.36 717.54H1207.67C1202.68 717.54 1198.63 713.494 1198.63 708.503C1198.63 703.511 1202.68 699.465 1207.67 699.465H1338.4C1343.78 699.465 1348.13 695.108 1348.13 689.733C1348.13 684.357 1343.78 680 1338.4 680Z" fill="url(#paint2_linear_12_191)"/>
<path d="M263 828C263 823.029 267.029 819 272 819H558C562.971 819 567 823.029 567 828C567 832.971 562.971 837 558 837H272C267.029 837 263 832.971 263 828Z" fill="#76E0E2"/>
<path d="M1033.2 488.533C1033.99 485.38 1031.6 482.329 1028.35 482.329H847.383C844.622 482.329 842.383 484.568 842.383 487.329V507.405C842.383 510.166 840.145 512.405 837.383 512.405H535.912C532.054 512.405 529.65 516.589 531.592 519.922L605.342 646.517C606.238 648.054 607.883 649 609.662 649H989.479C991.776 649 993.778 647.434 994.332 645.204L1033.2 488.533Z" fill="#9F805A"/>
<path d="M929.39 381.048C929.735 379.928 930.463 378.966 931.446 378.328L1017.05 322.775C1020.24 320.703 1024.48 322.816 1024.76 326.612L1034.36 460.681C1034.57 463.575 1032.28 466.038 1029.37 466.038H909.938C906.572 466.038 904.168 462.78 905.16 459.564L929.39 381.048Z" fill="#F6F6F6"/>
<path d="M929.39 381.048C929.735 379.928 930.463 378.966 931.446 378.328L1017.05 322.775C1020.24 320.703 1024.48 322.816 1024.76 326.612L1034.36 460.681C1034.57 463.575 1032.28 466.038 1029.37 466.038H909.938C906.572 466.038 904.168 462.78 905.16 459.564L929.39 381.048Z" fill="#F6F6F6"/>
<path d="M757.61 197.84C758.184 195.638 760.173 194.101 762.449 194.101H876.697C879.361 194.101 881.557 196.19 881.691 198.85L887.86 321.686C888.004 324.542 885.727 326.937 882.867 326.937H730.43C727.156 326.937 724.766 323.843 725.592 320.676L757.61 197.84Z" fill="#F6F6F6"/>
<path d="M757.61 197.84C758.184 195.638 760.173 194.101 762.449 194.101H876.697C879.361 194.101 881.557 196.19 881.691 198.85L887.86 321.686C888.004 324.542 885.727 326.937 882.867 326.937H730.43C727.156 326.937 724.766 323.843 725.592 320.676L757.61 197.84Z" fill="#F6F6F6"/>
<path d="M806.668 158.045C806.668 156.032 804.724 154.59 802.797 155.175L795.592 157.361C793.699 157.935 791.679 157.935 789.786 157.361L781.655 154.894C779.736 154.311 777.687 154.319 775.772 154.917L768.099 157.312C766.159 157.917 764.08 157.917 762.14 157.312L755.422 155.215C753.491 154.612 751.529 156.056 751.529 158.079V173.901C751.529 175.333 752.54 176.565 753.944 176.844L763.198 178.682C764.467 178.934 765.772 178.937 767.042 178.692L777.175 176.735C778.445 176.49 779.751 176.494 781.019 176.746L790.768 178.682C792.037 178.934 793.342 178.937 794.612 178.692L804.237 176.834C805.648 176.561 806.668 175.326 806.668 173.888V158.045Z" fill="#B54028"/>
<path d="M641.25 175.59C641.25 173.576 639.306 172.134 637.379 172.719L630.175 174.905C628.282 175.479 626.261 175.479 624.368 174.905L616.237 172.438C614.319 171.856 612.269 171.864 610.355 172.461L602.681 174.856C600.741 175.461 598.663 175.461 596.723 174.856L590.005 172.76C588.073 172.157 586.111 173.6 586.111 175.623V191.446C586.111 192.877 587.123 194.109 588.527 194.388L597.781 196.226C599.05 196.478 600.355 196.482 601.625 196.236L611.758 194.28C613.028 194.035 614.333 194.038 615.602 194.29L625.351 196.226C626.619 196.478 627.925 196.482 629.194 196.236L638.819 194.378C640.231 194.105 641.25 192.87 641.25 191.432V175.59Z" fill="#B54028"/>
<path d="M750.35 338.186C750.927 335.988 752.914 334.456 755.186 334.456H870.382C873.045 334.456 875.241 336.543 875.375 339.203L881.592 462.038C881.736 464.895 879.459 467.291 876.598 467.291H722.923C719.645 467.291 717.254 464.191 718.087 461.021L750.35 338.186Z" fill="#F6F6F6"/>
<path d="M750.35 338.186C750.927 335.988 752.914 334.456 755.186 334.456H870.382C873.045 334.456 875.241 336.543 875.375 339.203L881.592 462.038C881.736 464.895 879.459 467.291 876.598 467.291H722.923C719.645 467.291 717.254 464.191 718.087 461.021L750.35 338.186Z" fill="#F6F6F6"/>
<path d="M575.444 215.391C576.016 213.185 578.006 211.646 580.284 211.646H697.34C700.005 211.646 702.201 213.735 702.334 216.396L708.659 342.991C708.802 345.847 706.524 348.241 703.665 348.241H547.459C544.188 348.241 541.798 345.152 542.619 341.986L575.444 215.391Z" fill="#F6F6F6"/>
<path d="M575.444 215.391C576.016 213.185 578.006 211.646 580.284 211.646H697.34C700.005 211.646 702.201 213.735 702.334 216.396L708.659 342.991C708.802 345.847 706.524 348.241 703.665 348.241H547.459C544.188 348.241 541.798 345.152 542.619 341.986L575.444 215.391Z" fill="#F6F6F6"/>
<path d="M575.444 215.391C576.016 213.185 578.006 211.646 580.284 211.646H697.34C700.005 211.646 702.201 213.735 702.334 216.396L708.659 342.991C708.802 345.847 706.524 348.241 703.665 348.241H547.459C544.188 348.241 541.798 345.152 542.619 341.986L575.444 215.391Z" fill="#F6F6F6"/>
<path d="M575.444 215.391C576.016 213.185 578.006 211.646 580.284 211.646H697.34C700.005 211.646 702.201 213.735 702.334 216.396L708.659 342.991C708.802 345.847 706.524 348.241 703.665 348.241H547.459C544.188 348.241 541.798 345.152 542.619 341.986L575.444 215.391Z" fill="#F6F6F6"/>
<path d="M568.604 367.235C569.096 364.928 571.135 363.278 573.494 363.278H704.614C707.991 363.278 710.397 366.557 709.383 369.779L679.807 463.792C679.152 465.874 677.221 467.291 675.038 467.291H553.443C550.261 467.291 547.889 464.359 548.553 461.248L568.604 367.235Z" fill="#F6F6F6"/>
<path d="M568.604 367.235C569.096 364.928 571.135 363.278 573.494 363.278H704.614C707.991 363.278 710.397 366.557 709.383 369.779L679.807 463.792C679.152 465.874 677.221 467.291 675.038 467.291H553.443C550.261 467.291 547.889 464.359 548.553 461.248L568.604 367.235Z" fill="#F6F6F6"/>
<path d="M568.604 367.235C569.096 364.928 571.135 363.278 573.494 363.278H704.614C707.991 363.278 710.397 366.557 709.383 369.779L679.807 463.792C679.152 465.874 677.221 467.291 675.038 467.291H553.443C550.261 467.291 547.889 464.359 548.553 461.248L568.604 367.235Z" fill="#F6F6F6"/>
<path d="M568.604 367.235C569.096 364.928 571.135 363.278 573.494 363.278H704.614C707.991 363.278 710.397 366.557 709.383 369.779L679.807 463.792C679.152 465.874 677.221 467.291 675.038 467.291H553.443C550.261 467.291 547.889 464.359 548.553 461.248L568.604 367.235Z" fill="#F6F6F6"/>
<path d="M528.747 276.557C532.137 272.53 538.647 275.802 537.439 280.925L502.12 430.708C501.354 433.958 497.678 435.558 494.777 433.905L433.427 398.938C430.714 397.391 430.067 393.763 432.079 391.374L528.747 276.557Z" fill="#F6F6F6"/>
<path d="M413.224 448.728C410.891 447.351 410.116 444.344 411.493 442.011C412.869 439.678 415.876 438.903 418.209 440.279L560.583 524.293C562.916 525.67 563.691 528.677 562.315 531.01C560.938 533.343 557.931 534.118 555.598 532.741L413.224 448.728Z" fill="#9F805A"/>
<path d="M1012.37 572.495C1013.15 569.341 1010.76 566.291 1007.51 566.291H567.309C563.451 566.291 561.047 570.475 562.989 573.808L605.342 646.517C606.237 648.054 607.883 649 609.662 649H989.478C991.776 649 993.778 647.434 994.331 645.204L1012.37 572.495Z" fill="#765127"/>
<rect width="18.7975" height="18.7975" rx="5" transform="matrix(-1 0 0 1 993.39 498.62)" fill="#090302"/>
<rect width="18.7975" height="18.7975" rx="5" transform="matrix(-1 0 0 1 943.263 498.62)" fill="#090302"/>
<rect width="18.7975" height="18.7975" rx="5" transform="matrix(-1 0 0 1 893.137 498.62)" fill="#090302"/>
<defs>
<linearGradient id="paint0_linear_12_191" x1="800" y1="0" x2="800" y2="900" gradientUnits="userSpaceOnUse">
<stop stop-color="#2A61F4"/>
<stop offset="0.583333" stop-color="#A0CDF5"/>
</linearGradient>
<linearGradient id="paint1_linear_12_191" x1="800" y1="649" x2="800" y2="900" gradientUnits="userSpaceOnUse">
<stop stop-color="#5189F4"/>
<stop offset="1" stop-color="#6BE4DB"/>
</linearGradient>
<linearGradient id="paint2_linear_12_191" x1="828" y1="680" x2="828" y2="810" gradientUnits="userSpaceOnUse">
<stop stop-color="#70B1EF"/>
<stop offset="1" stop-color="#70D2E1"/>
</linearGradient>
</defs>
</svg>
