<svg width="1600" height="901" viewBox="0 0 1600 901" fill="none" xmlns="http://www.w3.org/2000/svg">
<rect y="1" width="1600" height="900" fill="url(#paint0_linear_1370_10167)"/>
<path d="M0 650H1600V901H0V650Z" fill="url(#paint1_linear_1370_10167)"/>
<circle cx="407" cy="182" r="96" fill="#FCEA9E"/>
<circle opacity="0.3" cx="407" cy="182" r="155" fill="#FCEA9E"/>
<path opacity="0.1" d="M676 182C676 330.565 555.565 451 407 451C258.435 451 138 330.565 138 182C138 112.297 164.511 48.7859 208 1.00008C208 1.00008 330.638 1 409.5 1C488.362 1 606 1.00008 606 1.00008C649.489 48.7859 676 112.297 676 182Z" fill="#FCEA9E"/>
<path d="M1091.86 278H1393.14C1399.14 278 1404 273.135 1404 267.133C1404 261.132 1399.14 256.267 1393.14 256.267H1375C1375.25 254.957 1375.4 253.605 1375.4 252.22C1375.4 240.728 1366.08 231.412 1354.6 231.412C1348.61 231.412 1343.21 233.952 1339.41 238.012C1337.47 225.365 1326.55 215.678 1313.36 215.678C1312.66 215.678 1311.96 215.715 1311.25 215.771C1310.46 184.834 1285.14 160 1254.02 160C1230.68 160 1210.6 173.975 1201.69 194.015C1194.93 189.614 1186.87 187.047 1178.2 187.047C1154.76 187.047 1135.7 205.761 1135.1 229.07C1124.43 229.956 1116.05 238.895 1116.05 249.799C1116.05 249.92 1116.05 250.039 1116.05 250.159C1116.06 250.224 1116.06 250.29 1116.06 250.355C1115.07 250.116 1114.04 249.976 1112.97 249.976C1108.22 249.976 1104.07 252.497 1101.76 256.267H1091.86C1090.91 256.267 1089.98 256.391 1089.09 256.623C1084.44 257.847 1081 262.089 1081 267.133C1081 269.406 1081.7 271.516 1082.89 273.26C1084.85 276.121 1088.13 278 1091.86 278Z" fill="#FCFCE4"/>
<path d="M1338.4 681H207.733C202.357 681 198 685.357 198 690.733C198 696.108 202.357 700.465 207.733 700.465H914.227C919.219 700.465 923.265 704.511 923.265 709.503C923.265 714.494 919.219 718.54 914.227 718.54H804.701C796.063 718.54 789.06 725.543 789.06 734.182C789.06 742.82 796.063 749.824 804.701 749.824H833.565C838.556 749.824 842.603 753.87 842.603 758.861C842.603 763.852 838.556 767.898 833.565 767.898H647.735C636.689 767.898 627.735 776.853 627.735 787.898V791C627.735 802.046 636.689 811 647.735 811H958.894C969.94 811 978.894 802.046 978.894 791V787.898C978.894 776.853 969.94 767.898 958.894 767.898H926.044C921.053 767.898 917.007 763.852 917.007 758.861C917.007 753.87 921.053 749.824 926.044 749.824H1442.36C1451 749.824 1458 742.82 1458 734.182C1458 725.543 1451 718.54 1442.36 718.54H1207.67C1202.68 718.54 1198.63 714.494 1198.63 709.503C1198.63 704.511 1202.68 700.465 1207.67 700.465H1338.4C1343.78 700.465 1348.13 696.108 1348.13 690.733C1348.13 685.357 1343.78 681 1338.4 681Z" fill="url(#paint2_linear_1370_10167)"/>
<path d="M263 829C263 824.029 267.029 820 272 820H558C562.971 820 567 824.029 567 829C567 833.971 562.971 838 558 838H272C267.029 838 263 833.971 263 829Z" fill="#76E0E2"/>
<path d="M517 520.704H858.875V496C858.875 487.716 865.591 481 873.875 481H893.062H927.25H1045.09C1054.75 481 1061.9 490.004 1059.7 499.414L1027.21 638.414C1025.62 645.2 1019.57 650 1012.6 650H605.831C600.65 650 595.835 647.326 593.097 642.928L517 520.704Z" fill="#A78966"/>
<path fill-rule="evenodd" clip-rule="evenodd" d="M790 650V520.704H858.875V496C858.875 487.716 865.591 481 873.875 481H893.062H927.25H1045.09C1054.75 481 1061.9 490.004 1059.7 499.414L1027.21 638.414C1025.62 645.2 1019.57 650 1012.6 650H790Z" fill="#997A60"/>
<path fill-rule="evenodd" clip-rule="evenodd" d="M1039.22 587L1027.21 638.414C1025.62 645.2 1019.57 650 1012.6 650H605.83C600.649 650 595.835 647.326 593.096 642.928L558.275 587H1039.22Z" fill="#997A60"/>
<path fill-rule="evenodd" clip-rule="evenodd" d="M790 650V587H1039.22L1027.21 638.414C1025.62 645.2 1019.57 650 1012.6 650H790Z" fill="#816952"/>
<path d="M960 395.882C960 390.621 962.756 385.744 967.264 383.031L1039.26 339.687C1049.26 333.669 1062 340.869 1062 352.538V451C1062 459.284 1055.28 466 1047 466H975C966.716 466 960 459.284 960 451V395.882Z" fill="#EDF0FD"/>
<path d="M810.429 349.411C811.687 342.235 817.919 337 825.204 337H930C938.284 337 945 343.716 945 352V451C945 459.284 938.284 466 930 466H807.857C798.537 466 791.474 457.591 793.082 448.411L810.429 349.411Z" fill="#EDF0FD"/>
<path d="M812.149 210.088C813.54 203.062 819.702 198 826.864 198L930 198C938.284 198 945 204.716 945 213V307C945 315.284 938.284 322 930 322H808.26C798.806 322 791.71 313.361 793.545 304.088L812.149 210.088Z" fill="#EDF0FD"/>
<path d="M607.298 387.286C609.33 381.146 615.07 377 621.538 377H760C768.284 377 775 383.716 775 392V491C775 499.284 768.284 506 760 506H588.766C578.541 506 571.312 495.993 574.526 486.286L607.298 387.286Z" fill="white"/>
<path d="M627.4 243.808C629.264 237.404 635.132 233 641.802 233H760C768.284 233 775 239.716 775 248V347C775 355.284 768.284 362 760 362H612.988C602.992 362 595.792 352.406 598.586 342.808L627.4 243.808Z" fill="white"/>
<path d="M526.705 350.092C535.822 339.658 553 346.106 553 359.962V473.831C553 484.171 542.783 491.41 533.028 487.983L456.898 461.235C446.887 457.718 443.593 445.203 450.575 437.213L526.705 350.092Z" fill="white"/>
<path d="M438.646 493.017C440.108 489.142 444.435 487.185 448.31 488.647L553.573 528.347L548.279 542.382L443.017 502.682C439.141 501.22 437.185 496.893 438.646 493.017Z" fill="#A78966"/>
<rect x="890" y="501" width="25" height="25" rx="12.5" fill="#616267"/>
<rect x="945" y="501" width="25" height="25" rx="12.5" fill="#616267"/>
<rect x="1000" y="501" width="25" height="25" rx="12.5" fill="#616267"/>
<path d="M868.139 156.583C868.139 154.569 866.195 153.127 864.268 153.712L857.064 155.898C855.171 156.472 853.15 156.472 851.257 155.898L843.126 153.431C841.207 152.849 839.158 152.857 837.244 153.454L829.57 155.849C827.63 156.454 825.551 156.454 823.611 155.849L816.894 153.752C814.962 153.15 813 154.593 813 156.616V172.439C813 173.87 814.011 175.102 815.416 175.381L824.67 177.219C825.938 177.471 827.244 177.474 828.514 177.229L838.647 175.273C839.917 175.028 841.222 175.031 842.491 175.283L852.239 177.219C853.508 177.471 854.813 177.474 856.083 177.229L865.708 175.371C867.119 175.098 868.139 173.863 868.139 172.425V156.583Z" fill="#9D311B"/>
<path d="M739.139 189.583C739.139 187.569 737.195 186.127 735.268 186.712L728.064 188.898C726.171 189.472 724.15 189.472 722.257 188.898L714.126 186.431C712.207 185.849 710.158 185.857 708.244 186.454L700.57 188.849C698.63 189.454 696.551 189.454 694.611 188.849L687.894 186.752C685.962 186.15 684 187.593 684 189.616V205.439C684 206.87 685.011 208.102 686.416 208.381L695.67 210.219C696.938 210.471 698.244 210.474 699.514 210.229L709.647 208.273C710.917 208.028 712.222 208.031 713.491 208.283L723.239 210.219C724.508 210.471 725.813 210.474 727.083 210.229L736.708 208.371C738.119 208.098 739.139 206.863 739.139 205.425V189.583Z" fill="#B54028"/>
<defs>
<linearGradient id="paint0_linear_1370_10167" x1="800" y1="1" x2="800" y2="901" gradientUnits="userSpaceOnUse">
<stop stop-color="#2A61F4"/>
<stop offset="0.583333" stop-color="#A0CDF5"/>
</linearGradient>
<linearGradient id="paint1_linear_1370_10167" x1="800" y1="650" x2="800" y2="901" gradientUnits="userSpaceOnUse">
<stop stop-color="#5189F4"/>
<stop offset="1" stop-color="#6BE4DB"/>
</linearGradient>
<linearGradient id="paint2_linear_1370_10167" x1="828" y1="681" x2="828" y2="811" gradientUnits="userSpaceOnUse">
<stop stop-color="#70B1EF"/>
<stop offset="1" stop-color="#70D2E1"/>
</linearGradient>
</defs>
</svg>
