<svg width="1600" height="901" viewBox="0 0 1600 901" fill="none" xmlns="http://www.w3.org/2000/svg">
<rect y="1" width="1600" height="900" fill="url(#paint0_linear_1370_10208)"/>
<path d="M0 650H1600V901H0V650Z" fill="url(#paint1_linear_1370_10208)"/>
<circle cx="407" cy="182" r="96" fill="#FCEA9E"/>
<circle opacity="0.3" cx="407" cy="182" r="155" fill="#FCEA9E"/>
<path opacity="0.1" d="M676 182C676 330.565 555.565 451 407 451C258.435 451 138 330.565 138 182C138 112.297 164.511 48.7859 208 1.00008C208 1.00008 330.638 1 409.5 1C488.362 1 606 1.00008 606 1.00008C649.489 48.7859 676 112.297 676 182Z" fill="#FCEA9E"/>
<path d="M1091.86 278H1393.14C1399.14 278 1404 273.135 1404 267.133C1404 261.132 1399.14 256.267 1393.14 256.267H1375C1375.25 254.957 1375.4 253.605 1375.4 252.22C1375.4 240.728 1366.08 231.412 1354.6 231.412C1348.61 231.412 1343.21 233.952 1339.41 238.012C1337.47 225.365 1326.55 215.678 1313.36 215.678C1312.66 215.678 1311.96 215.715 1311.25 215.771C1310.46 184.834 1285.14 160 1254.02 160C1230.68 160 1210.6 173.975 1201.69 194.015C1194.93 189.614 1186.87 187.047 1178.2 187.047C1154.76 187.047 1135.7 205.761 1135.1 229.07C1124.43 229.956 1116.05 238.895 1116.05 249.799C1116.05 249.92 1116.05 250.039 1116.05 250.159C1116.06 250.224 1116.06 250.29 1116.06 250.355C1115.07 250.116 1114.04 249.976 1112.97 249.976C1108.22 249.976 1104.07 252.497 1101.76 256.267H1091.86C1090.91 256.267 1089.98 256.391 1089.09 256.623C1084.44 257.847 1081 262.089 1081 267.133C1081 269.406 1081.7 271.516 1082.89 273.26C1084.85 276.121 1088.13 278 1091.86 278Z" fill="#FCFCE4"/>
<path d="M1338.4 681H207.733C202.357 681 198 685.357 198 690.733C198 696.108 202.357 700.465 207.733 700.465H914.227C919.219 700.465 923.265 704.511 923.265 709.503C923.265 714.494 919.219 718.54 914.227 718.54H804.701C796.063 718.54 789.06 725.543 789.06 734.182C789.06 742.82 796.063 749.824 804.701 749.824H833.565C838.556 749.824 842.603 753.87 842.603 758.861C842.603 763.852 838.556 767.898 833.565 767.898H647.735C636.689 767.898 627.735 776.853 627.735 787.898V791C627.735 802.046 636.689 811 647.735 811H958.894C969.94 811 978.894 802.046 978.894 791V787.898C978.894 776.853 969.94 767.898 958.894 767.898H926.044C921.053 767.898 917.007 763.852 917.007 758.861C917.007 753.87 921.053 749.824 926.044 749.824H1442.36C1451 749.824 1458 742.82 1458 734.182C1458 725.543 1451 718.54 1442.36 718.54H1207.67C1202.68 718.54 1198.63 714.494 1198.63 709.503C1198.63 704.511 1202.68 700.465 1207.67 700.465H1338.4C1343.78 700.465 1348.13 696.108 1348.13 690.733C1348.13 685.357 1343.78 681 1338.4 681Z" fill="url(#paint2_linear_1370_10208)"/>
<path d="M263 829C263 824.029 267.029 820 272 820H558C562.971 820 567 824.029 567 829C567 833.971 562.971 838 558 838H272C267.029 838 263 833.971 263 829Z" fill="#76E0E2"/>
<path d="M461.525 580.826C453.104 571.113 460.003 556 472.858 556H1064.57C1074.08 556 1081.19 564.736 1079.26 574.047L1065.98 638.047C1064.54 645.009 1058.4 650 1051.29 650H528.348C523.998 650 519.863 648.112 517.014 644.826L461.525 580.826Z" fill="#957856"/>
<path fill-rule="evenodd" clip-rule="evenodd" d="M782 650V556H1064.57C1074.08 556 1081.19 564.736 1079.26 574.047L1065.98 638.047C1064.54 645.009 1058.4 650 1051.29 650H782Z" fill="#816952"/>
<rect x="570" y="562.606" width="15" height="160" rx="7.5" transform="rotate(-45 570 562.606)" fill="#616267"/>
<rect x="683" y="562.606" width="15" height="160" rx="7.5" transform="rotate(-45 683 562.606)" fill="#616267"/>
<rect x="796" y="562.606" width="15" height="160" rx="7.5" transform="rotate(-45 796 562.606)" fill="#616267"/>
<rect x="909" y="562.606" width="15" height="160" rx="7.5" transform="rotate(-45 909 562.606)" fill="#616267"/>
<path d="M843.832 216.642C851.273 203 872 208.285 872 223.825V518.5C872 526.784 865.284 533.5 857 533.5H696.268C684.882 533.5 677.648 521.313 683.1 511.317L843.832 216.642Z" fill="white"/>
<path fill-rule="evenodd" clip-rule="evenodd" d="M782 533.5V330L843.832 216.642C851.273 203 872 208.285 872 223.825V518.5C872 526.784 865.284 533.5 857 533.5H782Z" fill="#EDF0FD"/>
<path d="M627.826 293.74C635.261 280.087 656 285.368 656 300.913V519C656 527.284 649.284 534 641 534H522.247C510.866 534 503.631 521.822 509.074 511.827L627.826 293.74Z" fill="white"/>
<path d="M975.965 377.242C983.581 363.863 1004 369.269 1004 384.663V518.5C1004 526.784 997.284 533.5 989 533.5H912.801C901.294 533.5 894.072 521.078 899.766 511.078L975.965 377.242Z" fill="#EDF0FD"/>
<defs>
<linearGradient id="paint0_linear_1370_10208" x1="800" y1="1" x2="800" y2="901" gradientUnits="userSpaceOnUse">
<stop stop-color="#2A61F4"/>
<stop offset="0.583333" stop-color="#A0CDF5"/>
</linearGradient>
<linearGradient id="paint1_linear_1370_10208" x1="800" y1="650" x2="800" y2="901" gradientUnits="userSpaceOnUse">
<stop stop-color="#5189F4"/>
<stop offset="1" stop-color="#6BE4DB"/>
</linearGradient>
<linearGradient id="paint2_linear_1370_10208" x1="828" y1="681" x2="828" y2="811" gradientUnits="userSpaceOnUse">
<stop stop-color="#70B1EF"/>
<stop offset="1" stop-color="#70D2E1"/>
</linearGradient>
</defs>
</svg>
