<svg width="1600" height="900" viewBox="0 0 1600 900" fill="none" xmlns="http://www.w3.org/2000/svg">
<rect width="1600" height="900" fill="url(#paint0_linear_8_255)"/>
<path d="M0 649H1600V900H0V649Z" fill="url(#paint1_linear_8_255)"/>
<circle cx="1113" cy="181" r="96" fill="#FCEA9E"/>
<circle opacity="0.3" cx="1113" cy="181" r="155" fill="#FCEA9E"/>
<path opacity="0.1" d="M1382 181C1382 329.565 1261.56 450 1113 450C964.435 450 844 329.565 844 181C844 111.297 870.511 47.7859 914 7.55787e-05C914 7.55787e-05 1036.64 0 1115.5 0C1194.36 0 1312 7.55787e-05 1312 7.55787e-05C1355.49 47.7859 1382 111.297 1382 181Z" fill="#FCEA9E"/>
<path d="M178.862 277H480.142C486.138 277 491 272.135 491 266.133C491 260.132 486.138 255.267 480.142 255.267H462.005C462.254 253.957 462.397 252.605 462.397 251.22C462.397 239.728 453.083 230.412 441.601 230.412C435.605 230.412 430.208 232.952 426.407 237.012C424.471 224.365 413.551 214.678 400.365 214.678C399.66 214.678 398.955 214.715 398.25 214.771C397.456 183.834 372.137 159 341.02 159C317.68 159 297.604 172.975 288.691 193.015C281.931 188.614 273.868 186.047 265.202 186.047C241.759 186.047 222.698 204.761 222.1 228.07C211.431 228.956 203.045 237.895 203.045 248.799C203.045 248.92 203.049 249.039 203.053 249.159C203.056 249.224 203.058 249.29 203.059 249.355C202.066 249.116 201.036 248.976 199.971 248.976C195.222 248.976 191.074 251.497 188.755 255.267H178.862C177.906 255.267 176.978 255.391 176.095 255.623C171.436 256.847 168 261.089 168 266.133C168 268.406 168.697 270.516 169.89 272.26C171.846 275.121 175.135 277 178.862 277Z" fill="#FCFCE4"/>
<path d="M1338.4 680H207.733C202.357 680 198 684.357 198 689.733C198 695.108 202.357 699.465 207.733 699.465H914.227C919.219 699.465 923.265 703.511 923.265 708.503C923.265 713.494 919.219 717.54 914.227 717.54H804.701C796.063 717.54 789.06 724.543 789.06 733.182C789.06 741.82 796.063 748.824 804.701 748.824H833.565C838.556 748.824 842.603 752.87 842.603 757.861C842.603 762.852 838.556 766.898 833.565 766.898H647.735C636.689 766.898 627.735 775.853 627.735 786.898V790C627.735 801.046 636.689 810 647.735 810H958.894C969.94 810 978.894 801.046 978.894 790V786.898C978.894 775.853 969.94 766.898 958.894 766.898H926.044C921.053 766.898 917.007 762.852 917.007 757.861C917.007 752.87 921.053 748.824 926.044 748.824H1442.36C1451 748.824 1458 741.82 1458 733.182C1458 724.543 1451 717.54 1442.36 717.54H1207.67C1202.68 717.54 1198.63 713.494 1198.63 708.503C1198.63 703.511 1202.68 699.465 1207.67 699.465H1338.4C1343.78 699.465 1348.13 695.108 1348.13 689.733C1348.13 684.357 1343.78 680 1338.4 680Z" fill="url(#paint2_linear_8_255)"/>
<path d="M263 828C263 823.029 267.029 819 272 819H558C562.971 819 567 823.029 567 828C567 832.971 562.971 837 558 837H272C267.029 837 263 832.971 263 828Z" fill="#76E0E2"/>
<path d="M529.882 563.621C530.375 560.972 532.879 559.19 535.543 559.592L603.326 569.813C606.325 570.265 608.234 573.263 607.376 576.172L604.387 586.301C603.616 588.911 600.899 590.426 598.274 589.709L533.01 571.882C530.501 571.196 528.936 568.701 529.412 566.143L529.882 563.621Z" fill="#252823"/>
<circle cx="576.5" cy="580.5" r="17.5" fill="#A67029"/>
<path d="M496.17 594.326C494.303 590.993 496.712 586.882 500.532 586.882H1062.19C1065.25 586.882 1067.59 589.603 1067.13 592.627L1059.31 644.594C1058.94 647.041 1056.84 648.85 1054.36 648.85H529.647C527.837 648.85 526.169 647.872 525.285 646.293L496.17 594.326Z" fill="#B54028"/>
<path d="M863.219 190.889C865.952 186.751 872.392 188.686 872.392 193.644V569.936C872.392 572.698 870.153 574.936 867.392 574.936H618.883C614.9 574.936 612.516 570.505 614.711 567.181L863.219 190.889Z" fill="#F6F6F6"/>
<path d="M1015.52 411.153C1018.25 407.013 1024.7 408.947 1024.7 413.906V569.936C1024.7 572.698 1022.46 574.936 1019.7 574.936H916.77C912.787 574.936 910.403 570.508 912.596 567.183L1015.52 411.153Z" fill="#F6F6F6"/>
<rect x="590.178" y="586.531" width="7.46598" height="104.524" rx="3.73299" transform="rotate(-30.3886 590.178 586.531)" fill="#5C4736"/>
<rect x="717.099" y="586.531" width="7.46598" height="104.524" rx="3.73299" transform="rotate(-30.3886 717.099 586.531)" fill="#5C4736"/>
<rect x="836.555" y="586.531" width="7.46598" height="104.524" rx="3.73299" transform="rotate(-30.3886 836.555 586.531)" fill="#5C4736"/>
<rect x="956.01" y="586.531" width="7.46598" height="104.524" rx="3.73299" transform="rotate(-30.3886 956.01 586.531)" fill="#5C4736"/>
<path d="M800 154.054C800 152.038 801.949 150.595 803.877 151.185L815.078 154.607C816.982 155.189 819.018 155.189 820.922 154.607L833.036 150.906C834.967 150.316 837.031 150.324 838.957 150.929L850.502 154.558C852.454 155.171 854.546 155.171 856.498 154.558L867.101 151.226C869.033 150.618 871 152.062 871 154.088V176.541C871 177.971 869.991 179.202 868.588 179.482L855.434 182.113C854.157 182.369 852.842 182.372 851.564 182.124L837.436 179.376C836.158 179.128 834.843 179.131 833.566 179.387L819.934 182.113C818.657 182.369 817.342 182.372 816.064 182.124L802.427 179.472C801.018 179.198 800 177.963 800 176.527V154.054Z" fill="#B54028"/>
<defs>
<linearGradient id="paint0_linear_8_255" x1="800" y1="0" x2="800" y2="900" gradientUnits="userSpaceOnUse">
<stop stop-color="#2A61F4"/>
<stop offset="0.583333" stop-color="#A0CDF5"/>
</linearGradient>
<linearGradient id="paint1_linear_8_255" x1="800" y1="649" x2="800" y2="900" gradientUnits="userSpaceOnUse">
<stop stop-color="#5189F4"/>
<stop offset="1" stop-color="#6BE4DB"/>
</linearGradient>
<linearGradient id="paint2_linear_8_255" x1="828" y1="680" x2="828" y2="810" gradientUnits="userSpaceOnUse">
<stop stop-color="#70B1EF"/>
<stop offset="1" stop-color="#70D2E1"/>
</linearGradient>
</defs>
</svg>
