<svg width="1600" height="900" viewBox="0 0 1600 900" fill="none" xmlns="http://www.w3.org/2000/svg">
<rect y="3.05176e-05" width="1600" height="900" fill="url(#paint0_linear_8_315)"/>
<path d="M0 649H1600V900H0V649Z" fill="url(#paint1_linear_8_315)"/>
<circle cx="1113" cy="181" r="96" fill="#FCEA9E"/>
<circle opacity="0.3" cx="1113" cy="181" r="155" fill="#FCEA9E"/>
<path opacity="0.1" d="M1382 181C1382 329.565 1261.56 450 1113 450C964.435 450 844 329.565 844 181C844 111.297 870.511 47.7859 914 7.55787e-05C914 7.55787e-05 1036.64 0 1115.5 0C1194.36 0 1312 7.55787e-05 1312 7.55787e-05C1355.49 47.7859 1382 111.297 1382 181Z" fill="#FCEA9E"/>
<path d="M178.862 277H480.142C486.138 277 491 272.135 491 266.133C491 260.132 486.138 255.267 480.142 255.267H462.005C462.254 253.957 462.397 252.605 462.397 251.22C462.397 239.728 453.083 230.412 441.601 230.412C435.605 230.412 430.208 232.952 426.407 237.012C424.471 224.365 413.551 214.678 400.365 214.678C399.66 214.678 398.955 214.715 398.25 214.771C397.456 183.834 372.137 159 341.02 159C317.68 159 297.604 172.975 288.691 193.015C281.931 188.614 273.868 186.047 265.202 186.047C241.759 186.047 222.698 204.761 222.1 228.07C211.431 228.956 203.045 237.895 203.045 248.799C203.045 248.92 203.049 249.039 203.053 249.159C203.056 249.224 203.058 249.29 203.059 249.355C202.066 249.116 201.036 248.976 199.971 248.976C195.222 248.976 191.074 251.497 188.755 255.267H178.862C177.906 255.267 176.978 255.391 176.095 255.623C171.436 256.847 168 261.089 168 266.133C168 268.406 168.697 270.516 169.89 272.26C171.846 275.121 175.135 277 178.862 277Z" fill="#FCFCE4"/>
<path d="M1338.4 680H207.733C202.357 680 198 684.357 198 689.733C198 695.108 202.357 699.465 207.733 699.465H914.227C919.219 699.465 923.265 703.511 923.265 708.503C923.265 713.494 919.219 717.54 914.227 717.54H804.701C796.063 717.54 789.06 724.543 789.06 733.182C789.06 741.82 796.063 748.824 804.701 748.824H833.565C838.556 748.824 842.603 752.87 842.603 757.861C842.603 762.852 838.556 766.898 833.565 766.898H647.735C636.689 766.898 627.735 775.853 627.735 786.898V790C627.735 801.046 636.689 810 647.735 810H958.894C969.94 810 978.894 801.046 978.894 790V786.898C978.894 775.853 969.94 766.898 958.894 766.898H926.044C921.053 766.898 917.007 762.852 917.007 757.861C917.007 752.87 921.053 748.824 926.044 748.824H1442.36C1451 748.824 1458 741.82 1458 733.182C1458 724.543 1451 717.54 1442.36 717.54H1207.67C1202.68 717.54 1198.63 713.494 1198.63 708.503C1198.63 703.511 1202.68 699.465 1207.67 699.465H1338.4C1343.78 699.465 1348.13 695.108 1348.13 689.733C1348.13 684.357 1343.78 680 1338.4 680Z" fill="url(#paint2_linear_8_315)"/>
<path d="M263 828C263 823.029 267.029 819 272 819H558C562.971 819 567 823.029 567 828C567 832.971 562.971 837 558 837H272C267.029 837 263 832.971 263 828Z" fill="#76E0E2"/>
<path d="M475.149 539.056C473.027 535.728 475.418 531.368 479.365 531.368H1063.39C1066.47 531.368 1068.82 534.122 1068.33 537.16L1051.08 644.744C1050.69 647.169 1048.6 648.952 1046.14 648.952H547.947C546.239 648.952 544.649 648.08 543.731 646.64L475.149 539.056Z" fill="#835432"/>
<rect x="329" y="452.872" width="7.74853" height="185.965" rx="3.87426" transform="rotate(-59.4554 329 452.872)" fill="#252823"/>
<path d="M926.664 422.128C927.009 421.009 927.735 420.046 928.717 419.408L1029.18 354.069C1032.37 351.993 1036.62 354.106 1036.89 357.904L1048.17 515.658C1048.38 518.553 1046.09 521.015 1043.18 521.015H902.984C899.62 521.015 897.216 517.759 898.206 514.543L926.664 422.128Z" fill="#F6F6F6"/>
<path d="M926.664 422.128C927.009 421.009 927.735 420.046 928.717 419.408L1029.18 354.069C1032.37 351.993 1036.62 354.106 1036.89 357.904L1048.17 515.658C1048.38 518.553 1046.09 521.015 1043.18 521.015H902.984C899.62 521.015 897.216 517.759 898.206 514.543L926.664 422.128Z" fill="#F6F6F6"/>
<path d="M920.287 238.056C920.771 235.74 922.814 234.081 925.18 234.081H1018.08C1021.23 234.081 1023.59 236.95 1022.99 240.036L999.018 363.15C998.56 365.499 996.503 367.195 994.11 367.195H899.41C896.236 367.195 893.866 364.276 894.516 361.17L920.287 238.056Z" fill="#F6F6F6"/>
<path d="M920.287 238.056C920.771 235.74 922.814 234.081 925.18 234.081H1018.08C1021.23 234.081 1023.59 236.95 1022.99 240.036L999.018 363.15C998.56 365.499 996.503 367.195 994.11 367.195H899.41C896.236 367.195 893.866 364.276 894.516 361.17L920.287 238.056Z" fill="#F6F6F6"/>
<path d="M727.673 209.714C728.248 207.514 730.236 205.979 732.51 205.979H866.695C869.359 205.979 871.555 208.067 871.689 210.727L878.939 354.548C879.083 357.404 876.806 359.799 873.945 359.799H694.884C691.608 359.799 689.217 356.703 690.046 353.534L727.673 209.714Z" fill="#F6F6F6"/>
<path d="M727.673 209.714C728.248 207.514 730.236 205.979 732.51 205.979H866.695C869.359 205.979 871.555 208.067 871.689 210.727L878.939 354.548C879.083 357.404 876.806 359.799 873.945 359.799H694.884C691.608 359.799 689.217 356.703 690.046 353.534L727.673 209.714Z" fill="#F6F6F6"/>
<path d="M719.541 372.414C720.115 370.211 722.104 368.674 724.38 368.674H858.56C861.224 368.674 863.42 370.762 863.553 373.423L870.805 517.983C870.949 520.839 868.672 523.234 865.812 523.234H686.741C683.468 523.234 681.078 520.141 681.902 516.974L719.541 372.414Z" fill="#F6F6F6"/>
<path d="M719.541 372.414C720.115 370.211 722.104 368.674 724.38 368.674H858.56C861.224 368.674 863.42 370.762 863.553 373.423L870.805 517.983C870.949 520.839 868.672 523.234 865.812 523.234H686.741C683.468 523.234 681.078 520.141 681.902 516.974L719.541 372.414Z" fill="#F6F6F6"/>
<path d="M747.121 84.7451C747.693 82.5399 749.683 81 751.961 81H850.159C852.823 81 855.02 83.0894 855.153 85.7505L860.454 191.855C860.596 194.711 858.319 197.105 855.46 197.105H724.45C721.179 197.105 718.789 194.016 719.61 190.85L747.121 84.7451Z" fill="#F6F6F6"/>
<path d="M747.121 84.7451C747.693 82.5399 749.683 81 751.961 81H850.159C852.823 81 855.02 83.0894 855.153 85.7505L860.454 191.855C860.596 194.711 858.319 197.105 855.46 197.105H724.45C721.179 197.105 718.789 194.016 719.61 190.85L747.121 84.7451Z" fill="#F6F6F6"/>
<path d="M747.121 84.7451C747.693 82.5399 749.683 81 751.961 81H850.159C852.823 81 855.02 83.0894 855.153 85.7505L860.454 191.855C860.596 194.711 858.319 197.105 855.46 197.105H724.45C721.179 197.105 718.789 194.016 719.61 190.85L747.121 84.7451Z" fill="#F6F6F6"/>
<path d="M747.121 84.7451C747.693 82.5399 749.683 81 751.961 81H850.159C852.823 81 855.02 83.0894 855.153 85.7505L860.454 191.855C860.596 194.711 858.319 197.105 855.46 197.105H724.45C721.179 197.105 718.789 194.016 719.61 190.85L747.121 84.7451Z" fill="#F6F6F6"/>
<path d="M562.036 115.799C562.61 113.597 564.598 112.06 566.874 112.06H651.241C653.905 112.06 656.101 114.149 656.235 116.809L660.782 207.384C660.925 210.24 658.648 212.635 655.788 212.635H543.275C540.002 212.635 537.612 209.542 538.437 206.374L562.036 115.799Z" fill="#F6F6F6"/>
<path d="M562.036 115.799C562.61 113.597 564.598 112.06 566.874 112.06H651.241C653.905 112.06 656.101 114.149 656.235 116.809L660.782 207.384C660.925 210.24 658.648 212.635 655.788 212.635H543.275C540.002 212.635 537.612 209.542 538.437 206.374L562.036 115.799Z" fill="#F6F6F6"/>
<path d="M562.036 115.799C562.61 113.597 564.598 112.06 566.874 112.06H651.241C653.905 112.06 656.101 114.149 656.235 116.809L660.782 207.384C660.925 210.24 658.648 212.635 655.788 212.635H543.275C540.002 212.635 537.612 209.542 538.437 206.374L562.036 115.799Z" fill="#F6F6F6"/>
<path d="M562.036 115.799C562.61 113.597 564.598 112.06 566.874 112.06H651.241C653.905 112.06 656.101 114.149 656.235 116.809L660.782 207.384C660.925 210.24 658.648 212.635 655.788 212.635H543.275C540.002 212.635 537.612 209.542 538.437 206.374L562.036 115.799Z" fill="#F6F6F6"/>
<path d="M516.373 230.432C516.945 228.226 518.935 226.686 521.214 226.686H658.708C661.372 226.686 663.569 228.775 663.701 231.436L671.137 380.433C671.279 383.289 669.002 385.683 666.143 385.683H482.625C479.355 385.683 476.965 382.595 477.785 379.429L516.373 230.432Z" fill="#F6F6F6"/>
<path d="M516.373 230.432C516.945 228.226 518.935 226.686 521.214 226.686H658.708C661.372 226.686 663.569 228.775 663.701 231.436L671.137 380.433C671.279 383.289 669.002 385.683 666.143 385.683H482.625C479.355 385.683 476.965 382.595 477.785 379.429L516.373 230.432Z" fill="#F6F6F6"/>
<path d="M516.373 230.432C516.945 228.226 518.935 226.686 521.214 226.686H658.708C661.372 226.686 663.569 228.775 663.701 231.436L671.137 380.433C671.279 383.289 669.002 385.683 666.143 385.683H482.625C479.355 385.683 476.965 382.595 477.785 379.429L516.373 230.432Z" fill="#F6F6F6"/>
<path d="M516.373 230.432C516.945 228.226 518.935 226.686 521.214 226.686H658.708C661.372 226.686 663.569 228.775 663.701 231.436L671.137 380.433C671.279 383.289 669.002 385.683 666.143 385.683H482.625C479.355 385.683 476.965 382.595 477.785 379.429L516.373 230.432Z" fill="#F6F6F6"/>
<path d="M508.501 405.912C508.992 403.603 511.031 401.952 513.392 401.952H667.548C670.923 401.952 673.329 405.227 672.319 408.448L637.424 519.73C636.771 521.815 634.839 523.234 632.653 523.234H489.734C486.554 523.234 484.182 520.304 484.844 517.194L508.501 405.912Z" fill="#F6F6F6"/>
<path d="M508.501 405.912C508.992 403.603 511.031 401.952 513.392 401.952H667.548C670.923 401.952 673.329 405.227 672.319 408.448L637.424 519.73C636.771 521.815 634.839 523.234 632.653 523.234H489.734C486.554 523.234 484.182 520.304 484.844 517.194L508.501 405.912Z" fill="#F6F6F6"/>
<path d="M508.501 405.912C508.992 403.603 511.031 401.952 513.392 401.952H667.548C670.923 401.952 673.329 405.227 672.319 408.448L637.424 519.73C636.771 521.815 634.839 523.234 632.653 523.234H489.734C486.554 523.234 484.182 520.304 484.844 517.194L508.501 405.912Z" fill="#F6F6F6"/>
<path d="M508.501 405.912C508.992 403.603 511.031 401.952 513.392 401.952H667.548C670.923 401.952 673.329 405.227 672.319 408.448L637.424 519.73C636.771 521.815 634.839 523.234 632.653 523.234H489.734C486.554 523.234 484.182 520.304 484.844 517.194L508.501 405.912Z" fill="#F6F6F6"/>
<path d="M464.14 299.737C467.523 295.701 474.043 298.965 472.839 304.092L431.082 481.949C430.318 485.205 426.633 486.807 423.731 485.145L351.197 443.625C348.494 442.077 347.848 438.46 349.849 436.073L464.14 299.737Z" fill="#F6F6F6"/>
<path d="M474.479 539.078C472.334 535.75 474.723 531.368 478.682 531.368H1064.06C1067.16 531.368 1069.52 534.163 1068.99 537.219L1058.84 595.995C1058.43 598.392 1056.35 600.144 1053.91 600.144H516.577C514.878 600.144 513.295 599.281 512.375 597.853L474.479 539.078Z" fill="#252823"/>
<path d="M501.682 552.339C499.591 549.009 501.984 544.68 505.916 544.68H1046.43C1049.49 544.68 1051.83 547.409 1051.37 550.437L1046.44 582.59C1046.07 585.03 1043.97 586.832 1041.5 586.832H526.112C524.392 586.832 522.793 585.948 521.878 584.492L501.682 552.339Z" fill="#C4C4C4"/>
<rect x="567.865" y="555.772" width="19.2275" height="19.2275" rx="5" fill="#090302"/>
<rect x="621.851" y="555.772" width="19.9671" height="19.2275" rx="5" fill="#090302"/>
<rect x="676.575" y="555.772" width="19.2275" height="19.2275" rx="5" fill="#090302"/>
<rect x="730.56" y="555.772" width="19.2275" height="19.2275" rx="5" fill="#090302"/>
<rect x="784.545" y="555.772" width="19.9671" height="19.2275" rx="5" fill="#090302"/>
<rect x="839.27" y="555.772" width="19.2275" height="19.2275" rx="5" fill="#090302"/>
<rect x="893.255" y="555.772" width="19.2275" height="19.2275" rx="5" fill="#090302"/>
<rect x="947.239" y="555.772" width="19.9671" height="19.2275" rx="5" fill="#090302"/>
<rect x="1001.96" y="555.772" width="19.2275" height="19.2275" rx="5" fill="#090302"/>
<path d="M609 78.0634C609 76.0445 610.954 74.602 612.883 75.1964L619.239 77.1544C621.157 77.7455 623.209 77.7455 625.127 77.1544L632.38 74.92C634.324 74.321 636.405 74.3293 638.345 74.944L645.162 77.1043C647.128 77.7272 649.238 77.7272 651.204 77.1043L657.094 75.2379C659.028 74.6249 661 76.0688 661 78.0977V92.96C661 94.3882 659.993 95.6184 658.593 95.9008L650.132 97.6069C648.845 97.8664 647.52 97.87 646.232 97.6174L636.951 95.798C635.663 95.5454 634.338 95.549 633.051 95.8085L624.132 97.6069C622.845 97.8664 621.52 97.87 620.232 97.6174L611.423 95.8904C610.015 95.6144 609 94.3808 609 92.9464V78.0634Z" fill="#B54028"/>
<path d="M800 46.0634C800 44.0445 801.954 42.602 803.883 43.1964L810.239 45.1544C812.157 45.7455 814.209 45.7455 816.127 45.1544L823.38 42.92C825.324 42.321 827.405 42.3293 829.345 42.944L836.162 45.1043C838.128 45.7272 840.238 45.7272 842.204 45.1043L848.094 43.2379C850.028 42.6249 852 44.0688 852 46.0977V60.96C852 62.3882 850.993 63.6184 849.593 63.9008L841.132 65.6069C839.845 65.8664 838.52 65.87 837.232 65.6174L827.951 63.798C826.663 63.5454 825.338 63.549 824.051 63.8085L815.132 65.6069C813.845 65.8664 812.52 65.87 811.232 65.6174L802.423 63.8904C801.015 63.6144 800 62.3808 800 60.9464V46.0634Z" fill="#B54028"/>
<path d="M967 205.063C967 203.045 968.954 201.602 970.883 202.196L977.239 204.154C979.157 204.745 981.209 204.745 983.127 204.154L990.38 201.92C992.324 201.321 994.405 201.329 996.345 201.944L1003.16 204.104C1005.13 204.727 1007.24 204.727 1009.2 204.104L1015.09 202.238C1017.03 201.625 1019 203.069 1019 205.098V219.96C1019 221.388 1017.99 222.618 1016.59 222.901L1008.13 224.607C1006.85 224.866 1005.52 224.87 1004.23 224.617L994.951 222.798C993.663 222.545 992.338 222.549 991.051 222.808L982.132 224.607C980.845 224.866 979.52 224.87 978.232 224.617L969.423 222.89C968.015 222.614 967 221.381 967 219.946V205.063Z" fill="#B54028"/>
<defs>
<linearGradient id="paint0_linear_8_315" x1="800" y1="3.05176e-05" x2="800" y2="900" gradientUnits="userSpaceOnUse">
<stop stop-color="#2A61F4"/>
<stop offset="0.583333" stop-color="#A0CDF5"/>
</linearGradient>
<linearGradient id="paint1_linear_8_315" x1="800" y1="649" x2="800" y2="900" gradientUnits="userSpaceOnUse">
<stop stop-color="#5189F4"/>
<stop offset="1" stop-color="#6BE4DB"/>
</linearGradient>
<linearGradient id="paint2_linear_8_315" x1="828" y1="680" x2="828" y2="810" gradientUnits="userSpaceOnUse">
<stop stop-color="#70B1EF"/>
<stop offset="1" stop-color="#70D2E1"/>
</linearGradient>
</defs>
</svg>
