<svg width="1600" height="901" viewBox="0 0 1600 901" fill="none" xmlns="http://www.w3.org/2000/svg">
<rect y="1" width="1600" height="900" fill="url(#paint0_linear_1370_10244)"/>
<path d="M0 650H1600V901H0V650Z" fill="url(#paint1_linear_1370_10244)"/>
<circle cx="407" cy="182" r="96" fill="#FCEA9E"/>
<circle opacity="0.3" cx="407" cy="182" r="155" fill="#FCEA9E"/>
<path opacity="0.1" d="M676 182C676 330.565 555.565 451 407 451C258.435 451 138 330.565 138 182C138 112.297 164.511 48.7859 208 1.00008C208 1.00008 330.638 1 409.5 1C488.362 1 606 1.00008 606 1.00008C649.489 48.7859 676 112.297 676 182Z" fill="#FCEA9E"/>
<path d="M1091.86 278H1393.14C1399.14 278 1404 273.135 1404 267.133C1404 261.132 1399.14 256.267 1393.14 256.267H1375C1375.25 254.957 1375.4 253.605 1375.4 252.22C1375.4 240.728 1366.08 231.412 1354.6 231.412C1348.61 231.412 1343.21 233.952 1339.41 238.012C1337.47 225.365 1326.55 215.678 1313.36 215.678C1312.66 215.678 1311.96 215.715 1311.25 215.771C1310.46 184.834 1285.14 160 1254.02 160C1230.68 160 1210.6 173.975 1201.69 194.015C1194.93 189.614 1186.87 187.047 1178.2 187.047C1154.76 187.047 1135.7 205.761 1135.1 229.07C1124.43 229.956 1116.05 238.895 1116.05 249.799C1116.05 249.92 1116.05 250.039 1116.05 250.159C1116.06 250.224 1116.06 250.29 1116.06 250.355C1115.07 250.116 1114.04 249.976 1112.97 249.976C1108.22 249.976 1104.07 252.497 1101.76 256.267H1091.86C1090.91 256.267 1089.98 256.391 1089.09 256.623C1084.44 257.847 1081 262.089 1081 267.133C1081 269.406 1081.7 271.516 1082.89 273.26C1084.85 276.121 1088.13 278 1091.86 278Z" fill="#FCFCE4"/>
<path d="M1338.4 681H207.733C202.357 681 198 685.357 198 690.733C198 696.108 202.357 700.465 207.733 700.465H914.227C919.219 700.465 923.265 704.511 923.265 709.503C923.265 714.494 919.219 718.54 914.227 718.54H804.701C796.063 718.54 789.06 725.543 789.06 734.182C789.06 742.82 796.063 749.824 804.701 749.824H833.565C838.556 749.824 842.603 753.87 842.603 758.861C842.603 763.852 838.556 767.898 833.565 767.898H647.735C636.689 767.898 627.735 776.853 627.735 787.898V791C627.735 802.046 636.689 811 647.735 811H958.894C969.94 811 978.894 802.046 978.894 791V787.898C978.894 776.853 969.94 767.898 958.894 767.898H926.044C921.053 767.898 917.007 763.852 917.007 758.861C917.007 753.87 921.053 749.824 926.044 749.824H1442.36C1451 749.824 1458 742.82 1458 734.182C1458 725.543 1451 718.54 1442.36 718.54H1207.67C1202.68 718.54 1198.63 714.494 1198.63 709.503C1198.63 704.511 1202.68 700.465 1207.67 700.465H1338.4C1343.78 700.465 1348.13 696.108 1348.13 690.733C1348.13 685.357 1343.78 681 1338.4 681Z" fill="url(#paint2_linear_1370_10244)"/>
<path d="M263 829C263 824.029 267.029 820 272 820H558C562.971 820 567 824.029 567 829C567 833.971 562.971 838 558 838H272C267.029 838 263 833.971 263 829Z" fill="#76E0E2"/>
<path d="M541 521H1050.39C1059.96 521 1067.08 529.833 1065.05 539.182L1043.57 638.182C1042.07 645.079 1035.96 650 1028.91 650H632.185C627.084 650 622.332 647.407 619.571 643.116L541 521Z" fill="#A78966"/>
<path fill-rule="evenodd" clip-rule="evenodd" d="M1055.11 585L1043.57 638.182C1042.07 645.079 1035.96 650 1028.91 650H814V585H1055.11Z" fill="#816952"/>
<path fill-rule="evenodd" clip-rule="evenodd" d="M1053.81 591H586.039L541 521H1050.39C1059.96 521 1067.08 529.833 1065.05 539.182L1053.81 591Z" fill="#616267"/>
<path d="M583.819 555.78C577.755 545.783 584.951 533 596.643 533H1030.59C1040.1 533 1047.2 541.721 1045.29 551.027L1042.2 566.027C1040.76 572.998 1034.62 578 1027.5 578H605.743C600.5 578 595.637 575.262 592.918 570.78L583.819 555.78Z" fill="white"/>
<path fill-rule="evenodd" clip-rule="evenodd" d="M814 578V533H1030.59C1040.1 533 1047.2 541.721 1045.29 551.027L1042.2 566.027C1040.76 572.998 1034.62 578 1027.5 578H814Z" fill="#EDF0FD"/>
<path d="M984 435.882C984 430.621 986.756 425.744 991.264 423.031L1063.26 379.687C1073.26 373.669 1086 380.869 1086 392.538V491C1086 499.284 1079.28 506 1071 506H999C990.716 506 984 499.284 984 491V435.882Z" fill="#EDF0FD"/>
<path d="M984 313.587C984 308.324 986.758 303.446 991.268 300.733L1031.27 276.673C1041.27 270.66 1054 277.86 1054 289.527V344C1054 352.284 1047.28 359 1039 359H999C990.716 359 984 352.284 984 344V313.587Z" fill="#EDF0FD"/>
<path d="M834.142 407.981C835.575 401.006 841.715 396 848.835 396H954C962.284 396 969 402.716 969 411V491C969 499.284 962.284 506 954 506H832.396C822.898 506 815.791 497.284 817.703 487.981L834.142 407.981Z" fill="#EDF0FD"/>
<path d="M835.924 282.734C837.454 275.877 843.538 271 850.564 271L954 271C962.284 271 969 277.716 969 286V366C969 374.284 962.284 381 954 381H832.715C823.114 381 815.985 372.105 818.075 362.734L835.924 282.734Z" fill="#EDF0FD"/>
<path d="M868.978 175.094C870.366 168.066 876.53 163 883.694 163L954 163C962.284 163 969 169.716 969 178V241C969 249.284 962.284 256 954 256H871.252C861.801 256 854.705 247.366 856.536 238.094L868.978 175.094Z" fill="#EDF0FD"/>
<path d="M630.987 405.572C633.227 399.802 638.781 396 644.97 396H784C792.284 396 799 402.716 799 411V491C799 499.284 792.284 506 784 506H613.914C603.367 506 596.114 495.403 599.93 485.572L630.987 405.572Z" fill="white"/>
<path d="M651.079 281.155C653.152 275.082 658.858 271 665.275 271H784C792.284 271 799 277.716 799 286V366C799 374.284 792.284 381 784 381H637.97C627.686 381 620.452 370.887 623.774 361.155L651.079 281.155Z" fill="white"/>
<path d="M687.114 169.804C688.98 163.402 694.847 159 701.516 159H784C792.284 159 799 165.716 799 174V241C799 249.284 792.284 256 784 256H681.994C671.996 256 664.796 246.403 667.593 236.804L687.114 169.804Z" fill="white"/>
<path d="M551.701 301.118C560.816 290.679 578 297.126 578 310.984V484.826C578 495.168 567.781 502.407 558.025 498.977L441.883 458.141C431.877 454.623 428.583 442.114 435.56 434.124L551.701 301.118Z" fill="white"/>
<path d="M417.119 478.864C418.581 474.989 422.907 473.032 426.783 474.493L569.472 528.309L564.179 542.344L421.49 488.528C417.614 487.067 415.657 482.74 417.119 478.864Z" fill="#616267"/>
<rect x="609" y="542" width="25" height="25" rx="12.5" fill="#616267"/>
<rect x="664" y="542" width="25" height="25" rx="12.5" fill="#616267"/>
<rect x="719" y="542" width="25" height="25" rx="12.5" fill="#616267"/>
<rect x="774" y="542" width="25" height="25" rx="12.5" fill="#616267"/>
<rect x="829" y="542" width="25" height="25" rx="12.5" fill="#616267"/>
<rect x="884" y="542" width="25" height="25" rx="12.5" fill="#616267"/>
<rect x="939" y="542" width="25" height="25" rx="12.5" fill="#616267"/>
<rect x="994" y="542" width="25" height="25" rx="12.5" fill="#616267"/>
<path d="M766.139 125.583C766.139 123.569 764.195 122.127 762.268 122.712L755.064 124.898C753.171 125.472 751.15 125.472 749.257 124.898L741.126 122.431C739.207 121.849 737.158 121.857 735.244 122.454L727.57 124.849C725.63 125.454 723.551 125.454 721.611 124.849L714.894 122.752C712.962 122.15 711 123.593 711 125.616V141.439C711 142.87 712.011 144.102 713.416 144.381L722.67 146.219C723.938 146.471 725.244 146.474 726.514 146.229L736.647 144.273C737.917 144.028 739.222 144.031 740.491 144.283L750.239 146.219C751.508 146.471 752.813 146.474 754.083 146.229L763.708 144.371C765.119 144.098 766.139 142.863 766.139 141.425V125.583Z" fill="#B54028"/>
<path d="M928.139 125.583C928.139 123.569 926.195 122.127 924.268 122.712L917.064 124.898C915.171 125.472 913.15 125.472 911.257 124.898L903.126 122.431C901.207 121.849 899.158 121.857 897.244 122.454L889.57 124.849C887.63 125.454 885.551 125.454 883.611 124.849L876.894 122.752C874.962 122.15 873 123.593 873 125.616V141.439C873 142.87 874.011 144.102 875.416 144.381L884.67 146.219C885.938 146.471 887.244 146.474 888.514 146.229L898.647 144.273C899.917 144.028 901.222 144.031 902.491 144.283L912.239 146.219C913.508 146.471 914.813 146.474 916.083 146.229L925.708 144.371C927.119 144.098 928.139 142.863 928.139 141.425V125.583Z" fill="#9D311B"/>
<defs>
<linearGradient id="paint0_linear_1370_10244" x1="800" y1="1" x2="800" y2="901" gradientUnits="userSpaceOnUse">
<stop stop-color="#2A61F4"/>
<stop offset="0.583333" stop-color="#A0CDF5"/>
</linearGradient>
<linearGradient id="paint1_linear_1370_10244" x1="800" y1="650" x2="800" y2="901" gradientUnits="userSpaceOnUse">
<stop stop-color="#5189F4"/>
<stop offset="1" stop-color="#6BE4DB"/>
</linearGradient>
<linearGradient id="paint2_linear_1370_10244" x1="828" y1="681" x2="828" y2="811" gradientUnits="userSpaceOnUse">
<stop stop-color="#70B1EF"/>
<stop offset="1" stop-color="#70D2E1"/>
</linearGradient>
</defs>
</svg>
