<svg width="1600" height="901" viewBox="0 0 1600 901" fill="none" xmlns="http://www.w3.org/2000/svg">
<rect y="1" width="1600" height="900" fill="url(#paint0_linear_1370_10280)"/>
<path d="M0 650H1600V901H0V650Z" fill="url(#paint1_linear_1370_10280)"/>
<circle cx="407" cy="182" r="96" fill="#FCEA9E"/>
<circle opacity="0.3" cx="407" cy="182" r="155" fill="#FCEA9E"/>
<path opacity="0.1" d="M676 182C676 330.565 555.565 451 407 451C258.435 451 138 330.565 138 182C138 112.297 164.511 48.7859 208 1.00008C208 1.00008 330.638 1 409.5 1C488.362 1 606 1.00008 606 1.00008C649.489 48.7859 676 112.297 676 182Z" fill="#FCEA9E"/>
<path d="M1091.86 278H1393.14C1399.14 278 1404 273.135 1404 267.133C1404 261.132 1399.14 256.267 1393.14 256.267H1375C1375.25 254.957 1375.4 253.605 1375.4 252.22C1375.4 240.728 1366.08 231.412 1354.6 231.412C1348.61 231.412 1343.21 233.952 1339.41 238.012C1337.47 225.365 1326.55 215.678 1313.36 215.678C1312.66 215.678 1311.96 215.715 1311.25 215.771C1310.46 184.834 1285.14 160 1254.02 160C1230.68 160 1210.6 173.975 1201.69 194.015C1194.93 189.614 1186.87 187.047 1178.2 187.047C1154.76 187.047 1135.7 205.761 1135.1 229.07C1124.43 229.956 1116.05 238.895 1116.05 249.799C1116.05 249.92 1116.05 250.039 1116.05 250.159C1116.06 250.224 1116.06 250.29 1116.06 250.355C1115.07 250.116 1114.04 249.976 1112.97 249.976C1108.22 249.976 1104.07 252.497 1101.76 256.267H1091.86C1090.91 256.267 1089.98 256.391 1089.09 256.623C1084.44 257.847 1081 262.089 1081 267.133C1081 269.406 1081.7 271.516 1082.89 273.26C1084.85 276.121 1088.13 278 1091.86 278Z" fill="#FCFCE4"/>
<path d="M1338.4 681H207.733C202.357 681 198 685.357 198 690.733C198 696.108 202.357 700.465 207.733 700.465H914.227C919.219 700.465 923.265 704.511 923.265 709.503C923.265 714.494 919.219 718.54 914.227 718.54H804.701C796.063 718.54 789.06 725.543 789.06 734.182C789.06 742.82 796.063 749.824 804.701 749.824H833.565C838.556 749.824 842.603 753.87 842.603 758.861C842.603 763.852 838.556 767.898 833.565 767.898H647.735C636.689 767.898 627.735 776.853 627.735 787.898V791C627.735 802.046 636.689 811 647.735 811H958.894C969.94 811 978.894 802.046 978.894 791V787.898C978.894 776.853 969.94 767.898 958.894 767.898H926.044C921.053 767.898 917.007 763.852 917.007 758.861C917.007 753.87 921.053 749.824 926.044 749.824H1442.36C1451 749.824 1458 742.82 1458 734.182C1458 725.543 1451 718.54 1442.36 718.54H1207.67C1202.68 718.54 1198.63 714.494 1198.63 709.503C1198.63 704.511 1202.68 700.465 1207.67 700.465H1338.4C1343.78 700.465 1348.13 696.108 1348.13 690.733C1348.13 685.357 1343.78 681 1338.4 681Z" fill="url(#paint2_linear_1370_10280)"/>
<path d="M263 829C263 824.029 267.029 820 272 820H558C562.971 820 567 824.029 567 829C567 833.971 562.971 838 558 838H272C267.029 838 263 833.971 263 829Z" fill="#76E0E2"/>
<path d="M465 486H1044.82C1054.25 486 1061.34 494.593 1059.55 503.848L1033.64 637.848C1032.27 644.903 1026.1 650 1018.91 650H567.695C562.32 650 557.355 647.123 554.682 642.459L465 486Z" fill="#616267"/>
<path fill-rule="evenodd" clip-rule="evenodd" d="M775 650V486H1044.82C1054.25 486 1061.34 494.593 1059.55 503.848L1033.64 637.848C1032.27 644.903 1026.1 650 1018.91 650H775Z" fill="#55575C"/>
<path d="M502.703 520.418C497.033 510.414 504.267 498.013 515.767 498.023L1026.68 498.483C1036.15 498.492 1043.25 507.172 1041.37 516.457L1038.43 530.974C1037.02 537.97 1030.87 543 1023.73 543H524.24C518.838 543 513.853 540.095 511.19 535.395L502.703 520.418Z" fill="white"/>
<path d="M536.445 580.308C530.867 570.31 538.095 558 549.544 558H1014.9C1024.3 558 1031.38 566.547 1029.64 575.784L1026.81 590.784C1025.47 597.869 1019.28 603 1012.07 603H557.912C552.475 603 547.463 600.057 544.813 595.308L536.445 580.308Z" fill="white"/>
<path d="M951.999 400.882C951.999 395.621 954.755 390.744 959.263 388.031L1031.26 344.687C1041.26 338.669 1054 345.869 1054 357.538V456C1054 464.284 1047.28 471 1039 471H966.999C958.715 471 951.999 464.284 951.999 456V400.882Z" fill="#EDF0FD"/>
<path d="M951.999 278.587C951.999 273.324 954.757 268.446 959.267 265.733L999.267 241.673C1009.26 235.66 1022 242.86 1022 254.527V309C1022 317.284 1015.28 324 1007 324H966.999C958.715 324 951.999 317.284 951.999 309V278.587Z" fill="#EDF0FD"/>
<path d="M802.141 372.981C803.575 366.006 809.714 361 816.834 361H921.999C930.283 361 936.999 367.716 936.999 376V456C936.999 464.284 930.283 471 921.999 471H800.395C790.897 471 783.79 462.284 785.702 452.981L802.141 372.981Z" fill="#EDF0FD"/>
<path d="M803.923 247.734C805.453 240.877 811.537 236 818.563 236L921.999 236C930.283 236 936.999 242.716 936.999 251V331C936.999 339.284 930.283 346 921.999 346H800.714C791.113 346 783.984 337.105 786.074 327.734L803.923 247.734Z" fill="#EDF0FD"/>
<path d="M836.977 140.094C838.365 133.066 844.529 128 851.693 128L921.999 128C930.283 128 936.999 134.716 936.999 143V206C936.999 214.284 930.283 221 921.999 221H839.251C829.8 221 822.704 212.366 824.535 203.094L836.977 140.094Z" fill="#EDF0FD"/>
<path d="M598.986 370.572C601.226 364.802 606.78 361 612.969 361H751.999C760.283 361 766.999 367.716 766.999 376V456C766.999 464.284 760.283 471 751.999 471H581.913C571.366 471 564.113 460.403 567.929 450.572L598.986 370.572Z" fill="white"/>
<path d="M619.078 246.155C621.151 240.082 626.857 236 633.274 236H751.999C760.283 236 766.999 242.716 766.999 251V331C766.999 339.284 760.283 346 751.999 346H605.969C595.685 346 588.451 335.887 591.773 326.155L619.078 246.155Z" fill="white"/>
<path d="M655.113 134.804C656.979 128.402 662.846 124 669.515 124H751.999C760.283 124 766.999 130.716 766.999 139V206C766.999 214.284 760.283 221 751.999 221H649.993C639.995 221 632.795 211.403 635.592 201.804L655.113 134.804Z" fill="white"/>
<path d="M519.7 266.118C528.815 255.679 545.999 262.126 545.999 275.984V449.826C545.999 460.168 535.78 467.407 526.024 463.977L409.882 423.141C399.876 419.623 396.582 407.114 403.559 399.124L519.7 266.118Z" fill="white"/>
<path d="M364.646 451.017C366.108 447.142 370.435 445.185 374.31 446.647L498.286 493.404L492.993 507.439L369.017 460.682C365.141 459.22 363.185 454.893 364.646 451.017Z" fill="#616267"/>
<rect x="572.999" y="568" width="25" height="25" rx="12.5" fill="#616267"/>
<rect x="637.999" y="568" width="25" height="25" rx="12.5" fill="#616267"/>
<rect x="702.999" y="568" width="25" height="25" rx="12.5" fill="#616267"/>
<rect x="767.999" y="568" width="25" height="25" rx="12.5" fill="#55575C"/>
<rect x="832.999" y="568" width="25" height="25" rx="12.5" fill="#55575C"/>
<rect x="897.999" y="568" width="25" height="25" rx="12.5" fill="#55575C"/>
<rect x="962.999" y="568" width="25" height="25" rx="12.5" fill="#55575C"/>
<rect x="533.999" y="507" width="25" height="25" rx="12.5" fill="#616267"/>
<rect x="598.999" y="507" width="25" height="25" rx="12.5" fill="#616267"/>
<rect x="663.999" y="507" width="25" height="25" rx="12.5" fill="#616267"/>
<rect x="728.999" y="507" width="25" height="25" rx="12.5" fill="#616267"/>
<rect x="793.999" y="507" width="25" height="25" rx="12.5" fill="#55575C"/>
<rect x="858.999" y="507" width="25" height="25" rx="12.5" fill="#55575C"/>
<rect x="923.999" y="507" width="25" height="25" rx="12.5" fill="#55575C"/>
<rect x="988.999" y="507" width="25" height="25" rx="12.5" fill="#55575C"/>
<path d="M726.139 88.5826C726.139 86.5691 724.195 85.1272 722.268 85.7118L715.064 87.8978C713.171 88.4721 711.15 88.4721 709.257 87.8978L701.126 85.4308C699.207 84.8486 697.158 84.8567 695.244 85.4541L687.57 87.849C685.63 88.4544 683.551 88.4544 681.611 87.849L674.894 85.7524C672.962 85.1496 671 86.5928 671 88.6162V104.439C671 105.87 672.011 107.102 673.416 107.381L682.67 109.219C683.938 109.471 685.244 109.474 686.514 109.229L696.647 107.273C697.917 107.028 699.222 107.031 700.491 107.283L710.239 109.219C711.508 109.471 712.813 109.474 714.083 109.229L723.708 107.371C725.119 107.098 726.139 105.863 726.139 104.425V88.5826Z" fill="#B54028"/>
<path d="M905.139 88.5826C905.139 86.5691 903.195 85.1272 901.268 85.7118L894.064 87.8978C892.171 88.4721 890.15 88.4721 888.257 87.8978L880.126 85.4308C878.207 84.8486 876.158 84.8567 874.244 85.4541L866.57 87.849C864.63 88.4544 862.551 88.4544 860.611 87.849L853.894 85.7524C851.962 85.1496 850 86.5928 850 88.6162V104.439C850 105.87 851.011 107.102 852.416 107.381L861.67 109.219C862.938 109.471 864.244 109.474 865.514 109.229L875.647 107.273C876.917 107.028 878.222 107.031 879.491 107.283L889.239 109.219C890.508 109.471 891.813 109.474 893.083 109.229L902.708 107.371C904.119 107.098 905.139 105.863 905.139 104.425V88.5826Z" fill="#9D311B"/>
<defs>
<linearGradient id="paint0_linear_1370_10280" x1="800" y1="1" x2="800" y2="901" gradientUnits="userSpaceOnUse">
<stop stop-color="#2A61F4"/>
<stop offset="0.583333" stop-color="#A0CDF5"/>
</linearGradient>
<linearGradient id="paint1_linear_1370_10280" x1="800" y1="650" x2="800" y2="901" gradientUnits="userSpaceOnUse">
<stop stop-color="#5189F4"/>
<stop offset="1" stop-color="#6BE4DB"/>
</linearGradient>
<linearGradient id="paint2_linear_1370_10280" x1="828" y1="681" x2="828" y2="811" gradientUnits="userSpaceOnUse">
<stop stop-color="#70B1EF"/>
<stop offset="1" stop-color="#70D2E1"/>
</linearGradient>
</defs>
</svg>
