<svg width="1600" height="900" viewBox="0 0 1600 900" fill="none" xmlns="http://www.w3.org/2000/svg">
<rect width="1600" height="900" fill="url(#paint0_linear_8_524)"/>
<path d="M0 649H1600V900H0V649Z" fill="url(#paint1_linear_8_524)"/>
<circle cx="1113" cy="181" r="96" fill="#FCEA9E"/>
<circle opacity="0.3" cx="1113" cy="181" r="155" fill="#FCEA9E"/>
<path opacity="0.1" d="M1382 181C1382 329.565 1261.56 450 1113 450C964.435 450 844 329.565 844 181C844 111.297 870.511 47.7859 914 7.55787e-05C914 7.55787e-05 1036.64 0 1115.5 0C1194.36 0 1312 7.55787e-05 1312 7.55787e-05C1355.49 47.7859 1382 111.297 1382 181Z" fill="#FCEA9E"/>
<path d="M178.862 277H480.142C486.138 277 491 272.135 491 266.133C491 260.132 486.138 255.267 480.142 255.267H462.005C462.254 253.957 462.397 252.605 462.397 251.22C462.397 239.728 453.083 230.412 441.601 230.412C435.605 230.412 430.208 232.952 426.407 237.012C424.471 224.365 413.551 214.678 400.365 214.678C399.66 214.678 398.955 214.715 398.25 214.771C397.456 183.834 372.137 159 341.02 159C317.68 159 297.604 172.975 288.691 193.015C281.931 188.614 273.868 186.047 265.202 186.047C241.759 186.047 222.698 204.761 222.1 228.07C211.431 228.956 203.045 237.895 203.045 248.799C203.045 248.92 203.049 249.039 203.053 249.159C203.056 249.224 203.058 249.29 203.059 249.355C202.066 249.116 201.036 248.976 199.971 248.976C195.222 248.976 191.074 251.497 188.755 255.267H178.862C177.906 255.267 176.978 255.391 176.095 255.623C171.436 256.847 168 261.089 168 266.133C168 268.406 168.697 270.516 169.89 272.26C171.846 275.121 175.135 277 178.862 277Z" fill="#FCFCE4"/>
<path d="M1338.4 680H207.733C202.357 680 198 684.357 198 689.733C198 695.108 202.357 699.465 207.733 699.465H914.227C919.219 699.465 923.265 703.511 923.265 708.503C923.265 713.494 919.219 717.54 914.227 717.54H804.701C796.063 717.54 789.06 724.543 789.06 733.182C789.06 741.82 796.063 748.824 804.701 748.824H833.565C838.556 748.824 842.603 752.87 842.603 757.861C842.603 762.852 838.556 766.898 833.565 766.898H647.735C636.689 766.898 627.735 775.853 627.735 786.898V790C627.735 801.046 636.689 810 647.735 810H958.894C969.94 810 978.894 801.046 978.894 790V786.898C978.894 775.853 969.94 766.898 958.894 766.898H926.044C921.053 766.898 917.007 762.852 917.007 757.861C917.007 752.87 921.053 748.824 926.044 748.824H1442.36C1451 748.824 1458 741.82 1458 733.182C1458 724.543 1451 717.54 1442.36 717.54H1207.67C1202.68 717.54 1198.63 713.494 1198.63 708.503C1198.63 703.511 1202.68 699.465 1207.67 699.465H1338.4C1343.78 699.465 1348.13 695.108 1348.13 689.733C1348.13 684.357 1343.78 680 1338.4 680Z" fill="url(#paint2_linear_8_524)"/>
<path d="M263 828C263 823.029 267.029 819 272 819H558C562.971 819 567 823.029 567 828C567 832.971 562.971 837 558 837H272C267.029 837 263 832.971 263 828Z" fill="#76E0E2"/>
<path d="M487.452 502.505C485.816 499.182 488.234 495.296 491.938 495.296H1083.09C1086.1 495.296 1088.42 497.928 1088.05 500.911L1070.25 644.615C1069.94 647.119 1067.81 649 1065.29 649H562.701C560.796 649 559.057 647.918 558.215 646.209L487.452 502.505Z" fill="#252823"/>
<path d="M344.371 417.665C342.509 416.567 341.891 414.167 342.989 412.306C344.088 410.444 346.487 409.825 348.349 410.924L503.405 502.421C505.266 503.52 505.885 505.919 504.787 507.781C503.688 509.643 501.288 510.261 499.427 509.163L344.371 417.665Z" fill="#252823"/>
<path d="M944.783 384.599C945.128 383.48 945.854 382.518 946.835 381.879L1048.42 315.815C1051.61 313.739 1055.86 315.852 1056.13 319.65L1067.53 479.159C1067.74 482.054 1065.45 484.516 1062.54 484.516H920.786C917.422 484.516 915.017 481.26 916.007 478.044L944.783 384.599Z" fill="#F6F6F6"/>
<path d="M944.783 384.599C945.128 383.48 945.854 382.518 946.835 381.879L1048.42 315.815C1051.61 313.739 1055.86 315.852 1056.13 319.65L1067.53 479.159C1067.74 482.054 1065.45 484.516 1062.54 484.516H920.786C917.422 484.516 915.017 481.26 916.007 478.044L944.783 384.599Z" fill="#F6F6F6"/>
<path d="M938.344 198.622C938.829 196.306 940.871 194.647 943.238 194.647H1037.19C1040.34 194.647 1042.7 197.515 1042.1 200.602L1017.86 325.078C1017.41 327.427 1015.35 329.122 1012.96 329.122H917.182C914.009 329.122 911.638 326.204 912.288 323.098L938.344 198.622Z" fill="#F6F6F6"/>
<path d="M938.344 198.622C938.829 196.306 940.871 194.647 943.238 194.647H1037.19C1040.34 194.647 1042.7 197.515 1042.1 200.602L1017.86 325.078C1017.41 327.427 1015.35 329.122 1012.96 329.122H917.182C914.009 329.122 911.638 326.204 912.288 323.098L938.344 198.622Z" fill="#F6F6F6"/>
<path d="M743.761 169.992C744.337 167.792 746.324 166.257 748.598 166.257H884.245C886.908 166.257 889.104 168.346 889.238 171.006L896.567 316.4C896.711 319.256 894.434 321.651 891.574 321.651H710.56C707.285 321.651 704.894 318.554 705.723 315.386L743.761 169.992Z" fill="#F6F6F6"/>
<path d="M743.761 169.992C744.337 167.792 746.324 166.257 748.598 166.257H884.245C886.908 166.257 889.104 168.346 889.238 171.006L896.567 316.4C896.711 319.256 894.434 321.651 891.574 321.651H710.56C707.285 321.651 704.894 318.554 705.723 315.386L743.761 169.992Z" fill="#F6F6F6"/>
<path d="M735.547 334.356C736.12 332.154 738.109 330.616 740.385 330.616H876.026C878.69 330.616 880.886 332.705 881.019 335.366L888.351 481.507C888.494 484.363 886.217 486.757 883.357 486.757H702.335C699.062 486.757 696.671 483.665 697.496 480.497L735.547 334.356Z" fill="#F6F6F6"/>
<path d="M735.547 334.356C736.12 332.154 738.109 330.616 740.385 330.616H876.026C878.69 330.616 880.886 332.705 881.019 335.366L888.351 481.507C888.494 484.363 886.217 486.757 883.357 486.757H702.335C699.062 486.757 696.671 483.665 697.496 480.497L735.547 334.356Z" fill="#F6F6F6"/>
<path d="M763.409 43.7451C763.98 41.5399 765.971 40 768.249 40H867.539C870.204 40 872.4 42.0894 872.533 44.7505L877.893 152.043C878.036 154.899 875.759 157.292 872.899 157.292H740.43C737.159 157.292 734.769 154.204 735.59 151.038L763.409 43.7451Z" fill="#F6F6F6"/>
<path d="M763.409 43.7451C763.98 41.5399 765.971 40 768.249 40H867.539C870.204 40 872.4 42.0894 872.533 44.7505L877.893 152.043C878.036 154.899 875.759 157.292 872.899 157.292H740.43C737.159 157.292 734.769 154.204 735.59 151.038L763.409 43.7451Z" fill="#F6F6F6"/>
<path d="M763.409 43.7451C763.98 41.5399 765.971 40 768.249 40H867.539C870.204 40 872.4 42.0894 872.533 44.7505L877.893 152.043C878.036 154.899 875.759 157.292 872.899 157.292H740.43C737.159 157.292 734.769 154.204 735.59 151.038L763.409 43.7451Z" fill="#F6F6F6"/>
<path d="M763.409 43.7451C763.98 41.5399 765.971 40 768.249 40H867.539C870.204 40 872.4 42.0894 872.533 44.7505L877.893 152.043C878.036 154.899 875.759 157.292 872.899 157.292H740.43C737.159 157.292 734.769 154.204 735.59 151.038L763.409 43.7451Z" fill="#F6F6F6"/>
<path d="M576.429 75.117C577.003 72.9146 578.992 71.3776 581.267 71.3776H666.585C669.249 71.3776 671.445 73.4663 671.579 76.1269L676.177 167.731C676.321 170.587 674.044 172.981 671.184 172.981H557.4C554.127 172.981 551.737 169.888 552.562 166.721L576.429 75.117Z" fill="#F6F6F6"/>
<path d="M576.429 75.117C577.003 72.9146 578.992 71.3776 581.267 71.3776H666.585C669.249 71.3776 671.445 73.4663 671.579 76.1269L676.177 167.731C676.321 170.587 674.044 172.981 671.184 172.981H557.4C554.127 172.981 551.737 169.888 552.562 166.721L576.429 75.117Z" fill="#F6F6F6"/>
<path d="M576.429 75.117C577.003 72.9146 578.992 71.3776 581.267 71.3776H666.585C669.249 71.3776 671.445 73.4663 671.579 76.1269L676.177 167.731C676.321 170.587 674.044 172.981 671.184 172.981H557.4C554.127 172.981 551.737 169.888 552.562 166.721L576.429 75.117Z" fill="#F6F6F6"/>
<path d="M576.429 75.117C577.003 72.9146 578.992 71.3776 581.267 71.3776H666.585C669.249 71.3776 671.445 73.4663 671.579 76.1269L676.177 167.731C676.321 170.587 674.044 172.981 671.184 172.981H557.4C554.127 172.981 551.737 169.888 552.562 166.721L576.429 75.117Z" fill="#F6F6F6"/>
<path d="M530.299 190.922C530.871 188.717 532.861 187.176 535.14 187.176H674.128C676.793 187.176 678.989 189.266 679.122 191.927L686.639 342.55C686.781 345.406 684.504 347.799 681.645 347.799H496.13C492.86 347.799 490.47 344.712 491.29 341.546L530.299 190.922Z" fill="#F6F6F6"/>
<path d="M530.299 190.922C530.871 188.717 532.861 187.176 535.14 187.176H674.128C676.793 187.176 678.989 189.266 679.122 191.927L686.639 342.55C686.781 345.406 684.504 347.799 681.645 347.799H496.13C492.86 347.799 490.47 344.712 491.29 341.546L530.299 190.922Z" fill="#F6F6F6"/>
<path d="M530.299 190.922C530.871 188.717 532.861 187.176 535.14 187.176H674.128C676.793 187.176 678.989 189.266 679.122 191.927L686.639 342.55C686.781 345.406 684.504 347.799 681.645 347.799H496.13C492.86 347.799 490.47 344.712 491.29 341.546L530.299 190.922Z" fill="#F6F6F6"/>
<path d="M530.299 190.922C530.871 188.717 532.861 187.176 535.14 187.176H674.128C676.793 187.176 678.989 189.266 679.122 191.927L686.639 342.55C686.781 345.406 684.504 347.799 681.645 347.799H496.13C492.86 347.799 490.47 344.712 491.29 341.546L530.299 190.922Z" fill="#F6F6F6"/>
<path d="M522.346 368.196C522.837 365.886 524.876 364.235 527.236 364.235H683.081C686.456 364.235 688.862 367.511 687.852 370.731L652.568 483.253C651.914 485.338 649.982 486.757 647.797 486.757H503.315C500.135 486.757 497.763 483.828 498.425 480.718L522.346 368.196Z" fill="#F6F6F6"/>
<path d="M522.346 368.196C522.837 365.886 524.876 364.235 527.236 364.235H683.081C686.456 364.235 688.862 367.511 687.852 370.731L652.568 483.253C651.914 485.338 649.982 486.757 647.797 486.757H503.315C500.135 486.757 497.763 483.828 498.425 480.718L522.346 368.196Z" fill="#F6F6F6"/>
<path d="M522.346 368.196C522.837 365.886 524.876 364.235 527.236 364.235H683.081C686.456 364.235 688.862 367.511 687.852 370.731L652.568 483.253C651.914 485.338 649.982 486.757 647.797 486.757H503.315C500.135 486.757 497.763 483.828 498.425 480.718L522.346 368.196Z" fill="#F6F6F6"/>
<path d="M522.346 368.196C522.837 365.886 524.876 364.235 527.236 364.235H683.081C686.456 364.235 688.862 367.511 687.852 370.731L652.568 483.253C651.914 485.338 649.982 486.757 647.797 486.757H503.315C500.135 486.757 497.763 483.828 498.425 480.718L522.346 368.196Z" fill="#F6F6F6"/>
<path d="M477.661 260.81C481.045 256.774 487.564 260.038 486.36 265.165L444.111 445.117C443.347 448.373 439.663 449.975 436.76 448.313L363.372 406.304C360.668 404.756 360.023 401.14 362.024 398.752L477.661 260.81Z" fill="#F6F6F6"/>
<path d="M528.423 555.198C527.083 552.22 529.261 548.851 532.527 548.851H1064.04C1066.72 548.851 1068.8 551.175 1068.51 553.837L1066.67 570.822C1066.42 573.106 1064.49 574.837 1062.2 574.837H540.17C538.399 574.837 536.793 573.798 536.066 572.183L528.423 555.198Z" fill="#C4C4C4" stroke="#252823"/>
<rect x="550.234" y="552.082" width="19.967" height="19.1091" rx="5" fill="#090302"/>
<rect x="1018.58" y="552.082" width="19.967" height="19.1091" rx="5" fill="#090302"/>
<rect x="784.484" y="551.793" width="19.967" height="19.1091" rx="5" fill="#090302"/>
<rect x="667.023" y="551.793" width="19.967" height="19.1091" rx="5" fill="#090302"/>
<rect x="725.337" y="551.793" width="19.967" height="19.1091" rx="5" fill="#090302"/>
<rect x="608.708" y="551.793" width="19.967" height="19.1091" rx="5" fill="#090302"/>
<rect x="901.113" y="551.793" width="19.967" height="19.1091" rx="5" fill="#090302"/>
<rect x="959.427" y="551.793" width="19.967" height="19.1091" rx="5" fill="#090302"/>
<rect x="842.799" y="551.793" width="19.967" height="19.1091" rx="5" fill="#090302"/>
<path d="M546.718 595.335C545.356 592.355 547.534 588.965 550.811 588.965H1058.84C1061.55 588.965 1063.64 591.339 1063.3 594.026L1061.26 610.282C1060.98 612.533 1059.06 614.221 1056.8 614.221H558.241C556.48 614.221 554.881 613.193 554.149 611.592L546.718 595.335Z" fill="#C4C4C4" stroke="#252823"/>
<rect x="565.51" y="591.962" width="19.9136" height="19.1091" rx="5" fill="#090302"/>
<rect x="1032.6" y="591.962" width="19.9136" height="19.1091" rx="5" fill="#090302"/>
<rect x="799.133" y="591.673" width="19.9136" height="19.1091" rx="5" fill="#090302"/>
<rect x="681.985" y="591.673" width="19.9136" height="19.1091" rx="5" fill="#090302"/>
<rect x="740.144" y="591.673" width="19.9136" height="19.1091" rx="5" fill="#090302"/>
<rect x="623.827" y="591.673" width="19.9136" height="19.1091" rx="5" fill="#090302"/>
<rect x="915.449" y="591.673" width="19.9136" height="19.1091" rx="5" fill="#090302"/>
<rect x="973.607" y="591.673" width="19.9136" height="19.1091" rx="5" fill="#090302"/>
<rect x="857.29" y="591.673" width="19.9136" height="19.1091" rx="5" fill="#090302"/>
<path d="M506.016 515.163C504.602 512.177 506.78 508.737 510.083 508.737H1069.84C1072.53 508.737 1074.62 511.078 1074.31 513.748L1072.37 530.733C1072.11 533.006 1070.19 534.723 1067.9 534.723H518.125C516.386 534.723 514.803 533.72 514.058 532.148L506.016 515.163Z" fill="#C4C4C4" stroke="#252823"/>
<rect x="565.349" y="512.202" width="19.9136" height="19.1091" rx="5" fill="#090302"/>
<rect x="1032.44" y="512.202" width="19.9136" height="19.1091" rx="5" fill="#090302"/>
<rect x="798.972" y="511.913" width="19.9136" height="19.1091" rx="5" fill="#090302"/>
<rect x="681.824" y="511.913" width="19.9136" height="19.1091" rx="5" fill="#090302"/>
<rect x="739.982" y="511.913" width="19.9136" height="19.1091" rx="5" fill="#090302"/>
<rect x="623.666" y="511.913" width="19.9136" height="19.1091" rx="5" fill="#090302"/>
<rect x="915.288" y="511.913" width="19.9136" height="19.1091" rx="5" fill="#090302"/>
<rect x="973.446" y="511.913" width="19.9136" height="19.1091" rx="5" fill="#090302"/>
<rect x="857.13" y="511.913" width="19.9136" height="19.1091" rx="5" fill="#090302"/>
<path d="M987 168.077C987 166.054 988.961 164.611 990.892 165.212L995.434 166.627C997.371 167.231 999.446 167.231 1001.38 166.627L1006.8 164.94C1008.76 164.328 1010.87 164.337 1012.83 164.964L1017.86 166.576C1019.84 167.212 1021.98 167.212 1023.96 166.576L1028.08 165.255C1030.02 164.634 1032 166.079 1032 168.111V180.288C1032 181.714 1031 182.943 1029.6 183.228L1022.88 184.598C1021.58 184.863 1020.24 184.867 1018.94 184.609L1011.47 183.129C1010.17 182.871 1008.83 182.875 1007.53 183.14L1000.38 184.598C999.078 184.863 997.738 184.867 996.436 184.609L989.417 183.218C988.012 182.939 987 181.707 987 180.275V168.077Z" fill="#B54028"/>
<path d="M812 15.0767C812 13.0539 813.961 11.6109 815.892 12.2125L820.434 13.6274C822.371 14.2307 824.446 14.2307 826.383 13.6274L831.8 11.9397C833.764 11.3281 835.868 11.3366 837.826 11.9641L842.857 13.5762C844.842 14.212 846.975 14.212 848.96 13.5762L853.085 12.2545C855.021 11.6342 857 13.0785 857 15.1115V27.2884C857 28.7142 855.996 29.9431 854.599 30.2279L847.879 31.5983C846.578 31.8634 845.238 31.8671 843.936 31.609L836.472 30.1294C835.17 29.8714 833.83 29.875 832.53 30.1402L825.379 31.5983C824.078 31.8634 822.738 31.8671 821.436 31.609L814.417 30.2175C813.012 29.9391 812 28.7067 812 27.2748V15.0767Z" fill="#B54028"/>
<path d="M624 44.0767C624 42.0539 625.961 40.6109 627.892 41.2125L632.434 42.6274C634.371 43.2307 636.446 43.2307 638.383 42.6274L643.8 40.9397C645.764 40.3281 647.868 40.3366 649.826 40.9641L654.857 42.5762C656.842 43.212 658.975 43.212 660.96 42.5762L665.085 41.2545C667.021 40.6342 669 42.0785 669 44.1115V56.2884C669 57.7142 667.996 58.9431 666.599 59.2279L659.879 60.5983C658.578 60.8634 657.238 60.8671 655.936 60.609L648.472 59.1294C647.17 58.8714 645.83 58.875 644.53 59.1402L637.379 60.5983C636.078 60.8634 634.738 60.8671 633.436 60.609L626.417 59.2175C625.012 58.9391 624 57.7067 624 56.2748V44.0767Z" fill="#B54028"/>
<defs>
<linearGradient id="paint0_linear_8_524" x1="800" y1="0" x2="800" y2="900" gradientUnits="userSpaceOnUse">
<stop stop-color="#2A61F4"/>
<stop offset="0.583333" stop-color="#A0CDF5"/>
</linearGradient>
<linearGradient id="paint1_linear_8_524" x1="800" y1="649" x2="800" y2="900" gradientUnits="userSpaceOnUse">
<stop stop-color="#5189F4"/>
<stop offset="1" stop-color="#6BE4DB"/>
</linearGradient>
<linearGradient id="paint2_linear_8_524" x1="828" y1="680" x2="828" y2="810" gradientUnits="userSpaceOnUse">
<stop stop-color="#70B1EF"/>
<stop offset="1" stop-color="#70D2E1"/>
</linearGradient>
</defs>
</svg>
