<svg width="512" height="512" viewBox="0 0 512 512" fill="none" xmlns="http://www.w3.org/2000/svg">
<path d="M120.302 250.003L100.261 273.545C93.0799 275.882 60.8815 297.988 51.6629 313.615C40.1396 333.15 47.2269 342.86 63.6872 354.688C79.7196 366.208 173.409 378.229 197.457 378.229C217.999 378.229 390.731 383.226 422.412 366.208C455.98 348.176 466 328.642 466 308.607C466 293.02 430.929 279.889 414.396 270.54C369.138 261.357 279.824 234.576 252.569 234.977C225.314 235.378 153.034 245.162 120.302 250.003Z" fill="#BBF9F4"/>
<path d="M438.945 340.663C469.225 314.006 442.62 284.397 422.412 277.051L260.084 257.517L96.754 273.044C84.7297 282.728 49.7591 319.626 60.1802 335.654C73.2065 355.69 198.46 363.203 230.023 363.203C279.248 363.203 405.378 370.215 438.945 340.663Z" fill="url(#paint0_linear_1323_4662)"/>
<path d="M202.969 176.875C179.722 162.85 106.273 237.982 89.7397 284.063C89.7397 301.594 145.252 315.018 188.94 318.624C243.551 323.132 415.398 322.631 431.43 293.58C439.122 279.643 375.317 211.436 358.783 203.922C342.25 196.409 333.733 165.855 316.698 132.296C299.664 98.7371 273.11 176.875 253.571 191.4C234.031 205.926 232.027 194.406 202.969 176.875Z" fill="#7E7F90"/>
<path d="M202.969 199.696C179.722 185.672 105.772 237.481 89.2388 283.563C89.2388 301.093 145.252 337.84 188.94 341.446C243.551 345.954 415.398 322.13 431.43 293.079C439.122 279.142 375.317 234.257 358.783 226.744C342.25 219.231 333.733 188.677 316.698 155.118C299.664 121.559 273.11 199.696 253.571 214.222C234.031 228.748 232.027 217.227 202.969 199.696Z" fill="#6E6F81"/>
<path d="M355.081 234.233C355.167 233.58 356.116 233.58 356.203 234.233L360.595 267.362C360.64 267.7 360.376 268 360.034 268H351.25C350.908 268 350.644 267.7 350.688 267.362L355.081 234.233Z" fill="#1BAD42"/>
<path d="M348.973 247.72C349.092 247.112 349.965 247.112 350.084 247.72L353.925 267.328C353.993 267.676 353.726 268 353.37 268H345.687C345.331 268 345.064 267.676 345.132 267.328L348.973 247.72Z" fill="#1BAD42"/>
<path d="M361.82 243.165C361.931 242.544 362.824 242.544 362.935 243.165L367.241 267.338C367.302 267.683 367.036 268 366.683 268H358.072C357.72 268 357.453 267.683 357.514 267.338L361.82 243.165Z" fill="#1BAD42"/>
<path d="M368 256.994C368.148 256.433 368.947 256.433 369.095 256.994L371.813 267.293C371.908 267.65 371.637 268 371.266 268H365.829C365.458 268 365.187 267.65 365.281 267.293L368 256.994Z" fill="#1BAD42"/>
<path d="M165.894 255.69C142.647 241.665 97.2551 252.007 80.7217 298.088C80.7217 315.619 128.218 343.779 171.906 347.385C226.516 351.893 399.365 353.686 415.398 324.635C423.09 310.697 386.014 280.002 372.812 267.534C359.284 254.76 337.741 256.014 320.707 222.455C303.672 188.896 254.937 236.225 235.534 250.933C205.474 273.721 194.952 273.22 165.894 255.69Z" fill="#BFE258"/>
<path d="M132.081 248.233C132.167 247.58 133.116 247.58 133.203 248.233L137.595 281.362C137.64 281.7 137.376 282 137.034 282H128.25C127.908 282 127.644 281.7 127.688 281.362L132.081 248.233Z" fill="#1BAD42"/>
<path d="M125.973 261.72C126.092 261.112 126.965 261.112 127.084 261.72L130.925 281.328C130.993 281.676 130.726 282 130.37 282H122.687C122.331 282 122.064 281.676 122.132 281.328L125.973 261.72Z" fill="#1BAD42"/>
<path d="M138.82 257.165C138.931 256.544 139.824 256.544 139.935 257.165L144.241 281.338C144.302 281.683 144.036 282 143.683 282H135.072C134.72 282 134.453 281.683 134.514 281.338L138.82 257.165Z" fill="#1BAD42"/>
<path d="M145 270.994C145.148 270.433 145.947 270.433 146.095 270.994L148.813 281.293C148.908 281.65 148.637 282 148.266 282H142.829C142.458 282 142.187 281.65 142.281 281.293L145 270.994Z" fill="#1BAD42"/>
<path d="M163.389 284.278C140.142 270.254 106.273 270.219 89.7397 316.301C89.7397 333.832 145.252 347.255 188.94 350.862C243.551 355.37 416.4 357.163 432.432 328.112C440.124 314.174 392.351 301.184 368.303 296.175C350.086 292.381 343.753 290.164 326.719 256.605C309.684 223.046 280.488 265.439 261.086 280.147C231.025 302.935 192.447 301.809 163.389 284.278Z" fill="#89D94F"/>
<path d="M274.081 294.233C274.167 293.58 275.116 293.58 275.203 294.233L279.595 327.362C279.64 327.7 279.376 328 279.034 328H270.25C269.908 328 269.644 327.7 269.688 327.362L274.081 294.233Z" fill="#1BAD42"/>
<path d="M267.973 307.72C268.092 307.112 268.965 307.112 269.084 307.72L272.925 327.328C272.993 327.676 272.726 328 272.37 328H264.687C264.331 328 264.064 327.676 264.132 327.328L267.973 307.72Z" fill="#1BAD42"/>
<path d="M280.82 303.165C280.931 302.544 281.824 302.544 281.935 303.165L286.241 327.338C286.302 327.683 286.036 328 285.683 328H277.072C276.72 328 276.453 327.683 276.514 327.338L280.82 303.165Z" fill="#1BAD42"/>
<path d="M287 316.994C287.148 316.433 287.947 316.433 288.095 316.994L290.813 327.293C290.908 327.65 290.637 328 290.266 328H284.829C284.458 328 284.187 327.65 284.281 327.293L287 316.994Z" fill="#1BAD42"/>
<path fill-rule="evenodd" clip-rule="evenodd" d="M368.97 181.6C369.091 180.713 369.154 179.808 369.154 178.887C369.154 167.904 360.234 159 349.231 159C338.637 159 329.975 167.253 329.344 177.669C326.939 175.424 323.707 174.05 320.154 174.05C313.653 174.05 308.229 178.65 306.968 184.767C305.454 183.448 303.474 182.65 301.308 182.65C296.914 182.65 293.289 185.933 292.759 190.175H274.923C271.652 190.175 269 192.822 269 196.087C269 199.353 271.652 202 274.923 202H369.672C369.679 202 369.686 202 369.692 202C369.699 202 369.706 202 369.712 202H389.077C392.348 202 395 199.353 395 196.087C395 192.822 392.348 190.175 389.077 190.175H379.796C379.022 185.301 374.793 181.575 369.692 181.575C369.45 181.575 369.209 181.583 368.97 181.6Z" fill="white"/>
<path fill-rule="evenodd" clip-rule="evenodd" d="M164.82 147.767C164.905 147.149 164.949 146.517 164.949 145.875C164.949 138.212 158.719 132 151.034 132C143.636 132 137.586 137.758 137.145 145.025C135.465 143.459 133.208 142.5 130.726 142.5C126.186 142.5 122.398 145.709 121.518 149.977C120.46 149.057 119.077 148.5 117.564 148.5C114.496 148.5 111.964 150.79 111.594 153.75H99.1368C96.8521 153.75 95 155.597 95 157.875C95 160.153 96.8521 162 99.1368 162H165.311C165.315 162 165.32 162 165.325 162C165.329 162 165.334 162 165.339 162H178.863C181.148 162 183 160.153 183 157.875C183 155.597 181.148 153.75 178.863 153.75H172.382C171.841 150.35 168.887 147.75 165.325 147.75C165.155 147.75 164.987 147.756 164.82 147.767Z" fill="white"/>
<path d="M228.486 444.406C228.295 444.106 228.51 443.715 228.866 443.715H300.505C300.782 443.715 300.993 443.962 300.95 444.235L298.796 457.622C298.761 457.84 298.573 458 298.351 458H237.425C237.271 458 237.128 457.922 237.045 457.792L228.486 444.406Z" fill="#835432"/>
<path d="M211.222 434.407C211.007 434.281 210.936 434.005 211.063 433.792L211.084 433.755C211.211 433.541 211.487 433.47 211.701 433.596L230.441 444.621C230.655 444.747 230.726 445.023 230.6 445.236L230.578 445.273C230.451 445.487 230.175 445.558 229.961 445.432L211.222 434.407Z" fill="#252823"/>
<path d="M283.675 430.388C283.706 430.288 283.772 430.201 283.86 430.144L296.375 422.029C296.663 421.842 297.046 422.032 297.07 422.373L298.476 441.976C298.494 442.236 298.288 442.457 298.026 442.457H280.558C280.255 442.457 280.038 442.164 280.127 441.876L283.675 430.388Z" fill="white"/>
<path d="M283.675 430.388C283.706 430.288 283.772 430.201 283.86 430.144L296.375 422.029C296.663 421.842 297.046 422.032 297.07 422.373L298.476 441.976C298.494 442.236 298.288 442.457 298.026 442.457H280.558C280.255 442.457 280.038 442.164 280.127 441.876L283.675 430.388Z" fill="white"/>
<path d="M282.907 407.955C282.951 407.747 283.135 407.598 283.348 407.598H294.99C295.273 407.598 295.486 407.855 295.432 408.133L292.449 423.406C292.408 423.617 292.223 423.77 292.007 423.77H280.142C279.856 423.77 279.642 423.507 279.701 423.228L282.907 407.955Z" fill="white"/>
<path d="M282.907 407.955C282.951 407.747 283.135 407.598 283.348 407.598H294.99C295.273 407.598 295.486 407.855 295.432 408.133L292.449 423.406C292.408 423.617 292.223 423.77 292.007 423.77H280.142C279.856 423.77 279.642 423.507 279.701 423.228L282.907 407.955Z" fill="white"/>
<path d="M259.442 404.519C259.494 404.321 259.673 404.184 259.878 404.184H276.502C276.742 404.184 276.94 404.371 276.952 404.61L277.851 422.399C277.864 422.656 277.659 422.871 277.401 422.871H255.211C254.915 422.871 254.7 422.593 254.775 422.308L259.442 404.519Z" fill="white"/>
<path d="M259.442 404.519C259.494 404.321 259.673 404.184 259.878 404.184H276.502C276.742 404.184 276.94 404.371 276.952 404.61L277.851 422.399C277.864 422.656 277.659 422.871 277.401 422.871H255.211C254.915 422.871 254.7 422.593 254.775 422.308L259.442 404.519Z" fill="white"/>
<path d="M258.451 424.285C258.503 424.087 258.682 423.949 258.888 423.949H275.511C275.751 423.949 275.949 424.137 275.961 424.376L276.86 442.255C276.873 442.511 276.668 442.727 276.41 442.727H254.219C253.924 442.727 253.708 442.449 253.783 442.164L258.451 424.285Z" fill="white"/>
<path d="M258.451 424.285C258.503 424.087 258.682 423.949 258.888 423.949H275.511C275.751 423.949 275.949 424.137 275.961 424.376L276.86 442.255C276.873 442.511 276.668 442.727 276.41 442.727H254.219C253.924 442.727 253.708 442.449 253.783 442.164L258.451 424.285Z" fill="white"/>
<path d="M261.812 389.336C261.863 389.138 262.043 389 262.248 389H274.487C274.727 389 274.925 389.188 274.937 389.427L275.599 402.634C275.612 402.89 275.407 403.105 275.149 403.105H258.814C258.519 403.105 258.303 402.828 258.377 402.544L261.812 389.336Z" fill="white"/>
<path d="M261.812 389.336C261.863 389.138 262.043 389 262.248 389H274.487C274.727 389 274.925 389.188 274.937 389.427L275.599 402.634C275.612 402.89 275.407 403.105 275.149 403.105H258.814C258.519 403.105 258.303 402.828 258.377 402.544L261.812 389.336Z" fill="white"/>
<path d="M261.812 389.336C261.863 389.138 262.043 389 262.248 389H274.487C274.727 389 274.925 389.188 274.937 389.427L275.599 402.634C275.612 402.89 275.407 403.105 275.149 403.105H258.814C258.519 403.105 258.303 402.828 258.377 402.544L261.812 389.336Z" fill="white"/>
<path d="M261.812 389.336C261.863 389.138 262.043 389 262.248 389H274.487C274.727 389 274.925 389.188 274.937 389.427L275.599 402.634C275.612 402.89 275.407 403.105 275.149 403.105H258.814C258.519 403.105 258.303 402.828 258.377 402.544L261.812 389.336Z" fill="white"/>
<path d="M239.26 393.109C239.311 392.912 239.491 392.773 239.696 392.773H250.249C250.489 392.773 250.687 392.961 250.699 393.2L251.269 404.52C251.282 404.777 251.077 404.992 250.819 404.992H236.737C236.443 404.992 236.227 404.714 236.301 404.43L239.26 393.109Z" fill="white"/>
<path d="M239.26 393.109C239.311 392.912 239.491 392.773 239.696 392.773H250.249C250.489 392.773 250.687 392.961 250.699 393.2L251.269 404.52C251.282 404.777 251.077 404.992 250.819 404.992H236.737C236.443 404.992 236.227 404.714 236.301 404.43L239.26 393.109Z" fill="white"/>
<path d="M239.26 393.109C239.311 392.912 239.491 392.773 239.696 392.773H250.249C250.489 392.773 250.687 392.961 250.699 393.2L251.269 404.52C251.282 404.777 251.077 404.992 250.819 404.992H236.737C236.443 404.992 236.227 404.714 236.301 404.43L239.26 393.109Z" fill="white"/>
<path d="M239.26 393.109C239.311 392.912 239.491 392.773 239.696 392.773H250.249C250.489 392.773 250.687 392.961 250.699 393.2L251.269 404.52C251.282 404.777 251.077 404.992 250.819 404.992H236.737C236.443 404.992 236.227 404.714 236.301 404.43L239.26 393.109Z" fill="white"/>
<path d="M233.696 407.036C233.747 406.838 233.926 406.699 234.132 406.699H251.159C251.399 406.699 251.597 406.887 251.609 407.126L252.531 425.544C252.544 425.801 252.338 426.016 252.081 426.016H229.348C229.053 426.016 228.838 425.738 228.911 425.454L233.696 407.036Z" fill="white"/>
<path d="M233.696 407.036C233.747 406.838 233.926 406.699 234.132 406.699H251.159C251.399 406.699 251.597 406.887 251.609 407.126L252.531 425.544C252.544 425.801 252.338 426.016 252.081 426.016H229.348C229.053 426.016 228.838 425.738 228.911 425.454L233.696 407.036Z" fill="white"/>
<path d="M233.696 407.036C233.747 406.838 233.926 406.699 234.132 406.699H251.159C251.399 406.699 251.597 406.887 251.609 407.126L252.531 425.544C252.544 425.801 252.338 426.016 252.081 426.016H229.348C229.053 426.016 228.838 425.738 228.911 425.454L233.696 407.036Z" fill="white"/>
<path d="M233.696 407.036C233.747 406.838 233.926 406.699 234.132 406.699H251.159C251.399 406.699 251.597 406.887 251.609 407.126L252.531 425.544C252.544 425.801 252.338 426.016 252.081 426.016H229.348C229.053 426.016 228.838 425.738 228.911 425.454L233.696 407.036Z" fill="white"/>
<path d="M232.732 428.348C232.777 428.141 232.96 427.992 233.173 427.992H252.301C252.606 427.992 252.822 428.286 252.731 428.576L248.38 442.412C248.321 442.599 248.147 442.727 247.95 442.727H230.223C229.936 442.727 229.723 442.463 229.782 442.184L232.732 428.348Z" fill="white"/>
<path d="M232.732 428.348C232.777 428.141 232.96 427.992 233.173 427.992H252.301C252.606 427.992 252.822 428.286 252.731 428.576L248.38 442.412C248.321 442.599 248.147 442.727 247.95 442.727H230.223C229.936 442.727 229.723 442.463 229.782 442.184L232.732 428.348Z" fill="white"/>
<path d="M232.732 428.348C232.777 428.141 232.96 427.992 233.173 427.992H252.301C252.606 427.992 252.822 428.286 252.731 428.576L248.38 442.412C248.321 442.599 248.147 442.727 247.95 442.727H230.223C229.936 442.727 229.723 442.463 229.782 442.184L232.732 428.348Z" fill="white"/>
<path d="M232.732 428.348C232.777 428.141 232.96 427.992 233.173 427.992H252.301C252.606 427.992 252.822 428.286 252.731 428.576L248.38 442.412C248.321 442.599 248.147 442.727 247.95 442.727H230.223C229.936 442.727 229.723 442.463 229.782 442.184L232.732 428.348Z" fill="white"/>
<path d="M227.729 415.064C228.034 414.702 228.621 414.995 228.513 415.456L223.224 437.917C223.155 438.21 222.823 438.354 222.561 438.205L213.374 432.961C213.13 432.822 213.072 432.497 213.252 432.282L227.729 415.064Z" fill="white"/>
<path d="M228.61 444.728C228.327 444.291 228.642 443.715 229.164 443.715H300.341C300.75 443.715 301.06 444.082 300.99 444.484L299.771 451.525C299.716 451.84 299.442 452.07 299.121 452.07H233.717C233.493 452.07 233.284 451.957 233.163 451.769L228.61 444.728Z" fill="#252823"/>
<path d="M231.722 446.02C231.534 445.721 231.749 445.332 232.104 445.332H298.436C298.712 445.332 298.923 445.577 298.881 445.849L298.233 450.072C298.199 450.291 298.01 450.453 297.787 450.453H234.764C234.609 450.453 234.465 450.374 234.382 450.243L231.722 446.02Z" fill="white"/>
<path d="M239.939 447.129C239.939 446.881 240.141 446.68 240.39 446.68H241.831C242.08 446.68 242.282 446.881 242.282 447.129V448.566C242.282 448.815 242.08 449.016 241.831 449.016H240.39C240.141 449.016 239.939 448.815 239.939 448.566V447.129Z" fill="#090302"/>
<path d="M246.517 447.129C246.517 446.881 246.719 446.68 246.968 446.68H248.499C248.748 446.68 248.95 446.881 248.95 447.129V448.566C248.95 448.815 248.748 449.016 248.499 449.016H246.968C246.719 449.016 246.517 448.815 246.517 448.566V447.129Z" fill="#090302"/>
<path d="M253.185 447.129C253.185 446.881 253.387 446.68 253.636 446.68H255.077C255.326 446.68 255.528 446.881 255.528 447.129V448.566C255.528 448.815 255.326 449.016 255.077 449.016H253.636C253.387 449.016 253.185 448.815 253.185 448.566V447.129Z" fill="#090302"/>
<path d="M259.763 447.129C259.763 446.881 259.965 446.68 260.214 446.68H261.655C261.904 446.68 262.106 446.881 262.106 447.129V448.566C262.106 448.815 261.904 449.016 261.655 449.016H260.214C259.965 449.016 259.763 448.815 259.763 448.566V447.129Z" fill="#090302"/>
<path d="M266.341 447.129C266.341 446.881 266.543 446.68 266.792 446.68H268.324C268.572 446.68 268.774 446.881 268.774 447.129V448.566C268.774 448.815 268.572 449.016 268.324 449.016H266.792C266.543 449.016 266.341 448.815 266.341 448.566V447.129Z" fill="#090302"/>
<path d="M273.009 447.129C273.009 446.881 273.211 446.68 273.46 446.68H274.902C275.15 446.68 275.352 446.881 275.352 447.129V448.566C275.352 448.815 275.15 449.016 274.902 449.016H273.46C273.211 449.016 273.009 448.815 273.009 448.566V447.129Z" fill="#090302"/>
<path d="M279.587 447.129C279.587 446.881 279.789 446.68 280.038 446.68H281.48C281.728 446.68 281.93 446.881 281.93 447.129V448.566C281.93 448.815 281.728 449.016 281.48 449.016H280.038C279.789 449.016 279.587 448.815 279.587 448.566V447.129Z" fill="#090302"/>
<path d="M286.165 447.129C286.165 446.881 286.367 446.68 286.616 446.68H288.148C288.397 446.68 288.598 446.881 288.598 447.129V448.566C288.598 448.815 288.397 449.016 288.148 449.016H286.616C286.367 449.016 286.165 448.815 286.165 448.566V447.129Z" fill="#090302"/>
<path d="M292.833 447.129C292.833 446.881 293.035 446.68 293.284 446.68H294.726C294.975 446.68 295.176 446.881 295.176 447.129V448.566C295.176 448.815 294.975 449.016 294.726 449.016H293.284C293.035 449.016 292.833 448.815 292.833 448.566V447.129Z" fill="#090302"/>
<path d="M344.203 34.6559C336.313 34.7851 328.894 33.5506 323.255 32.0215C319.229 30.9298 314.55 33.9153 314.55 38.0818L314.55 102.342C314.55 105.357 316.754 108.543 319.682 109.276C328.206 111.41 345.149 115.177 354.452 115.854C367.57 116.81 374.812 110.941 388.614 106.302C397.145 103.433 408.13 102.227 415.54 101.827C418.555 101.665 421 99.2177 421 96.2029V82.1468C421 81.5099 419.497 79.7176 413.484 77.6433C409.305 76.2014 412.146 75.1595 415.951 74.536C418.778 74.0727 421 71.7437 421 68.8825V68.1981C421 65.9861 419.664 63.9953 417.612 63.1632C416.109 62.554 414.111 61.7458 411.571 60.7213C407.423 59.0482 410.59 57.1764 414.446 55.8803C416.877 55.0636 418.677 52.8939 418.677 50.3333V28.0416C418.677 25.0519 416.272 22.6448 413.284 22.8309C407.564 23.1872 398.575 24.1218 387.657 26.1949C368.253 29.8795 360.874 34.383 344.203 34.6559Z" fill="#D9616E"/>
<path fill-rule="evenodd" clip-rule="evenodd" d="M378.445 92.9667C387.469 88.9045 393.75 79.843 393.75 69.3165C393.75 54.9963 382.126 43.3876 367.787 43.3876C353.447 43.3876 341.823 54.9963 341.823 69.3165C341.823 79.7364 347.978 88.7208 356.855 92.8418V102.888C356.855 104.395 358.078 105.617 359.588 105.617H375.712C377.222 105.617 378.445 104.395 378.445 102.888V92.9667Z" fill="white"/>
<path fill-rule="evenodd" clip-rule="evenodd" d="M375.712 91.2032L377.322 90.4785C385.402 86.8412 391.017 78.7308 391.017 69.3165C391.017 56.5037 380.616 46.1169 367.787 46.1169C354.957 46.1169 344.556 56.5037 344.556 69.3165C344.556 78.6354 350.058 86.6767 358.007 90.3668L359.588 91.1007V102.888H375.712V91.2032ZM378.445 92.9667V102.888C378.445 104.395 377.222 105.617 375.712 105.617H359.588C358.078 105.617 356.855 104.395 356.855 102.888V92.8418C347.978 88.7208 341.823 79.7364 341.823 69.3165C341.823 54.9963 353.447 43.3876 367.787 43.3876C382.126 43.3876 393.75 54.9963 393.75 69.3165C393.75 79.843 387.469 88.9045 378.445 92.9667Z" fill="black"/>
<ellipse cx="358.494" cy="70.4082" rx="4.64606" ry="4.63991" fill="#777777"/>
<mask id="path-20-inside-1_1323_4662" fill="white">
<ellipse cx="375.986" cy="68.7706" rx="8.19893" ry="8.18807"/>
</mask>
<ellipse cx="375.986" cy="68.7706" rx="8.19893" ry="8.18807" fill="black"/>
<path d="M374.184 68.7706C374.184 67.7574 375.003 66.9587 375.986 66.9587V86.9587C386.024 86.9587 394.184 78.8281 394.184 68.7706H374.184ZM375.986 66.9587C376.968 66.9587 377.787 67.7574 377.787 68.7706H357.787C357.787 78.8281 365.947 86.9587 375.986 86.9587V66.9587ZM377.787 68.7706C377.787 69.7838 376.968 70.5825 375.986 70.5825V50.5825C365.947 50.5825 357.787 58.7131 357.787 68.7706H377.787ZM375.986 70.5825C375.003 70.5825 374.184 69.7838 374.184 68.7706H394.184C394.184 58.7131 386.024 50.5825 375.986 50.5825V70.5825Z" fill="black" mask="url(#path-20-inside-1_1323_4662)"/>
<path d="M357.254 46.8245L390.401 79.8188L387.7 82.5252L354.553 49.5309L357.254 46.8245Z" fill="black"/>
<path d="M354.668 90.469C354.668 89.7907 355.219 89.2408 355.898 89.2408H360.817C361.497 89.2408 362.047 89.7907 362.047 90.469C362.047 91.1473 361.497 91.6972 360.817 91.6972H355.898C355.219 91.6972 354.668 91.1473 354.668 90.469Z" fill="black"/>
<path d="M373.799 90.469C373.799 89.7907 374.35 89.2408 375.029 89.2408H379.948C380.627 89.2408 381.178 89.7907 381.178 90.469C381.178 91.1473 380.627 91.6972 379.948 91.6972H375.029C374.35 91.6972 373.799 91.1473 373.799 90.469Z" fill="black"/>
<path d="M369.563 93.3348C370.242 93.3348 370.793 93.8847 370.793 94.563V99.4759C370.793 100.154 370.242 100.704 369.563 100.704C368.884 100.704 368.333 100.154 368.333 99.4759V94.563C368.333 93.8847 368.884 93.3348 369.563 93.3348Z" fill="black"/>
<path d="M365.737 93.3348C366.416 93.3348 366.967 93.8847 366.967 94.563V99.4759C366.967 100.154 366.416 100.704 365.737 100.704C365.057 100.704 364.507 100.154 364.507 99.4759V94.563C364.507 93.8847 365.057 93.3348 365.737 93.3348Z" fill="black"/>
<ellipse cx="375.986" cy="68.7706" rx="5.19266" ry="5.18578" fill="#777777"/>
<rect x="301.919" y="22.6445" width="7.65234" height="108.356" rx="3.82617" fill="#BE7348"/>
<ellipse cx="305.746" cy="20.7339" rx="8.74553" ry="8.73394" fill="#F2C780"/>
<path d="M223 305.905C223 305.552 223.175 305.221 223.469 305.018L233.369 298.196C233.748 297.935 234.252 297.935 234.631 298.196L244.531 305.018C244.825 305.221 245 305.552 245 305.905V325.917C245 326.515 244.508 327 243.9 327H224.1C223.492 327 223 326.515 223 325.917V305.905Z" fill="#F9B07B"/>
<path d="M230.7 315.088C230.7 314.49 231.192 314.005 231.8 314.005H236.2C236.808 314.005 237.3 314.49 237.3 315.088V327H230.7V315.088Z" fill="#FFF6A3"/>
<path d="M311 313.268C311 312.854 311.207 312.466 311.554 312.228L323.254 304.23C323.702 303.923 324.298 303.923 324.746 304.23L336.446 312.228C336.793 312.466 337 312.854 337 313.268V336.73C337 337.432 336.418 338 335.7 338H312.3C311.582 338 311 337.432 311 336.73V313.268Z" fill="#F9B07B"/>
<path d="M320.1 324.034C320.1 323.333 320.682 322.764 321.4 322.764H326.6C327.318 322.764 327.9 323.333 327.9 324.034V338H320.1V324.034Z" fill="#FFF6A3"/>
<path d="M301 231.997C301 231.729 301.135 231.478 301.363 231.324L309.013 226.149C309.305 225.95 309.695 225.95 309.987 226.149L317.637 231.324C317.865 231.478 318 231.729 318 231.997V247.178C318 247.632 317.619 248 317.15 248H301.85C301.381 248 301 247.632 301 247.178V231.997Z" fill="#F9B07B"/>
<path d="M306.95 238.963C306.95 238.509 307.331 238.142 307.8 238.142H311.2C311.669 238.142 312.05 238.509 312.05 238.963V248H306.95V238.963Z" fill="#FFF6A3"/>
<path d="M162.668 261.474C162.668 260.886 163.142 260.409 163.727 260.409H168.385C168.969 260.409 169.443 260.886 169.443 261.474V264.196H162.668V261.474Z" fill="#A0A0A0"/>
<path d="M149.12 261.474C149.12 260.886 149.593 260.409 150.178 260.409H154.836C155.42 260.409 155.894 260.886 155.894 261.474V264.196H149.12V261.474Z" fill="#A0A0A0"/>
<rect x="144.153" y="264.134" width="30.4818" height="33.8664" fill="#A0A0A0"/>
<path d="M154.012 272.319C154.012 271.695 154.518 271.19 155.141 271.19V271.19C155.765 271.19 156.27 271.695 156.27 272.319V275.734H154.012V272.319Z" fill="#FFF6A3"/>
<path d="M154.012 272.238C154.012 271.659 154.518 271.19 155.141 271.19C155.765 271.19 156.27 271.659 156.27 272.238V275.734H154.012V272.238Z" fill="#FFF6A3"/>
<path d="M162.292 272.142C162.292 271.519 162.797 271.013 163.421 271.013V271.013C164.045 271.013 164.55 271.519 164.55 272.142V275.557H162.292V272.142Z" fill="#FFF6A3"/>
<path d="M162.292 272.062C162.292 271.483 162.797 271.013 163.421 271.013C164.045 271.013 164.55 271.483 164.55 272.062V275.557H162.292V272.062Z" fill="#FFF6A3"/>
<path d="M152.022 287.217C152.022 284.456 154.261 282.217 157.022 282.217H161.57C164.331 282.217 166.57 284.456 166.57 287.217V298H152.022V287.217Z" fill="#FFF6A3"/>
<rect x="120.156" y="248.775" width="24.2458" height="49.2248" fill="#A0A0A0"/>
<path d="M116 242.84H148.559V247.708C148.559 248.298 148.085 248.775 147.5 248.775H117.058C116.474 248.775 116 248.298 116 247.708V242.84Z" fill="#A0A0A0"/>
<path d="M116 240.067C116 239.478 116.474 239 117.058 239H121.523C122.107 239 122.581 239.478 122.581 240.067V242.84H116V240.067Z" fill="#A0A0A0"/>
<path d="M141.978 240.067C141.978 239.478 142.452 239 143.036 239H147.5C148.085 239 148.559 239.478 148.559 240.067V242.84H141.978V240.067Z" fill="#A0A0A0"/>
<path d="M129.508 240.067C129.508 239.478 129.982 239 130.567 239H135.031C135.616 239 136.089 239.478 136.089 240.067V242.84H129.508V240.067Z" fill="#A0A0A0"/>
<path d="M135.05 253.654C135.05 253.081 135.516 252.615 136.089 252.615V252.615C136.663 252.615 137.129 253.081 137.129 253.654V257.154H135.05V253.654Z" fill="#FFF6A3"/>
<path d="M135.05 253.663C135.05 253.084 135.516 252.615 136.089 252.615C136.663 252.615 137.129 253.084 137.129 253.663V257.154H135.05V253.663Z" fill="#FFF6A3"/>
<path d="M127.43 266.572C127.43 265.998 127.895 265.532 128.469 265.532V265.532C129.043 265.532 129.508 265.998 129.508 266.572V270.071H127.43V266.572Z" fill="#FFF6A3"/>
<path d="M127.43 266.58C127.43 266.001 127.895 265.532 128.469 265.532C129.043 265.532 129.508 266.001 129.508 266.58V270.071H127.43V266.58Z" fill="#FFF6A3"/>
<path d="M135.05 278.791C135.05 278.217 135.516 277.751 136.089 277.751V277.751C136.663 277.751 137.129 278.217 137.129 278.791V282.29H135.05V278.791Z" fill="#FFF6A3"/>
<path d="M135.05 278.799C135.05 278.22 135.516 277.751 136.089 277.751C136.663 277.751 137.129 278.22 137.129 278.799V282.29H135.05V278.799Z" fill="#FFF6A3"/>
<path d="M127.43 288.915C127.43 288.341 127.895 287.876 128.469 287.876V287.876C129.043 287.876 129.508 288.341 129.508 288.915V292.414H127.43V288.915Z" fill="#FFF6A3"/>
<path d="M127.43 288.923C127.43 288.345 127.895 287.876 128.469 287.876C129.043 287.876 129.508 288.345 129.508 288.923V292.414H127.43V288.923Z" fill="#FFF6A3"/>
<rect x="174.536" y="248.775" width="24.2458" height="49.2249" fill="#A0A0A0"/>
<path d="M170.38 242.84H202.939V247.708C202.939 248.298 202.465 248.775 201.88 248.775H171.438C170.854 248.775 170.38 248.298 170.38 247.708V242.84Z" fill="#A0A0A0"/>
<path d="M170.38 240.067C170.38 239.478 170.854 239 171.438 239H175.902C176.487 239 176.961 239.478 176.961 240.067V242.84H170.38V240.067Z" fill="#A0A0A0"/>
<path d="M196.358 240.067C196.358 239.478 196.831 239 197.416 239H201.88C202.465 239 202.939 239.478 202.939 240.067V242.84H196.358V240.067Z" fill="#A0A0A0"/>
<path d="M183.888 240.067C183.888 239.478 184.362 239 184.947 239H189.411C189.995 239 190.469 239.478 190.469 240.067V242.84H183.888V240.067Z" fill="#A0A0A0"/>
<path d="M189.43 253.654C189.43 253.081 189.895 252.615 190.469 252.615V252.615C191.043 252.615 191.508 253.081 191.508 253.654V257.154H189.43V253.654Z" fill="#FFF6A3"/>
<path d="M189.43 253.663C189.43 253.084 189.895 252.615 190.469 252.615C191.043 252.615 191.508 253.084 191.508 253.663V257.154H189.43V253.663Z" fill="#FFF6A3"/>
<path d="M181.81 266.572C181.81 265.998 182.275 265.532 182.849 265.532V265.532C183.423 265.532 183.888 265.998 183.888 266.572V270.071H181.81V266.572Z" fill="#FFF6A3"/>
<path d="M181.81 266.58C181.81 266.001 182.275 265.532 182.849 265.532C183.423 265.532 183.888 266.001 183.888 266.58V270.071H181.81V266.58Z" fill="#FFF6A3"/>
<path d="M189.43 278.791C189.43 278.217 189.895 277.751 190.469 277.751V277.751C191.043 277.751 191.508 278.217 191.508 278.791V282.29H189.43V278.791Z" fill="#FFF6A3"/>
<path d="M189.43 278.799C189.43 278.22 189.895 277.751 190.469 277.751C191.043 277.751 191.508 278.22 191.508 278.799V282.29H189.43V278.799Z" fill="#FFF6A3"/>
<path d="M181.81 288.915C181.81 288.341 182.275 287.876 182.849 287.876V287.876C183.423 287.876 183.888 288.341 183.888 288.915V292.414H181.81V288.915Z" fill="#FFF6A3"/>
<path d="M181.81 288.923C181.81 288.345 182.275 287.876 182.849 287.876C183.423 287.876 183.888 288.345 183.888 288.923V292.414H181.81V288.923Z" fill="#FFF6A3"/>
<path d="M228.486 444.406C228.295 444.106 228.51 443.715 228.866 443.715H300.505C300.782 443.715 300.993 443.962 300.95 444.235L298.796 457.622C298.761 457.84 298.573 458 298.351 458H237.425C237.271 458 237.128 457.922 237.045 457.792L228.486 444.406Z" fill="#835432"/>
<path d="M211.222 434.407C211.007 434.281 210.936 434.005 211.063 433.792L211.084 433.755C211.211 433.541 211.487 433.47 211.701 433.596L230.441 444.621C230.655 444.747 230.726 445.023 230.6 445.236L230.578 445.273C230.451 445.487 230.175 445.558 229.961 445.432L211.222 434.407Z" fill="#252823"/>
<path d="M283.675 430.388C283.706 430.288 283.772 430.201 283.86 430.144L296.375 422.029C296.663 421.842 297.046 422.032 297.07 422.373L298.476 441.976C298.494 442.236 298.288 442.457 298.026 442.457H280.558C280.255 442.457 280.038 442.164 280.127 441.876L283.675 430.388Z" fill="white"/>
<path d="M283.675 430.388C283.706 430.288 283.772 430.201 283.86 430.144L296.375 422.029C296.663 421.842 297.046 422.032 297.07 422.373L298.476 441.976C298.494 442.236 298.288 442.457 298.026 442.457H280.558C280.255 442.457 280.038 442.164 280.127 441.876L283.675 430.388Z" fill="white"/>
<path d="M282.907 407.955C282.951 407.747 283.135 407.598 283.348 407.598H294.99C295.273 407.598 295.486 407.855 295.432 408.133L292.449 423.406C292.408 423.617 292.223 423.77 292.007 423.77H280.142C279.856 423.77 279.642 423.507 279.701 423.228L282.907 407.955Z" fill="white"/>
<path d="M282.907 407.955C282.951 407.747 283.135 407.598 283.348 407.598H294.99C295.273 407.598 295.486 407.855 295.432 408.133L292.449 423.406C292.408 423.617 292.223 423.77 292.007 423.77H280.142C279.856 423.77 279.642 423.507 279.701 423.228L282.907 407.955Z" fill="white"/>
<path d="M259.442 404.519C259.494 404.321 259.673 404.184 259.878 404.184H276.502C276.742 404.184 276.94 404.371 276.952 404.61L277.851 422.399C277.864 422.656 277.659 422.871 277.401 422.871H255.211C254.915 422.871 254.7 422.593 254.775 422.308L259.442 404.519Z" fill="white"/>
<path d="M259.442 404.519C259.494 404.321 259.673 404.184 259.878 404.184H276.502C276.742 404.184 276.94 404.371 276.952 404.61L277.851 422.399C277.864 422.656 277.659 422.871 277.401 422.871H255.211C254.915 422.871 254.7 422.593 254.775 422.308L259.442 404.519Z" fill="white"/>
<path d="M258.451 424.285C258.503 424.087 258.682 423.949 258.888 423.949H275.511C275.751 423.949 275.949 424.137 275.961 424.376L276.86 442.255C276.873 442.511 276.668 442.727 276.41 442.727H254.219C253.924 442.727 253.708 442.449 253.783 442.164L258.451 424.285Z" fill="white"/>
<path d="M258.451 424.285C258.503 424.087 258.682 423.949 258.888 423.949H275.511C275.751 423.949 275.949 424.137 275.961 424.376L276.86 442.255C276.873 442.511 276.668 442.727 276.41 442.727H254.219C253.924 442.727 253.708 442.449 253.783 442.164L258.451 424.285Z" fill="white"/>
<path d="M261.812 389.336C261.863 389.138 262.043 389 262.248 389H274.487C274.727 389 274.925 389.188 274.937 389.427L275.599 402.634C275.612 402.89 275.407 403.105 275.149 403.105H258.814C258.519 403.105 258.303 402.828 258.377 402.544L261.812 389.336Z" fill="white"/>
<path d="M261.812 389.336C261.863 389.138 262.043 389 262.248 389H274.487C274.727 389 274.925 389.188 274.937 389.427L275.599 402.634C275.612 402.89 275.407 403.105 275.149 403.105H258.814C258.519 403.105 258.303 402.828 258.377 402.544L261.812 389.336Z" fill="white"/>
<path d="M261.812 389.336C261.863 389.138 262.043 389 262.248 389H274.487C274.727 389 274.925 389.188 274.937 389.427L275.599 402.634C275.612 402.89 275.407 403.105 275.149 403.105H258.814C258.519 403.105 258.303 402.828 258.377 402.544L261.812 389.336Z" fill="white"/>
<path d="M261.812 389.336C261.863 389.138 262.043 389 262.248 389H274.487C274.727 389 274.925 389.188 274.937 389.427L275.599 402.634C275.612 402.89 275.407 403.105 275.149 403.105H258.814C258.519 403.105 258.303 402.828 258.377 402.544L261.812 389.336Z" fill="white"/>
<path d="M239.26 393.109C239.311 392.912 239.491 392.773 239.696 392.773H250.249C250.489 392.773 250.687 392.961 250.699 393.2L251.269 404.52C251.282 404.777 251.077 404.992 250.819 404.992H236.737C236.443 404.992 236.227 404.714 236.301 404.43L239.26 393.109Z" fill="white"/>
<path d="M239.26 393.109C239.311 392.912 239.491 392.773 239.696 392.773H250.249C250.489 392.773 250.687 392.961 250.699 393.2L251.269 404.52C251.282 404.777 251.077 404.992 250.819 404.992H236.737C236.443 404.992 236.227 404.714 236.301 404.43L239.26 393.109Z" fill="white"/>
<path d="M239.26 393.109C239.311 392.912 239.491 392.773 239.696 392.773H250.249C250.489 392.773 250.687 392.961 250.699 393.2L251.269 404.52C251.282 404.777 251.077 404.992 250.819 404.992H236.737C236.443 404.992 236.227 404.714 236.301 404.43L239.26 393.109Z" fill="white"/>
<path d="M239.26 393.109C239.311 392.912 239.491 392.773 239.696 392.773H250.249C250.489 392.773 250.687 392.961 250.699 393.2L251.269 404.52C251.282 404.777 251.077 404.992 250.819 404.992H236.737C236.443 404.992 236.227 404.714 236.301 404.43L239.26 393.109Z" fill="white"/>
<path d="M233.696 407.036C233.747 406.838 233.926 406.699 234.132 406.699H251.159C251.399 406.699 251.597 406.887 251.609 407.126L252.531 425.544C252.544 425.801 252.338 426.016 252.081 426.016H229.348C229.053 426.016 228.838 425.738 228.911 425.454L233.696 407.036Z" fill="white"/>
<path d="M233.696 407.036C233.747 406.838 233.926 406.699 234.132 406.699H251.159C251.399 406.699 251.597 406.887 251.609 407.126L252.531 425.544C252.544 425.801 252.338 426.016 252.081 426.016H229.348C229.053 426.016 228.838 425.738 228.911 425.454L233.696 407.036Z" fill="white"/>
<path d="M233.696 407.036C233.747 406.838 233.926 406.699 234.132 406.699H251.159C251.399 406.699 251.597 406.887 251.609 407.126L252.531 425.544C252.544 425.801 252.338 426.016 252.081 426.016H229.348C229.053 426.016 228.838 425.738 228.911 425.454L233.696 407.036Z" fill="white"/>
<path d="M233.696 407.036C233.747 406.838 233.926 406.699 234.132 406.699H251.159C251.399 406.699 251.597 406.887 251.609 407.126L252.531 425.544C252.544 425.801 252.338 426.016 252.081 426.016H229.348C229.053 426.016 228.838 425.738 228.911 425.454L233.696 407.036Z" fill="white"/>
<path d="M232.732 428.348C232.777 428.141 232.96 427.992 233.173 427.992H252.301C252.606 427.992 252.822 428.286 252.731 428.576L248.38 442.412C248.321 442.599 248.147 442.727 247.95 442.727H230.223C229.936 442.727 229.723 442.463 229.782 442.184L232.732 428.348Z" fill="white"/>
<path d="M232.732 428.348C232.777 428.141 232.96 427.992 233.173 427.992H252.301C252.606 427.992 252.822 428.286 252.731 428.576L248.38 442.412C248.321 442.599 248.147 442.727 247.95 442.727H230.223C229.936 442.727 229.723 442.463 229.782 442.184L232.732 428.348Z" fill="white"/>
<path d="M232.732 428.348C232.777 428.141 232.96 427.992 233.173 427.992H252.301C252.606 427.992 252.822 428.286 252.731 428.576L248.38 442.412C248.321 442.599 248.147 442.727 247.95 442.727H230.223C229.936 442.727 229.723 442.463 229.782 442.184L232.732 428.348Z" fill="white"/>
<path d="M232.732 428.348C232.777 428.141 232.96 427.992 233.173 427.992H252.301C252.606 427.992 252.822 428.286 252.731 428.576L248.38 442.412C248.321 442.599 248.147 442.727 247.95 442.727H230.223C229.936 442.727 229.723 442.463 229.782 442.184L232.732 428.348Z" fill="white"/>
<path d="M227.729 415.064C228.034 414.702 228.621 414.995 228.513 415.456L223.224 437.917C223.155 438.21 222.823 438.354 222.561 438.205L213.374 432.961C213.13 432.822 213.072 432.497 213.252 432.282L227.729 415.064Z" fill="white"/>
<path d="M228.61 444.728C228.327 444.291 228.642 443.715 229.164 443.715H300.341C300.75 443.715 301.06 444.082 300.99 444.484L299.771 451.525C299.716 451.84 299.442 452.07 299.121 452.07H233.717C233.493 452.07 233.284 451.957 233.163 451.769L228.61 444.728Z" fill="#252823"/>
<path d="M231.722 446.02C231.534 445.721 231.749 445.332 232.104 445.332H298.436C298.712 445.332 298.923 445.577 298.881 445.849L298.233 450.072C298.199 450.291 298.01 450.453 297.787 450.453H234.764C234.609 450.453 234.465 450.374 234.382 450.243L231.722 446.02Z" fill="white"/>
<path d="M239.939 447.129C239.939 446.881 240.141 446.68 240.39 446.68H241.831C242.08 446.68 242.282 446.881 242.282 447.129V448.566C242.282 448.815 242.08 449.016 241.831 449.016H240.39C240.141 449.016 239.939 448.815 239.939 448.566V447.129Z" fill="#090302"/>
<path d="M246.517 447.129C246.517 446.881 246.719 446.68 246.968 446.68H248.499C248.748 446.68 248.95 446.881 248.95 447.129V448.566C248.95 448.815 248.748 449.016 248.499 449.016H246.968C246.719 449.016 246.517 448.815 246.517 448.566V447.129Z" fill="#090302"/>
<path d="M253.185 447.129C253.185 446.881 253.387 446.68 253.636 446.68H255.077C255.326 446.68 255.528 446.881 255.528 447.129V448.566C255.528 448.815 255.326 449.016 255.077 449.016H253.636C253.387 449.016 253.185 448.815 253.185 448.566V447.129Z" fill="#090302"/>
<path d="M259.763 447.129C259.763 446.881 259.965 446.68 260.214 446.68H261.655C261.904 446.68 262.106 446.881 262.106 447.129V448.566C262.106 448.815 261.904 449.016 261.655 449.016H260.214C259.965 449.016 259.763 448.815 259.763 448.566V447.129Z" fill="#090302"/>
<path d="M266.341 447.129C266.341 446.881 266.543 446.68 266.792 446.68H268.324C268.572 446.68 268.774 446.881 268.774 447.129V448.566C268.774 448.815 268.572 449.016 268.324 449.016H266.792C266.543 449.016 266.341 448.815 266.341 448.566V447.129Z" fill="#090302"/>
<path d="M273.009 447.129C273.009 446.881 273.211 446.68 273.46 446.68H274.902C275.15 446.68 275.352 446.881 275.352 447.129V448.566C275.352 448.815 275.15 449.016 274.902 449.016H273.46C273.211 449.016 273.009 448.815 273.009 448.566V447.129Z" fill="#090302"/>
<path d="M279.587 447.129C279.587 446.881 279.789 446.68 280.038 446.68H281.48C281.728 446.68 281.93 446.881 281.93 447.129V448.566C281.93 448.815 281.728 449.016 281.48 449.016H280.038C279.789 449.016 279.587 448.815 279.587 448.566V447.129Z" fill="#090302"/>
<path d="M286.165 447.129C286.165 446.881 286.367 446.68 286.616 446.68H288.148C288.397 446.68 288.598 446.881 288.598 447.129V448.566C288.598 448.815 288.397 449.016 288.148 449.016H286.616C286.367 449.016 286.165 448.815 286.165 448.566V447.129Z" fill="#090302"/>
<path d="M292.833 447.129C292.833 446.881 293.035 446.68 293.284 446.68H294.726C294.975 446.68 295.176 446.881 295.176 447.129V448.566C295.176 448.815 294.975 449.016 294.726 449.016H293.284C293.035 449.016 292.833 448.815 292.833 448.566V447.129Z" fill="#090302"/>
<defs>
<linearGradient id="paint0_linear_1323_4662" x1="255.441" y1="257.517" x2="255.441" y2="363.929" gradientUnits="userSpaceOnUse">
<stop stop-color="#DE7E55"/>
<stop offset="1" stop-color="#F3AC82"/>
</linearGradient>
</defs>
</svg>
