<svg width="512" height="512" viewBox="0 0 512 512" fill="none" xmlns="http://www.w3.org/2000/svg">
<path d="M120.302 251.575L100.261 275.057C93.0799 277.389 60.8815 299.44 51.6629 315.028C40.1396 334.514 47.2269 344.2 63.6872 355.998C79.7196 367.489 173.409 379.48 197.457 379.48C217.999 379.48 390.731 384.465 422.412 367.489C455.98 349.503 466 330.017 466 310.032C466 294.484 430.929 281.386 414.396 272.06C369.138 262.9 279.824 236.186 252.569 236.586C225.314 236.986 153.034 246.745 120.302 251.575Z" fill="#BBF9F4"/>
<path d="M438.681 342.234C468.905 315.564 442.348 285.94 422.178 278.591L260.147 259.047L97.1153 274.582C85.113 284.27 50.2063 321.187 60.6083 337.223C73.6108 357.268 198.635 364.785 230.141 364.785C279.275 364.785 405.175 371.801 438.681 342.234Z" fill="url(#paint0_linear_1323_4664)"/>
<path d="M135.969 205.098C112.761 191.113 106.459 239.06 89.9536 285.009C89.9536 302.49 145.372 315.875 188.987 319.471C243.505 323.966 415.062 323.466 431.067 294.499C438.746 280.601 385.052 224.076 368.547 216.585C352.041 209.093 271.014 200.103 254.008 166.64C237.003 133.177 228.5 128.182 208.993 142.667C189.487 157.151 164.979 222.578 135.969 205.098Z" fill="#7E7F90"/>
<path d="M149.102 223.898C125.853 209.92 105.511 238.875 88.9766 284.805C88.9766 302.278 144.993 338.904 188.684 342.498C243.297 346.991 415.155 323.246 431.188 294.29C438.88 280.398 373.477 228.677 355.531 225.895C332.984 222.4 258.83 199.935 235.782 168.982C213.351 138.859 203.214 174.973 194.696 195.941C185.56 218.431 178.162 241.371 149.102 223.898Z" fill="#6E6F81"/>
<path d="M356.081 229.233C356.167 228.58 357.116 228.58 357.203 229.233L361.595 262.362C361.64 262.7 361.376 263 361.034 263H352.25C351.908 263 351.644 262.7 351.688 262.362L356.081 229.233Z" fill="#1BAD42"/>
<path d="M349.973 242.72C350.092 242.112 350.965 242.112 351.084 242.72L354.925 262.328C354.993 262.676 354.726 263 354.37 263H346.687C346.331 263 346.064 262.676 346.132 262.328L349.973 242.72Z" fill="#1BAD42"/>
<path d="M362.82 238.165C362.931 237.544 363.824 237.544 363.935 238.165L368.241 262.338C368.302 262.683 368.036 263 367.683 263H359.072C358.72 263 358.453 262.683 358.514 262.338L362.82 238.165Z" fill="#1BAD42"/>
<path d="M369 251.994C369.148 251.433 369.947 251.433 370.095 251.994L372.813 262.293C372.908 262.65 372.637 263 372.266 263H366.829C366.458 263 366.187 262.65 366.281 262.293L369 251.994Z" fill="#1BAD42"/>
<path d="M160.58 249.192C137.404 235.207 97.6456 253.188 81.1626 299.138C81.1626 316.619 128.514 344.699 172.069 348.295C226.512 352.79 398.834 354.578 414.818 325.61C422.486 311.712 409.998 282.602 396.836 270.17C383.35 257.431 304.931 244.198 279.957 225.718C249.79 203.396 233.505 202.743 216.023 222.222C190.903 250.211 189.551 266.673 160.58 249.192Z" fill="#BFE258"/>
<path d="M132.081 248.233C132.167 247.58 133.116 247.58 133.203 248.233L137.595 281.362C137.64 281.7 137.376 282 137.034 282H128.25C127.908 282 127.644 281.7 127.688 281.362L132.081 248.233Z" fill="#1BAD42"/>
<path d="M125.973 261.72C126.092 261.112 126.965 261.112 127.084 261.72L130.925 281.328C130.993 281.676 130.726 282 130.37 282H122.687C122.331 282 122.064 281.676 122.132 281.328L125.973 261.72Z" fill="#1BAD42"/>
<path d="M138.82 257.165C138.931 256.544 139.824 256.544 139.935 257.165L144.241 281.338C144.302 281.683 144.036 282 143.683 282H135.072C134.72 282 134.453 281.683 134.514 281.338L138.82 257.165Z" fill="#1BAD42"/>
<path d="M145 270.994C145.148 270.433 145.947 270.433 146.095 270.994L148.813 281.293C148.908 281.65 148.637 282 148.266 282H142.829C142.458 282 142.187 281.65 142.281 281.293L145 270.994Z" fill="#1BAD42"/>
<path d="M164.408 270.966C149.434 270.966 106.444 271.647 89.9536 317.676C89.9536 335.187 145.32 348.595 188.893 352.198C243.36 356.701 415.754 358.492 431.744 329.473C439.416 315.551 403.141 294.489 380.775 284.474C368.283 278.881 341.799 288.977 315.316 264.962C287.488 239.728 253.716 224.754 234.365 239.446C204.383 262.208 194.39 270.966 164.408 270.966Z" fill="#89D94F"/>
<path d="M224.081 295.233C224.167 294.58 225.116 294.58 225.203 295.233L229.595 328.362C229.64 328.7 229.376 329 229.034 329H220.25C219.908 329 219.644 328.7 219.688 328.362L224.081 295.233Z" fill="#1BAD42"/>
<path d="M217.973 308.72C218.092 308.112 218.965 308.112 219.084 308.72L222.925 328.328C222.993 328.676 222.726 329 222.37 329H214.687C214.331 329 214.064 328.676 214.132 328.328L217.973 308.72Z" fill="#1BAD42"/>
<path d="M230.82 304.165C230.931 303.544 231.824 303.544 231.935 304.165L236.241 328.338C236.302 328.683 236.036 329 235.683 329H227.072C226.72 329 226.453 328.683 226.514 328.338L230.82 304.165Z" fill="#1BAD42"/>
<path d="M237 317.994C237.148 317.433 237.947 317.433 238.095 317.994L240.813 328.293C240.908 328.65 240.637 329 240.266 329H234.829C234.458 329 234.187 328.65 234.281 328.293L237 317.994Z" fill="#1BAD42"/>
<path fill-rule="evenodd" clip-rule="evenodd" d="M168.97 164.6C169.091 163.713 169.154 162.808 169.154 161.887C169.154 150.904 160.234 142 149.231 142C138.637 142 129.975 150.253 129.344 160.669C126.939 158.424 123.707 157.05 120.154 157.05C113.653 157.05 108.229 161.65 106.968 167.767C105.454 166.448 103.474 165.65 101.308 165.65C96.9143 165.65 93.2889 168.933 92.759 173.175H74.9231C71.6519 173.175 69 175.822 69 179.087C69 182.353 71.6519 185 74.9231 185H169.672C169.679 185 169.686 185 169.692 185C169.699 185 169.706 185 169.712 185H189.077C192.348 185 195 182.353 195 179.087C195 175.822 192.348 173.175 189.077 173.175H179.796C179.022 168.301 174.793 164.575 169.692 164.575C169.45 164.575 169.209 164.583 168.97 164.6Z" fill="white"/>
<path fill-rule="evenodd" clip-rule="evenodd" d="M362.82 119.767C362.905 119.149 362.949 118.517 362.949 117.875C362.949 110.212 356.719 104 349.034 104C341.636 104 335.586 109.758 335.145 117.025C333.465 115.459 331.208 114.5 328.726 114.5C324.186 114.5 320.398 117.709 319.518 121.977C318.46 121.057 317.077 120.5 315.564 120.5C312.496 120.5 309.964 122.79 309.594 125.75H297.137C294.852 125.75 293 127.597 293 129.875C293 132.153 294.852 134 297.137 134H363.311C363.315 134 363.32 134 363.325 134C363.329 134 363.334 134 363.339 134H376.863C379.148 134 381 132.153 381 129.875C381 127.597 379.148 125.75 376.863 125.75H370.382C369.841 122.35 366.887 119.75 363.325 119.75C363.155 119.75 362.987 119.756 362.82 119.767Z" fill="white"/>
<path fill-rule="evenodd" clip-rule="evenodd" d="M396.572 170.563C396.634 170.109 396.667 169.646 396.667 169.175C396.667 163.556 392.065 159 386.389 159C380.924 159 376.455 163.222 376.13 168.552C374.889 167.403 373.222 166.7 371.389 166.7C368.035 166.7 365.237 169.053 364.587 172.183C363.806 171.509 362.784 171.1 361.667 171.1C359.4 171.1 357.53 172.78 357.257 174.95H348.056C346.368 174.95 345 176.304 345 177.975C345 179.646 346.368 181 348.056 181H396.934C396.938 181 396.941 181 396.944 181C396.948 181 396.951 181 396.955 181H406.944C408.632 181 410 179.646 410 177.975C410 176.304 408.632 174.95 406.944 174.95H402.157C401.757 172.456 399.576 170.55 396.944 170.55C396.819 170.55 396.695 170.554 396.572 170.563Z" fill="white"/>
<path d="M169 307.905C169 307.552 169.175 307.221 169.469 307.018L179.369 300.196C179.748 299.935 180.252 299.935 180.631 300.196L190.531 307.018C190.825 307.221 191 307.552 191 307.905V327.917C191 328.515 190.508 329 189.9 329H170.1C169.492 329 169 328.515 169 327.917V307.905Z" fill="#F9B07B"/>
<path d="M176.7 317.088C176.7 316.49 177.192 316.005 177.8 316.005H182.2C182.808 316.005 183.3 316.49 183.3 317.088V329H176.7V317.088Z" fill="#FFF6A3"/>
<path d="M314 318.268C314 317.854 314.207 317.466 314.554 317.228L326.254 309.23C326.702 308.923 327.298 308.923 327.746 309.23L339.446 317.228C339.793 317.466 340 317.854 340 318.268V341.73C340 342.432 339.418 343 338.7 343H315.3C314.582 343 314 342.432 314 341.73V318.268Z" fill="#F9B07B"/>
<path d="M323.1 329.034C323.1 328.333 323.682 327.764 324.4 327.764H329.6C330.318 327.764 330.9 328.333 330.9 329.034V343H323.1V329.034Z" fill="#FFF6A3"/>
<path d="M270 283.997C270 283.729 270.135 283.478 270.363 283.324L278.013 278.149C278.305 277.95 278.695 277.95 278.987 278.149L286.637 283.324C286.865 283.478 287 283.729 287 283.997V299.178C287 299.632 286.619 300 286.15 300H270.85C270.381 300 270 299.632 270 299.178V283.997Z" fill="#F9B07B"/>
<path d="M275.95 290.963C275.95 290.509 276.331 290.142 276.8 290.142H280.2C280.669 290.142 281.05 290.509 281.05 290.963V300H275.95V290.963Z" fill="#FFF6A3"/>
<path d="M262.668 217.474C262.668 216.886 263.142 216.409 263.727 216.409H268.385C268.969 216.409 269.443 216.886 269.443 217.474V220.196H262.668V217.474Z" fill="#A0A0A0"/>
<path d="M249.12 217.474C249.12 216.886 249.593 216.409 250.178 216.409H254.836C255.42 216.409 255.894 216.886 255.894 217.474V220.196H249.12V217.474Z" fill="#A0A0A0"/>
<rect x="244.153" y="220.134" width="30.4818" height="33.8664" fill="#A0A0A0"/>
<path d="M254.012 228.319C254.012 227.695 254.518 227.19 255.141 227.19V227.19C255.765 227.19 256.27 227.695 256.27 228.319V231.734H254.012V228.319Z" fill="#FFF6A3"/>
<path d="M254.012 228.238C254.012 227.659 254.518 227.19 255.141 227.19C255.765 227.19 256.27 227.659 256.27 228.238V231.734H254.012V228.238Z" fill="#FFF6A3"/>
<path d="M262.292 228.142C262.292 227.519 262.797 227.013 263.421 227.013V227.013C264.045 227.013 264.55 227.519 264.55 228.142V231.557H262.292V228.142Z" fill="#FFF6A3"/>
<path d="M262.292 228.062C262.292 227.483 262.797 227.013 263.421 227.013C264.045 227.013 264.55 227.483 264.55 228.062V231.557H262.292V228.062Z" fill="#FFF6A3"/>
<path d="M252.022 243.217C252.022 240.456 254.261 238.217 257.022 238.217H261.57C264.331 238.217 266.57 240.456 266.57 243.217V254H252.022V243.217Z" fill="#FFF6A3"/>
<rect x="220.156" y="204.775" width="24.2458" height="49.2248" fill="#A0A0A0"/>
<path d="M216 198.84H248.559V203.708C248.559 204.298 248.085 204.775 247.5 204.775H217.058C216.474 204.775 216 204.298 216 203.708V198.84Z" fill="#A0A0A0"/>
<path d="M216 196.067C216 195.478 216.474 195 217.058 195H221.523C222.107 195 222.581 195.478 222.581 196.067V198.84H216V196.067Z" fill="#A0A0A0"/>
<path d="M241.978 196.067C241.978 195.478 242.452 195 243.036 195H247.5C248.085 195 248.559 195.478 248.559 196.067V198.84H241.978V196.067Z" fill="#A0A0A0"/>
<path d="M229.508 196.067C229.508 195.478 229.982 195 230.567 195H235.031C235.616 195 236.089 195.478 236.089 196.067V198.84H229.508V196.067Z" fill="#A0A0A0"/>
<path d="M235.05 209.654C235.05 209.081 235.516 208.615 236.089 208.615V208.615C236.663 208.615 237.129 209.081 237.129 209.654V213.154H235.05V209.654Z" fill="#FFF6A3"/>
<path d="M235.05 209.663C235.05 209.084 235.516 208.615 236.089 208.615C236.663 208.615 237.129 209.084 237.129 209.663V213.154H235.05V209.663Z" fill="#FFF6A3"/>
<path d="M227.43 222.572C227.43 221.998 227.895 221.533 228.469 221.533V221.533C229.043 221.533 229.508 221.998 229.508 222.572V226.071H227.43V222.572Z" fill="#FFF6A3"/>
<path d="M227.43 222.58C227.43 222.001 227.895 221.533 228.469 221.533C229.043 221.533 229.508 222.001 229.508 222.58V226.071H227.43V222.58Z" fill="#FFF6A3"/>
<path d="M235.05 234.791C235.05 234.217 235.516 233.751 236.089 233.751V233.751C236.663 233.751 237.129 234.217 237.129 234.791V238.29H235.05V234.791Z" fill="#FFF6A3"/>
<path d="M235.05 234.799C235.05 234.22 235.516 233.751 236.089 233.751C236.663 233.751 237.129 234.22 237.129 234.799V238.29H235.05V234.799Z" fill="#FFF6A3"/>
<path d="M227.43 244.915C227.43 244.341 227.895 243.876 228.469 243.876V243.876C229.043 243.876 229.508 244.341 229.508 244.915V248.414H227.43V244.915Z" fill="#FFF6A3"/>
<path d="M227.43 244.923C227.43 244.345 227.895 243.876 228.469 243.876C229.043 243.876 229.508 244.345 229.508 244.923V248.414H227.43V244.923Z" fill="#FFF6A3"/>
<rect x="274.536" y="204.775" width="24.2458" height="49.2249" fill="#A0A0A0"/>
<path d="M270.38 198.84H302.939V203.708C302.939 204.298 302.465 204.775 301.88 204.775H271.438C270.854 204.775 270.38 204.298 270.38 203.708V198.84Z" fill="#A0A0A0"/>
<path d="M270.38 196.067C270.38 195.478 270.854 195 271.438 195H275.902C276.487 195 276.961 195.478 276.961 196.067V198.84H270.38V196.067Z" fill="#A0A0A0"/>
<path d="M296.358 196.067C296.358 195.478 296.831 195 297.416 195H301.88C302.465 195 302.939 195.478 302.939 196.067V198.84H296.358V196.067Z" fill="#A0A0A0"/>
<path d="M283.888 196.067C283.888 195.478 284.362 195 284.947 195H289.411C289.995 195 290.469 195.478 290.469 196.067V198.84H283.888V196.067Z" fill="#A0A0A0"/>
<path d="M289.43 209.654C289.43 209.081 289.895 208.615 290.469 208.615V208.615C291.043 208.615 291.508 209.081 291.508 209.654V213.154H289.43V209.654Z" fill="#FFF6A3"/>
<path d="M289.43 209.663C289.43 209.084 289.895 208.615 290.469 208.615C291.043 208.615 291.508 209.084 291.508 209.663V213.154H289.43V209.663Z" fill="#FFF6A3"/>
<path d="M281.81 222.572C281.81 221.998 282.275 221.533 282.849 221.533V221.533C283.423 221.533 283.888 221.998 283.888 222.572V226.071H281.81V222.572Z" fill="#FFF6A3"/>
<path d="M281.81 222.58C281.81 222.001 282.275 221.533 282.849 221.533C283.423 221.533 283.888 222.001 283.888 222.58V226.071H281.81V222.58Z" fill="#FFF6A3"/>
<path d="M289.43 234.791C289.43 234.217 289.895 233.751 290.469 233.751V233.751C291.043 233.751 291.508 234.217 291.508 234.791V238.29H289.43V234.791Z" fill="#FFF6A3"/>
<path d="M289.43 234.799C289.43 234.22 289.895 233.751 290.469 233.751C291.043 233.751 291.508 234.22 291.508 234.799V238.29H289.43V234.799Z" fill="#FFF6A3"/>
<path d="M281.81 244.915C281.81 244.341 282.275 243.876 282.849 243.876V243.876C283.423 243.876 283.888 244.341 283.888 244.915V248.414H281.81V244.915Z" fill="#FFF6A3"/>
<path d="M281.81 244.923C281.81 244.345 282.275 243.876 282.849 243.876C283.423 243.876 283.888 244.345 283.888 244.923V248.414H281.81V244.923Z" fill="#FFF6A3"/>
<path d="M228.486 444.406C228.295 444.107 228.51 443.715 228.866 443.715H300.505C300.782 443.715 300.993 443.962 300.95 444.235L298.796 457.622C298.761 457.84 298.573 458 298.351 458H237.425C237.271 458 237.128 457.922 237.045 457.792L228.486 444.406Z" fill="#835432"/>
<path d="M211.222 434.407C211.007 434.281 210.936 434.005 211.063 433.792L211.084 433.755C211.211 433.541 211.487 433.47 211.701 433.596L230.441 444.621C230.655 444.747 230.726 445.023 230.6 445.236L230.578 445.273C230.451 445.487 230.175 445.558 229.961 445.432L211.222 434.407Z" fill="#252823"/>
<path d="M283.675 430.388C283.706 430.288 283.772 430.201 283.86 430.144L296.375 422.029C296.663 421.842 297.046 422.032 297.07 422.373L298.476 441.976C298.494 442.236 298.288 442.457 298.026 442.457H280.558C280.255 442.457 280.038 442.164 280.127 441.876L283.675 430.388Z" fill="white"/>
<path d="M283.675 430.388C283.706 430.288 283.772 430.201 283.86 430.144L296.375 422.029C296.663 421.842 297.046 422.032 297.07 422.373L298.476 441.976C298.494 442.236 298.288 442.457 298.026 442.457H280.558C280.255 442.457 280.038 442.164 280.127 441.876L283.675 430.388Z" fill="white"/>
<path d="M282.907 407.955C282.951 407.747 283.135 407.598 283.348 407.598H294.99C295.273 407.598 295.486 407.855 295.432 408.133L292.449 423.406C292.408 423.617 292.223 423.77 292.007 423.77H280.142C279.856 423.77 279.642 423.507 279.701 423.228L282.907 407.955Z" fill="white"/>
<path d="M282.907 407.955C282.951 407.747 283.135 407.598 283.348 407.598H294.99C295.273 407.598 295.486 407.855 295.432 408.133L292.449 423.406C292.408 423.617 292.223 423.77 292.007 423.77H280.142C279.856 423.77 279.642 423.507 279.701 423.228L282.907 407.955Z" fill="white"/>
<path d="M259.442 404.519C259.494 404.321 259.673 404.184 259.878 404.184H276.502C276.742 404.184 276.94 404.371 276.952 404.61L277.851 422.399C277.864 422.656 277.659 422.871 277.401 422.871H255.211C254.915 422.871 254.7 422.593 254.775 422.308L259.442 404.519Z" fill="white"/>
<path d="M259.442 404.519C259.494 404.321 259.673 404.184 259.878 404.184H276.502C276.742 404.184 276.94 404.371 276.952 404.61L277.851 422.399C277.864 422.656 277.659 422.871 277.401 422.871H255.211C254.915 422.871 254.7 422.593 254.775 422.308L259.442 404.519Z" fill="white"/>
<path d="M258.451 424.285C258.503 424.087 258.682 423.949 258.888 423.949H275.511C275.751 423.949 275.949 424.137 275.961 424.376L276.86 442.255C276.873 442.511 276.668 442.727 276.41 442.727H254.219C253.924 442.727 253.708 442.449 253.783 442.164L258.451 424.285Z" fill="white"/>
<path d="M258.451 424.285C258.503 424.087 258.682 423.949 258.888 423.949H275.511C275.751 423.949 275.949 424.137 275.961 424.376L276.86 442.255C276.873 442.511 276.668 442.727 276.41 442.727H254.219C253.924 442.727 253.708 442.449 253.783 442.164L258.451 424.285Z" fill="white"/>
<path d="M261.812 389.336C261.863 389.138 262.043 389 262.248 389H274.487C274.727 389 274.925 389.188 274.937 389.427L275.599 402.634C275.612 402.89 275.407 403.105 275.149 403.105H258.814C258.519 403.105 258.303 402.828 258.377 402.544L261.812 389.336Z" fill="white"/>
<path d="M261.812 389.336C261.863 389.138 262.043 389 262.248 389H274.487C274.727 389 274.925 389.188 274.937 389.427L275.599 402.634C275.612 402.89 275.407 403.105 275.149 403.105H258.814C258.519 403.105 258.303 402.828 258.377 402.544L261.812 389.336Z" fill="white"/>
<path d="M261.812 389.336C261.863 389.138 262.043 389 262.248 389H274.487C274.727 389 274.925 389.188 274.937 389.427L275.599 402.634C275.612 402.89 275.407 403.105 275.149 403.105H258.814C258.519 403.105 258.303 402.828 258.377 402.544L261.812 389.336Z" fill="white"/>
<path d="M261.812 389.336C261.863 389.138 262.043 389 262.248 389H274.487C274.727 389 274.925 389.188 274.937 389.427L275.599 402.634C275.612 402.89 275.407 403.105 275.149 403.105H258.814C258.519 403.105 258.303 402.828 258.377 402.544L261.812 389.336Z" fill="white"/>
<path d="M239.26 393.109C239.311 392.912 239.491 392.773 239.696 392.773H250.249C250.489 392.773 250.687 392.961 250.699 393.2L251.269 404.52C251.282 404.777 251.077 404.992 250.819 404.992H236.737C236.443 404.992 236.227 404.714 236.301 404.43L239.26 393.109Z" fill="white"/>
<path d="M239.26 393.109C239.311 392.912 239.491 392.773 239.696 392.773H250.249C250.489 392.773 250.687 392.961 250.699 393.2L251.269 404.52C251.282 404.777 251.077 404.992 250.819 404.992H236.737C236.443 404.992 236.227 404.714 236.301 404.43L239.26 393.109Z" fill="white"/>
<path d="M239.26 393.109C239.311 392.912 239.491 392.773 239.696 392.773H250.249C250.489 392.773 250.687 392.961 250.699 393.2L251.269 404.52C251.282 404.777 251.077 404.992 250.819 404.992H236.737C236.443 404.992 236.227 404.714 236.301 404.43L239.26 393.109Z" fill="white"/>
<path d="M239.26 393.109C239.311 392.912 239.491 392.773 239.696 392.773H250.249C250.489 392.773 250.687 392.961 250.699 393.2L251.269 404.52C251.282 404.777 251.077 404.992 250.819 404.992H236.737C236.443 404.992 236.227 404.714 236.301 404.43L239.26 393.109Z" fill="white"/>
<path d="M233.696 407.036C233.747 406.838 233.926 406.699 234.132 406.699H251.159C251.399 406.699 251.597 406.887 251.609 407.126L252.531 425.544C252.544 425.801 252.338 426.016 252.081 426.016H229.348C229.053 426.016 228.838 425.738 228.911 425.454L233.696 407.036Z" fill="white"/>
<path d="M233.696 407.036C233.747 406.838 233.926 406.699 234.132 406.699H251.159C251.399 406.699 251.597 406.887 251.609 407.126L252.531 425.544C252.544 425.801 252.338 426.016 252.081 426.016H229.348C229.053 426.016 228.838 425.738 228.911 425.454L233.696 407.036Z" fill="white"/>
<path d="M233.696 407.036C233.747 406.838 233.926 406.699 234.132 406.699H251.159C251.399 406.699 251.597 406.887 251.609 407.126L252.531 425.544C252.544 425.801 252.338 426.016 252.081 426.016H229.348C229.053 426.016 228.838 425.738 228.911 425.454L233.696 407.036Z" fill="white"/>
<path d="M233.696 407.036C233.747 406.838 233.926 406.699 234.132 406.699H251.159C251.399 406.699 251.597 406.887 251.609 407.126L252.531 425.544C252.544 425.801 252.338 426.016 252.081 426.016H229.348C229.053 426.016 228.838 425.738 228.911 425.454L233.696 407.036Z" fill="white"/>
<path d="M232.732 428.348C232.777 428.141 232.96 427.992 233.173 427.992H252.301C252.606 427.992 252.822 428.286 252.731 428.576L248.38 442.412C248.321 442.599 248.147 442.727 247.95 442.727H230.223C229.936 442.727 229.723 442.463 229.782 442.184L232.732 428.348Z" fill="white"/>
<path d="M232.732 428.348C232.777 428.141 232.96 427.992 233.173 427.992H252.301C252.606 427.992 252.822 428.286 252.731 428.576L248.38 442.412C248.321 442.599 248.147 442.727 247.95 442.727H230.223C229.936 442.727 229.723 442.463 229.782 442.184L232.732 428.348Z" fill="white"/>
<path d="M232.732 428.348C232.777 428.141 232.96 427.992 233.173 427.992H252.301C252.606 427.992 252.822 428.286 252.731 428.576L248.38 442.412C248.321 442.599 248.147 442.727 247.95 442.727H230.223C229.936 442.727 229.723 442.463 229.782 442.184L232.732 428.348Z" fill="white"/>
<path d="M232.732 428.348C232.777 428.141 232.96 427.992 233.173 427.992H252.301C252.606 427.992 252.822 428.286 252.731 428.576L248.38 442.412C248.321 442.599 248.147 442.727 247.95 442.727H230.223C229.936 442.727 229.723 442.463 229.782 442.184L232.732 428.348Z" fill="white"/>
<path d="M227.729 415.064C228.034 414.702 228.621 414.995 228.513 415.456L223.224 437.917C223.155 438.21 222.823 438.354 222.561 438.205L213.374 432.961C213.13 432.822 213.072 432.497 213.252 432.282L227.729 415.064Z" fill="white"/>
<path d="M228.61 444.728C228.327 444.291 228.642 443.715 229.164 443.715H300.341C300.75 443.715 301.06 444.082 300.99 444.484L299.771 451.525C299.716 451.84 299.442 452.07 299.121 452.07H233.717C233.493 452.07 233.284 451.957 233.163 451.769L228.61 444.728Z" fill="#252823"/>
<path d="M231.722 446.02C231.534 445.721 231.749 445.332 232.104 445.332H298.436C298.712 445.332 298.923 445.577 298.881 445.849L298.233 450.072C298.199 450.291 298.01 450.453 297.787 450.453H234.764C234.609 450.453 234.465 450.374 234.382 450.243L231.722 446.02Z" fill="white"/>
<path d="M239.939 447.129C239.939 446.881 240.141 446.68 240.39 446.68H241.831C242.08 446.68 242.282 446.881 242.282 447.129V448.566C242.282 448.815 242.08 449.016 241.831 449.016H240.39C240.141 449.016 239.939 448.815 239.939 448.566V447.129Z" fill="#090302"/>
<path d="M246.517 447.129C246.517 446.881 246.719 446.68 246.968 446.68H248.499C248.748 446.68 248.95 446.881 248.95 447.129V448.566C248.95 448.815 248.748 449.016 248.499 449.016H246.968C246.719 449.016 246.517 448.815 246.517 448.566V447.129Z" fill="#090302"/>
<path d="M253.185 447.129C253.185 446.881 253.387 446.68 253.636 446.68H255.077C255.326 446.68 255.528 446.881 255.528 447.129V448.566C255.528 448.815 255.326 449.016 255.077 449.016H253.636C253.387 449.016 253.185 448.815 253.185 448.566V447.129Z" fill="#090302"/>
<path d="M259.763 447.129C259.763 446.881 259.965 446.68 260.214 446.68H261.655C261.904 446.68 262.106 446.881 262.106 447.129V448.566C262.106 448.815 261.904 449.016 261.655 449.016H260.214C259.965 449.016 259.763 448.815 259.763 448.566V447.129Z" fill="#090302"/>
<path d="M266.341 447.129C266.341 446.881 266.543 446.68 266.792 446.68H268.324C268.572 446.68 268.774 446.881 268.774 447.129V448.566C268.774 448.815 268.572 449.016 268.324 449.016H266.792C266.543 449.016 266.341 448.815 266.341 448.566V447.129Z" fill="#090302"/>
<path d="M273.009 447.129C273.009 446.881 273.211 446.68 273.46 446.68H274.902C275.15 446.68 275.352 446.881 275.352 447.129V448.566C275.352 448.815 275.15 449.016 274.902 449.016H273.46C273.211 449.016 273.009 448.815 273.009 448.566V447.129Z" fill="#090302"/>
<path d="M279.587 447.129C279.587 446.881 279.789 446.68 280.038 446.68H281.48C281.728 446.68 281.93 446.881 281.93 447.129V448.566C281.93 448.815 281.728 449.016 281.48 449.016H280.038C279.789 449.016 279.587 448.815 279.587 448.566V447.129Z" fill="#090302"/>
<path d="M286.165 447.129C286.165 446.881 286.367 446.68 286.616 446.68H288.148C288.397 446.68 288.598 446.881 288.598 447.129V448.566C288.598 448.815 288.397 449.016 288.148 449.016H286.616C286.367 449.016 286.165 448.815 286.165 448.566V447.129Z" fill="#090302"/>
<path d="M292.833 447.129C292.833 446.881 293.035 446.68 293.284 446.68H294.726C294.975 446.68 295.176 446.881 295.176 447.129V448.566C295.176 448.815 294.975 449.016 294.726 449.016H293.284C293.035 449.016 292.833 448.815 292.833 448.566V447.129Z" fill="#090302"/>
<path d="M262.203 42.6559C254.313 42.785 246.894 41.5505 241.255 40.0215C237.229 38.9298 232.55 41.9152 232.55 46.0817L232.55 110.342C232.55 113.357 234.754 116.543 237.682 117.276C246.206 119.41 263.149 123.177 272.452 123.854C285.57 124.81 292.812 118.941 306.614 114.302C315.145 111.433 326.13 110.227 333.54 109.827C336.555 109.665 339 107.218 339 104.203V90.1467C339 89.5098 337.497 87.7176 331.484 85.6432C327.305 84.2013 330.146 83.1594 333.951 82.5359C336.778 82.0726 339 79.7436 339 76.8825V76.198C339 73.986 337.664 71.9953 335.612 71.1631C334.109 70.554 332.111 69.7457 329.571 68.7212C325.423 67.0481 328.59 65.1763 332.446 63.8803C334.877 63.0635 336.677 60.8938 336.677 58.3332V36.0416C336.677 33.0518 334.272 30.6447 331.284 30.8309C325.564 31.1871 316.575 32.1217 305.657 34.1948C286.253 37.8795 278.874 42.3829 262.203 42.6559Z" fill="#D9616E"/>
<path fill-rule="evenodd" clip-rule="evenodd" d="M296.445 100.967C305.469 96.9045 311.75 87.8431 311.75 77.3165C311.75 62.9964 300.126 51.3876 285.787 51.3876C271.447 51.3876 259.823 62.9964 259.823 77.3165C259.823 87.7365 265.978 96.7209 274.855 100.842V110.888C274.855 112.395 276.078 113.617 277.588 113.617H293.712C295.222 113.617 296.445 112.395 296.445 110.888V100.967Z" fill="white"/>
<path fill-rule="evenodd" clip-rule="evenodd" d="M293.712 99.2033L295.322 98.4786C303.402 94.8412 309.017 86.7308 309.017 77.3165C309.017 64.5038 298.616 54.117 285.787 54.117C272.957 54.117 262.556 64.5038 262.556 77.3165C262.556 86.6355 268.058 94.6768 276.007 98.3668L277.588 99.1008V110.888H293.712V99.2033ZM296.445 100.967V110.888C296.445 112.395 295.222 113.617 293.712 113.617H277.588C276.078 113.617 274.855 112.395 274.855 110.888V100.842C265.978 96.7209 259.823 87.7365 259.823 77.3165C259.823 62.9964 271.447 51.3876 285.787 51.3876C300.126 51.3876 311.75 62.9964 311.75 77.3165C311.75 87.8431 305.469 96.9045 296.445 100.967Z" fill="black"/>
<ellipse cx="276.494" cy="78.4083" rx="4.64606" ry="4.63991" fill="#777777"/>
<mask id="path-43-inside-1_1323_4664" fill="white">
<ellipse cx="293.986" cy="76.7707" rx="8.19893" ry="8.18807"/>
</mask>
<ellipse cx="293.986" cy="76.7707" rx="8.19893" ry="8.18807" fill="black"/>
<path d="M292.184 76.7707C292.184 75.7575 293.003 74.9587 293.986 74.9587V94.9587C304.024 94.9587 312.184 86.8281 312.184 76.7707H292.184ZM293.986 74.9587C294.968 74.9587 295.787 75.7575 295.787 76.7707H275.787C275.787 86.8281 283.947 94.9587 293.986 94.9587V74.9587ZM295.787 76.7707C295.787 77.7838 294.968 78.5826 293.986 78.5826V58.5826C283.947 58.5826 275.787 66.7132 275.787 76.7707H295.787ZM293.986 78.5826C293.003 78.5826 292.184 77.7838 292.184 76.7707H312.184C312.184 66.7132 304.024 58.5826 293.986 58.5826V78.5826Z" fill="black" mask="url(#path-43-inside-1_1323_4664)"/>
<path d="M275.254 54.8245L308.401 87.8189L305.7 90.5253L272.553 57.5309L275.254 54.8245Z" fill="black"/>
<path d="M272.668 98.4691C272.668 97.7907 273.219 97.2408 273.898 97.2408H278.817C279.497 97.2408 280.047 97.7907 280.047 98.4691C280.047 99.1474 279.497 99.6973 278.817 99.6973H273.898C273.219 99.6973 272.668 99.1474 272.668 98.4691Z" fill="black"/>
<path d="M291.799 98.4691C291.799 97.7907 292.35 97.2408 293.029 97.2408H297.948C298.627 97.2408 299.178 97.7907 299.178 98.4691C299.178 99.1474 298.627 99.6973 297.948 99.6973H293.029C292.35 99.6973 291.799 99.1474 291.799 98.4691Z" fill="black"/>
<path d="M287.563 101.335C288.242 101.335 288.793 101.885 288.793 102.563V107.476C288.793 108.154 288.242 108.704 287.563 108.704C286.884 108.704 286.333 108.154 286.333 107.476V102.563C286.333 101.885 286.884 101.335 287.563 101.335Z" fill="black"/>
<path d="M283.737 101.335C284.416 101.335 284.967 101.885 284.967 102.563V107.476C284.967 108.154 284.416 108.704 283.737 108.704C283.057 108.704 282.507 108.154 282.507 107.476V102.563C282.507 101.885 283.057 101.335 283.737 101.335Z" fill="black"/>
<ellipse cx="293.986" cy="76.7707" rx="5.19266" ry="5.18578" fill="#777777"/>
<rect x="219.919" y="30.6445" width="7.65234" height="108.356" rx="3.82617" fill="#BE7348"/>
<ellipse cx="223.746" cy="28.7339" rx="8.74553" ry="8.73394" fill="#F2C780"/>
<defs>
<linearGradient id="paint0_linear_1323_4664" x1="255.512" y1="259.047" x2="255.512" y2="365.512" gradientUnits="userSpaceOnUse">
<stop stop-color="#DE7E55"/>
<stop offset="1" stop-color="#F3AC82"/>
</linearGradient>
</defs>
</svg>
