<svg width="512" height="512" viewBox="0 0 512 512" fill="none" xmlns="http://www.w3.org/2000/svg">
<path d="M228.486 444.406C228.295 444.107 228.51 443.715 228.866 443.715H300.505C300.782 443.715 300.993 443.962 300.95 444.235L298.796 457.622C298.761 457.84 298.573 458 298.351 458H237.425C237.271 458 237.128 457.922 237.045 457.792L228.486 444.406Z" fill="#835432"/>
<path d="M211.222 434.407C211.007 434.281 210.936 434.005 211.063 433.792L211.084 433.755C211.211 433.541 211.487 433.47 211.701 433.596L230.441 444.621C230.655 444.747 230.726 445.023 230.6 445.236L230.578 445.273C230.451 445.487 230.175 445.558 229.961 445.432L211.222 434.407Z" fill="#252823"/>
<path d="M283.675 430.388C283.706 430.288 283.772 430.201 283.86 430.144L296.375 422.029C296.663 421.842 297.046 422.032 297.07 422.373L298.476 441.976C298.494 442.236 298.288 442.457 298.026 442.457H280.558C280.255 442.457 280.038 442.164 280.127 441.876L283.675 430.388Z" fill="white"/>
<path d="M283.675 430.388C283.706 430.288 283.772 430.201 283.86 430.144L296.375 422.029C296.663 421.842 297.046 422.032 297.07 422.373L298.476 441.976C298.494 442.236 298.288 442.457 298.026 442.457H280.558C280.255 442.457 280.038 442.164 280.127 441.876L283.675 430.388Z" fill="white"/>
<path d="M282.907 407.955C282.951 407.747 283.135 407.598 283.348 407.598H294.99C295.273 407.598 295.486 407.855 295.432 408.133L292.449 423.406C292.408 423.617 292.223 423.77 292.007 423.77H280.142C279.856 423.77 279.642 423.507 279.701 423.228L282.907 407.955Z" fill="white"/>
<path d="M282.907 407.955C282.951 407.747 283.135 407.598 283.348 407.598H294.99C295.273 407.598 295.486 407.855 295.432 408.133L292.449 423.406C292.408 423.617 292.223 423.77 292.007 423.77H280.142C279.856 423.77 279.642 423.507 279.701 423.228L282.907 407.955Z" fill="white"/>
<path d="M259.442 404.519C259.494 404.321 259.673 404.184 259.878 404.184H276.502C276.742 404.184 276.94 404.371 276.952 404.61L277.851 422.399C277.864 422.656 277.659 422.871 277.401 422.871H255.211C254.915 422.871 254.7 422.593 254.775 422.308L259.442 404.519Z" fill="white"/>
<path d="M259.442 404.519C259.494 404.321 259.673 404.184 259.878 404.184H276.502C276.742 404.184 276.94 404.371 276.952 404.61L277.851 422.399C277.864 422.656 277.659 422.871 277.401 422.871H255.211C254.915 422.871 254.7 422.593 254.775 422.308L259.442 404.519Z" fill="white"/>
<path d="M258.451 424.285C258.503 424.087 258.682 423.949 258.888 423.949H275.511C275.751 423.949 275.949 424.137 275.961 424.376L276.86 442.255C276.873 442.511 276.668 442.727 276.41 442.727H254.219C253.924 442.727 253.708 442.449 253.783 442.164L258.451 424.285Z" fill="white"/>
<path d="M258.451 424.285C258.503 424.087 258.682 423.949 258.888 423.949H275.511C275.751 423.949 275.949 424.137 275.961 424.376L276.86 442.255C276.873 442.511 276.668 442.727 276.41 442.727H254.219C253.924 442.727 253.708 442.449 253.783 442.164L258.451 424.285Z" fill="white"/>
<path d="M261.812 389.336C261.863 389.138 262.043 389 262.248 389H274.487C274.727 389 274.925 389.188 274.937 389.427L275.599 402.634C275.612 402.89 275.407 403.105 275.149 403.105H258.814C258.519 403.105 258.303 402.828 258.377 402.544L261.812 389.336Z" fill="white"/>
<path d="M261.812 389.336C261.863 389.138 262.043 389 262.248 389H274.487C274.727 389 274.925 389.188 274.937 389.427L275.599 402.634C275.612 402.89 275.407 403.105 275.149 403.105H258.814C258.519 403.105 258.303 402.828 258.377 402.544L261.812 389.336Z" fill="white"/>
<path d="M261.812 389.336C261.863 389.138 262.043 389 262.248 389H274.487C274.727 389 274.925 389.188 274.937 389.427L275.599 402.634C275.612 402.89 275.407 403.105 275.149 403.105H258.814C258.519 403.105 258.303 402.828 258.377 402.544L261.812 389.336Z" fill="white"/>
<path d="M261.812 389.336C261.863 389.138 262.043 389 262.248 389H274.487C274.727 389 274.925 389.188 274.937 389.427L275.599 402.634C275.612 402.89 275.407 403.105 275.149 403.105H258.814C258.519 403.105 258.303 402.828 258.377 402.544L261.812 389.336Z" fill="white"/>
<path d="M239.26 393.109C239.311 392.912 239.491 392.773 239.696 392.773H250.249C250.489 392.773 250.687 392.961 250.699 393.2L251.269 404.52C251.282 404.777 251.077 404.992 250.819 404.992H236.737C236.443 404.992 236.227 404.714 236.301 404.43L239.26 393.109Z" fill="white"/>
<path d="M239.26 393.109C239.311 392.912 239.491 392.773 239.696 392.773H250.249C250.489 392.773 250.687 392.961 250.699 393.2L251.269 404.52C251.282 404.777 251.077 404.992 250.819 404.992H236.737C236.443 404.992 236.227 404.714 236.301 404.43L239.26 393.109Z" fill="white"/>
<path d="M239.26 393.109C239.311 392.912 239.491 392.773 239.696 392.773H250.249C250.489 392.773 250.687 392.961 250.699 393.2L251.269 404.52C251.282 404.777 251.077 404.992 250.819 404.992H236.737C236.443 404.992 236.227 404.714 236.301 404.43L239.26 393.109Z" fill="white"/>
<path d="M239.26 393.109C239.311 392.912 239.491 392.773 239.696 392.773H250.249C250.489 392.773 250.687 392.961 250.699 393.2L251.269 404.52C251.282 404.777 251.077 404.992 250.819 404.992H236.737C236.443 404.992 236.227 404.714 236.301 404.43L239.26 393.109Z" fill="white"/>
<path d="M233.696 407.036C233.747 406.838 233.926 406.699 234.132 406.699H251.159C251.399 406.699 251.597 406.887 251.609 407.126L252.531 425.544C252.544 425.801 252.338 426.016 252.081 426.016H229.348C229.053 426.016 228.838 425.738 228.911 425.454L233.696 407.036Z" fill="white"/>
<path d="M233.696 407.036C233.747 406.838 233.926 406.699 234.132 406.699H251.159C251.399 406.699 251.597 406.887 251.609 407.126L252.531 425.544C252.544 425.801 252.338 426.016 252.081 426.016H229.348C229.053 426.016 228.838 425.738 228.911 425.454L233.696 407.036Z" fill="white"/>
<path d="M233.696 407.036C233.747 406.838 233.926 406.699 234.132 406.699H251.159C251.399 406.699 251.597 406.887 251.609 407.126L252.531 425.544C252.544 425.801 252.338 426.016 252.081 426.016H229.348C229.053 426.016 228.838 425.738 228.911 425.454L233.696 407.036Z" fill="white"/>
<path d="M233.696 407.036C233.747 406.838 233.926 406.699 234.132 406.699H251.159C251.399 406.699 251.597 406.887 251.609 407.126L252.531 425.544C252.544 425.801 252.338 426.016 252.081 426.016H229.348C229.053 426.016 228.838 425.738 228.911 425.454L233.696 407.036Z" fill="white"/>
<path d="M232.732 428.348C232.777 428.141 232.96 427.992 233.173 427.992H252.301C252.606 427.992 252.822 428.286 252.731 428.576L248.38 442.412C248.321 442.599 248.147 442.727 247.95 442.727H230.223C229.936 442.727 229.723 442.463 229.782 442.184L232.732 428.348Z" fill="white"/>
<path d="M232.732 428.348C232.777 428.141 232.96 427.992 233.173 427.992H252.301C252.606 427.992 252.822 428.286 252.731 428.576L248.38 442.412C248.321 442.599 248.147 442.727 247.95 442.727H230.223C229.936 442.727 229.723 442.463 229.782 442.184L232.732 428.348Z" fill="white"/>
<path d="M232.732 428.348C232.777 428.141 232.96 427.992 233.173 427.992H252.301C252.606 427.992 252.822 428.286 252.731 428.576L248.38 442.412C248.321 442.599 248.147 442.727 247.95 442.727H230.223C229.936 442.727 229.723 442.463 229.782 442.184L232.732 428.348Z" fill="white"/>
<path d="M232.732 428.348C232.777 428.141 232.96 427.992 233.173 427.992H252.301C252.606 427.992 252.822 428.286 252.731 428.576L248.38 442.412C248.321 442.599 248.147 442.727 247.95 442.727H230.223C229.936 442.727 229.723 442.463 229.782 442.184L232.732 428.348Z" fill="white"/>
<path d="M227.729 415.064C228.034 414.702 228.621 414.995 228.513 415.456L223.224 437.917C223.155 438.21 222.823 438.354 222.561 438.205L213.374 432.961C213.13 432.822 213.072 432.497 213.252 432.282L227.729 415.064Z" fill="white"/>
<path d="M228.61 444.728C228.327 444.291 228.642 443.715 229.164 443.715H300.341C300.75 443.715 301.06 444.082 300.99 444.484L299.771 451.525C299.716 451.84 299.442 452.07 299.121 452.07H233.717C233.493 452.07 233.284 451.957 233.163 451.769L228.61 444.728Z" fill="#252823"/>
<path d="M231.722 446.02C231.534 445.721 231.749 445.332 232.104 445.332H298.436C298.712 445.332 298.923 445.577 298.881 445.849L298.233 450.072C298.199 450.291 298.01 450.453 297.787 450.453H234.764C234.609 450.453 234.465 450.374 234.382 450.243L231.722 446.02Z" fill="white"/>
<path d="M239.939 447.129C239.939 446.881 240.141 446.68 240.39 446.68H241.831C242.08 446.68 242.282 446.881 242.282 447.129V448.566C242.282 448.815 242.08 449.016 241.831 449.016H240.39C240.141 449.016 239.939 448.815 239.939 448.566V447.129Z" fill="#090302"/>
<path d="M246.517 447.129C246.517 446.881 246.719 446.68 246.968 446.68H248.499C248.748 446.68 248.95 446.881 248.95 447.129V448.566C248.95 448.815 248.748 449.016 248.499 449.016H246.968C246.719 449.016 246.517 448.815 246.517 448.566V447.129Z" fill="#090302"/>
<path d="M253.185 447.129C253.185 446.881 253.387 446.68 253.636 446.68H255.077C255.326 446.68 255.528 446.881 255.528 447.129V448.566C255.528 448.815 255.326 449.016 255.077 449.016H253.636C253.387 449.016 253.185 448.815 253.185 448.566V447.129Z" fill="#090302"/>
<path d="M259.763 447.129C259.763 446.881 259.965 446.68 260.214 446.68H261.655C261.904 446.68 262.106 446.881 262.106 447.129V448.566C262.106 448.815 261.904 449.016 261.655 449.016H260.214C259.965 449.016 259.763 448.815 259.763 448.566V447.129Z" fill="#090302"/>
<path d="M266.341 447.129C266.341 446.881 266.543 446.68 266.792 446.68H268.324C268.572 446.68 268.774 446.881 268.774 447.129V448.566C268.774 448.815 268.572 449.016 268.324 449.016H266.792C266.543 449.016 266.341 448.815 266.341 448.566V447.129Z" fill="#090302"/>
<path d="M273.009 447.129C273.009 446.881 273.211 446.68 273.46 446.68H274.902C275.15 446.68 275.352 446.881 275.352 447.129V448.566C275.352 448.815 275.15 449.016 274.902 449.016H273.46C273.211 449.016 273.009 448.815 273.009 448.566V447.129Z" fill="#090302"/>
<path d="M279.587 447.129C279.587 446.881 279.789 446.68 280.038 446.68H281.48C281.728 446.68 281.93 446.881 281.93 447.129V448.566C281.93 448.815 281.728 449.016 281.48 449.016H280.038C279.789 449.016 279.587 448.815 279.587 448.566V447.129Z" fill="#090302"/>
<path d="M286.165 447.129C286.165 446.881 286.367 446.68 286.616 446.68H288.148C288.397 446.68 288.598 446.881 288.598 447.129V448.566C288.598 448.815 288.397 449.016 288.148 449.016H286.616C286.367 449.016 286.165 448.815 286.165 448.566V447.129Z" fill="#090302"/>
<path d="M292.833 447.129C292.833 446.881 293.035 446.68 293.284 446.68H294.726C294.975 446.68 295.176 446.881 295.176 447.129V448.566C295.176 448.815 294.975 449.016 294.726 449.016H293.284C293.035 449.016 292.833 448.815 292.833 448.566V447.129Z" fill="#090302"/>
<path d="M120.302 251.568L100.261 275C93.0799 277.327 60.8815 299.33 51.6629 314.885C40.1396 334.328 47.2269 343.993 63.6872 355.766C79.7196 367.232 173.409 379.198 197.457 379.198C217.999 379.198 390.731 384.172 422.412 367.232C455.98 349.285 466 329.841 466 309.899C466 294.385 430.929 281.315 414.396 272.009C369.138 262.869 279.824 236.213 252.569 236.612C225.314 237.011 153.034 246.749 120.302 251.568Z" fill="#BBF9F4"/>
<path d="M439.535 341.773C469.9 314.977 443.219 285.216 422.954 277.832L260.166 258.196L96.3729 273.804C84.3146 283.538 49.2447 320.627 59.6953 336.738C72.7586 356.877 198.367 364.429 230.02 364.429C279.384 364.429 405.872 371.477 439.535 341.773Z" fill="url(#paint0_linear_1323_4901)"/>
<path d="M199.869 164.835C176.643 150.77 127.286 224.11 110.767 270.324C110.767 287.905 148.21 313.204 191.86 316.821C246.423 321.342 362.056 264.296 378.075 235.161C385.76 221.183 363.163 208.247 355.048 191.961C348.04 177.896 333.023 152.779 316.003 119.123C298.984 85.4672 271.952 166.342 252.43 180.91C232.907 195.477 228.903 182.416 199.869 164.835Z" fill="white"/>
<path d="M203.111 177.491C179.921 163.498 106.652 238.456 90.1587 284.431C90.1587 301.921 145.535 315.314 189.117 318.912C243.594 323.409 415.022 322.909 431.015 293.926C438.688 280.02 375.039 211.971 358.546 204.475C342.053 196.98 333.556 166.497 316.563 133.015C299.57 99.5339 273.082 177.491 253.59 191.983C234.098 206.475 232.099 194.981 203.111 177.491Z" fill="#7E7F90"/>
<path d="M202.79 200.478C179.567 186.375 105.694 238.473 89.1777 284.811C89.1777 302.439 145.133 339.39 188.776 343.017C243.33 347.55 414.999 323.594 431.015 294.381C438.698 280.365 374.959 235.231 358.443 227.676C341.927 220.121 333.418 189.397 316.402 155.651C299.385 121.905 272.859 200.478 253.339 215.084C233.82 229.691 231.818 218.106 202.79 200.478Z" fill="#6E6F81"/>
<path d="M355.081 234.233C355.167 233.58 356.116 233.58 356.203 234.233L360.595 267.362C360.64 267.7 360.376 268 360.034 268H351.25C350.908 268 350.644 267.7 350.688 267.362L355.081 234.233Z" fill="#1BAD42"/>
<path d="M348.973 247.72C349.092 247.112 349.965 247.112 350.084 247.72L353.925 267.328C353.993 267.676 353.726 268 353.37 268H345.687C345.331 268 345.064 267.676 345.132 267.328L348.973 247.72Z" fill="#1BAD42"/>
<path d="M361.82 243.165C361.931 242.544 362.824 242.544 362.935 243.165L367.241 267.338C367.302 267.683 367.036 268 366.683 268H358.072C357.72 268 357.453 267.683 357.514 267.338L361.82 243.165Z" fill="#1BAD42"/>
<path d="M368 256.994C368.148 256.433 368.947 256.433 369.095 256.994L371.813 267.293C371.908 267.65 371.637 268 371.266 268H365.829C365.458 268 365.187 267.65 365.281 267.293L368 256.994Z" fill="#1BAD42"/>
<path d="M165.739 256.791C142.432 242.858 96.9221 253.132 80.3457 298.911C80.3457 316.326 127.965 344.301 171.767 347.883C226.519 352.362 399.818 354.143 415.892 325.283C423.604 311.437 386.432 280.943 373.195 268.558C359.633 255.867 338.033 257.113 320.955 223.774C303.876 190.436 255.014 237.454 235.561 252.066C205.422 274.704 194.874 274.206 165.739 256.791Z" fill="#BFE258"/>
<path d="M132.081 248.233C132.167 247.58 133.116 247.58 133.203 248.233L137.595 281.362C137.64 281.7 137.376 282 137.034 282H128.25C127.908 282 127.644 281.7 127.688 281.362L132.081 248.233Z" fill="#1BAD42"/>
<path d="M125.973 261.72C126.092 261.112 126.965 261.112 127.084 261.72L130.925 281.328C130.993 281.676 130.726 282 130.37 282H122.687C122.331 282 122.064 281.676 122.132 281.328L125.973 261.72Z" fill="#1BAD42"/>
<path d="M138.82 257.165C138.931 256.544 139.824 256.544 139.935 257.165L144.241 281.338C144.302 281.683 144.036 282 143.683 282H135.072C134.72 282 134.453 281.683 134.514 281.338L138.82 257.165Z" fill="#1BAD42"/>
<path d="M145 270.994C145.148 270.433 145.947 270.433 146.095 270.994L148.813 281.293C148.908 281.65 148.637 282 148.266 282H142.829C142.458 282 142.187 281.65 142.281 281.293L145 270.994Z" fill="#1BAD42"/>
<path d="M163.794 284.915C140.551 270.83 106.689 270.796 90.1587 317.073C90.1587 334.678 145.661 348.159 189.341 351.781C243.941 356.308 416.759 358.109 432.788 328.934C440.479 314.937 392.715 301.892 368.67 296.862C350.457 293.051 344.125 290.826 327.094 257.124C310.063 223.422 280.872 265.995 261.473 280.766C231.418 303.651 192.847 302.52 163.794 284.915Z" fill="#89D94F"/>
<path d="M274.081 294.233C274.167 293.58 275.116 293.58 275.203 294.233L279.595 327.362C279.64 327.7 279.376 328 279.034 328H270.25C269.908 328 269.644 327.7 269.688 327.362L274.081 294.233Z" fill="#1BAD42"/>
<path d="M267.973 307.72C268.092 307.112 268.965 307.112 269.084 307.72L272.925 327.328C272.993 327.676 272.726 328 272.37 328H264.687C264.331 328 264.064 327.676 264.132 327.328L267.973 307.72Z" fill="#1BAD42"/>
<path d="M280.82 303.165C280.931 302.544 281.824 302.544 281.935 303.165L286.241 327.338C286.302 327.683 286.036 328 285.683 328H277.072C276.72 328 276.453 327.683 276.514 327.338L280.82 303.165Z" fill="#1BAD42"/>
<path d="M287 316.994C287.148 316.433 287.947 316.433 288.095 316.994L290.813 327.293C290.908 327.65 290.637 328 290.266 328H284.829C284.458 328 284.187 327.65 284.281 327.293L287 316.994Z" fill="#1BAD42"/>
<path fill-rule="evenodd" clip-rule="evenodd" d="M467.97 169.6C468.091 168.713 468.154 167.808 468.154 166.887C468.154 155.904 459.234 147 448.231 147C437.637 147 428.975 155.253 428.344 165.669C425.939 163.424 422.707 162.05 419.154 162.05C412.653 162.05 407.229 166.65 405.968 172.767C404.454 171.448 402.474 170.65 400.308 170.65C395.914 170.65 392.289 173.933 391.759 178.175H373.923C370.652 178.175 368 180.822 368 184.087C368 187.353 370.652 190 373.923 190H468.672C468.679 190 468.686 190 468.692 190C468.699 190 468.706 190 468.712 190H488.077C491.348 190 494 187.353 494 184.087C494 180.822 491.348 178.175 488.077 178.175H478.796C478.022 173.301 473.793 169.575 468.692 169.575C468.45 169.575 468.209 169.583 467.97 169.6Z" fill="white"/>
<path fill-rule="evenodd" clip-rule="evenodd" d="M159.82 139.767C159.905 139.149 159.949 138.517 159.949 137.875C159.949 130.212 153.719 124 146.034 124C138.636 124 132.586 129.758 132.145 137.025C130.465 135.459 128.208 134.5 125.726 134.5C121.186 134.5 117.398 137.709 116.518 141.977C115.46 141.057 114.077 140.5 112.564 140.5C109.496 140.5 106.964 142.79 106.594 145.75H94.1368C91.8521 145.75 90 147.597 90 149.875C90 152.153 91.8521 154 94.1368 154H160.311C160.315 154 160.32 154 160.325 154C160.329 154 160.334 154 160.339 154H173.863C176.148 154 178 152.153 178 149.875C178 147.597 176.148 145.75 173.863 145.75H167.382C166.841 142.35 163.887 139.75 160.325 139.75C160.155 139.75 159.987 139.756 159.82 139.767Z" fill="white"/>
<path d="M223 307.905C223 307.552 223.175 307.221 223.469 307.018L233.369 300.196C233.748 299.935 234.252 299.935 234.631 300.196L244.531 307.018C244.825 307.221 245 307.552 245 307.905V327.917C245 328.515 244.508 329 243.9 329H224.1C223.492 329 223 328.515 223 327.917V307.905Z" fill="#F9B07B"/>
<path d="M230.7 317.088C230.7 316.49 231.192 316.005 231.8 316.005H236.2C236.808 316.005 237.3 316.49 237.3 317.088V329H230.7V317.088Z" fill="#FFF6A3"/>
<path d="M311 315.268C311 314.854 311.207 314.466 311.554 314.228L323.254 306.23C323.702 305.923 324.298 305.923 324.746 306.23L336.446 314.228C336.793 314.466 337 314.854 337 315.268V338.73C337 339.432 336.418 340 335.7 340H312.3C311.582 340 311 339.432 311 338.73V315.268Z" fill="#F9B07B"/>
<path d="M320.1 326.034C320.1 325.333 320.682 324.764 321.4 324.764H326.6C327.318 324.764 327.9 325.333 327.9 326.034V340H320.1V326.034Z" fill="#FFF6A3"/>
<path d="M301 233.997C301 233.729 301.135 233.478 301.363 233.324L309.013 228.149C309.305 227.95 309.695 227.95 309.987 228.149L317.637 233.324C317.865 233.478 318 233.729 318 233.997V249.178C318 249.632 317.619 250 317.15 250H301.85C301.381 250 301 249.632 301 249.178V233.997Z" fill="#F9B07B"/>
<path d="M306.95 240.963C306.95 240.509 307.331 240.142 307.8 240.142H311.2C311.669 240.142 312.05 240.509 312.05 240.963V250H306.95V240.963Z" fill="#FFF6A3"/>
<path d="M162.668 263.474C162.668 262.886 163.142 262.409 163.727 262.409H168.385C168.969 262.409 169.443 262.886 169.443 263.474V266.196H162.668V263.474Z" fill="#A0A0A0"/>
<path d="M149.12 263.474C149.12 262.886 149.593 262.409 150.178 262.409H154.836C155.42 262.409 155.894 262.886 155.894 263.474V266.196H149.12V263.474Z" fill="#A0A0A0"/>
<rect x="144.153" y="266.134" width="30.4818" height="33.8664" fill="#A0A0A0"/>
<path d="M154.012 274.319C154.012 273.695 154.518 273.19 155.141 273.19V273.19C155.765 273.19 156.27 273.695 156.27 274.319V277.734H154.012V274.319Z" fill="#FFF6A3"/>
<path d="M154.012 274.238C154.012 273.659 154.518 273.19 155.141 273.19C155.765 273.19 156.27 273.659 156.27 274.238V277.734H154.012V274.238Z" fill="#FFF6A3"/>
<path d="M162.292 274.142C162.292 273.519 162.797 273.013 163.421 273.013V273.013C164.045 273.013 164.55 273.519 164.55 274.142V277.557H162.292V274.142Z" fill="#FFF6A3"/>
<path d="M162.292 274.062C162.292 273.483 162.797 273.013 163.421 273.013C164.045 273.013 164.55 273.483 164.55 274.062V277.557H162.292V274.062Z" fill="#FFF6A3"/>
<path d="M152.022 289.217C152.022 286.456 154.261 284.217 157.022 284.217H161.57C164.331 284.217 166.57 286.456 166.57 289.217V300H152.022V289.217Z" fill="#FFF6A3"/>
<rect x="120.156" y="250.775" width="24.2458" height="49.2248" fill="#A0A0A0"/>
<path d="M116 244.84H148.559V249.708C148.559 250.298 148.085 250.775 147.5 250.775H117.058C116.474 250.775 116 250.298 116 249.708V244.84Z" fill="#A0A0A0"/>
<path d="M116 242.067C116 241.478 116.474 241 117.058 241H121.523C122.107 241 122.581 241.478 122.581 242.067V244.84H116V242.067Z" fill="#A0A0A0"/>
<path d="M141.978 242.067C141.978 241.478 142.452 241 143.036 241H147.5C148.085 241 148.559 241.478 148.559 242.067V244.84H141.978V242.067Z" fill="#A0A0A0"/>
<path d="M129.508 242.067C129.508 241.478 129.982 241 130.567 241H135.031C135.616 241 136.089 241.478 136.089 242.067V244.84H129.508V242.067Z" fill="#A0A0A0"/>
<path d="M135.05 255.654C135.05 255.081 135.516 254.615 136.089 254.615V254.615C136.663 254.615 137.129 255.081 137.129 255.654V259.154H135.05V255.654Z" fill="#FFF6A3"/>
<path d="M135.05 255.663C135.05 255.084 135.516 254.615 136.089 254.615C136.663 254.615 137.129 255.084 137.129 255.663V259.154H135.05V255.663Z" fill="#FFF6A3"/>
<path d="M127.43 268.572C127.43 267.998 127.895 267.533 128.469 267.533V267.533C129.043 267.533 129.508 267.998 129.508 268.572V272.071H127.43V268.572Z" fill="#FFF6A3"/>
<path d="M127.43 268.58C127.43 268.001 127.895 267.533 128.469 267.533C129.043 267.533 129.508 268.001 129.508 268.58V272.071H127.43V268.58Z" fill="#FFF6A3"/>
<path d="M135.05 280.791C135.05 280.217 135.516 279.751 136.089 279.751V279.751C136.663 279.751 137.129 280.217 137.129 280.791V284.29H135.05V280.791Z" fill="#FFF6A3"/>
<path d="M135.05 280.799C135.05 280.22 135.516 279.751 136.089 279.751C136.663 279.751 137.129 280.22 137.129 280.799V284.29H135.05V280.799Z" fill="#FFF6A3"/>
<path d="M127.43 290.915C127.43 290.341 127.895 289.876 128.469 289.876V289.876C129.043 289.876 129.508 290.341 129.508 290.915V294.414H127.43V290.915Z" fill="#FFF6A3"/>
<path d="M127.43 290.923C127.43 290.345 127.895 289.876 128.469 289.876C129.043 289.876 129.508 290.345 129.508 290.923V294.414H127.43V290.923Z" fill="#FFF6A3"/>
<rect x="174.536" y="250.775" width="24.2458" height="49.2249" fill="#A0A0A0"/>
<path d="M170.38 244.84H202.939V249.708C202.939 250.298 202.465 250.775 201.88 250.775H171.438C170.854 250.775 170.38 250.298 170.38 249.708V244.84Z" fill="#A0A0A0"/>
<path d="M170.38 242.067C170.38 241.478 170.854 241 171.438 241H175.902C176.487 241 176.961 241.478 176.961 242.067V244.84H170.38V242.067Z" fill="#A0A0A0"/>
<path d="M196.358 242.067C196.358 241.478 196.831 241 197.416 241H201.88C202.465 241 202.939 241.478 202.939 242.067V244.84H196.358V242.067Z" fill="#A0A0A0"/>
<path d="M183.888 242.067C183.888 241.478 184.362 241 184.947 241H189.411C189.995 241 190.469 241.478 190.469 242.067V244.84H183.888V242.067Z" fill="#A0A0A0"/>
<path d="M189.43 255.654C189.43 255.081 189.895 254.615 190.469 254.615V254.615C191.043 254.615 191.508 255.081 191.508 255.654V259.154H189.43V255.654Z" fill="#FFF6A3"/>
<path d="M189.43 255.663C189.43 255.084 189.895 254.615 190.469 254.615C191.043 254.615 191.508 255.084 191.508 255.663V259.154H189.43V255.663Z" fill="#FFF6A3"/>
<path d="M181.81 268.572C181.81 267.998 182.275 267.533 182.849 267.533V267.533C183.423 267.533 183.888 267.998 183.888 268.572V272.071H181.81V268.572Z" fill="#FFF6A3"/>
<path d="M181.81 268.58C181.81 268.001 182.275 267.533 182.849 267.533C183.423 267.533 183.888 268.001 183.888 268.58V272.071H181.81V268.58Z" fill="#FFF6A3"/>
<path d="M189.43 280.791C189.43 280.217 189.895 279.751 190.469 279.751V279.751C191.043 279.751 191.508 280.217 191.508 280.791V284.29H189.43V280.791Z" fill="#FFF6A3"/>
<path d="M189.43 280.799C189.43 280.22 189.895 279.751 190.469 279.751C191.043 279.751 191.508 280.22 191.508 280.799V284.29H189.43V280.799Z" fill="#FFF6A3"/>
<path d="M181.81 290.915C181.81 290.341 182.275 289.876 182.849 289.876V289.876C183.423 289.876 183.888 290.341 183.888 290.915V294.414H181.81V290.915Z" fill="#FFF6A3"/>
<path d="M181.81 290.923C181.81 290.345 182.275 289.876 182.849 289.876C183.423 289.876 183.888 290.345 183.888 290.923V294.414H181.81V290.923Z" fill="#FFF6A3"/>
<path d="M228.486 444.406C228.295 444.107 228.51 443.715 228.866 443.715H300.505C300.782 443.715 300.993 443.962 300.95 444.235L298.796 457.622C298.761 457.84 298.573 458 298.351 458H237.425C237.271 458 237.128 457.922 237.045 457.792L228.486 444.406Z" fill="#835432"/>
<path d="M211.222 434.407C211.007 434.281 210.936 434.005 211.063 433.792L211.084 433.755C211.211 433.541 211.487 433.47 211.701 433.596L230.441 444.621C230.655 444.747 230.726 445.023 230.6 445.236L230.578 445.273C230.451 445.487 230.175 445.558 229.961 445.432L211.222 434.407Z" fill="#252823"/>
<path d="M283.675 430.388C283.706 430.288 283.772 430.201 283.86 430.144L296.375 422.029C296.663 421.842 297.046 422.032 297.07 422.373L298.476 441.976C298.494 442.236 298.288 442.457 298.026 442.457H280.558C280.255 442.457 280.038 442.164 280.127 441.876L283.675 430.388Z" fill="white"/>
<path d="M283.675 430.388C283.706 430.288 283.772 430.201 283.86 430.144L296.375 422.029C296.663 421.842 297.046 422.032 297.07 422.373L298.476 441.976C298.494 442.236 298.288 442.457 298.026 442.457H280.558C280.255 442.457 280.038 442.164 280.127 441.876L283.675 430.388Z" fill="white"/>
<path d="M282.907 407.955C282.951 407.747 283.135 407.598 283.348 407.598H294.99C295.273 407.598 295.486 407.855 295.432 408.133L292.449 423.406C292.408 423.617 292.223 423.77 292.007 423.77H280.142C279.856 423.77 279.642 423.507 279.701 423.228L282.907 407.955Z" fill="white"/>
<path d="M282.907 407.955C282.951 407.747 283.135 407.598 283.348 407.598H294.99C295.273 407.598 295.486 407.855 295.432 408.133L292.449 423.406C292.408 423.617 292.223 423.77 292.007 423.77H280.142C279.856 423.77 279.642 423.507 279.701 423.228L282.907 407.955Z" fill="white"/>
<path d="M259.442 404.519C259.494 404.321 259.673 404.184 259.878 404.184H276.502C276.742 404.184 276.94 404.371 276.952 404.61L277.851 422.399C277.864 422.656 277.659 422.871 277.401 422.871H255.211C254.915 422.871 254.7 422.593 254.775 422.308L259.442 404.519Z" fill="white"/>
<path d="M259.442 404.519C259.494 404.321 259.673 404.184 259.878 404.184H276.502C276.742 404.184 276.94 404.371 276.952 404.61L277.851 422.399C277.864 422.656 277.659 422.871 277.401 422.871H255.211C254.915 422.871 254.7 422.593 254.775 422.308L259.442 404.519Z" fill="white"/>
<path d="M258.451 424.285C258.503 424.087 258.682 423.949 258.888 423.949H275.511C275.751 423.949 275.949 424.137 275.961 424.376L276.86 442.255C276.873 442.511 276.668 442.727 276.41 442.727H254.219C253.924 442.727 253.708 442.449 253.783 442.164L258.451 424.285Z" fill="white"/>
<path d="M258.451 424.285C258.503 424.087 258.682 423.949 258.888 423.949H275.511C275.751 423.949 275.949 424.137 275.961 424.376L276.86 442.255C276.873 442.511 276.668 442.727 276.41 442.727H254.219C253.924 442.727 253.708 442.449 253.783 442.164L258.451 424.285Z" fill="white"/>
<path d="M261.812 389.336C261.863 389.138 262.043 389 262.248 389H274.487C274.727 389 274.925 389.188 274.937 389.427L275.599 402.634C275.612 402.89 275.407 403.105 275.149 403.105H258.814C258.519 403.105 258.303 402.828 258.377 402.544L261.812 389.336Z" fill="white"/>
<path d="M261.812 389.336C261.863 389.138 262.043 389 262.248 389H274.487C274.727 389 274.925 389.188 274.937 389.427L275.599 402.634C275.612 402.89 275.407 403.105 275.149 403.105H258.814C258.519 403.105 258.303 402.828 258.377 402.544L261.812 389.336Z" fill="white"/>
<path d="M261.812 389.336C261.863 389.138 262.043 389 262.248 389H274.487C274.727 389 274.925 389.188 274.937 389.427L275.599 402.634C275.612 402.89 275.407 403.105 275.149 403.105H258.814C258.519 403.105 258.303 402.828 258.377 402.544L261.812 389.336Z" fill="white"/>
<path d="M261.812 389.336C261.863 389.138 262.043 389 262.248 389H274.487C274.727 389 274.925 389.188 274.937 389.427L275.599 402.634C275.612 402.89 275.407 403.105 275.149 403.105H258.814C258.519 403.105 258.303 402.828 258.377 402.544L261.812 389.336Z" fill="white"/>
<path d="M239.26 393.109C239.311 392.912 239.491 392.773 239.696 392.773H250.249C250.489 392.773 250.687 392.961 250.699 393.2L251.269 404.52C251.282 404.777 251.077 404.992 250.819 404.992H236.737C236.443 404.992 236.227 404.714 236.301 404.43L239.26 393.109Z" fill="white"/>
<path d="M239.26 393.109C239.311 392.912 239.491 392.773 239.696 392.773H250.249C250.489 392.773 250.687 392.961 250.699 393.2L251.269 404.52C251.282 404.777 251.077 404.992 250.819 404.992H236.737C236.443 404.992 236.227 404.714 236.301 404.43L239.26 393.109Z" fill="white"/>
<path d="M239.26 393.109C239.311 392.912 239.491 392.773 239.696 392.773H250.249C250.489 392.773 250.687 392.961 250.699 393.2L251.269 404.52C251.282 404.777 251.077 404.992 250.819 404.992H236.737C236.443 404.992 236.227 404.714 236.301 404.43L239.26 393.109Z" fill="white"/>
<path d="M239.26 393.109C239.311 392.912 239.491 392.773 239.696 392.773H250.249C250.489 392.773 250.687 392.961 250.699 393.2L251.269 404.52C251.282 404.777 251.077 404.992 250.819 404.992H236.737C236.443 404.992 236.227 404.714 236.301 404.43L239.26 393.109Z" fill="white"/>
<path d="M233.696 407.036C233.747 406.838 233.926 406.699 234.132 406.699H251.159C251.399 406.699 251.597 406.887 251.609 407.126L252.531 425.544C252.544 425.801 252.338 426.016 252.081 426.016H229.348C229.053 426.016 228.838 425.738 228.911 425.454L233.696 407.036Z" fill="white"/>
<path d="M233.696 407.036C233.747 406.838 233.926 406.699 234.132 406.699H251.159C251.399 406.699 251.597 406.887 251.609 407.126L252.531 425.544C252.544 425.801 252.338 426.016 252.081 426.016H229.348C229.053 426.016 228.838 425.738 228.911 425.454L233.696 407.036Z" fill="white"/>
<path d="M233.696 407.036C233.747 406.838 233.926 406.699 234.132 406.699H251.159C251.399 406.699 251.597 406.887 251.609 407.126L252.531 425.544C252.544 425.801 252.338 426.016 252.081 426.016H229.348C229.053 426.016 228.838 425.738 228.911 425.454L233.696 407.036Z" fill="white"/>
<path d="M233.696 407.036C233.747 406.838 233.926 406.699 234.132 406.699H251.159C251.399 406.699 251.597 406.887 251.609 407.126L252.531 425.544C252.544 425.801 252.338 426.016 252.081 426.016H229.348C229.053 426.016 228.838 425.738 228.911 425.454L233.696 407.036Z" fill="white"/>
<path d="M232.732 428.348C232.777 428.141 232.96 427.992 233.173 427.992H252.301C252.606 427.992 252.822 428.286 252.731 428.576L248.38 442.412C248.321 442.599 248.147 442.727 247.95 442.727H230.223C229.936 442.727 229.723 442.463 229.782 442.184L232.732 428.348Z" fill="white"/>
<path d="M232.732 428.348C232.777 428.141 232.96 427.992 233.173 427.992H252.301C252.606 427.992 252.822 428.286 252.731 428.576L248.38 442.412C248.321 442.599 248.147 442.727 247.95 442.727H230.223C229.936 442.727 229.723 442.463 229.782 442.184L232.732 428.348Z" fill="white"/>
<path d="M232.732 428.348C232.777 428.141 232.96 427.992 233.173 427.992H252.301C252.606 427.992 252.822 428.286 252.731 428.576L248.38 442.412C248.321 442.599 248.147 442.727 247.95 442.727H230.223C229.936 442.727 229.723 442.463 229.782 442.184L232.732 428.348Z" fill="white"/>
<path d="M232.732 428.348C232.777 428.141 232.96 427.992 233.173 427.992H252.301C252.606 427.992 252.822 428.286 252.731 428.576L248.38 442.412C248.321 442.599 248.147 442.727 247.95 442.727H230.223C229.936 442.727 229.723 442.463 229.782 442.184L232.732 428.348Z" fill="white"/>
<path d="M227.729 415.064C228.034 414.702 228.621 414.995 228.513 415.456L223.224 437.917C223.155 438.21 222.823 438.354 222.561 438.205L213.374 432.961C213.13 432.822 213.072 432.497 213.252 432.282L227.729 415.064Z" fill="white"/>
<path d="M228.61 444.728C228.327 444.291 228.642 443.715 229.164 443.715H300.341C300.75 443.715 301.06 444.082 300.99 444.484L299.771 451.525C299.716 451.84 299.442 452.07 299.121 452.07H233.717C233.493 452.07 233.284 451.957 233.163 451.769L228.61 444.728Z" fill="#252823"/>
<path d="M231.722 446.02C231.534 445.721 231.749 445.332 232.104 445.332H298.436C298.712 445.332 298.923 445.577 298.881 445.849L298.233 450.072C298.199 450.291 298.01 450.453 297.787 450.453H234.764C234.609 450.453 234.465 450.374 234.382 450.243L231.722 446.02Z" fill="white"/>
<path d="M239.939 447.129C239.939 446.881 240.141 446.68 240.39 446.68H241.831C242.08 446.68 242.282 446.881 242.282 447.129V448.566C242.282 448.815 242.08 449.016 241.831 449.016H240.39C240.141 449.016 239.939 448.815 239.939 448.566V447.129Z" fill="#090302"/>
<path d="M246.517 447.129C246.517 446.881 246.719 446.68 246.968 446.68H248.499C248.748 446.68 248.95 446.881 248.95 447.129V448.566C248.95 448.815 248.748 449.016 248.499 449.016H246.968C246.719 449.016 246.517 448.815 246.517 448.566V447.129Z" fill="#090302"/>
<path d="M253.185 447.129C253.185 446.881 253.387 446.68 253.636 446.68H255.077C255.326 446.68 255.528 446.881 255.528 447.129V448.566C255.528 448.815 255.326 449.016 255.077 449.016H253.636C253.387 449.016 253.185 448.815 253.185 448.566V447.129Z" fill="#090302"/>
<path d="M259.763 447.129C259.763 446.881 259.965 446.68 260.214 446.68H261.655C261.904 446.68 262.106 446.881 262.106 447.129V448.566C262.106 448.815 261.904 449.016 261.655 449.016H260.214C259.965 449.016 259.763 448.815 259.763 448.566V447.129Z" fill="#090302"/>
<path d="M266.341 447.129C266.341 446.881 266.543 446.68 266.792 446.68H268.324C268.572 446.68 268.774 446.881 268.774 447.129V448.566C268.774 448.815 268.572 449.016 268.324 449.016H266.792C266.543 449.016 266.341 448.815 266.341 448.566V447.129Z" fill="#090302"/>
<path d="M273.009 447.129C273.009 446.881 273.211 446.68 273.46 446.68H274.902C275.15 446.68 275.352 446.881 275.352 447.129V448.566C275.352 448.815 275.15 449.016 274.902 449.016H273.46C273.211 449.016 273.009 448.815 273.009 448.566V447.129Z" fill="#090302"/>
<path d="M279.587 447.129C279.587 446.881 279.789 446.68 280.038 446.68H281.48C281.728 446.68 281.93 446.881 281.93 447.129V448.566C281.93 448.815 281.728 449.016 281.48 449.016H280.038C279.789 449.016 279.587 448.815 279.587 448.566V447.129Z" fill="#090302"/>
<path d="M286.165 447.129C286.165 446.881 286.367 446.68 286.616 446.68H288.148C288.397 446.68 288.598 446.881 288.598 447.129V448.566C288.598 448.815 288.397 449.016 288.148 449.016H286.616C286.367 449.016 286.165 448.815 286.165 448.566V447.129Z" fill="#090302"/>
<path d="M292.833 447.129C292.833 446.881 293.035 446.68 293.284 446.68H294.726C294.975 446.68 295.176 446.881 295.176 447.129V448.566C295.176 448.815 294.975 449.016 294.726 449.016H293.284C293.035 449.016 292.833 448.815 292.833 448.566V447.129Z" fill="#090302"/>
<path d="M344.203 34.6559C336.313 34.785 328.894 33.5505 323.255 32.0215C319.229 30.9298 314.55 33.9152 314.55 38.0817L314.55 102.342C314.55 105.357 316.754 108.543 319.682 109.276C328.206 111.41 345.149 115.177 354.452 115.854C367.57 116.81 374.812 110.941 388.614 106.302C397.145 103.433 408.13 102.227 415.54 101.827C418.555 101.665 421 99.2176 421 96.2029V82.1467C421 81.5098 419.497 79.7176 413.484 77.6432C409.305 76.2013 412.146 75.1594 415.951 74.5359C418.778 74.0726 421 71.7436 421 68.8825V68.198C421 65.986 419.664 63.9953 417.612 63.1631C416.109 62.554 414.111 61.7457 411.571 60.7212C407.423 59.0481 410.59 57.1763 414.446 55.8803C416.877 55.0635 418.677 52.8938 418.677 50.3332V28.0416C418.677 25.0518 416.272 22.6447 413.284 22.8309C407.564 23.1871 398.575 24.1217 387.657 26.1948C368.253 29.8795 360.874 34.3829 344.203 34.6559Z" fill="#D9616E"/>
<path fill-rule="evenodd" clip-rule="evenodd" d="M378.445 92.9668C387.469 88.9045 393.75 79.8431 393.75 69.3165C393.75 54.9964 382.126 43.3876 367.787 43.3876C353.447 43.3876 341.823 54.9964 341.823 69.3165C341.823 79.7365 347.978 88.7209 356.855 92.8418V102.888C356.855 104.395 358.078 105.617 359.588 105.617H375.712C377.222 105.617 378.445 104.395 378.445 102.888V92.9668Z" fill="white"/>
<path fill-rule="evenodd" clip-rule="evenodd" d="M375.712 91.2033L377.322 90.4786C385.402 86.8412 391.017 78.7308 391.017 69.3165C391.017 56.5038 380.616 46.117 367.787 46.117C354.957 46.117 344.556 56.5038 344.556 69.3165C344.556 78.6355 350.058 86.6768 358.007 90.3668L359.588 91.1008V102.888H375.712V91.2033ZM378.445 92.9668V102.888C378.445 104.395 377.222 105.617 375.712 105.617H359.588C358.078 105.617 356.855 104.395 356.855 102.888V92.8418C347.978 88.7209 341.823 79.7365 341.823 69.3165C341.823 54.9964 353.447 43.3876 367.787 43.3876C382.126 43.3876 393.75 54.9964 393.75 69.3165C393.75 79.8431 387.469 88.9045 378.445 92.9668Z" fill="black"/>
<ellipse cx="358.494" cy="70.4083" rx="4.64606" ry="4.63991" fill="#777777"/>
<mask id="path-47-inside-1_1323_4901" fill="white">
<ellipse cx="375.986" cy="68.7707" rx="8.19893" ry="8.18807"/>
</mask>
<ellipse cx="375.986" cy="68.7707" rx="8.19893" ry="8.18807" fill="black"/>
<path d="M374.184 68.7707C374.184 67.7575 375.003 66.9587 375.986 66.9587V86.9587C386.024 86.9587 394.184 78.8281 394.184 68.7707H374.184ZM375.986 66.9587C376.968 66.9587 377.787 67.7575 377.787 68.7707H357.787C357.787 78.8281 365.947 86.9587 375.986 86.9587V66.9587ZM377.787 68.7707C377.787 69.7838 376.968 70.5826 375.986 70.5826V50.5826C365.947 50.5826 357.787 58.7132 357.787 68.7707H377.787ZM375.986 70.5826C375.003 70.5826 374.184 69.7838 374.184 68.7707H394.184C394.184 58.7132 386.024 50.5826 375.986 50.5826V70.5826Z" fill="black" mask="url(#path-47-inside-1_1323_4901)"/>
<path d="M357.254 46.8245L390.401 79.8189L387.7 82.5253L354.553 49.5309L357.254 46.8245Z" fill="black"/>
<path d="M354.668 90.4691C354.668 89.7907 355.219 89.2408 355.898 89.2408H360.817C361.497 89.2408 362.047 89.7907 362.047 90.4691C362.047 91.1474 361.497 91.6973 360.817 91.6973H355.898C355.219 91.6973 354.668 91.1474 354.668 90.4691Z" fill="black"/>
<path d="M373.799 90.4691C373.799 89.7907 374.35 89.2408 375.029 89.2408H379.948C380.627 89.2408 381.178 89.7907 381.178 90.4691C381.178 91.1474 380.627 91.6973 379.948 91.6973H375.029C374.35 91.6973 373.799 91.1474 373.799 90.4691Z" fill="black"/>
<path d="M369.563 93.3349C370.242 93.3349 370.793 93.8848 370.793 94.5631V99.4759C370.793 100.154 370.242 100.704 369.563 100.704C368.884 100.704 368.333 100.154 368.333 99.4759V94.5631C368.333 93.8848 368.884 93.3349 369.563 93.3349Z" fill="black"/>
<path d="M365.737 93.3349C366.416 93.3349 366.967 93.8848 366.967 94.5631V99.4759C366.967 100.154 366.416 100.704 365.737 100.704C365.057 100.704 364.507 100.154 364.507 99.4759V94.5631C364.507 93.8848 365.057 93.3349 365.737 93.3349Z" fill="black"/>
<ellipse cx="375.986" cy="68.7706" rx="5.19266" ry="5.18578" fill="#777777"/>
<rect x="301.919" y="22.6445" width="7.65234" height="108.356" rx="3.82617" fill="#BE7348"/>
<ellipse cx="305.746" cy="20.7339" rx="8.74553" ry="8.73394" fill="#F2C780"/>
<defs>
<linearGradient id="paint0_linear_1323_4901" x1="255.51" y1="258.196" x2="255.51" y2="365.159" gradientUnits="userSpaceOnUse">
<stop stop-color="#DE7E55"/>
<stop offset="1" stop-color="#F3AC82"/>
</linearGradient>
</defs>
</svg>
