<svg width="512" height="512" viewBox="0 0 512 512" fill="none" xmlns="http://www.w3.org/2000/svg">
<path d="M208.133 155.595C199.522 169.398 185.304 192.254 169.651 217.5C163.993 226.626 171.726 259.72 182.294 261.619L310.559 284.675C313.599 285.221 316.69 285.26 319.739 284.767C354.611 279.13 415.008 267.857 409.651 262.5C404.051 256.9 363.651 216 350.151 196C342.893 185.247 334.912 170.447 329.084 159.06C323.789 148.716 313.234 142 301.613 142H232.707C222.676 142 213.442 147.084 208.133 155.595Z" fill="#7E7F90"/>
<path fill-rule="evenodd" clip-rule="evenodd" d="M330.302 161.479L328.916 158.682C323.854 148.465 313.437 142 302.034 142H257.242C241.574 147.09 225.104 152.161 209.696 153.275C209.132 154.009 208.6 154.775 208.103 155.57C206.091 158.79 203.668 162.674 200.776 167.319C203.061 172.428 208.232 171.713 213.785 168.842C222.943 164.108 235.669 167.761 237.46 177.913C237.588 178.637 237.652 179.369 237.652 180.104V195.049C237.652 196.625 238.246 198.143 239.315 199.302C241.696 201.882 245.732 202.003 248.264 199.572L248.427 199.416C249.701 198.192 250.422 196.501 250.422 194.734V179.892C250.422 177.029 251.276 174.231 252.874 171.856L253.704 170.622C255.859 167.42 259.467 165.5 263.327 165.5H263.602C268.413 165.5 272.688 168.568 274.227 173.126C277.64 183.233 291.96 183.157 295.49 173.091C297.076 168.567 301.361 165.5 306.154 165.5H311.652H319.152H324.652C326.575 165.5 328.651 163.569 330.302 161.479Z" fill="#F0B658"/>
<path fill-rule="evenodd" clip-rule="evenodd" d="M326.754 155H209.652C209.268 155 208.89 154.973 208.521 154.921C213.896 146.807 222.935 142 232.707 142H302.034C311.999 142 321.21 146.936 326.754 155Z" fill="#E8565C"/>
<circle cx="276.151" cy="121.5" r="14.5" fill="white"/>
<circle cx="303.651" cy="107" r="24" fill="white"/>
<path fill-rule="evenodd" clip-rule="evenodd" d="M277.652 142C278.907 140.329 279.651 138.251 279.651 136C279.651 130.477 275.174 126 269.651 126C264.129 126 259.651 130.477 259.651 136C259.651 138.251 260.395 140.329 261.651 142H277.652Z" fill="white"/>
<path d="M120.152 250L100.151 273.5C92.9848 275.833 60.8514 297.9 51.6514 313.5C40.1514 333 47.2244 342.693 63.6514 354.5C79.6515 366 173.151 378 197.151 378C217.651 378 390.034 382.988 421.651 366C455.151 348 465.151 328.5 465.151 308.5C465.151 292.941 430.151 279.833 413.651 270.5C368.485 261.333 279.351 234.6 252.151 235C224.951 235.4 152.818 245.166 120.152 250Z" fill="#BBF9F4"/>
<path d="M438.151 340.5C468.37 313.889 441.818 284.333 421.651 277L259.651 257.5L96.6514 273C84.6514 282.666 49.7514 319.5 60.1514 335.5C73.1514 355.5 198.151 363 229.651 363C278.776 363 404.651 370 438.151 340.5Z" fill="url(#paint0_linear_1323_5013)"/>
<path d="M192.651 203.5C169.451 189.5 105.651 237.499 89.1514 283.499C89.1514 300.999 145.051 337.681 188.651 341.281C243.151 345.781 414.651 321.999 430.651 292.999C438.328 279.086 416.151 246 399.651 238.5C383.151 231 363.651 243.5 346.651 210C329.651 176.5 281.651 199 262.151 213.5C242.651 228 221.651 221 192.651 203.5Z" fill="#6E6F81"/>
<path d="M354.081 234.233C354.167 233.58 355.116 233.58 355.203 234.233L359.595 267.362C359.64 267.7 359.376 268 359.034 268H350.25C349.908 268 349.644 267.7 349.688 267.362L354.081 234.233Z" fill="#1BAD42"/>
<path d="M347.973 247.72C348.092 247.112 348.965 247.112 349.084 247.72L352.925 267.328C352.993 267.676 352.726 268 352.37 268H344.687C344.331 268 344.064 267.676 344.132 267.328L347.973 247.72Z" fill="#1BAD42"/>
<path d="M360.82 243.165C360.931 242.544 361.824 242.544 361.935 243.165L366.241 267.338C366.302 267.683 366.036 268 365.683 268H357.072C356.72 268 356.453 267.683 356.514 267.338L360.82 243.165Z" fill="#1BAD42"/>
<path d="M367 256.994C367.148 256.433 367.947 256.433 368.095 256.994L370.813 267.293C370.908 267.65 370.637 268 370.266 268H364.829C364.458 268 364.187 267.65 364.281 267.293L367 256.994Z" fill="#1BAD42"/>
<path d="M165.651 255.676C142.451 241.676 97.1514 252 80.6514 298C80.6514 315.5 128.051 343.61 171.651 347.21C226.151 351.71 398.651 353.5 414.651 324.5C422.328 310.587 385.327 279.946 372.151 267.5C358.651 254.748 337.151 256 320.151 222.5C303.151 189 254.514 236.245 235.151 250.928C205.151 273.676 194.651 273.176 165.651 255.676Z" fill="#BFE258"/>
<path d="M131.081 248.233C131.167 247.58 132.116 247.58 132.203 248.233L136.595 281.362C136.64 281.7 136.376 282 136.034 282H127.25C126.908 282 126.644 281.7 126.688 281.362L131.081 248.233Z" fill="#1BAD42"/>
<path d="M124.973 261.72C125.092 261.112 125.965 261.112 126.084 261.72L129.925 281.328C129.993 281.676 129.726 282 129.37 282H121.687C121.331 282 121.064 281.676 121.132 281.328L124.973 261.72Z" fill="#1BAD42"/>
<path d="M137.82 257.165C137.931 256.544 138.824 256.544 138.935 257.165L143.241 281.338C143.302 281.683 143.036 282 142.683 282H134.072C133.72 282 133.453 281.683 133.514 281.338L137.82 257.165Z" fill="#1BAD42"/>
<path d="M144 270.994C144.148 270.433 144.947 270.433 145.095 270.994L147.813 281.293C147.908 281.65 147.637 282 147.266 282H141.829C141.458 282 141.187 281.65 141.281 281.293L144 270.994Z" fill="#1BAD42"/>
<path d="M163.151 284.214C139.951 270.214 106.151 270.18 89.6514 316.18C89.6514 333.68 145.051 347.08 188.651 350.68C243.151 355.18 415.651 356.97 431.651 327.97C439.328 314.057 391.651 301.09 367.651 296.09C349.471 292.302 343.151 290.09 326.151 256.59C309.151 223.09 280.014 265.408 260.651 280.09C230.651 302.838 192.151 301.714 163.151 284.214Z" fill="#89D94F"/>
<path d="M273.081 294.233C273.167 293.58 274.116 293.58 274.203 294.233L278.595 327.362C278.64 327.7 278.376 328 278.034 328H269.25C268.908 328 268.644 327.7 268.688 327.362L273.081 294.233Z" fill="#1BAD42"/>
<path d="M266.973 307.72C267.092 307.112 267.965 307.112 268.084 307.72L271.925 327.328C271.993 327.676 271.726 328 271.37 328H263.687C263.331 328 263.064 327.676 263.132 327.328L266.973 307.72Z" fill="#1BAD42"/>
<path d="M279.82 303.165C279.931 302.544 280.824 302.544 280.935 303.165L285.241 327.338C285.302 327.683 285.036 328 284.683 328H276.072C275.72 328 275.453 327.683 275.514 327.338L279.82 303.165Z" fill="#1BAD42"/>
<path d="M286 316.994C286.148 316.433 286.947 316.433 287.095 316.994L289.813 327.293C289.908 327.65 289.637 328 289.266 328H283.829C283.458 328 283.187 327.65 283.281 327.293L286 316.994Z" fill="#1BAD42"/>
<path fill-rule="evenodd" clip-rule="evenodd" d="M159.82 139.767C159.905 139.149 159.949 138.517 159.949 137.875C159.949 130.212 153.719 124 146.034 124C138.636 124 132.586 129.758 132.145 137.025C130.465 135.459 128.208 134.5 125.726 134.5C121.186 134.5 117.398 137.709 116.518 141.977C115.46 141.057 114.077 140.5 112.564 140.5C109.496 140.5 106.964 142.79 106.594 145.75H94.1368C91.8521 145.75 90 147.597 90 149.875C90 152.153 91.8521 154 94.1368 154H160.311C160.315 154 160.32 154 160.325 154C160.329 154 160.334 154 160.339 154H173.863C176.148 154 178 152.153 178 149.875C178 147.597 176.148 145.75 173.863 145.75H167.382C166.841 142.35 163.887 139.75 160.325 139.75C160.155 139.75 159.987 139.756 159.82 139.767Z" fill="white"/>
<path d="M169 307.905C169 307.552 169.175 307.221 169.469 307.018L179.369 300.196C179.748 299.935 180.252 299.935 180.631 300.196L190.531 307.018C190.825 307.221 191 307.552 191 307.905V327.917C191 328.515 190.508 329 189.9 329H170.1C169.492 329 169 328.515 169 327.917V307.905Z" fill="#F9B07B"/>
<path d="M176.7 317.088C176.7 316.49 177.192 316.005 177.8 316.005H182.2C182.808 316.005 183.3 316.49 183.3 317.088V329H176.7V317.088Z" fill="#FFF6A3"/>
<path d="M314 318.268C314 317.854 314.207 317.466 314.554 317.228L326.254 309.23C326.702 308.923 327.298 308.923 327.746 309.23L339.446 317.228C339.793 317.466 340 317.854 340 318.268V341.73C340 342.432 339.418 343 338.7 343H315.3C314.582 343 314 342.432 314 341.73V318.268Z" fill="#F9B07B"/>
<path d="M323.1 329.034C323.1 328.333 323.682 327.764 324.4 327.764H329.6C330.318 327.764 330.9 328.333 330.9 329.034V343H323.1V329.034Z" fill="#FFF6A3"/>
<path d="M270 283.997C270 283.729 270.135 283.478 270.363 283.324L278.013 278.149C278.305 277.95 278.695 277.95 278.987 278.149L286.637 283.324C286.865 283.478 287 283.729 287 283.997V299.178C287 299.632 286.619 300 286.15 300H270.85C270.381 300 270 299.632 270 299.178V283.997Z" fill="#F9B07B"/>
<path d="M275.95 290.963C275.95 290.509 276.331 290.142 276.8 290.142H280.2C280.669 290.142 281.05 290.509 281.05 290.963V300H275.95V290.963Z" fill="#FFF6A3"/>
<path d="M410.203 138.656C402.313 138.785 394.894 137.551 389.255 136.021C385.229 134.93 380.55 137.915 380.55 142.082L380.55 206.342C380.55 209.357 382.754 212.543 385.682 213.276C394.206 215.41 411.149 219.177 420.452 219.854C433.57 220.81 440.812 214.941 454.614 210.302C463.145 207.433 474.13 206.227 481.54 205.827C484.555 205.665 487 203.218 487 200.203V186.147C487 185.51 485.497 183.718 479.484 181.643C475.305 180.201 478.146 179.159 481.951 178.536C484.778 178.073 487 175.744 487 172.882V172.198C487 169.986 485.664 167.995 483.612 167.163C482.109 166.554 480.111 165.746 477.571 164.721C473.423 163.048 476.59 161.176 480.446 159.88C482.877 159.064 484.677 156.894 484.677 154.333V132.042C484.677 129.052 482.272 126.645 479.284 126.831C473.564 127.187 464.575 128.122 453.657 130.195C434.253 133.879 426.874 138.383 410.203 138.656Z" fill="#D9616E"/>
<path fill-rule="evenodd" clip-rule="evenodd" d="M444.445 196.967C453.469 192.905 459.75 183.843 459.75 173.317C459.75 158.996 448.126 147.388 433.787 147.388C419.447 147.388 407.823 158.996 407.823 173.317C407.823 183.736 413.978 192.721 422.855 196.842V206.888C422.855 208.395 424.078 209.617 425.588 209.617H441.712C443.222 209.617 444.445 208.395 444.445 206.888V196.967Z" fill="white"/>
<path fill-rule="evenodd" clip-rule="evenodd" d="M441.712 195.203L443.322 194.479C451.402 190.841 457.017 182.731 457.017 173.317C457.017 160.504 446.616 150.117 433.787 150.117C420.957 150.117 410.556 160.504 410.556 173.317C410.556 182.635 416.058 190.677 424.007 194.367L425.588 195.101V206.888H441.712V195.203ZM444.445 196.967V206.888C444.445 208.395 443.222 209.617 441.712 209.617H425.588C424.078 209.617 422.855 208.395 422.855 206.888V196.842C413.978 192.721 407.823 183.736 407.823 173.317C407.823 158.996 419.447 147.388 433.787 147.388C448.126 147.388 459.75 158.996 459.75 173.317C459.75 183.843 453.469 192.905 444.445 196.967Z" fill="black"/>
<ellipse cx="424.494" cy="174.408" rx="4.64606" ry="4.63991" fill="#777777"/>
<mask id="path-23-inside-1_1323_5013" fill="white">
<ellipse cx="441.986" cy="172.771" rx="8.19893" ry="8.18807"/>
</mask>
<ellipse cx="441.986" cy="172.771" rx="8.19893" ry="8.18807" fill="black"/>
<path d="M440.184 172.771C440.184 171.757 441.003 170.959 441.986 170.959V190.959C452.024 190.959 460.184 182.828 460.184 172.771H440.184ZM441.986 170.959C442.968 170.959 443.787 171.757 443.787 172.771H423.787C423.787 182.828 431.947 190.959 441.986 190.959V170.959ZM443.787 172.771C443.787 173.784 442.968 174.583 441.986 174.583V154.583C431.947 154.583 423.787 162.713 423.787 172.771H443.787ZM441.986 174.583C441.003 174.583 440.184 173.784 440.184 172.771H460.184C460.184 162.713 452.024 154.583 441.986 154.583V174.583Z" fill="black" mask="url(#path-23-inside-1_1323_5013)"/>
<path d="M423.254 150.825L456.401 183.819L453.7 186.525L420.553 153.531L423.254 150.825Z" fill="black"/>
<path d="M420.668 194.469C420.668 193.791 421.219 193.241 421.898 193.241H426.817C427.497 193.241 428.047 193.791 428.047 194.469C428.047 195.147 427.497 195.697 426.817 195.697H421.898C421.219 195.697 420.668 195.147 420.668 194.469Z" fill="black"/>
<path d="M439.799 194.469C439.799 193.791 440.35 193.241 441.029 193.241H445.948C446.627 193.241 447.178 193.791 447.178 194.469C447.178 195.147 446.627 195.697 445.948 195.697H441.029C440.35 195.697 439.799 195.147 439.799 194.469Z" fill="black"/>
<path d="M435.563 197.335C436.242 197.335 436.793 197.885 436.793 198.563V203.476C436.793 204.154 436.242 204.704 435.563 204.704C434.884 204.704 434.333 204.154 434.333 203.476V198.563C434.333 197.885 434.884 197.335 435.563 197.335Z" fill="black"/>
<path d="M431.737 197.335C432.416 197.335 432.967 197.885 432.967 198.563V203.476C432.967 204.154 432.416 204.704 431.737 204.704C431.057 204.704 430.507 204.154 430.507 203.476V198.563C430.507 197.885 431.057 197.335 431.737 197.335Z" fill="black"/>
<ellipse cx="441.986" cy="172.771" rx="5.19266" ry="5.18578" fill="#777777"/>
<rect x="367.919" y="126.645" width="7.65234" height="108.356" rx="3.82617" fill="#BE7348"/>
<ellipse cx="371.746" cy="124.734" rx="8.74553" ry="8.73394" fill="#F2C780"/>
<defs>
<linearGradient id="paint0_linear_1323_5013" x1="255.017" y1="257.5" x2="255.017" y2="363.725" gradientUnits="userSpaceOnUse">
<stop stop-color="#DE7E55"/>
<stop offset="1" stop-color="#F3AC82"/>
</linearGradient>
</defs>
</svg>
