<svg width="383" height="326" viewBox="0 0 383 326" fill="none" xmlns="http://www.w3.org/2000/svg">
<path d="M8.04934 277.449C5.01674 274.266 7.27297 269 11.6694 269H376.897C380.054 269 382.42 271.889 381.8 274.983L372.373 321.983C371.904 324.319 369.853 326 367.47 326H56.448C55.0799 326 53.7716 325.439 52.8279 324.449L8.04934 277.449Z" fill="#A67029"/>
<path d="M208.429 21.5757C210.62 16.6373 218 18.2007 218 23.603V252C218 254.761 215.761 257 213 257H111.688C108.071 257 105.651 253.279 107.117 249.973L208.429 21.5757Z" fill="#BFBFBF"/>
<path d="M239.543 140.752C237.301 135.877 230 137.475 230 142.841V252C230 254.761 232.239 257 235 257H285.197C288.843 257 291.263 253.224 289.74 249.911L239.543 140.752Z" fill="#BFBFBF"/>
</svg>
