<svg width="626" height="495" viewBox="0 0 626 495" fill="none" xmlns="http://www.w3.org/2000/svg">
<path d="M625.744 328.329H433.383V358.405H118.213L197.788 495H584.39L625.744 328.329Z" fill="#9F805A"/>
<path d="M520.39 227.048C520.735 225.928 521.463 224.966 522.445 224.328L608.047 168.775C611.239 166.703 615.484 168.816 615.756 172.612L625.36 306.681C625.568 309.575 623.275 312.038 620.373 312.038H500.938C497.572 312.038 495.167 308.78 496.16 305.564L520.39 227.048Z" fill="#BFBFBF"/>
<path d="M520.39 227.048C520.735 225.928 521.463 224.966 522.445 224.328L608.047 168.775C611.239 166.703 615.484 168.816 615.756 172.612L625.36 306.681C625.568 309.575 623.275 312.038 620.373 312.038H500.938C497.572 312.038 495.167 308.78 496.16 305.564L520.39 227.048Z" fill="#BFBFBF"/>
<path d="M348.61 43.84C349.184 41.6379 351.173 40.1012 353.449 40.1012H467.697C470.361 40.1012 472.557 42.1898 472.691 44.8504L478.86 167.686C479.004 170.542 476.727 172.937 473.867 172.937H321.43C318.156 172.937 315.766 169.843 316.592 166.675L348.61 43.84Z" fill="#BFBFBF"/>
<path d="M348.61 43.84C349.184 41.6379 351.173 40.1012 353.449 40.1012H467.697C470.361 40.1012 472.557 42.1898 472.691 44.8504L478.86 167.686C479.004 170.542 476.727 172.937 473.867 172.937H321.43C318.156 172.937 315.766 169.843 316.592 166.675L348.61 43.84Z" fill="#BFBFBF"/>
<path d="M397.668 4.04532C397.668 2.0318 395.724 0.589928 393.797 1.17455L386.592 3.36051C384.699 3.93489 382.679 3.93489 380.786 3.36051L372.655 0.89354C370.736 0.31132 368.687 0.319436 366.772 0.916833L359.099 3.31172C357.159 3.91716 355.08 3.91716 353.14 3.31172L346.422 1.21519C344.491 0.612372 342.529 2.05552 342.529 4.07897V19.9014C342.529 21.3329 343.54 22.565 344.944 22.8439L354.198 24.6818C355.467 24.9337 356.772 24.9372 358.042 24.692L368.175 22.7354C369.445 22.4903 370.751 22.4937 372.019 22.7457L381.768 24.6818C383.037 24.9337 384.342 24.9372 385.612 24.692L395.237 22.8336C396.648 22.5611 397.668 21.3256 397.668 19.888V4.04532Z" fill="#B54028"/>
<path d="M232.25 21.5896C232.25 19.5761 230.306 18.1342 228.379 18.7189L221.175 20.9048C219.282 21.4792 217.261 21.4792 215.368 20.9048L207.237 18.4379C205.318 17.8556 203.269 17.8637 201.355 18.4611L193.681 20.856C191.741 21.4615 189.663 21.4615 187.723 20.856L181.005 18.7595C179.073 18.1567 177.111 19.5998 177.111 21.6233V37.4457C177.111 38.8772 178.123 40.1094 179.527 40.3882L188.781 42.2261C190.049 42.478 191.355 42.4815 192.625 42.2363L202.758 40.2798C204.028 40.0346 205.333 40.038 206.602 40.29L216.351 42.2261C217.619 42.478 218.924 42.4815 220.194 42.2363L229.819 40.3779C231.231 40.1054 232.25 38.8699 232.25 37.4323V21.5896Z" fill="#B54028"/>
<path d="M341.35 184.186C341.927 181.988 343.914 180.456 346.186 180.456H461.382C464.045 180.456 466.241 182.543 466.376 185.203L472.592 308.038C472.737 310.895 470.459 313.291 467.598 313.291H313.923C310.646 313.291 308.254 310.191 309.087 307.021L341.35 184.186Z" fill="#BFBFBF"/>
<path d="M341.35 184.186C341.927 181.988 343.914 180.456 346.186 180.456H461.382C464.045 180.456 466.241 182.543 466.376 185.203L472.592 308.038C472.737 310.895 470.459 313.291 467.598 313.291H313.923C310.646 313.291 308.254 310.191 309.087 307.021L341.35 184.186Z" fill="#BFBFBF"/>
<path d="M166.444 61.3907C167.016 59.1855 169.006 57.6456 171.284 57.6456H288.34C291.005 57.6456 293.201 59.735 293.334 62.3961L299.659 188.991C299.802 191.847 297.524 194.241 294.665 194.241H138.459C135.188 194.241 132.798 191.152 133.619 187.986L166.444 61.3907Z" fill="#BFBFBF"/>
<path d="M166.444 61.3907C167.016 59.1855 169.006 57.6456 171.284 57.6456H288.34C291.005 57.6456 293.201 59.735 293.334 62.3961L299.659 188.991C299.802 191.847 297.524 194.241 294.665 194.241H138.459C135.188 194.241 132.798 191.152 133.619 187.986L166.444 61.3907Z" fill="#BFBFBF"/>
<path d="M166.444 61.3907C167.016 59.1855 169.006 57.6456 171.284 57.6456H288.34C291.005 57.6456 293.201 59.735 293.334 62.3961L299.659 188.991C299.802 191.847 297.524 194.241 294.665 194.241H138.459C135.188 194.241 132.798 191.152 133.619 187.986L166.444 61.3907Z" fill="#BFBFBF"/>
<path d="M166.444 61.3907C167.016 59.1855 169.006 57.6456 171.284 57.6456H288.34C291.005 57.6456 293.201 59.735 293.334 62.3961L299.659 188.991C299.802 191.847 297.524 194.241 294.665 194.241H138.459C135.188 194.241 132.798 191.152 133.619 187.986L166.444 61.3907Z" fill="#BFBFBF"/>
<path d="M159.604 213.235C160.096 210.928 162.134 209.278 164.494 209.278H295.613C298.991 209.278 301.396 212.557 300.383 215.779L270.807 309.792C270.152 311.874 268.221 313.291 266.037 313.291H144.442C141.261 313.291 138.889 310.359 139.552 307.248L159.604 213.235Z" fill="#BFBFBF"/>
<path d="M159.604 213.235C160.096 210.928 162.134 209.278 164.494 209.278H295.613C298.991 209.278 301.396 212.557 300.383 215.779L270.807 309.792C270.152 311.874 268.221 313.291 266.037 313.291H144.442C141.261 313.291 138.889 310.359 139.552 307.248L159.604 213.235Z" fill="#BFBFBF"/>
<path d="M159.604 213.235C160.096 210.928 162.134 209.278 164.494 209.278H295.613C298.991 209.278 301.396 212.557 300.383 215.779L270.807 309.792C270.152 311.874 268.221 313.291 266.037 313.291H144.442C141.261 313.291 138.889 310.359 139.552 307.248L159.604 213.235Z" fill="#BFBFBF"/>
<path d="M159.604 213.235C160.096 210.928 162.134 209.278 164.494 209.278H295.613C298.991 209.278 301.396 212.557 300.383 215.779L270.807 309.792C270.152 311.874 268.221 313.291 266.037 313.291H144.442C141.261 313.291 138.889 310.359 139.552 307.248L159.604 213.235Z" fill="#BFBFBF"/>
<path d="M119.747 122.557C123.137 118.53 129.647 121.802 128.439 126.925L93.1199 276.708C92.3536 279.958 88.6783 281.558 85.7775 279.905L24.4275 244.938C21.7139 243.391 21.0668 239.763 23.0785 237.374L119.747 122.557Z" fill="#BFBFBF"/>
<path d="M4.22414 294.728C1.89121 293.351 1.11599 290.344 2.49264 288.011V288.011C3.86928 285.678 6.87649 284.903 9.20942 286.279L151.583 370.293C153.916 371.67 154.691 374.677 153.315 377.01V377.01C151.938 379.343 148.931 380.118 146.598 378.742L4.22414 294.728Z" fill="#9F805A"/>
<path d="M604.904 412.291H149.61L197.788 495H584.39L604.904 412.291Z" fill="#765127"/>
<rect width="18.7975" height="18.7975" rx="5" transform="matrix(-1 0 0 1 584.39 344.62)" fill="#090302"/>
<rect width="18.7975" height="18.7975" rx="5" transform="matrix(-1 0 0 1 534.263 344.62)" fill="#090302"/>
<rect width="18.7975" height="18.7975" rx="5" transform="matrix(-1 0 0 1 484.136 344.62)" fill="#090302"/>
</svg>
