<svg width="772" height="670" viewBox="0 0 772 670" fill="none" xmlns="http://www.w3.org/2000/svg">
<path d="M4.17033 556.444C2.3031 553.111 4.71209 549 8.53241 549H765.691C768.749 549 771.09 551.721 770.635 554.745L759.641 627.745C759.272 630.191 757.17 632 754.697 632H49.43C47.6205 632 45.9523 631.022 45.0679 629.444L4.17033 556.444Z" fill="#B54028"/>
<path d="M500.328 13.8887C503.06 9.75124 509.5 11.6858 509.5 16.6441V528C509.5 530.761 507.261 533 504.5 533H166.794C162.81 533 160.426 528.569 162.622 525.245L500.328 13.8887Z" fill="#BFBFBF"/>
<path d="M704.326 308.907C707.057 304.767 713.5 306.7 713.5 311.66V528C713.5 530.761 711.261 533 708.5 533H565.788C561.806 533 559.422 528.571 561.615 525.247L704.326 308.907Z" fill="#BFBFBF"/>
<rect x="131.5" y="548.529" width="10" height="140" rx="5" transform="rotate(-30.3886 131.5 548.529)" fill="#5C4736"/>
<rect x="301.5" y="548.529" width="10" height="140" rx="5" transform="rotate(-30.3886 301.5 548.529)" fill="#5C4736"/>
<rect x="461.5" y="548.529" width="10" height="140" rx="5" transform="rotate(-30.3886 461.5 548.529)" fill="#5C4736"/>
<rect x="621.5" y="548.529" width="10" height="140" rx="5" transform="rotate(-30.3886 621.5 548.529)" fill="#5C4736"/>
</svg>
