<svg width="1002" height="768" viewBox="0 0 1002 768" fill="none" xmlns="http://www.w3.org/2000/svg">
<path d="M195.901 616.688C193.779 613.359 196.17 609 200.117 609H995.134C998.212 609 1000.56 611.753 1000.07 614.792L976.175 763.792C975.786 766.217 973.694 768 971.238 768H295.101C293.393 768 291.803 767.128 290.885 765.688L195.901 616.688Z" fill="#835432"/>
<rect y="502.856" width="10.4778" height="251.466" rx="5" transform="rotate(-59.4554 0 502.856)" fill="#252823"/>
<path d="M808.365 460.672C808.71 459.553 809.436 458.59 810.418 457.952L949.307 367.623C952.499 365.547 956.748 367.66 957.02 371.458L972.617 589.643C972.824 592.538 970.532 595 967.63 595H773.771C770.407 595 768.003 591.744 768.993 588.528L808.365 460.672Z" fill="#BFBFBF"/>
<path d="M808.365 460.672C808.71 459.553 809.436 458.59 810.418 457.952L949.307 367.623C952.499 365.547 956.748 367.66 957.02 371.458L972.617 589.643C972.824 592.538 970.532 595 967.63 595H773.771C770.407 595 768.003 591.744 768.993 588.528L808.365 460.672Z" fill="#BFBFBF"/>
<path d="M799.846 210.976C800.331 208.659 802.373 207 804.74 207H933.932C937.077 207 939.441 209.869 938.84 212.956L905.738 382.956C905.281 385.304 903.223 387 900.83 387H769.155C765.981 387 763.611 384.082 764.261 380.976L799.846 210.976Z" fill="#BFBFBF"/>
<path d="M799.846 210.976C800.331 208.659 802.373 207 804.74 207H933.932C937.077 207 939.441 209.869 938.84 212.956L905.738 382.956C905.281 385.304 903.223 387 900.83 387H769.155C765.981 387 763.611 384.082 764.261 380.976L799.846 210.976Z" fill="#BFBFBF"/>
<path d="M539.44 172.734C540.016 170.535 542.003 169 544.277 169H728.761C731.424 169 733.62 171.088 733.754 173.748L743.735 371.748C743.879 374.605 741.602 377 738.742 377H492.476C489.201 377 486.81 373.903 487.639 370.734L539.44 172.734Z" fill="#BFBFBF"/>
<path d="M539.44 172.734C540.016 170.535 542.003 169 544.277 169H728.761C731.424 169 733.62 171.088 733.754 173.748L743.735 371.748C743.879 374.605 741.602 377 738.742 377H492.476C489.201 377 486.81 373.903 487.639 370.734L539.44 172.734Z" fill="#BFBFBF"/>
<path d="M528.443 392.74C529.017 390.537 531.006 389 533.282 389H717.76C720.424 389 722.62 391.089 722.753 393.749L732.737 592.749C732.88 595.606 730.603 598 727.743 598H481.469C478.196 598 475.805 594.908 476.63 591.74L528.443 392.74Z" fill="#BFBFBF"/>
<path d="M528.443 392.74C529.017 390.537 531.006 389 533.282 389H717.76C720.424 389 722.62 391.089 722.753 393.749L732.737 592.749C732.88 595.606 730.603 598 727.743 598H481.469C478.196 598 475.805 594.908 476.63 591.74L528.443 392.74Z" fill="#BFBFBF"/>
<path d="M565.736 3.74509C566.308 1.53991 568.298 0 570.576 0H706.4C709.065 0 711.261 2.08939 711.394 4.75052L718.738 151.751C718.88 154.606 716.603 157 713.744 157H532.462C529.191 157 526.801 153.911 527.622 150.745L565.736 3.74509Z" fill="#BFBFBF"/>
<path d="M565.736 3.74509C566.308 1.53991 568.298 0 570.576 0H706.4C709.065 0 711.261 2.08939 711.394 4.75052L718.738 151.751C718.88 154.606 716.603 157 713.744 157H532.462C529.191 157 526.801 153.911 527.622 150.745L565.736 3.74509Z" fill="#BFBFBF"/>
<path d="M565.736 3.74509C566.308 1.53991 568.298 0 570.576 0H706.4C709.065 0 711.261 2.08939 711.394 4.75052L718.738 151.751C718.88 154.606 716.603 157 713.744 157H532.462C529.191 157 526.801 153.911 527.622 150.745L565.736 3.74509Z" fill="#BFBFBF"/>
<path d="M565.736 3.74509C566.308 1.53991 568.298 0 570.576 0H706.4C709.065 0 711.261 2.08939 711.394 4.75052L718.738 151.751C718.88 154.606 716.603 157 713.744 157H532.462C529.191 157 526.801 153.911 527.622 150.745L565.736 3.74509Z" fill="#BFBFBF"/>
<path d="M315.46 45.7394C316.034 43.537 318.023 42 320.299 42H437.417C440.081 42 442.277 44.0887 442.411 46.7493L448.736 172.749C448.88 175.606 446.603 178 443.743 178H287.47C284.196 178 281.806 174.907 282.631 171.739L315.46 45.7394Z" fill="#BFBFBF"/>
<path d="M315.46 45.7394C316.034 43.537 318.023 42 320.299 42H437.417C440.081 42 442.277 44.0887 442.411 46.7493L448.736 172.749C448.88 175.606 446.603 178 443.743 178H287.47C284.196 178 281.806 174.907 282.631 171.739L315.46 45.7394Z" fill="#BFBFBF"/>
<path d="M315.46 45.7394C316.034 43.537 318.023 42 320.299 42H437.417C440.081 42 442.277 44.0887 442.411 46.7493L448.736 172.749C448.88 175.606 446.603 178 443.743 178H287.47C284.196 178 281.806 174.907 282.631 171.739L315.46 45.7394Z" fill="#BFBFBF"/>
<path d="M315.46 45.7394C316.034 43.537 318.023 42 320.299 42H437.417C440.081 42 442.277 44.0887 442.411 46.7493L448.736 172.749C448.88 175.606 446.603 178 443.743 178H287.47C284.196 178 281.806 174.907 282.631 171.739L315.46 45.7394Z" fill="#BFBFBF"/>
<path d="M253.712 200.746C254.284 198.541 256.274 197 258.553 197H447.514C450.179 197 452.375 199.09 452.508 201.751L462.738 406.751C462.881 409.607 460.604 412 457.744 412H205.46C202.19 412 199.8 408.912 200.62 405.746L253.712 200.746Z" fill="#BFBFBF"/>
<path d="M253.712 200.746C254.284 198.541 256.274 197 258.553 197H447.514C450.179 197 452.375 199.09 452.508 201.751L462.738 406.751C462.881 409.607 460.604 412 457.744 412H205.46C202.19 412 199.8 408.912 200.62 405.746L253.712 200.746Z" fill="#BFBFBF"/>
<path d="M253.712 200.746C254.284 198.541 256.274 197 258.553 197H447.514C450.179 197 452.375 199.09 452.508 201.751L462.738 406.751C462.881 409.607 460.604 412 457.744 412H205.46C202.19 412 199.8 408.912 200.62 405.746L253.712 200.746Z" fill="#BFBFBF"/>
<path d="M253.712 200.746C254.284 198.541 256.274 197 258.553 197H447.514C450.179 197 452.375 199.09 452.508 201.751L462.738 406.751C462.881 409.607 460.604 412 457.744 412H205.46C202.19 412 199.8 408.912 200.62 405.746L253.712 200.746Z" fill="#BFBFBF"/>
<path d="M243.023 437.96C243.514 435.651 245.553 434 247.914 434H460.192C463.567 434 465.973 437.275 464.963 440.496L416.673 594.496C416.019 596.581 414.087 598 411.902 598H215.175C211.995 598 209.623 595.071 210.284 591.96L243.023 437.96Z" fill="#BFBFBF"/>
<path d="M243.023 437.96C243.514 435.651 245.553 434 247.914 434H460.192C463.567 434 465.973 437.275 464.963 440.496L416.673 594.496C416.019 596.581 414.087 598 411.902 598H215.175C211.995 598 209.623 595.071 210.284 591.96L243.023 437.96Z" fill="#BFBFBF"/>
<path d="M243.023 437.96C243.514 435.651 245.553 434 247.914 434H460.192C463.567 434 465.973 437.275 464.963 440.496L416.673 594.496C416.019 596.581 414.087 598 411.902 598H215.175C211.995 598 209.623 595.071 210.284 591.96L243.023 437.96Z" fill="#BFBFBF"/>
<path d="M243.023 437.96C243.514 435.651 245.553 434 247.914 434H460.192C463.567 434 465.973 437.275 464.963 440.496L416.673 594.496C416.019 596.581 414.087 598 411.902 598H215.175C211.995 598 209.623 595.071 210.284 591.96L243.023 437.96Z" fill="#BFBFBF"/>
<path d="M187.496 290.109C190.88 286.072 197.399 289.336 196.196 294.463L137.499 544.472C136.734 547.729 133.05 549.331 130.147 547.669L28.1884 489.305C25.4848 487.757 24.8393 484.14 26.8406 481.753L187.496 290.109Z" fill="#BFBFBF"/>
<path d="M194.971 616.709C192.825 613.382 195.214 609 199.173 609H996.063C999.164 609 1001.52 611.794 1000.99 614.851L986.658 697.851C986.244 700.248 984.164 702 981.731 702H252.687C250.988 702 249.405 701.137 248.484 699.709L194.971 616.709Z" fill="#252823"/>
<path d="M231.811 634.66C229.72 631.33 232.113 627 236.045 627H972.176C975.239 627 977.582 629.729 977.118 632.757L969.917 679.757C969.544 682.198 967.444 684 964.975 684H265.567C263.847 684 262.248 683.116 261.333 681.66L231.811 634.66Z" fill="#C4C4C4"/>
<rect x="323" y="642" width="26" height="26" rx="5" fill="#090302"/>
<rect x="396" y="642" width="27" height="26" rx="5" fill="#090302"/>
<rect x="470" y="642" width="26" height="26" rx="5" fill="#090302"/>
<rect x="543" y="642" width="26" height="26" rx="5" fill="#090302"/>
<rect x="616" y="642" width="27" height="26" rx="5" fill="#090302"/>
<rect x="690" y="642" width="26" height="26" rx="5" fill="#090302"/>
<rect x="763" y="642" width="26" height="26" rx="5" fill="#090302"/>
<rect x="836" y="642" width="27" height="26" rx="5" fill="#090302"/>
<rect x="910" y="642" width="26" height="26" rx="5" fill="#090302"/>
</svg>
