<svg width="1026" height="835" viewBox="0 0 1026 835" fill="none" xmlns="http://www.w3.org/2000/svg">
<path d="M199.484 631.465C197.848 628.143 200.266 624.256 203.97 624.256H1019.58C1022.59 624.256 1024.91 626.889 1024.54 629.871L999.674 830.615C999.364 833.119 997.236 835 994.712 835H302.82C300.916 835 299.176 833.918 298.335 832.209L199.484 631.465Z" fill="#252823"/>
<rect y="515.09" width="10.7327" height="257.584" rx="5" transform="rotate(-59.4554 0 515.09)" fill="#252823"/>
<path d="M828.044 471.838C828.389 470.718 829.115 469.756 830.097 469.117L972.575 376.455C975.768 374.378 980.017 376.491 980.288 380.29L996.289 604.119C996.496 607.014 994.204 609.476 991.302 609.476H792.432C789.067 609.476 786.663 606.22 787.653 603.004L828.044 471.838Z" fill="#BFBFBF"/>
<path d="M828.044 471.838C828.389 470.718 829.115 469.756 830.097 469.117L972.575 376.455C975.768 374.378 980.017 376.491 980.288 380.29L996.289 604.119C996.496 607.014 994.204 609.476 991.302 609.476H792.432C789.067 609.476 786.663 606.22 787.653 603.004L828.044 471.838Z" fill="#BFBFBF"/>
<path d="M819.326 216.012C819.811 213.695 821.853 212.036 824.22 212.036H956.802C959.947 212.036 962.311 214.905 961.71 217.992L927.755 392.371C927.297 394.72 925.24 396.415 922.847 396.415H787.718C784.545 396.415 782.174 393.497 782.824 390.391L819.326 216.012Z" fill="#BFBFBF"/>
<path d="M819.326 216.012C819.811 213.695 821.853 212.036 824.22 212.036H956.802C959.947 212.036 962.311 214.905 961.71 217.992L927.755 392.371C927.297 394.72 925.24 396.415 922.847 396.415H787.718C784.545 396.415 782.174 393.497 782.824 390.391L819.326 216.012Z" fill="#BFBFBF"/>
<path d="M552.588 176.846C553.164 174.646 555.151 173.112 557.425 173.112H746.607C749.27 173.112 751.466 175.2 751.6 177.86L761.836 380.92C761.98 383.777 759.703 386.172 756.843 386.172H504.301C501.025 386.172 498.634 383.075 499.463 379.907L552.588 176.846Z" fill="#BFBFBF"/>
<path d="M552.588 176.846C553.164 174.646 555.151 173.112 557.425 173.112H746.607C749.27 173.112 751.466 175.2 751.6 177.86L761.836 380.92C761.98 383.777 759.703 386.172 756.843 386.172H504.301C501.025 386.172 498.634 383.075 499.463 379.907L552.588 176.846Z" fill="#BFBFBF"/>
<path d="M541.324 402.204C541.897 400.001 543.886 398.464 546.162 398.464H735.338C738.002 398.464 740.198 400.553 740.332 403.213L750.57 607.298C750.713 610.154 748.436 612.549 745.576 612.549H493.025C489.752 612.549 487.362 609.456 488.186 606.289L541.324 402.204Z" fill="#BFBFBF"/>
<path d="M541.324 402.204C541.897 400.001 543.886 398.464 546.162 398.464H735.338C738.002 398.464 740.198 400.553 740.332 403.213L750.57 607.298C750.713 610.154 748.436 612.549 745.576 612.549H493.025C489.752 612.549 487.362 609.456 488.186 606.289L541.324 402.204Z" fill="#BFBFBF"/>
<path d="M579.525 3.74508C580.096 1.5399 582.086 0 584.365 0H723.703C726.367 0 728.564 2.08939 728.697 4.75052L736.231 155.57C736.374 158.426 734.097 160.82 731.237 160.82H545.26C541.989 160.82 539.599 157.731 540.42 154.565L579.525 3.74508Z" fill="#BFBFBF"/>
<path d="M579.525 3.74508C580.096 1.5399 582.086 0 584.365 0H723.703C726.367 0 728.564 2.08939 728.697 4.75052L736.231 155.57C736.374 158.426 734.097 160.82 731.237 160.82H545.26C541.989 160.82 539.599 157.731 540.42 154.565L579.525 3.74508Z" fill="#BFBFBF"/>
<path d="M579.525 3.74508C580.096 1.5399 582.086 0 584.365 0H723.703C726.367 0 728.564 2.08939 728.697 4.75052L736.231 155.57C736.374 158.426 734.097 160.82 731.237 160.82H545.26C541.989 160.82 539.599 157.731 540.42 154.565L579.525 3.74508Z" fill="#BFBFBF"/>
<path d="M579.525 3.74508C580.096 1.5399 582.086 0 584.365 0H723.703C726.367 0 728.564 2.08939 728.697 4.75052L736.231 155.57C736.374 158.426 734.097 160.82 731.237 160.82H545.26C541.989 160.82 539.599 157.731 540.42 154.565L579.525 3.74508Z" fill="#BFBFBF"/>
<path d="M323.158 46.7612C323.732 44.5588 325.721 43.0219 327.997 43.0219H448.175C450.839 43.0219 453.035 45.1105 453.168 47.7712L459.66 177.08C459.803 179.936 457.526 182.331 454.666 182.331H294.306C291.033 182.331 288.642 179.238 289.467 176.07L323.158 46.7612Z" fill="#BFBFBF"/>
<path d="M323.158 46.7612C323.732 44.5588 325.721 43.0219 327.997 43.0219H448.175C450.839 43.0219 453.035 45.1105 453.168 47.7712L459.66 177.08C459.803 179.936 457.526 182.331 454.666 182.331H294.306C291.033 182.331 288.642 179.238 289.467 176.07L323.158 46.7612Z" fill="#BFBFBF"/>
<path d="M323.158 46.7612C323.732 44.5588 325.721 43.0219 327.997 43.0219H448.175C450.839 43.0219 453.035 45.1105 453.168 47.7712L459.66 177.08C459.803 179.936 457.526 182.331 454.666 182.331H294.306C291.033 182.331 288.642 179.238 289.467 176.07L323.158 46.7612Z" fill="#BFBFBF"/>
<path d="M323.158 46.7612C323.732 44.5588 325.721 43.0219 327.997 43.0219H448.175C450.839 43.0219 453.035 45.1105 453.168 47.7712L459.66 177.08C459.803 179.936 457.526 182.331 454.666 182.331H294.306C291.033 182.331 288.642 179.238 289.467 176.07L323.158 46.7612Z" fill="#BFBFBF"/>
<path d="M259.908 205.539C260.48 203.334 262.47 201.793 264.749 201.793H458.518C461.182 201.793 463.379 203.883 463.511 206.544L474.002 416.775C474.145 419.63 471.868 422.024 469.008 422.024H210.301C207.031 422.024 204.641 418.936 205.461 415.77L259.908 205.539Z" fill="#BFBFBF"/>
<path d="M259.908 205.539C260.48 203.334 262.47 201.793 264.749 201.793H458.518C461.182 201.793 463.379 203.883 463.511 206.544L474.002 416.775C474.145 419.63 471.868 422.024 469.008 422.024H210.301C207.031 422.024 204.641 418.936 205.461 415.77L259.908 205.539Z" fill="#BFBFBF"/>
<path d="M259.908 205.539C260.48 203.334 262.47 201.793 264.749 201.793H458.518C461.182 201.793 463.379 203.883 463.511 206.544L474.002 416.775C474.145 419.63 471.868 422.024 469.008 422.024H210.301C207.031 422.024 204.641 418.936 205.461 415.77L259.908 205.539Z" fill="#BFBFBF"/>
<path d="M259.908 205.539C260.48 203.334 262.47 201.793 264.749 201.793H458.518C461.182 201.793 463.379 203.883 463.511 206.544L474.002 416.775C474.145 419.63 471.868 422.024 469.008 422.024H210.301C207.031 422.024 204.641 418.936 205.461 415.77L259.908 205.539Z" fill="#BFBFBF"/>
<path d="M248.957 448.519C249.448 446.21 251.487 444.559 253.847 444.559H471.554C474.93 444.559 477.335 447.834 476.325 451.055L426.784 609.045C426.131 611.13 424.198 612.549 422.013 612.549H220.26C217.08 612.549 214.708 609.62 215.369 606.509L248.957 448.519Z" fill="#BFBFBF"/>
<path d="M248.957 448.519C249.448 446.21 251.487 444.559 253.847 444.559H471.554C474.93 444.559 477.335 447.834 476.325 451.055L426.784 609.045C426.131 611.13 424.198 612.549 422.013 612.549H220.26C217.08 612.549 214.708 609.62 215.369 606.509L248.957 448.519Z" fill="#BFBFBF"/>
<path d="M248.957 448.519C249.448 446.21 251.487 444.559 253.847 444.559H471.554C474.93 444.559 477.335 447.834 476.325 451.055L426.784 609.045C426.131 611.13 424.198 612.549 422.013 612.549H220.26C217.08 612.549 214.708 609.62 215.369 606.509L248.957 448.519Z" fill="#BFBFBF"/>
<path d="M248.957 448.519C249.448 446.21 251.487 444.559 253.847 444.559H471.554C474.93 444.559 477.335 447.834 476.325 451.055L426.784 609.045C426.131 611.13 424.198 612.549 422.013 612.549H220.26C217.08 612.549 214.708 609.62 215.369 606.509L248.957 448.519Z" fill="#BFBFBF"/>
<path d="M192.386 296.775C195.77 292.739 202.29 296.002 201.086 301.13L140.807 557.878C140.042 561.134 136.358 562.736 133.455 561.075L28.748 501.137C26.0443 499.589 25.3989 495.973 27.4002 493.585L192.386 296.775Z" fill="#BFBFBF"/>
<path d="M259.733 697.5H993.428C996.105 697.5 998.191 699.824 997.902 702.486L994.971 729.486C994.723 731.77 992.794 733.5 990.497 733.5H271.882C270.112 733.5 268.505 732.461 267.779 730.847L255.629 703.847C254.289 700.869 256.467 697.5 259.733 697.5Z" fill="#C4C4C4" stroke="#252823"/>
<rect x="286.881" y="702.115" width="27.3768" height="26.2005" rx="5" fill="#090302"/>
<rect x="929.023" y="702.115" width="27.3768" height="26.2005" rx="5" fill="#090302"/>
<rect x="608.062" y="701.719" width="27.3768" height="26.2005" rx="5" fill="#090302"/>
<rect x="447.01" y="701.719" width="27.3768" height="26.2005" rx="5" fill="#090302"/>
<rect x="526.965" y="701.719" width="27.3768" height="26.2005" rx="5" fill="#090302"/>
<rect x="367.055" y="701.719" width="27.3768" height="26.2005" rx="5" fill="#090302"/>
<rect x="767.971" y="701.719" width="27.3768" height="26.2005" rx="5" fill="#090302"/>
<rect x="847.926" y="701.719" width="27.3768" height="26.2005" rx="5" fill="#090302"/>
<rect x="688.016" y="701.719" width="27.3768" height="26.2005" rx="5" fill="#090302"/>
<path d="M284.783 752.5H986.332C989.04 752.5 991.135 754.874 990.797 757.561L987.528 783.561C987.245 785.812 985.332 787.5 983.063 787.5H296.667C294.905 787.5 293.306 786.473 292.574 784.871L280.69 758.871C279.328 755.89 281.506 752.5 284.783 752.5Z" fill="#C4C4C4" stroke="#252823"/>
<rect x="307.824" y="756.795" width="27.3035" height="26.2005" rx="5" fill="#090302"/>
<rect x="948.247" y="756.795" width="27.3035" height="26.2005" rx="5" fill="#090302"/>
<rect x="628.145" y="756.398" width="27.3035" height="26.2005" rx="5" fill="#090302"/>
<rect x="467.524" y="756.398" width="27.3035" height="26.2005" rx="5" fill="#090302"/>
<rect x="547.265" y="756.398" width="27.3035" height="26.2005" rx="5" fill="#090302"/>
<rect x="387.783" y="756.398" width="27.3035" height="26.2005" rx="5" fill="#090302"/>
<rect x="787.626" y="756.398" width="27.3035" height="26.2005" rx="5" fill="#090302"/>
<rect x="867.367" y="756.398" width="27.3035" height="26.2005" rx="5" fill="#090302"/>
<rect x="707.885" y="756.398" width="27.3035" height="26.2005" rx="5" fill="#090302"/>
<path d="M228.9 642.5H1001.4C1004.08 642.5 1006.17 644.84 1005.87 647.511L1002.78 674.511C1002.52 676.784 1000.6 678.5 998.312 678.5H241.683C239.944 678.5 238.361 677.498 237.616 675.926L224.832 648.926C223.419 645.94 225.596 642.5 228.9 642.5Z" fill="#C4C4C4" stroke="#252823"/>
<rect x="307.606" y="647.436" width="27.3035" height="26.2005" rx="5" fill="#090302"/>
<rect x="948.029" y="647.436" width="27.3035" height="26.2005" rx="5" fill="#090302"/>
<rect x="627.926" y="647.04" width="27.3035" height="26.2005" rx="5" fill="#090302"/>
<rect x="467.306" y="647.04" width="27.3035" height="26.2005" rx="5" fill="#090302"/>
<rect x="547.046" y="647.04" width="27.3035" height="26.2005" rx="5" fill="#090302"/>
<rect x="387.565" y="647.04" width="27.3035" height="26.2005" rx="5" fill="#090302"/>
<rect x="787.408" y="647.04" width="27.3035" height="26.2005" rx="5" fill="#090302"/>
<rect x="867.148" y="647.04" width="27.3035" height="26.2005" rx="5" fill="#090302"/>
<rect x="707.667" y="647.04" width="27.3035" height="26.2005" rx="5" fill="#090302"/>
</svg>
