<svg width="1600" height="900" viewBox="0 0 1600 900" fill="none" xmlns="http://www.w3.org/2000/svg">
<g clip-path="url(#clip0_54_2)">
<rect width="1600" height="900" fill="white"/>
<rect width="1600" height="900" fill="url(#paint0_linear_54_2)"/>
<circle cx="1113" cy="181" r="96" fill="#FCEA9E"/>
<circle opacity="0.3" cx="1113" cy="181" r="155" fill="#FCEA9E"/>
<path opacity="0.1" d="M1382 181C1382 329.565 1261.56 450 1113 450C964.435 450 844 329.565 844 181C844 111.297 870.511 47.7859 914 7.55787e-05C914 7.55787e-05 1036.64 0 1115.5 0C1194.36 0 1312 7.55787e-05 1312 7.55787e-05C1355.49 47.7859 1382 111.297 1382 181Z" fill="#FCEA9E"/>
<path d="M0 363H1600V716H0V363Z" fill="url(#paint1_linear_54_2)"/>
<path d="M1305.63 400H243.134C238.089 400 234 404.089 234 409.134C234 414.178 238.089 418.267 243.134 418.267H907.037C911.722 418.267 915.519 422.065 915.519 426.749C915.519 431.433 911.722 435.23 907.037 435.23H804.088C795.98 435.23 789.408 441.802 789.408 449.909C789.408 458.016 795.98 464.588 804.088 464.588H831.241C835.925 464.588 839.722 468.385 839.722 473.07C839.722 477.754 835.925 481.551 831.241 481.551H657.815C646.769 481.551 637.815 490.505 637.815 501.551V502C637.815 513.046 646.769 522 657.815 522H947.792C958.838 522 967.792 513.046 967.792 502V501.551C967.792 490.505 958.838 481.551 947.792 481.551H918.119C913.435 481.551 909.638 477.754 909.638 473.07C909.638 468.385 913.435 464.588 918.119 464.588H1403.32C1411.43 464.588 1418 458.016 1418 449.909C1418 441.802 1411.43 435.23 1403.32 435.23H1182.76C1178.07 435.23 1174.27 431.433 1174.27 426.749C1174.27 422.065 1178.07 418.267 1182.76 418.267H1305.63C1310.67 418.267 1314.76 414.178 1314.76 409.134C1314.76 404.089 1310.67 400 1305.63 400Z" fill="url(#paint2_linear_54_2)"/>
<path d="M263 557C263 552.029 267.029 548 272 548H558C562.971 548 567 552.029 567 557C567 561.971 562.971 566 558 566H272C267.029 566 263 561.971 263 557Z" fill="#76E0E2"/>
<path d="M574.352 351.57C573.746 350.934 574.197 349.88 575.076 349.88H656.779C657.411 349.88 657.884 350.458 657.76 351.077L655.616 361.766C655.522 362.233 655.112 362.569 654.635 362.569H585.259C584.986 362.569 584.724 362.457 584.535 362.259L574.352 351.57Z" fill="#4566F5"/>
<path d="M619.356 294.315C619.794 293.327 621.27 293.64 621.27 294.721V346.209C621.27 346.762 620.822 347.209 620.27 347.209H597.431C596.707 347.209 596.223 346.465 596.517 345.804L619.356 294.315Z" fill="#F6F6F6"/>
<path d="M625.85 320.863C625.401 319.888 623.941 320.208 623.941 321.281V346.21C623.941 346.762 624.389 347.21 624.941 347.21H636.405C637.134 347.21 637.618 346.454 637.313 345.792L625.85 320.863Z" fill="#F6F6F6"/>
<rect x="210" y="231.408" width="196.326" height="14.5918" rx="7.2959" fill="white"/>
<circle cx="401.02" cy="230.082" r="15.9183" fill="white"/>
<circle cx="366.53" cy="210.184" r="29.1836" fill="white"/>
<path d="M328.061 206.867C338.142 199.439 339.701 196.206 344.77 191.138L354.591 238.041L217.959 237.377V231.408C224.15 230.966 241.306 229.949 260.408 229.418C284.285 228.755 315.459 216.153 328.061 206.867Z" fill="white"/>
<path d="M-23.5 681C-15 681 62 641.5 168.5 633.5C275 625.5 401 665 466.5 673C532 681 826.5 664.5 974 633.5C1121.5 602.5 1447.5 622 1552.5 651.5C1602.04 665.419 1623.52 671.326 1631 673.283V673C1634.62 674.094 1636.2 674.644 1631 673.283V913.5L-40 925L-23.5 681Z" fill="#BBF9F4"/>
<path d="M76.5 730.5C22.8463 730.5 -24 752.5 -33.5 778.5V972.5H1679.5C1709.83 912.167 1745.1 784.1 1643.5 754.5C1516.5 717.5 1430 710.5 1360.5 696C1291 681.5 1229.5 719 1168 736C1106.5 753 1054.5 719 1010 696C965.5 673 898 677.5 765.5 736C700.01 764.914 581.5 768.5 478 719C407.303 685.188 321 736 295.5 754.5C207.439 818.387 178 758.001 159.5 747C141 736 115 730.5 76.5 730.5Z" fill="#F5F6F7"/>
<path d="M99.5 768C71 768 44.5 756 -41 817L-78.5 956L1615.5 972.5C1631.33 930.5 1675.7 816.2 1644.5 777C1605.5 728 1536.5 773 1462.5 745C1388.5 717 1324.4 698.409 1285 705.5C1210 718.999 1221 750 1110 768C999 785.999 960.5 725 902.5 731C844.5 737 828.198 764.639 784 777C725 793.5 618.414 782.018 559 768C514.5 757.5 472.5 730 426.5 745C380.5 760 358.817 785.973 317.5 802.5C297.5 810.5 229 833.5 199 809.5C169 785.5 128 768 99.5 768Z" fill="#F0BAA6"/>
<path d="M124 827.614C95.5 827.614 67.5 819 -18 880L-79 986.114L1615 1002.61C1630.83 960.614 1654.7 866.814 1623.5 827.614C1584.5 778.614 1524.5 789.114 1450.5 761.114C1376.5 733.114 1337.53 717.705 1298 724C1219.5 736.5 1220.5 780.114 1109.5 798.114C998.5 816.114 967 735.499 909 741.499C851 747.499 815.317 796.838 772 812C722 829.501 605.5 800 548 779.5C490.5 759 457.27 777.509 419 807.114C392.5 827.614 366.5 837 332 843C294.614 849.502 265 851 215.5 843C177.573 836.87 152.5 827.614 124 827.614Z" fill="#F2C7B8"/>
<rect x="1258" y="281.282" width="254.256" height="18.8974" rx="9.44872" fill="white"/>
<circle cx="1505.38" cy="279.564" r="20.6154" fill="white"/>
<circle cx="1460.72" cy="253.795" r="37.7949" fill="white"/>
<path d="M1410.9 249.5C1423.95 239.88 1425.97 235.693 1432.54 229.129L1445.26 289.872L1268.31 289.013V281.282C1276.32 280.71 1298.54 279.392 1323.28 278.705C1354.21 277.846 1394.58 261.526 1410.9 249.5Z" fill="white"/>
<path d="M884.192 211.094L892.03 216.071C897.499 219.543 904.444 219.689 910.053 216.45C904.608 207.018 892.548 203.786 883.116 209.231C873.684 214.677 870.453 226.738 875.899 236.169C881.509 232.93 884.855 226.843 884.583 220.371L884.192 211.094Z" fill="#1A81FF"/>
<path d="M934.264 299.272L934.349 293.359C934.408 289.233 932.171 285.416 928.542 283.453C925.241 289.554 927.511 297.176 933.612 300.477C939.714 303.778 947.335 301.507 950.636 295.406C947.007 293.443 942.588 293.658 939.167 295.965L934.264 299.272Z" fill="#1A81FF"/>
<circle cx="1066" cy="721" r="12" fill="#F5F6F7"/>
<circle cx="1175.5" cy="725.5" r="16.5" fill="#F5F6F7"/>
<circle cx="1505.5" cy="725.5" r="16.5" fill="#F5F6F7"/>
<circle cx="1127" cy="684" r="8" fill="#F5F6F7"/>
<circle cx="1477" cy="659" r="8" fill="#F5F6F7"/>
<circle cx="772" cy="704" r="8" fill="#F5F6F7"/>
<circle cx="360" cy="704" r="8" fill="#F5F6F7"/>
<circle cx="708.5" cy="732.5" r="11.5" fill="#F5F6F7"/>
<circle cx="630.5" cy="716.5" r="6.5" fill="#F5F6F7"/>
<circle cx="883.5" cy="814.5" r="13.5" fill="#F0BAA6"/>
<circle cx="846.5" cy="823.5" r="7.5" fill="#F0BAA6"/>
<circle cx="555.092" cy="847.092" r="13.5" transform="rotate(45 555.092 847.092)" fill="#F0BAA6"/>
<circle cx="540.607" cy="818.607" r="7.5" transform="rotate(45 540.607 818.607)" fill="#F0BAA6"/>
<circle cx="460.607" cy="869.91" r="5.16418" transform="rotate(45 460.607 869.91)" fill="#F0BAA6"/>
<circle cx="868.5" cy="840.5" r="5.5" fill="#F0BAA6"/>
<circle cx="749.5" cy="830.5" r="4.5" fill="#F0BAA6"/>
<circle cx="986.834" cy="813.046" r="11.0915" transform="rotate(60 986.834 813.046)" fill="#F0BAA6"/>
<circle cx="1171.15" cy="816.151" r="11.0915" transform="rotate(60 1171.15 816.151)" fill="#F0BAA6"/>
<circle cx="965.231" cy="790.417" r="6.16195" transform="rotate(60 965.231 790.417)" fill="#F0BAA6"/>
<circle cx="962.173" cy="813.055" r="4.51877" transform="rotate(60 962.173 813.055)" fill="#F0BAA6"/>
<circle cx="601.173" cy="865.173" r="4.51877" transform="rotate(60 601.173 865.173)" fill="#F0BAA6"/>
<circle cx="1060.78" cy="850.627" r="7.90725" transform="rotate(-4.70696 1060.78 850.627)" fill="#F0BAA6"/>
<circle cx="1053.27" cy="866.525" r="3.22147" transform="rotate(-4.70696 1053.27 866.525)" fill="#F0BAA6"/>
<path fill-rule="evenodd" clip-rule="evenodd" d="M1617.13 683.791C1627.94 719.936 1633.14 754.727 1635.42 784.099L1615.89 784.972L1636.49 801.885C1638.18 841.096 1634.86 866.987 1634.86 866.987C1634.86 866.987 1587.5 826.677 1547.22 759.703L1567.83 737.652L1536.26 740.413C1528.14 725.276 1520.57 709.01 1514.04 691.743C1507.93 675.569 1503.09 659.444 1499.28 643.725L1517.36 636.893L1495.88 628.543C1492.36 611.452 1490.01 595.003 1488.49 579.679L1515 569.662L1486.85 558.722C1484.19 512.238 1488.78 480.391 1488.78 480.391C1488.78 480.391 1523.02 510.474 1557.92 561.587L1546.4 583.842L1567.35 575.926C1582.15 599.282 1596.51 626.306 1607.84 656.298C1608.83 658.904 1609.78 661.508 1610.7 664.109L1587.62 679.672L1617.13 683.791Z" fill="#265E7D"/>
<path fill-rule="evenodd" clip-rule="evenodd" d="M201.392 938.017C165.3 949.01 130.535 954.377 101.174 956.792L100.207 937.265L83.3935 957.949C44.191 959.83 18.2838 956.636 18.2838 956.636C18.2838 956.636 58.3651 909.075 125.144 868.482L147.295 888.983L144.381 857.422C159.479 849.235 175.708 841.582 192.944 834.974C209.088 828.784 225.19 823.866 240.89 819.978L247.809 838.026L256.056 816.504C273.129 812.906 289.567 810.475 304.883 808.88L315.028 835.339L325.832 807.14C372.303 804.253 404.171 808.689 404.171 808.689C404.171 808.689 374.254 843.081 323.31 878.22L300.999 866.812L309.016 887.723C285.731 902.631 258.777 917.124 228.84 928.602C226.239 929.599 223.64 930.564 221.043 931.498L205.369 908.495L201.392 938.017Z" fill="#265E7D"/>
<path fill-rule="evenodd" clip-rule="evenodd" d="M58.7255 743.906C43.8549 787.003 24.4256 824.808 5.94541 855.233L-13.8367 842.317L-5.54462 873.442C-31.5336 913.111 -53.0467 936.178 -53.0467 936.178C-53.0467 936.178 -71.103 863.223 -63.3949 769.107L-27.6244 761.999L-60.5543 742.445C-57.8434 721.869 -53.8069 700.567 -48.034 679.022C-42.6265 658.841 -36.0058 639.606 -28.6636 621.493L-6.10298 627.538L-21.2946 604.197C-12.6934 584.947 -3.402 567.147 5.90978 551.038L38.9842 559.9L19.0791 529.318C49.2429 481.826 76.203 453.812 76.203 453.812C76.203 453.812 88.5973 507.48 86.7954 582.24L59.8029 595.959L85.9417 602.963C83.9911 636.315 79.0298 672.96 69.0027 710.382C68.1315 713.633 67.23 716.861 66.3004 720.063L32.6797 719.061L58.7255 743.906Z" fill="#39858B"/>
<rect x="62.6243" y="493.55" width="5.66193" height="476.734" rx="2.83096" transform="rotate(15 62.6243 493.55)" fill="#2F7094"/>
<path fill-rule="evenodd" clip-rule="evenodd" d="M172.641 859.458C128.287 896.777 82.4126 925.347 42.3907 946.483L29.2357 919.479L17.9693 958.852C-36.2792 985.174 -74.8078 996.302 -74.8078 996.302C-74.8078 996.302 -46.8937 904.913 22.9437 807.251L66.6135 822.842L43.445 780.014C59.8319 759.332 78.14 738.723 98.5005 718.983C117.572 700.492 137.351 683.825 157.184 668.853L177.855 690.174L176.513 654.791C198.462 639.401 220.217 626.043 240.892 614.543L271.196 645.8L269.438 599.439C333.346 567.307 381.048 554.336 381.048 554.336C381.048 554.336 359.544 620.984 308.783 701.382L270.377 698.733L294.327 723.435C270.431 758.553 241.1 795.3 205.735 829.587C202.662 832.566 199.572 835.499 196.468 838.387L160.437 815.35L172.641 859.458Z" fill="#39858B"/>
<rect x="340.296" y="588.833" width="7.19877" height="606.136" rx="3.59938" transform="rotate(45.8863 340.296 588.833)" fill="#2F7094"/>
<path fill-rule="evenodd" clip-rule="evenodd" d="M1587.75 764.553C1625.75 808.325 1655.03 853.752 1676.78 893.442L1649.98 907.013L1689.53 917.669C1716.68 971.504 1728.41 1009.86 1728.41 1009.86C1728.41 1009.86 1636.6 983.359 1537.87 915.04L1552.78 871.135L1510.31 894.963C1489.38 878.898 1468.49 860.911 1448.44 840.858C1429.66 822.074 1412.68 802.556 1397.41 782.957L1418.41 761.958L1383.05 763.848C1367.32 742.14 1353.63 720.593 1341.81 700.099L1372.59 669.315L1326.27 671.791C1293.15 608.386 1279.44 560.891 1279.44 560.891C1279.44 560.891 1346.41 581.362 1427.59 630.873L1425.53 669.315L1449.86 644.986C1485.35 668.336 1522.54 697.095 1557.37 731.925C1560.4 734.952 1563.38 737.996 1566.31 741.055L1543.84 777.438L1587.75 764.553Z" fill="#39858B"/>
<rect x="1314.56" y="601.105" width="7.19877" height="606.136" rx="3.59938" transform="rotate(-45 1314.56 601.105)" fill="#2F7094"/>
<path fill-rule="evenodd" clip-rule="evenodd" d="M1463.65 857.97C1511.48 873.807 1553.53 894.754 1587.4 914.755L1573.41 936.795L1607.69 927.2C1651.88 955.371 1677.67 978.826 1677.67 978.826C1677.67 978.826 1597.3 999.79 1493.19 992.575L1484.84 953.143L1463.68 989.805C1440.91 987.094 1417.31 982.928 1393.42 976.847C1371.05 971.15 1349.7 964.1 1329.58 956.237L1335.95 931.222L1310.36 948.333C1288.97 939.095 1269.17 929.074 1251.24 919.006L1260.58 882.333L1227.06 904.754C1174.16 872.078 1142.83 842.672 1142.83 842.672C1142.83 842.672 1201.96 828.232 1284.6 829.189L1300.14 858.828L1307.52 829.845C1344.4 831.539 1384.97 836.514 1426.46 847.077C1430.06 847.995 1433.64 848.946 1437.19 849.929L1436.55 887.097L1463.65 857.97Z" fill="#39858B"/>
<rect x="1186.93" y="857.128" width="6.25741" height="526.874" rx="3.12871" transform="rotate(-75.7178 1186.93 857.128)" fill="#2F7094"/>
</g>
<defs>
<linearGradient id="paint0_linear_54_2" x1="800" y1="0" x2="800" y2="900" gradientUnits="userSpaceOnUse">
<stop stop-color="#2A61F4"/>
<stop offset="0.354167" stop-color="#A0CDF5"/>
</linearGradient>
<linearGradient id="paint1_linear_54_2" x1="800" y1="363" x2="800" y2="716" gradientUnits="userSpaceOnUse">
<stop stop-color="#5189F4"/>
<stop offset="0.723958" stop-color="#6BE4DB"/>
</linearGradient>
<linearGradient id="paint2_linear_54_2" x1="826" y1="400" x2="826" y2="522" gradientUnits="userSpaceOnUse">
<stop stop-color="#70B1EF"/>
<stop offset="1" stop-color="#70D2E1"/>
</linearGradient>
<clipPath id="clip0_54_2">
<rect width="1600" height="900" fill="white"/>
</clipPath>
</defs>
</svg>
