<svg width="1600" height="900" viewBox="0 0 1600 900" fill="none" xmlns="http://www.w3.org/2000/svg">
<rect width="1600" height="900" fill="white"/>
<rect width="1600" height="701" fill="url(#paint0_linear_3_247)"/>
<path fill-rule="evenodd" clip-rule="evenodd" d="M1600 309.894V825.215C1328.46 900.287 1085.26 865.287 1045.87 741.09C1004.38 610.248 1204.81 429.956 1493.55 338.396C1529.49 326.999 1565.11 317.514 1600 309.894Z" fill="#119B60"/>
<rect x="460" y="634" width="10" height="47" fill="#EDB07A"/>
<rect x="497" y="634" width="10" height="47" fill="#EDB07A"/>
<rect x="534" y="634" width="10" height="47" fill="#EDB07A"/>
<rect x="571" y="634" width="10" height="47" fill="#EDB07A"/>
<rect x="608" y="634" width="10" height="47" fill="#EDB07A"/>
<rect x="645" y="634" width="10" height="47" fill="#EDB07A"/>
<rect x="460" y="641" width="195" height="7" fill="#EDB07A"/>
<rect x="460" y="655" width="195" height="7" fill="#EDB07A"/>
<rect x="275" y="634" width="10" height="47" fill="#EDB07A"/>
<rect x="312" y="634" width="10" height="47" fill="#EDB07A"/>
<rect x="349" y="634" width="10" height="47" fill="#EDB07A"/>
<rect x="386" y="634" width="10" height="47" fill="#EDB07A"/>
<rect x="423" y="634" width="10" height="47" fill="#EDB07A"/>
<rect x="460" y="634" width="10" height="47" fill="#EDB07A"/>
<rect x="275" y="641" width="195" height="7" fill="#EDB07A"/>
<rect x="275" y="655" width="195" height="7" fill="#EDB07A"/>
<rect x="1242" y="634" width="10" height="47" fill="#EDB07A"/>
<rect x="1279" y="634" width="10" height="47" fill="#EDB07A"/>
<rect x="1316" y="634" width="10" height="47" fill="#EDB07A"/>
<rect x="1353" y="634" width="10" height="47" fill="#EDB07A"/>
<rect x="1390" y="634" width="10" height="47" fill="#EDB07A"/>
<rect x="1427" y="634" width="10" height="47" fill="#EDB07A"/>
<rect x="1242" y="641" width="195" height="7" fill="#EDB07A"/>
<rect x="1242" y="655" width="195" height="7" fill="#EDB07A"/>
<circle cx="1093.69" cy="260.769" r="59.7692" fill="#C2FFFF"/>
<circle cx="1006.46" cy="286.615" r="40.3846" fill="#C2FFFF"/>
<circle cx="949.923" cy="297.923" r="25.8462" fill="#C2FFFF"/>
<circle cx="1155.08" cy="299.539" r="30.6923" fill="#C2FFFF"/>
<rect x="853" y="294.692" width="378" height="35.5385" rx="17.7692" fill="#C2FFFF"/>
<path d="M975.937 507.811L1163.83 519.248L1185.07 529.46V551.108V594.406V681H975.937V507.811Z" fill="#CE7C44"/>
<rect x="900.78" y="432.654" width="75.1575" height="248.346" fill="#BA6E3A"/>
<path d="M881.173 416.315H1096.84L1216.11 537.22H1003.71L881.173 416.315Z" fill="#CD584B"/>
<rect x="757" y="354.228" width="75.1575" height="16.3386" fill="#F9B07B"/>
<rect x="766.803" y="370.567" width="65.3543" height="310.433" fill="#F9B07B"/>
<rect x="832.157" y="354.228" width="78.4252" height="16.3386" fill="#CE7C44"/>
<rect x="832.157" y="370.567" width="68.622" height="310.433" fill="#CE7C44"/>
<path d="M766.803 354.228L799.48 266L832.157 354.228H766.803Z" fill="#F9B07B"/>
<path d="M799.48 266H864.835L894.244 354.228H832.157L799.48 266Z" fill="#CD584B"/>
<path d="M786.409 396.709C786.409 389.49 792.261 383.638 799.48 383.638C806.699 383.638 812.551 389.49 812.551 396.709V432.654H786.409V396.709Z" fill="#FFF6A3"/>
<path d="M786.409 609.11C786.409 601.891 792.261 596.039 799.48 596.039C806.699 596.039 812.551 601.891 812.551 609.11V681H786.409V609.11Z" fill="#FFF6A3"/>
<path d="M855.031 396.709C855.031 389.49 860.884 383.638 868.102 383.638C875.321 383.638 881.173 389.49 881.173 396.709V432.654H855.031V396.709Z" fill="#FFF6A3"/>
<path d="M1021.69 592.772C1021.69 585.553 1027.54 579.701 1034.76 579.701C1041.97 579.701 1047.83 585.553 1047.83 592.772V628.717H1021.69V592.772Z" fill="#FFF6A3"/>
<path d="M1077.24 592.772C1077.24 585.553 1083.09 579.701 1090.31 579.701C1097.53 579.701 1103.38 585.553 1103.38 592.772V628.717H1077.24V592.772Z" fill="#FFF6A3"/>
<path d="M1132.79 592.772C1132.79 585.553 1138.64 579.701 1145.86 579.701C1153.08 579.701 1158.93 585.553 1158.93 592.772V628.717H1132.79V592.772Z" fill="#FFF6A3"/>
<circle cx="277" cy="181" r="96" fill="#FCEA9E"/>
<circle opacity="0.3" cx="277" cy="181" r="155" fill="#FCEA9E"/>
<path opacity="0.1" d="M546 181C546 329.565 425.565 450 277 450C128.435 450 8 329.565 8 181C8 111.297 34.5111 47.7859 78 1.58794e-05C78 1.58794e-05 200.638 4.43535e-06 279.5 4.43535e-06C358.362 4.43535e-06 476 1.58794e-05 476 1.58794e-05C519.489 47.7859 546 111.297 546 181Z" fill="#FCEA9E"/>
<rect y="681" width="1600" height="219" fill="#5BBB35"/>
<circle cx="42" cy="686" r="15" fill="#5BBB35"/>
<circle cx="70" cy="686" r="15" fill="#5BBB35"/>
<circle cx="98" cy="686" r="15" fill="#5BBB35"/>
<circle cx="126" cy="686" r="15" fill="#5BBB35"/>
<circle cx="154" cy="686" r="15" fill="#5BBB35"/>
<circle cx="182" cy="686" r="15" fill="#5BBB35"/>
<circle cx="210" cy="686" r="15" fill="#5BBB35"/>
<circle cx="238" cy="686" r="15" fill="#5BBB35"/>
<circle cx="266" cy="686" r="15" fill="#5BBB35"/>
<circle cx="294" cy="686" r="15" fill="#5BBB35"/>
<circle cx="322" cy="686" r="15" fill="#5BBB35"/>
<circle cx="350" cy="686" r="15" fill="#5BBB35"/>
<circle cx="378" cy="686" r="15" fill="#5BBB35"/>
<circle cx="406" cy="686" r="15" fill="#5BBB35"/>
<circle cx="434" cy="686" r="15" fill="#5BBB35"/>
<circle cx="462" cy="686" r="15" fill="#5BBB35"/>
<circle cx="490" cy="686" r="15" fill="#5BBB35"/>
<circle cx="518" cy="686" r="15" fill="#5BBB35"/>
<circle cx="546" cy="686" r="15" fill="#5BBB35"/>
<circle cx="574" cy="686" r="15" fill="#5BBB35"/>
<circle cx="602" cy="686" r="15" fill="#5BBB35"/>
<circle cx="630" cy="686" r="15" fill="#5BBB35"/>
<circle cx="658" cy="686" r="15" fill="#5BBB35"/>
<circle cx="686" cy="686" r="15" fill="#5BBB35"/>
<circle cx="714" cy="686" r="15" fill="#5BBB35"/>
<circle cx="742" cy="686" r="15" fill="#5BBB35"/>
<circle cx="770" cy="686" r="15" fill="#5BBB35"/>
<circle cx="798" cy="686" r="15" fill="#5BBB35"/>
<circle cx="826" cy="686" r="15" fill="#5BBB35"/>
<circle cx="854" cy="686" r="15" fill="#5BBB35"/>
<circle cx="882" cy="686" r="15" fill="#5BBB35"/>
<circle cx="910" cy="686" r="15" fill="#5BBB35"/>
<circle cx="938" cy="686" r="15" fill="#5BBB35"/>
<circle cx="966" cy="686" r="15" fill="#5BBB35"/>
<circle cx="994" cy="686" r="15" fill="#5BBB35"/>
<circle cx="1022" cy="686" r="15" fill="#5BBB35"/>
<circle cx="1050" cy="686" r="15" fill="#5BBB35"/>
<circle cx="1078" cy="686" r="15" fill="#5BBB35"/>
<circle cx="1106" cy="686" r="15" fill="#5BBB35"/>
<circle cx="1134" cy="686" r="15" fill="#5BBB35"/>
<circle cx="1162" cy="686" r="15" fill="#5BBB35"/>
<circle cx="1190" cy="686" r="15" fill="#5BBB35"/>
<circle cx="1218" cy="686" r="15" fill="#5BBB35"/>
<circle cx="1246" cy="686" r="15" fill="#5BBB35"/>
<circle cx="1274" cy="686" r="15" fill="#5BBB35"/>
<circle cx="1302" cy="686" r="15" fill="#5BBB35"/>
<circle cx="1330" cy="686" r="15" fill="#5BBB35"/>
<circle cx="1358" cy="686" r="15" fill="#5BBB35"/>
<circle cx="1386" cy="686" r="15" fill="#5BBB35"/>
<circle cx="1414" cy="686" r="15" fill="#5BBB35"/>
<circle cx="1442" cy="686" r="15" fill="#5BBB35"/>
<circle cx="1470" cy="686" r="15" fill="#5BBB35"/>
<circle cx="1414" cy="686" r="15" fill="#5BBB35"/>
<circle cx="1442" cy="686" r="15" fill="#5BBB35"/>
<circle cx="1470" cy="686" r="15" fill="#5BBB35"/>
<circle cx="1498" cy="686" r="15" fill="#5BBB35"/>
<circle cx="1526" cy="686" r="15" fill="#5BBB35"/>
<circle cx="1554" cy="686" r="15" fill="#5BBB35"/>
<circle cx="1582" cy="686" r="15" fill="#5BBB35"/>
<path fill-rule="evenodd" clip-rule="evenodd" d="M1600 674.82V697.181C1596.93 694.434 1595 690.443 1595 686C1595 681.558 1596.93 677.566 1600 674.82Z" fill="#5BBB35"/>
<path fill-rule="evenodd" clip-rule="evenodd" d="M14 701C22.2843 701 29 694.284 29 686C29 677.716 22.2843 671 14 671C7.61801 671 2.16691 674.986 0 680.604V691.397C2.16691 697.014 7.61801 701 14 701Z" fill="#5BBB35"/>
<path fill-rule="evenodd" clip-rule="evenodd" d="M1212.25 900H0V738.012C180.052 706.357 447.437 714.559 738.948 769.245C915.276 802.324 1077.21 848.055 1212.25 900Z" fill="#1BAD42"/>
<circle cx="477.067" cy="334.697" r="47.6971" fill="#C2FFFF"/>
<circle cx="410.36" cy="353.87" r="32.2278" fill="#C2FFFF"/>
<ellipse cx="326.604" cy="361.805" rx="27.5979" ry="28.3241" fill="#C2FFFF"/>
<circle cx="368.146" cy="364.347" r="20.6258" fill="#C2FFFF"/>
<circle cx="292.034" cy="370.084" r="20.6258" fill="#C2FFFF"/>
<circle cx="526.053" cy="365.636" r="24.4931" fill="#C2FFFF"/>
<rect x="238" y="363.984" width="341.342" height="29.0504" rx="14.5252" fill="#C2FFFF"/>
<path d="M137.909 522.444C138.381 519.67 142.365 519.67 142.838 522.444L178.279 730.486C178.539 732.012 177.363 733.406 175.815 733.406H104.932C103.383 733.406 102.207 732.012 102.467 730.486L137.909 522.444Z" fill="#1BAD42" stroke="#1BAD42"/>
<path d="M90.628 606.339C91.2623 603.82 94.8425 603.82 95.4768 606.339L126.68 730.296C127.078 731.874 125.884 733.406 124.256 733.406H61.8488C60.2207 733.406 59.027 731.874 59.4244 730.296L90.628 606.339Z" fill="#1BAD42" stroke="#1BAD42"/>
<path d="M190.077 578.341C190.669 575.751 194.358 575.751 194.951 578.341L229.744 730.348C230.102 731.913 228.913 733.406 227.307 733.406H157.72C156.114 733.406 154.925 731.913 155.283 730.348L190.077 578.341Z" fill="#1BAD42" stroke="#1BAD42"/>
<path d="M237.905 663.649C238.673 661.387 241.873 661.387 242.64 663.649L265.182 730.103C265.732 731.724 264.526 733.406 262.814 733.406H217.731C216.019 733.406 214.813 731.724 215.363 730.103L237.905 663.649Z" fill="#1BAD42" stroke="#1BAD42"/>
<path d="M1384.94 292.976C1385.49 289.626 1390.31 289.626 1390.86 292.976L1408.22 398.418C1408.52 400.245 1407.11 401.906 1405.26 401.906H1370.53C1368.68 401.906 1367.27 400.245 1367.57 398.418L1384.94 292.976Z" fill="#119B60"/>
<path d="M1360.87 349.98C1361.61 346.925 1365.96 346.925 1366.7 349.98L1381.67 411.489C1382.13 413.377 1380.69 415.198 1378.75 415.198H1348.82C1346.87 415.198 1345.44 413.377 1345.9 411.489L1360.87 349.98Z" fill="#119B60"/>
<path d="M1405.73 325.239C1406.43 322.103 1410.9 322.103 1411.59 325.239L1428.52 401.742C1428.93 403.615 1427.51 405.391 1425.59 405.391H1391.74C1389.82 405.391 1388.39 403.615 1388.81 401.742L1405.73 325.239Z" fill="#119B60"/>
<path d="M1426.47 338.694C1427.38 335.94 1431.27 335.94 1432.17 338.694L1442.36 369.748C1442.99 371.688 1441.55 373.683 1439.5 373.683H1419.14C1417.1 373.683 1415.65 371.688 1416.29 369.748L1426.47 338.694Z" fill="#119B60"/>
<rect x="598.447" y="840.211" width="56.0248" height="5.60248" rx="2.80124" fill="#1A9E38"/>
<rect x="574" y="803.54" width="39.2174" height="15.2795" rx="7.63975" fill="#325163"/>
<rect x="582.149" y="797.511" width="4.07453" height="10.1863" rx="2.03727" transform="rotate(-23.2863 582.149 797.511)" fill="#325163"/>
<rect width="4.07453" height="10.1863" rx="2.03727" transform="matrix(-0.918541 -0.395326 -0.395326 0.918541 595.012 797.511)" fill="#325163"/>
<rect x="609.652" y="823.404" width="3.56522" height="19.8634" fill="#325163"/>
<rect x="616.273" y="823.404" width="3.56522" height="19.8634" fill="#325163"/>
<rect x="638.683" y="823.404" width="3.56522" height="19.8634" fill="#325163"/>
<rect x="632.062" y="823.404" width="3.56522" height="19.8634" fill="#325163"/>
<path fill-rule="evenodd" clip-rule="evenodd" d="M626.46 833.59C629.362 833.59 631.886 831.972 633.179 829.589C634.439 830.504 635.989 831.043 637.665 831.043C641.884 831.043 645.304 827.623 645.304 823.404C645.304 823.051 645.28 822.704 645.234 822.363C645.425 822.378 645.619 822.385 645.814 822.385C650.033 822.385 653.453 818.965 653.453 814.745C653.453 813.069 652.914 811.519 651.999 810.26C654.382 808.967 656 806.442 656 803.54C656 800.741 654.495 798.294 652.249 796.963C653.011 795.775 653.453 794.361 653.453 792.845C653.453 788.625 650.033 785.205 645.814 785.205C645.619 785.205 645.425 785.212 645.234 785.227C645.28 784.886 645.304 784.539 645.304 784.186C645.304 779.967 641.884 776.547 637.665 776.547C635.989 776.547 634.439 777.086 633.179 778.001C631.886 775.618 629.362 774 626.46 774C623.661 774 621.213 775.505 619.882 777.751C618.694 776.989 617.281 776.547 615.764 776.547C611.545 776.547 608.124 779.967 608.124 784.186C608.124 784.539 608.148 784.886 608.194 785.227C608.003 785.212 607.81 785.205 607.615 785.205C603.396 785.205 599.975 788.625 599.975 792.845C599.975 794.361 600.417 795.775 601.179 796.963C598.934 798.294 597.429 800.741 597.429 803.54C597.429 806.442 599.047 808.967 601.43 810.26C600.515 811.519 599.975 813.069 599.975 814.745C599.975 818.965 603.396 822.385 607.615 822.385C607.81 822.385 608.003 822.378 608.194 822.363C608.148 822.704 608.124 823.051 608.124 823.404C608.124 827.623 611.545 831.043 615.764 831.043C617.281 831.043 618.694 830.602 619.882 829.839C621.213 832.085 623.66 833.59 626.46 833.59Z" fill="#E9E0E5"/>
<path fill-rule="evenodd" clip-rule="evenodd" d="M599.466 798.46C600.814 803.441 605.366 807.106 610.774 807.106C612.826 807.106 614.754 806.578 616.431 805.651C618.758 808.702 622.43 810.671 626.563 810.671C630.884 810.671 634.703 808.518 637.005 805.227C638.837 806.415 641.023 807.106 643.37 807.106C648.612 807.106 653.049 803.663 654.545 798.916C653.948 798.132 653.204 797.468 652.353 796.963C653.115 795.775 653.557 794.361 653.557 792.845C653.557 788.625 650.136 785.205 645.917 785.205C645.722 785.205 645.529 785.212 645.337 785.227C645.384 784.886 645.408 784.539 645.408 784.186C645.408 784.074 645.405 783.963 645.4 783.852C645.226 779.788 641.875 776.547 637.768 776.547C636.301 776.547 634.931 776.96 633.768 777.676C633.602 777.778 633.44 777.887 633.282 778.001C631.989 775.618 629.465 774 626.563 774C623.764 774 621.316 775.505 619.986 777.751C618.797 776.989 617.384 776.547 615.867 776.547C611.912 776.547 608.658 779.553 608.267 783.405C608.249 783.586 608.237 783.769 608.231 783.954C608.229 784.031 608.228 784.109 608.228 784.186C608.228 784.539 608.251 784.886 608.298 785.227C608.106 785.212 607.913 785.205 607.718 785.205C603.499 785.205 600.078 788.625 600.078 792.845C600.078 794.361 600.52 795.775 601.283 796.963C600.602 797.367 599.989 797.873 599.466 798.46Z" fill="#F7F7F7"/>
<rect width="56.0248" height="5.60248" rx="2.80124" transform="matrix(-1 0 0 1 221.553 843.211)" fill="#1A9E38"/>
<rect width="39.2174" height="15.2795" rx="7.63975" transform="matrix(-0.964561 0.263859 0.263859 0.964561 243.828 799.231)" fill="#325163"/>
<rect width="4.07453" height="10.1863" rx="2.03727" transform="matrix(-0.990299 -0.138951 -0.138951 0.990299 234.377 795.566)" fill="#325163"/>
<rect x="221.97" y="798.96" width="4.07453" height="10.1863" rx="2.03727" transform="rotate(-38.5854 221.97 798.96)" fill="#325163"/>
<rect width="3.56522" height="19.8634" transform="matrix(-1 0 0 1 210.348 826.404)" fill="#325163"/>
<rect width="3.56522" height="19.8634" transform="matrix(-1 0 0 1 203.727 826.404)" fill="#325163"/>
<rect width="3.56522" height="19.8634" transform="matrix(-1 0 0 1 181.317 826.404)" fill="#325163"/>
<rect width="3.56522" height="19.8634" transform="matrix(-1 0 0 1 187.938 826.404)" fill="#325163"/>
<path fill-rule="evenodd" clip-rule="evenodd" d="M193.54 836.59C190.638 836.59 188.114 834.972 186.821 832.589C185.561 833.504 184.011 834.043 182.335 834.043C178.116 834.043 174.696 830.623 174.696 826.404C174.696 826.051 174.719 825.704 174.766 825.363C174.574 825.378 174.381 825.385 174.186 825.385C169.967 825.385 166.547 821.965 166.547 817.745C166.547 816.069 167.086 814.519 168.001 813.26C165.618 811.967 164 809.442 164 806.54C164 803.741 165.505 801.294 167.751 799.963C166.988 798.775 166.547 797.361 166.547 795.845C166.547 791.625 169.967 788.205 174.186 788.205C174.381 788.205 174.574 788.212 174.766 788.227C174.719 787.886 174.696 787.539 174.696 787.186C174.696 782.967 178.116 779.547 182.335 779.547C184.011 779.547 185.561 780.086 186.821 781.001C188.114 778.618 190.638 777 193.54 777C196.339 777 198.787 778.505 200.117 780.751C201.306 779.989 202.719 779.547 204.236 779.547C208.455 779.547 211.876 782.967 211.876 787.186C211.876 787.539 211.852 787.886 211.805 788.227C211.997 788.212 212.19 788.205 212.385 788.205C216.604 788.205 220.025 791.625 220.025 795.845C220.025 797.361 219.583 798.775 218.821 799.963C221.066 801.294 222.571 803.741 222.571 806.54C222.571 809.442 220.953 811.967 218.57 813.26C219.485 814.519 220.025 816.069 220.025 817.745C220.025 821.965 216.604 825.385 212.385 825.385C212.19 825.385 211.997 825.378 211.805 825.363C211.852 825.704 211.876 826.051 211.876 826.404C211.876 830.623 208.455 834.043 204.236 834.043C202.719 834.043 201.306 833.602 200.117 832.839C198.787 835.085 196.339 836.59 193.54 836.59Z" fill="#E9E0E5"/>
<path fill-rule="evenodd" clip-rule="evenodd" d="M220.534 801.46C219.186 806.441 214.634 810.106 209.226 810.106C207.174 810.106 205.246 809.578 203.568 808.651C201.242 811.702 197.57 813.671 193.437 813.671C189.116 813.671 185.297 811.518 182.995 808.227C181.163 809.415 178.977 810.106 176.63 810.106C171.388 810.106 166.951 806.663 165.455 801.916C166.052 801.132 166.796 800.468 167.647 799.963C166.885 798.775 166.443 797.361 166.443 795.845C166.443 791.625 169.864 788.205 174.083 788.205C174.278 788.205 174.471 788.212 174.663 788.227C174.616 787.886 174.592 787.539 174.592 787.186C174.592 787.074 174.595 786.963 174.599 786.852C174.774 782.788 178.125 779.547 182.232 779.547C183.699 779.547 185.069 779.96 186.232 780.676C186.398 780.778 186.56 780.887 186.718 781.001C188.011 778.618 190.535 777 193.437 777C196.236 777 198.684 778.505 200.014 780.751C201.203 779.989 202.616 779.547 204.133 779.547C208.088 779.547 211.342 782.553 211.733 786.405C211.751 786.586 211.763 786.769 211.769 786.954C211.771 787.031 211.772 787.109 211.772 787.186C211.772 787.539 211.748 787.886 211.702 788.227C211.893 788.212 212.087 788.205 212.282 788.205C216.501 788.205 219.921 791.625 219.921 795.845C219.921 797.361 219.48 798.775 218.717 799.963C219.398 800.367 220.011 800.873 220.534 801.46Z" fill="#F7F7F7"/>
<rect width="56.0248" height="5.60248" rx="2.80124" transform="matrix(-1 0 0 1 392.553 774.211)" fill="#1A9E38"/>
<rect width="39.2174" height="15.2795" rx="7.63975" transform="matrix(-0.82296 -0.568099 -0.568099 0.82296 413.44 753.397)" fill="#325163"/>
<rect width="4.07453" height="10.1863" rx="2.03727" transform="matrix(-0.531339 -0.847159 -0.847159 0.531339 410.159 743.806)" fill="#325163"/>
<rect x="399.573" y="736.499" width="4.07453" height="10.1863" rx="2.03727" transform="rotate(11.3315 399.573 736.499)" fill="#325163"/>
<rect width="3.56522" height="19.8634" transform="matrix(-1 0 0 1 381.348 757.404)" fill="#325163"/>
<rect width="3.56522" height="19.8634" transform="matrix(-1 0 0 1 374.727 757.404)" fill="#325163"/>
<rect width="3.56522" height="19.8634" transform="matrix(-1 0 0 1 352.317 757.404)" fill="#325163"/>
<rect width="3.56522" height="19.8634" transform="matrix(-1 0 0 1 358.938 757.404)" fill="#325163"/>
<path fill-rule="evenodd" clip-rule="evenodd" d="M364.54 767.59C361.638 767.59 359.114 765.972 357.821 763.589C356.561 764.504 355.012 765.043 353.335 765.043C349.116 765.043 345.696 761.623 345.696 757.404C345.696 757.051 345.72 756.704 345.766 756.363C345.575 756.378 345.381 756.385 345.186 756.385C340.967 756.385 337.547 752.965 337.547 748.745C337.547 747.069 338.086 745.519 339.001 744.26C336.618 742.967 335 740.442 335 737.54C335 734.741 336.505 732.294 338.751 730.963C337.989 729.775 337.547 728.361 337.547 726.845C337.547 722.625 340.967 719.205 345.186 719.205C345.381 719.205 345.575 719.212 345.766 719.227C345.72 718.886 345.696 718.539 345.696 718.186C345.696 713.967 349.116 710.547 353.335 710.547C355.012 710.547 356.561 711.086 357.821 712.001C359.114 709.618 361.638 708 364.54 708C367.34 708 369.787 709.505 371.118 711.751C372.306 710.989 373.719 710.547 375.236 710.547C379.455 710.547 382.876 713.967 382.876 718.186C382.876 718.539 382.852 718.886 382.806 719.227C382.997 719.212 383.19 719.205 383.385 719.205C387.605 719.205 391.025 722.625 391.025 726.845C391.025 728.361 390.583 729.775 389.821 730.963C392.066 732.294 393.572 734.741 393.572 737.54C393.572 740.442 391.953 742.967 389.57 744.26C390.485 745.519 391.025 747.069 391.025 748.745C391.025 752.965 387.605 756.385 383.385 756.385C383.19 756.385 382.997 756.378 382.806 756.363C382.852 756.704 382.876 757.051 382.876 757.404C382.876 761.623 379.455 765.043 375.236 765.043C373.719 765.043 372.306 764.602 371.118 763.839C369.787 766.085 367.34 767.59 364.54 767.59Z" fill="#E9E0E5"/>
<path fill-rule="evenodd" clip-rule="evenodd" d="M391.534 732.46C390.186 737.441 385.634 741.106 380.226 741.106C378.174 741.106 376.246 740.578 374.569 739.651C372.242 742.702 368.57 744.671 364.437 744.671C360.116 744.671 356.297 742.518 353.995 739.227C352.163 740.415 349.977 741.106 347.63 741.106C342.388 741.106 337.951 737.663 336.455 732.916C337.052 732.132 337.796 731.468 338.647 730.963C337.885 729.775 337.443 728.361 337.443 726.845C337.443 722.625 340.864 719.205 345.083 719.205C345.278 719.205 345.471 719.212 345.663 719.227C345.616 718.886 345.592 718.539 345.592 718.186C345.592 718.074 345.595 717.963 345.6 717.852C345.774 713.788 349.125 710.547 353.232 710.547C354.699 710.547 356.069 710.96 357.232 711.676C357.398 711.778 357.56 711.887 357.718 712.001C359.011 709.618 361.535 708 364.437 708C367.236 708 369.684 709.505 371.014 711.751C372.203 710.989 373.616 710.547 375.133 710.547C379.088 710.547 382.342 713.553 382.733 717.405C382.752 717.586 382.764 717.769 382.769 717.954C382.771 718.031 382.773 718.109 382.773 718.186C382.773 718.539 382.749 718.886 382.702 719.227C382.894 719.212 383.087 719.205 383.282 719.205C387.501 719.205 390.922 722.625 390.922 726.845C390.922 728.361 390.48 729.775 389.718 730.963C390.398 731.367 391.011 731.873 391.534 732.46Z" fill="#F7F7F7"/>
<defs>
<linearGradient id="paint0_linear_3_247" x1="800" y1="0" x2="800" y2="701" gradientUnits="userSpaceOnUse">
<stop stop-color="#6999FF"/>
<stop offset="1" stop-color="#B1E1F8"/>
</linearGradient>
</defs>
</svg>
