<svg width="1600" height="900" viewBox="0 0 1600 900" fill="none" xmlns="http://www.w3.org/2000/svg">
<g clip-path="url(#clip0_102_2)">
<rect width="1600" height="900" fill="white"/>
<rect x="-38" y="-72" width="1675" height="764" fill="url(#paint0_linear_102_2)"/>
<path d="M79.5 337C46.7 426.2 0.833336 485.167 -18 503.5L-62 966.5L1696 1039C1678.17 763.667 1637.2 252.3 1616 229.5C1589.5 201 1512 155.5 1452 180.5C1404 200.5 1370 230 1345 262.5C1329.22 283.008 1298.1 351.6 1238.5 410C1178.9 468.4 1128.67 427 1111 399C1089.67 347.667 1033.6 246.1 980 250.5C926.4 254.9 854.5 303.5 833.5 327.5L746 427.5C704.667 467.167 606 539.7 542 512.5C478 485.3 438.667 397.167 427 356.5C406.333 308.167 346.7 284.1 319.5 262.5C285.5 235.5 227.5 208 181.5 243C135.5 278 120.5 225.5 79.5 337Z" fill="url(#paint1_linear_102_2)"/>
<path d="M1470.5 295C1542.1 315 1603 368.334 1624.5 392.5V674L-65 718V392.5C-16.1667 408.333 99.4 432.7 171 403.5C260.5 367 276 317 411 271.5C519 235.1 622 277 663 300C718.5 334.5 832.2 428.2 939 451C1045.8 473.8 1179.5 421.5 1233 392.5C1282.33 351.667 1398.9 275 1470.5 295Z" fill="url(#paint2_linear_102_2)"/>
<path d="M420.5 502.5C354.9 581.7 270.833 608.833 237 612.5L1648 630C1646.33 542 1638.3 371.6 1619.5 394C1596 422 1516 465 1461 433.5C1406 402 1368 350 1333.5 315.5C1299 281 1286.5 256 1212.5 256C1139.48 256 1096.5 336 1041.5 419.5C993.424 492.488 931.5 534 810.5 502.5C689.5 471 686 389.5 606 366C526 342.5 502.5 403.5 420.5 502.5Z" fill="url(#paint3_linear_102_2)"/>
<path d="M-35 566.755L648.5 566.756H685.5C681.167 542.922 667.7 483.655 648.5 437.255C624.5 379.255 541 394.5 439 333.5C337 272.5 343.5 193 261.5 206C195.9 216.4 -57 295 -25.5 385L-35 566.755Z" fill="url(#paint4_linear_102_2)"/>
<g style="mix-blend-mode:darken">
<path d="M1153.54 509H1179.98L1184 540H1149L1153.54 509Z" fill="url(#paint5_linear_102_2)"/>
</g>
<g style="mix-blend-mode:darken">
<rect x="1149" y="507" width="34" height="2" rx="1" fill="#47478F"/>
</g>
<g style="mix-blend-mode:darken">
<rect x="1181.13" y="507.866" width="33.4373" height="2.30602" rx="1.15301" transform="rotate(82.9732 1181.13 507.866)" fill="#47478F"/>
</g>
<g style="mix-blend-mode:darken">
<rect x="1154.1" y="508.101" width="33.4373" height="2.30602" rx="1.15301" transform="rotate(98.2795 1154.1 508.101)" fill="#47478F"/>
</g>
<rect x="-38" y="539" width="1660" height="409" fill="url(#paint6_linear_102_2)"/>
<path d="M1456 587.5C1525.2 487.1 1614.83 490 1632 493L1659 989.5L1602.5 1005.5C1316.5 990.833 816.9 964.9 868.5 928.5C933 883 956 840.5 1038 853C1120 865.5 1147.5 849.5 1184 818C1226.35 781.447 1214.5 730.5 1299 694.5C1383.5 658.5 1369.5 713 1456 587.5Z" fill="#3D3D86"/>
<path d="M39 431.224C-11.4 382.024 -75.6667 373.39 -101.5 375.224L-148 1045.72H623.5C625.333 1017.56 621.1 941.824 589.5 864.224C550 767.224 472 750.724 420 760.224C368 769.724 244 772.724 155 670.224C66 567.724 102 492.724 39 431.224Z" fill="#3D3D86"/>
<path d="M1339 913C1394.2 805.4 1544 762.5 1612 754.5L1647.5 990.5C1521.67 1009.5 1283.8 1020.6 1339 913Z" fill="#28285D"/>
<path d="M-40.4209 761.616C80.1044 751.694 195.62 856.272 238.313 909.802L56.6184 1064.54C-25.9469 967.698 -160.946 771.538 -40.4209 761.616Z" fill="#28285D"/>
<path d="M-0.213932 771.18C-0.213932 771.18 -24.3266 720.267 -9.37083 670.979C6.94316 615.339 53.9456 592.693 53.9456 592.693C53.9456 592.693 79.3956 643.989 64.4398 693.277C49.4841 742.565 -0.213932 771.18 -0.213932 771.18Z" fill="#2265AD"/>
<rect x="45.1084" y="611.957" width="6" height="373" rx="3" transform="rotate(16.8797 45.1084 611.957)" fill="#2265AD"/>
<path d="M-21.0505 804.189C-21.0505 804.189 -56.3283 791.587 -72.4716 761.379C-90.9632 727.545 -79.5104 694.796 -79.5104 694.796C-79.5104 694.796 -43.4237 706.949 -27.2805 737.157C-11.1372 767.365 -21.0505 804.189 -21.0505 804.189Z" fill="#2265AD"/>
<path d="M-22.6978 877.885C-22.6978 877.885 13.6344 887.012 43.8423 870.869C78.0173 853.016 86.6946 819.425 86.6946 819.425C86.6946 819.425 49.9394 809.475 19.7315 825.619C-10.4764 841.762 -22.6978 877.885 -22.6978 877.885Z" fill="#2265AD"/>
<rect width="4" height="124" rx="2" transform="matrix(-0.471325 -0.88196 -0.88196 0.471325 75.3735 827.945)" fill="#2265AD"/>
<path d="M-2.37209 810.901C-2.37209 810.901 33.9601 820.028 64.168 803.885C98.343 786.033 107.02 752.441 107.02 752.441C107.02 752.441 70.265 742.492 40.0572 758.635C9.84927 774.778 -2.37209 810.901 -2.37209 810.901Z" fill="#2265AD"/>
<rect width="4" height="124" rx="2" transform="matrix(-0.471325 -0.88196 -0.88196 0.471325 95.6992 760.961)" fill="#2265AD"/>
<path d="M262.211 846.232C262.211 846.232 279.262 806.269 315.361 789.687C355.821 770.639 392.937 786.183 392.937 786.183C392.937 786.183 376.349 827.114 340.25 843.696C304.151 860.278 262.211 846.232 262.211 846.232Z" fill="#2265AD"/>
<rect x="377.297" y="790.937" width="4.62758" height="287.681" rx="2.31379" transform="rotate(65.3281 377.297 790.937)" fill="#2265AD"/>
<path d="M232.499 851.092C232.499 851.092 221.726 824.283 230.903 799.512C240.971 771.531 265.732 761.387 265.732 761.387C265.732 761.387 277.179 788.433 268.002 813.204C258.825 837.976 232.499 851.092 232.499 851.092Z" fill="#2265AD"/>
<rect x="260.406" y="770.929" width="3.08506" height="95.6367" rx="1.54253" transform="rotate(20.3281 260.406 770.929)" fill="#2265AD"/>
<path d="M183.439 873.628C183.439 873.628 172.666 846.819 181.843 822.048C191.911 794.067 216.672 783.923 216.672 783.923C216.672 783.923 228.119 810.969 218.942 835.741C209.765 860.512 183.439 873.628 183.439 873.628Z" fill="#2265AD"/>
<rect x="211.346" y="793.465" width="3.08506" height="95.6367" rx="1.54253" transform="rotate(20.3281 211.346 793.465)" fill="#2265AD"/>
<path d="M189.121 887.843C189.121 887.843 202.44 913.482 227.211 922.659C254.998 933.251 278.826 921.075 278.826 921.075C278.826 921.075 265.765 894.771 240.994 885.594C216.223 876.417 189.121 887.843 189.121 887.843Z" fill="#2265AD"/>
<rect width="3.08506" height="95.6367" rx="1.54253" transform="matrix(0.347395 -0.937719 -0.937719 -0.347395 268.116 918.899)" fill="#2265AD"/>
<path d="M238.18 865.307C238.18 865.307 251.499 890.946 276.27 900.123C304.058 910.716 327.885 898.54 327.885 898.54C327.885 898.54 314.825 872.235 290.053 863.058C265.282 853.881 238.18 865.307 238.18 865.307Z" fill="#2265AD"/>
<rect width="3.08506" height="95.6367" rx="1.54253" transform="matrix(0.347395 -0.937719 -0.937719 -0.347395 317.176 896.364)" fill="#2265AD"/>
<path d="M1407.62 886.088C1407.62 886.088 1384.24 831.289 1334.73 808.551C1279.25 782.431 1228.36 803.746 1228.36 803.746C1228.36 803.746 1251.1 859.872 1300.61 882.61C1350.11 905.349 1407.62 886.088 1407.62 886.088Z" fill="#2265AD"/>
<rect width="6.34551" height="394.479" rx="3.17276" transform="matrix(-0.417422 0.908713 0.908713 0.417422 1249.8 810.265)" fill="#2265AD"/>
<path d="M1448.36 892.751C1448.36 892.751 1463.13 855.99 1450.55 822.023C1436.74 783.654 1402.79 769.745 1402.79 769.745C1402.79 769.745 1387.09 806.831 1399.67 840.799C1412.26 874.766 1448.36 892.751 1448.36 892.751Z" fill="#2265AD"/>
<rect width="4.23034" height="131.141" rx="2.11517" transform="matrix(-0.937719 0.347395 0.347395 0.937719 1410.09 782.829)" fill="#2265AD"/>
<path d="M1515.63 923.654C1515.63 923.654 1530.4 886.893 1517.82 852.926C1504.01 814.556 1470.06 800.648 1470.06 800.648C1470.06 800.648 1454.36 837.734 1466.95 871.701C1479.53 905.668 1515.63 923.654 1515.63 923.654Z" fill="#2265AD"/>
<rect width="4.23034" height="131.141" rx="2.11517" transform="matrix(-0.937719 0.347395 0.347395 0.937719 1477.36 813.732)" fill="#2265AD"/>
<path d="M1440.57 912.244C1440.57 912.244 1422.3 947.401 1388.34 959.985C1350.23 974.51 1317.56 957.813 1317.56 957.813C1317.56 957.813 1335.47 921.744 1369.44 909.16C1403.4 896.576 1440.57 912.244 1440.57 912.244Z" fill="#2265AD"/>
<path d="M1612.6 693.603C1612.6 693.603 1633.83 646.022 1618.98 600.757C1602.74 549.646 1558.8 529.683 1558.8 529.683C1558.8 529.683 1536.34 577.646 1551.19 622.911C1566.05 668.177 1612.6 693.603 1612.6 693.603Z" fill="#2265AD"/>
<rect width="5.54957" height="344.998" rx="2.77479" transform="matrix(-0.950142 0.311817 0.311817 0.950142 1567.37 547.313)" fill="#2265AD"/>
<path d="M1635.61 791.804C1635.61 791.804 1602.2 801 1573.93 786.701C1541.96 770.904 1533.24 740.022 1533.24 740.022C1533.24 740.022 1567.02 730.057 1595.29 744.356C1623.55 758.655 1635.61 791.804 1635.61 791.804Z" fill="#2265AD"/>
<rect x="1543.88" y="747.665" width="3.69971" height="114.691" rx="1.84986" transform="rotate(-63.1688 1543.88 747.665)" fill="#2265AD"/>
<path d="M1615.42 730.288C1615.42 730.288 1582.01 739.484 1553.74 725.185C1521.77 709.388 1513.05 678.507 1513.05 678.507C1513.05 678.507 1546.83 668.541 1575.1 682.84C1603.37 697.139 1615.42 730.288 1615.42 730.288Z" fill="#2265AD"/>
<rect x="1523.69" y="686.149" width="3.69971" height="114.691" rx="1.84986" transform="rotate(-63.1688 1523.69 686.149)" fill="#2265AD"/>
<path d="M143.481 783.665C143.481 783.665 146.212 727.397 182.633 690.976C223.245 649.592 275.373 651.773 275.373 651.773C275.373 651.773 273.642 709.01 237.221 745.43C200.8 781.851 143.481 783.665 143.481 783.665Z" fill="#3191F8"/>
<rect x="258.5" y="664.598" width="6" height="373" rx="3" transform="rotate(45 258.5 664.598)" fill="#297BD3"/>
<rect x="218.73" y="676.083" width="6" height="30.0724" rx="3" fill="#297BD3"/>
<rect x="172.768" y="722.045" width="6" height="30.0724" rx="3" fill="#297BD3"/>
<rect width="6" height="30.0724" rx="3" transform="matrix(0 -1 -1 0 227.574 731.596)" fill="#297BD3"/>
<path d="M109.547 802.956C109.547 802.956 84.3725 775.214 84.3725 740.963C84.0102 702.408 109.547 678.923 109.547 678.923C109.547 678.923 135.646 706.65 135.646 740.901C135.646 775.151 109.547 802.956 109.547 802.956Z" fill="#3191F8"/>
<rect x="107.369" y="692.923" width="4" height="124" rx="2" fill="#297BD3"/>
<rect x="94.3433" y="716.988" width="3.98985" height="19.9974" rx="1.99492" transform="rotate(-45 94.3433 716.988)" fill="#297BD3"/>
<rect x="94.3433" y="760.211" width="3.98985" height="19.9974" rx="1.99492" transform="rotate(-45 94.3433 760.211)" fill="#297BD3"/>
<rect width="3.98985" height="19.9974" rx="1.99492" transform="matrix(-0.707107 -0.707107 -0.707107 0.707107 124.604 738.932)" fill="#297BD3"/>
<path d="M60.0495 852.453C60.0495 852.453 34.8754 824.712 34.8754 790.461C34.5132 751.906 60.0495 728.42 60.0495 728.42C60.0495 728.42 86.1484 756.147 86.1484 790.398C86.1484 824.649 60.0495 852.453 60.0495 852.453Z" fill="#3191F8"/>
<rect x="57.8716" y="742.42" width="4" height="124" rx="2" fill="#297BD3"/>
<rect x="44.8462" y="766.485" width="3.98985" height="19.9974" rx="1.99492" transform="rotate(-45 44.8462 766.485)" fill="#297BD3"/>
<rect x="44.8462" y="809.708" width="3.98985" height="19.9974" rx="1.99492" transform="rotate(-45 44.8462 809.708)" fill="#297BD3"/>
<rect width="3.98985" height="19.9974" rx="1.99492" transform="matrix(-0.707107 -0.707107 -0.707107 0.707107 75.1072 788.429)" fill="#297BD3"/>
<path d="M73.3588 867.177C73.3588 867.177 101.1 892.351 135.351 892.351C173.907 892.713 197.392 867.177 197.392 867.177C197.392 867.177 169.665 841.078 135.414 841.078C101.163 841.078 73.3588 867.177 73.3588 867.177Z" fill="#3191F8"/>
<rect width="4" height="124" rx="2" transform="matrix(2.18557e-08 -1 -1 -2.18557e-08 183.392 869.355)" fill="#297BD3"/>
<rect width="3.98985" height="19.9974" rx="1.99492" transform="matrix(0.707107 -0.707107 -0.707107 -0.707107 159.327 882.38)" fill="#297BD3"/>
<rect width="3.98985" height="19.9974" rx="1.99492" transform="matrix(0.707107 -0.707107 -0.707107 -0.707107 116.104 882.38)" fill="#297BD3"/>
<rect x="137.383" y="852.119" width="3.98985" height="19.9974" rx="1.99492" transform="rotate(45 137.383 852.119)" fill="#297BD3"/>
<path d="M122.856 817.68C122.856 817.68 150.598 842.854 184.849 842.854C223.404 843.216 246.89 817.68 246.89 817.68C246.89 817.68 219.163 791.581 184.912 791.581C150.661 791.581 122.856 817.68 122.856 817.68Z" fill="#3191F8"/>
<rect width="4" height="124" rx="2" transform="matrix(2.18557e-08 -1 -1 -2.18557e-08 232.89 819.858)" fill="#297BD3"/>
<rect width="3.98985" height="19.9974" rx="1.99492" transform="matrix(0.707107 -0.707107 -0.707107 -0.707107 208.825 832.883)" fill="#297BD3"/>
<rect width="3.98985" height="19.9974" rx="1.99492" transform="matrix(0.707107 -0.707107 -0.707107 -0.707107 165.601 832.883)" fill="#297BD3"/>
<rect x="186.881" y="802.622" width="3.98985" height="19.9974" rx="1.99492" transform="rotate(45 186.881 802.622)" fill="#297BD3"/>
<path d="M1480 763.457C1480 763.457 1494.91 709.131 1471.62 663.187C1445.9 611.222 1395.68 597.078 1395.68 597.078C1395.68 597.078 1379.52 652.013 1402.8 697.957C1426.09 743.901 1480 763.457 1480 763.457Z" fill="#3191F8"/>
<rect width="6" height="373" rx="3" transform="matrix(-0.891996 0.452044 0.452044 0.891996 1407.73 614.516)" fill="#297BD3"/>
<rect width="6" height="30.0724" rx="3" transform="matrix(-0.95038 -0.311093 -0.311093 0.95038 1441.95 637.803)" fill="#297BD3"/>
<rect width="6" height="30.0724" rx="3" transform="matrix(-0.95038 -0.311093 -0.311093 0.95038 1471.33 695.783)" fill="#297BD3"/>
<rect x="1416.27" y="687.811" width="6" height="30.0724" rx="3" transform="rotate(-71.8749 1416.27 687.811)" fill="#297BD3"/>
<path d="M1506.25 792.347C1506.25 792.347 1538.8 773.813 1549.46 741.262C1561.8 704.732 1544.83 674.468 1544.83 674.468C1544.83 674.468 1511.4 692.7 1500.75 725.251C1490.09 757.803 1506.25 792.347 1506.25 792.347Z" fill="#3191F8"/>
<rect width="4" height="124" rx="2" transform="matrix(-0.95038 -0.311093 -0.311093 0.95038 1542.55 688.451)" fill="#297BD3"/>
<rect width="3.98985" height="19.9974" rx="1.99492" transform="matrix(-0.452044 -0.891996 -0.891996 0.452044 1547.44 715.374)" fill="#297BD3"/>
<rect width="3.98985" height="19.9974" rx="1.99492" transform="matrix(-0.452044 -0.891996 -0.891996 0.452044 1533.99 756.452)" fill="#297BD3"/>
<rect x="1511.85" y="726.815" width="3.98985" height="19.9974" rx="1.99492" transform="rotate(-26.8749 1511.85 726.815)" fill="#297BD3"/>
<path d="M1537.89 854.787C1537.89 854.787 1570.44 836.253 1581.1 803.701C1593.44 767.172 1576.47 736.908 1576.47 736.908C1576.47 736.908 1543.04 755.14 1532.39 787.691C1521.73 820.242 1537.89 854.787 1537.89 854.787Z" fill="#3191F8"/>
<rect width="4" height="124" rx="2" transform="matrix(-0.95038 -0.311093 -0.311093 0.95038 1574.19 750.891)" fill="#297BD3"/>
<rect width="3.98985" height="19.9974" rx="1.99492" transform="matrix(-0.452044 -0.891996 -0.891996 0.452044 1579.08 777.813)" fill="#297BD3"/>
<rect width="3.98985" height="19.9974" rx="1.99492" transform="matrix(-0.452044 -0.891996 -0.891996 0.452044 1565.64 818.892)" fill="#297BD3"/>
<rect x="1543.5" y="789.255" width="3.98985" height="19.9974" rx="1.99492" transform="rotate(-26.8749 1543.5 789.255)" fill="#297BD3"/>
<path d="M1520.66 864.639C1520.66 864.639 1486.46 879.934 1453.91 869.279C1417.16 857.629 1402.78 826.053 1402.78 826.053C1402.78 826.053 1437.25 809.875 1469.8 820.53C1502.35 831.185 1520.66 864.639 1520.66 864.639Z" fill="#3191F8"/>
<rect x="1415.41" y="832.478" width="4" height="124" rx="2" transform="rotate(-71.8749 1415.41 832.478)" fill="#297BD3"/>
<rect x="1434.23" y="852.344" width="3.98985" height="19.9974" rx="1.99492" transform="rotate(-116.875 1434.23 852.344)" fill="#297BD3"/>
<rect x="1475.31" y="865.79" width="3.98985" height="19.9974" rx="1.99492" transform="rotate(-116.875 1475.31 865.79)" fill="#297BD3"/>
<rect width="3.98985" height="19.9974" rx="1.99492" transform="matrix(-0.891996 0.452044 0.452044 0.891996 1464.5 830.411)" fill="#297BD3"/>
<path d="M1489.02 802.2C1489.02 802.2 1454.82 817.494 1422.27 806.839C1385.51 795.189 1371.14 763.614 1371.14 763.614C1371.14 763.614 1405.61 747.436 1438.16 758.091C1470.71 768.746 1489.02 802.2 1489.02 802.2Z" fill="#3191F8"/>
<rect x="1383.77" y="770.039" width="4" height="124" rx="2" transform="rotate(-71.8749 1383.77 770.039)" fill="#297BD3"/>
<rect x="1402.58" y="789.904" width="3.98985" height="19.9974" rx="1.99492" transform="rotate(-116.875 1402.58 789.904)" fill="#297BD3"/>
<rect x="1443.66" y="803.351" width="3.98985" height="19.9974" rx="1.99492" transform="rotate(-116.875 1443.66 803.351)" fill="#297BD3"/>
<rect width="3.98985" height="19.9974" rx="1.99492" transform="matrix(-0.891996 0.452044 0.452044 0.891996 1432.85 767.972)" fill="#297BD3"/>
<circle opacity="0.3" cx="993" cy="128" r="269" fill="url(#paint7_radial_102_2)"/>
<circle cx="993" cy="128" r="96" fill="#FCF7DE"/>
<circle cx="959" cy="136" r="29" fill="#FBF3B9"/>
<circle cx="1012.5" cy="169.5" r="19.5" fill="#FBF3B9"/>
<circle cx="1017" cy="102" r="10" fill="#FBF3B9"/>
<circle cx="519" cy="60" r="7" fill="white"/>
<circle cx="1445" cy="85" r="7" fill="white"/>
<circle cx="664" cy="146" r="5" fill="white"/>
<circle cx="571.5" cy="225.5" r="2.5" fill="white"/>
<circle cx="1094" cy="282" r="5" fill="white"/>
<circle cx="1262" cy="107" r="5" fill="white"/>
<circle cx="460" cy="128" r="3" fill="white"/>
<circle cx="1350" cy="175" r="3" fill="white"/>
<circle cx="157" cy="95" r="3" fill="white"/>
<circle cx="761.297" cy="253.903" r="3.3335" transform="rotate(-48.9902 761.297 253.903)" fill="white"/>
<path d="M711.826 210.884L763.484 251.387L759.109 256.418L711.826 210.884Z" fill="url(#paint8_linear_102_2)"/>
<path d="M1035.58 734.313C1036.31 731.236 1040.69 731.236 1041.42 734.313L1065.12 834.308C1065.57 836.192 1064.14 838 1062.21 838H1014.79C1012.86 838 1011.43 836.192 1011.88 834.308L1035.58 734.313Z" fill="#3D3D86"/>
<path d="M1332.08 531.667C1332.79 528.567 1337.21 528.567 1337.92 531.667L1349.15 580.325C1349.59 582.205 1348.16 584 1346.23 584H1323.77C1321.84 584 1320.41 582.205 1320.85 580.325L1332.08 531.667Z" fill="#3D3D86"/>
<path d="M1126.08 667.374C1126.81 664.293 1131.19 664.293 1131.92 667.374L1149.13 740.311C1149.57 742.195 1148.15 744 1146.21 744H1111.79C1109.85 744 1108.43 742.195 1108.87 740.311L1126.08 667.374Z" fill="#47478F"/>
<path d="M661.08 677.374C661.807 674.293 666.193 674.293 666.92 677.374L684.13 750.311C684.574 752.195 683.145 754 681.21 754H646.79C644.855 754 643.426 752.195 643.87 750.311L661.08 677.374Z" fill="#47478F"/>
<path d="M604.08 616.411C604.805 613.327 609.195 613.327 609.92 616.411L622.132 668.313C622.576 670.196 621.147 672 619.212 672H594.788C592.853 672 591.424 670.196 591.868 668.313L604.08 616.411Z" fill="#47478F"/>
<path d="M1249.08 598.374C1249.81 595.293 1254.19 595.293 1254.92 598.374L1272.13 671.311C1272.57 673.195 1271.15 675 1269.21 675H1234.79C1232.85 675 1231.43 673.195 1231.87 671.311L1249.08 598.374Z" fill="#3D3D86"/>
<path d="M1208.58 615.521C1209.3 612.43 1213.7 612.43 1214.42 615.521L1221.14 644.318C1221.58 646.2 1220.15 648 1218.22 648H1204.78C1202.85 648 1201.42 646.2 1201.86 644.318L1208.58 615.521Z" fill="#47478F"/>
<path d="M353.08 627.374C353.807 624.293 358.193 624.293 358.92 627.374L376.13 700.311C376.574 702.195 375.145 704 373.21 704H338.79C336.855 704 335.426 702.195 335.87 700.311L353.08 627.374Z" fill="#3D3D86"/>
<path d="M239.58 529.398C240.306 526.315 244.694 526.315 245.42 529.398L270.131 634.312C270.575 636.196 269.146 638 267.211 638H217.789C215.854 638 214.425 636.196 214.869 634.312L239.58 529.398Z" fill="#3D3D86"/>
<path d="M190.577 508.696C191.291 505.594 195.709 505.594 196.423 508.696L210.154 568.327C210.587 570.206 209.159 572 207.231 572H179.769C177.841 572 176.413 570.206 176.846 568.327L190.577 508.696Z" fill="#3D3D86"/>
<rect x="749" y="688" width="63" height="12" rx="5" fill="#5B5BD5"/>
<rect x="929" y="759" width="82" height="12" rx="5" fill="#5454D1"/>
<rect x="903" y="630" width="54" height="12" rx="5" fill="#5B5BD5"/>
<path d="M388.556 481H438.422L446 539H380L388.556 481Z" fill="url(#paint9_linear_102_2)"/>
<rect x="382" y="477" width="62" height="4" rx="2" fill="#383F81"/>
<rect x="440.958" y="478.623" width="62.6533" height="4.32092" rx="2.16046" transform="rotate(82.9732 440.958 478.623)" fill="#383F81"/>
<rect x="558" y="572" width="139" height="3.00001" rx="1.50001" transform="rotate(180 558 572)" fill="#383F81"/>
<rect x="390.298" y="479.062" width="62.6533" height="4.32092" rx="2.16046" transform="rotate(98.2795 390.298 479.062)" fill="#383F81"/>
<ellipse cx="472.5" cy="553.5" rx="12.5" ry="5.5" fill="url(#paint10_radial_102_2)"/>
<rect x="466" y="553" width="13" height="1" rx="0.5" fill="#8A721F"/>
<path d="M461.033 557.789C460.513 555.881 461.95 554 463.928 554H481.072C483.05 554 484.487 555.881 483.967 557.789L482.603 562.789C482.247 564.095 481.061 565 479.709 565H465.291C463.939 565 462.753 564.095 462.397 562.789L461.033 557.789Z" fill="#383F81"/>
<circle cx="467.5" cy="566.5" r="2.5" fill="#383F81"/>
<circle cx="477.5" cy="566.5" r="2.5" fill="#383F81"/>
<path d="M405.033 527.789C404.513 525.881 405.95 524 407.928 524H425.072C427.05 524 428.487 525.881 427.967 527.789L426.603 532.789C426.247 534.095 425.061 535 423.709 535H409.291C407.939 535 406.753 534.095 406.397 532.789L405.033 527.789Z" fill="#383F81"/>
<circle cx="411.5" cy="536.5" r="2.5" fill="#383F81"/>
<circle cx="421.5" cy="536.5" r="2.5" fill="#383F81"/>
<rect x="594" y="526" width="49" height="48" rx="3" fill="#47478F"/>
<path d="M594 526.81C594 525.863 594.446 524.973 595.204 524.406L616.704 508.342C617.769 507.546 619.231 507.546 620.296 508.342L641.796 524.406C642.554 524.973 643 525.863 643 526.81V543C643 544.657 641.657 546 640 546H597C595.343 546 594 544.657 594 543V526.81Z" fill="#47478F"/>
<rect x="422" y="620" width="53" height="52" rx="3" fill="#47478F"/>
<path d="M422 621.222C422 620.273 422.448 619.381 423.209 618.815L446.709 601.332C447.772 600.541 449.228 600.541 450.291 601.332L473.791 618.815C474.552 619.381 475 620.273 475 621.222V639C475 640.657 473.657 642 472 642H425C423.343 642 422 640.657 422 639V621.222Z" fill="#47478F"/>
<rect x="292" y="539" width="36" height="36" rx="3" fill="#47478F"/>
<path d="M292 540.105C292 539.165 292.441 538.279 293.19 537.712L308.19 526.368C309.261 525.559 310.739 525.559 311.81 526.368L326.81 537.712C327.559 538.279 328 539.165 328 540.105V551C328 552.657 326.657 554 325 554H295C293.343 554 292 552.657 292 551V540.105Z" fill="#47478F"/>
<path d="M442 654C442 652.343 443.343 651 445 651H452C453.657 651 455 652.343 455 654V672H442V654Z" fill="#836C58"/>
<path d="M442 654C442 652.343 443.343 651 445 651H452C453.657 651 455 652.343 455 654V672H442V654Z" fill="#836C58"/>
<path d="M613 560C613 558.343 614.343 557 616 557H621C622.657 557 624 558.343 624 560V574H613V560Z" fill="#836C58"/>
<rect x="1087" y="532" width="30" height="29" rx="3" fill="#47478F"/>
<path d="M1087 532.764C1087 531.821 1087.44 530.932 1088.2 530.365L1100.2 521.353C1101.27 520.551 1102.73 520.551 1103.8 521.353L1115.8 530.365C1116.56 530.932 1117 531.82 1117 532.764V541C1117 542.657 1115.66 544 1114 544H1090C1088.34 544 1087 542.657 1087 541V532.764Z" fill="#47478F"/>
<path d="M1099 554C1099 552.343 1100.34 551 1102 551C1103.66 551 1105 552.343 1105 554V561H1099V554Z" fill="#836C58"/>
<path d="M305 563C305 561.343 306.343 560 308 560H312C313.657 560 315 561.343 315 563V575H305V563Z" fill="#836C58"/>
</g>
<defs>
<linearGradient id="paint0_linear_102_2" x1="799.5" y1="-72" x2="799.5" y2="692" gradientUnits="userSpaceOnUse">
<stop stop-color="#4F50A4"/>
<stop offset="0.619792" stop-color="#718EDA"/>
</linearGradient>
<linearGradient id="paint1_linear_102_2" x1="817" y1="148.498" x2="817" y2="1039" gradientUnits="userSpaceOnUse">
<stop stop-color="#4B5AB3"/>
<stop offset="0.348958" stop-color="#4B5AB3" stop-opacity="0"/>
</linearGradient>
<linearGradient id="paint2_linear_102_2" x1="779.75" y1="256.176" x2="779.75" y2="718" gradientUnits="userSpaceOnUse">
<stop stop-color="#4B59B0"/>
<stop offset="0.598958" stop-color="#708FDF"/>
</linearGradient>
<linearGradient id="paint3_linear_102_2" x1="942.5" y1="268.446" x2="942.5" y2="630" gradientUnits="userSpaceOnUse">
<stop offset="0.28125" stop-color="#595AB7"/>
<stop offset="1" stop-color="#53608C"/>
</linearGradient>
<linearGradient id="paint4_linear_102_2" x1="361.25" y1="172.209" x2="361.25" y2="566.755" gradientUnits="userSpaceOnUse">
<stop stop-color="#242563"/>
<stop offset="1" stop-color="#4F5CA3"/>
</linearGradient>
<linearGradient id="paint5_linear_102_2" x1="1166.5" y1="509" x2="1166.5" y2="540" gradientUnits="userSpaceOnUse">
<stop offset="0.416667" stop-color="#1D1F53"/>
<stop offset="1" stop-color="#DDA471"/>
</linearGradient>
<linearGradient id="paint6_linear_102_2" x1="1608.5" y1="948" x2="0.999942" y2="948" gradientUnits="userSpaceOnUse">
<stop stop-color="#3D3D86"/>
<stop offset="0.494792" stop-color="#6566E2"/>
<stop offset="1" stop-color="#3D3D86"/>
</linearGradient>
<radialGradient id="paint7_radial_102_2" cx="0" cy="0" r="1" gradientUnits="userSpaceOnUse" gradientTransform="translate(993 128) rotate(90) scale(269)">
<stop offset="0.364583" stop-color="#FCEA9E"/>
<stop offset="1" stop-color="#FCEA9E" stop-opacity="0"/>
</radialGradient>
<linearGradient id="paint8_linear_102_2" x1="711.826" y1="210.884" x2="761.297" y2="253.903" gradientUnits="userSpaceOnUse">
<stop stop-color="white" stop-opacity="0"/>
<stop offset="1" stop-color="white"/>
</linearGradient>
<linearGradient id="paint9_linear_102_2" x1="413" y1="481" x2="413" y2="539" gradientUnits="userSpaceOnUse">
<stop offset="0.416667" stop-color="#1D1F53"/>
<stop offset="1" stop-color="#DDA471"/>
</linearGradient>
<radialGradient id="paint10_radial_102_2" cx="0" cy="0" r="1" gradientUnits="userSpaceOnUse" gradientTransform="translate(472.5 553.5) rotate(90) scale(5.5 12.5)">
<stop stop-color="#BC9300"/>
<stop offset="1" stop-color="#BC9300" stop-opacity="0"/>
</radialGradient>
<clipPath id="clip0_102_2">
<rect width="1600" height="900" fill="white"/>
</clipPath>
</defs>
</svg>
