<svg width="512" height="512" viewBox="0 0 512 512" fill="none" xmlns="http://www.w3.org/2000/svg">
<path d="M120.302 250.003L100.261 273.545C93.0799 275.882 60.8815 297.988 51.6629 313.615C40.1396 333.15 47.2269 342.86 63.6872 354.688C79.7196 366.208 173.409 378.229 197.457 378.229C217.999 378.229 390.731 383.226 422.412 366.208C455.98 348.176 466 328.642 466 308.607C466 293.02 430.929 279.889 414.396 270.54C369.138 261.357 279.824 234.576 252.569 234.977C225.314 235.378 153.034 245.162 120.302 250.003Z" fill="#BBF9F4"/>
<path d="M438.945 340.663C469.225 314.006 442.62 284.397 422.412 277.051L260.084 257.517L96.754 273.044C84.7297 282.728 49.7591 319.626 60.1802 335.654C73.2065 355.69 198.46 363.203 230.023 363.203C279.248 363.203 405.378 370.215 438.945 340.663Z" fill="url(#paint0_linear_1263_3786)"/>
<path d="M202.969 176.875C179.722 162.85 106.273 237.982 89.7397 284.063C89.7397 301.594 145.252 315.018 188.94 318.624C243.551 323.132 415.398 322.631 431.43 293.58C439.122 279.643 375.317 211.436 358.783 203.922C342.25 196.409 333.733 165.855 316.698 132.296C299.664 98.7371 273.11 176.875 253.571 191.4C234.031 205.926 232.027 194.406 202.969 176.875Z" fill="#7E7F90"/>
<path d="M202.969 199.696C179.722 185.672 105.772 237.481 89.2388 283.563C89.2388 301.093 145.252 337.84 188.94 341.446C243.551 345.954 415.398 322.13 431.43 293.079C439.122 279.142 375.317 234.257 358.783 226.744C342.25 219.231 333.733 188.677 316.698 155.118C299.664 121.559 273.11 199.696 253.571 214.222C234.031 228.748 232.027 217.227 202.969 199.696Z" fill="#6E6F81"/>
<path d="M355.081 234.233C355.167 233.58 356.116 233.58 356.203 234.233L360.595 267.362C360.64 267.7 360.376 268 360.034 268H351.25C350.908 268 350.644 267.7 350.688 267.362L355.081 234.233Z" fill="#1BAD42"/>
<path d="M348.973 247.72C349.092 247.112 349.965 247.112 350.084 247.72L353.925 267.328C353.993 267.676 353.726 268 353.37 268H345.687C345.331 268 345.064 267.676 345.132 267.328L348.973 247.72Z" fill="#1BAD42"/>
<path d="M361.82 243.165C361.931 242.544 362.824 242.544 362.935 243.165L367.241 267.338C367.302 267.683 367.036 268 366.683 268H358.072C357.72 268 357.453 267.683 357.514 267.338L361.82 243.165Z" fill="#1BAD42"/>
<path d="M368 256.994C368.148 256.433 368.947 256.433 369.095 256.994L371.813 267.293C371.908 267.65 371.637 268 371.266 268H365.829C365.458 268 365.187 267.65 365.281 267.293L368 256.994Z" fill="#1BAD42"/>
<path d="M165.894 255.69C142.647 241.665 97.2551 252.007 80.7217 298.088C80.7217 315.619 128.218 343.779 171.906 347.385C226.516 351.893 399.365 353.686 415.398 324.635C423.09 310.697 386.014 280.002 372.812 267.534C359.284 254.76 337.741 256.014 320.707 222.455C303.672 188.896 254.937 236.225 235.534 250.933C205.474 273.721 194.952 273.22 165.894 255.69Z" fill="#BFE258"/>
<path d="M132.081 248.233C132.167 247.58 133.116 247.58 133.203 248.233L137.595 281.362C137.64 281.7 137.376 282 137.034 282H128.25C127.908 282 127.644 281.7 127.688 281.362L132.081 248.233Z" fill="#1BAD42"/>
<path d="M125.973 261.72C126.092 261.112 126.965 261.112 127.084 261.72L130.925 281.328C130.993 281.676 130.726 282 130.37 282H122.687C122.331 282 122.064 281.676 122.132 281.328L125.973 261.72Z" fill="#1BAD42"/>
<path d="M138.82 257.165C138.931 256.544 139.824 256.544 139.935 257.165L144.241 281.338C144.302 281.683 144.036 282 143.683 282H135.072C134.72 282 134.453 281.683 134.514 281.338L138.82 257.165Z" fill="#1BAD42"/>
<path d="M145 270.994C145.148 270.433 145.947 270.433 146.095 270.994L148.813 281.293C148.908 281.65 148.637 282 148.266 282H142.829C142.458 282 142.187 281.65 142.281 281.293L145 270.994Z" fill="#1BAD42"/>
<path d="M163.389 284.278C140.142 270.254 106.273 270.219 89.7397 316.301C89.7397 333.832 145.252 347.255 188.94 350.862C243.551 355.37 416.4 357.163 432.432 328.112C440.124 314.174 392.351 301.184 368.303 296.175C350.086 292.381 343.753 290.164 326.719 256.605C309.684 223.046 280.488 265.439 261.086 280.147C231.025 302.935 192.447 301.809 163.389 284.278Z" fill="#89D94F"/>
<path d="M274.081 294.233C274.167 293.58 275.116 293.58 275.203 294.233L279.595 327.362C279.64 327.7 279.376 328 279.034 328H270.25C269.908 328 269.644 327.7 269.688 327.362L274.081 294.233Z" fill="#1BAD42"/>
<path d="M267.973 307.72C268.092 307.112 268.965 307.112 269.084 307.72L272.925 327.328C272.993 327.676 272.726 328 272.37 328H264.687C264.331 328 264.064 327.676 264.132 327.328L267.973 307.72Z" fill="#1BAD42"/>
<path d="M280.82 303.165C280.931 302.544 281.824 302.544 281.935 303.165L286.241 327.338C286.302 327.683 286.036 328 285.683 328H277.072C276.72 328 276.453 327.683 276.514 327.338L280.82 303.165Z" fill="#1BAD42"/>
<path d="M287 316.994C287.148 316.433 287.947 316.433 288.095 316.994L290.813 327.293C290.908 327.65 290.637 328 290.266 328H284.829C284.458 328 284.187 327.65 284.281 327.293L287 316.994Z" fill="#1BAD42"/>
<defs>
<linearGradient id="paint0_linear_1263_3786" x1="255.441" y1="257.517" x2="255.441" y2="363.929" gradientUnits="userSpaceOnUse">
<stop stop-color="#DE7E55"/>
<stop offset="1" stop-color="#F3AC82"/>
</linearGradient>
</defs>
</svg>
