<svg width="512" height="512" viewBox="0 0 512 512" fill="none" xmlns="http://www.w3.org/2000/svg">
<path d="M120.302 251.575L100.261 275.057C93.0799 277.389 60.8815 299.44 51.6629 315.028C40.1396 334.514 47.2269 344.2 63.6872 355.998C79.7196 367.489 173.409 379.48 197.457 379.48C217.999 379.48 390.731 384.465 422.412 367.489C455.98 349.503 466 330.017 466 310.032C466 294.484 430.929 281.386 414.396 272.06C369.138 262.9 279.824 236.186 252.569 236.586C225.314 236.986 153.034 246.745 120.302 251.575Z" fill="#BBF9F4"/>
<path d="M438.681 342.234C468.905 315.564 442.348 285.94 422.178 278.591L260.147 259.047L97.1153 274.582C85.113 284.27 50.2063 321.187 60.6083 337.223C73.6108 357.268 198.635 364.785 230.141 364.785C279.275 364.785 405.175 371.801 438.681 342.234Z" fill="url(#paint0_linear_1263_3788)"/>
<path d="M135.969 205.098C112.761 191.113 106.459 239.06 89.9536 285.009C89.9536 302.49 145.372 315.875 188.987 319.471C243.505 323.966 415.062 323.466 431.067 294.499C438.746 280.601 385.052 224.076 368.547 216.585C352.041 209.093 271.014 200.103 254.008 166.64C237.003 133.177 228.5 128.182 208.993 142.667C189.487 157.151 164.979 222.578 135.969 205.098Z" fill="#7E7F90"/>
<path d="M149.102 223.898C125.853 209.92 105.511 238.875 88.9766 284.805C88.9766 302.278 144.993 338.904 188.684 342.498C243.297 346.991 415.155 323.246 431.188 294.29C438.88 280.398 373.477 228.677 355.531 225.895C332.984 222.4 258.83 199.935 235.782 168.982C213.351 138.859 203.214 174.973 194.696 195.941C185.56 218.431 178.162 241.371 149.102 223.898Z" fill="#6E6F81"/>
<path d="M356.081 229.233C356.167 228.58 357.116 228.58 357.203 229.233L361.595 262.362C361.64 262.7 361.376 263 361.034 263H352.25C351.908 263 351.644 262.7 351.688 262.362L356.081 229.233Z" fill="#1BAD42"/>
<path d="M349.973 242.72C350.092 242.112 350.965 242.112 351.084 242.72L354.925 262.328C354.993 262.676 354.726 263 354.37 263H346.687C346.331 263 346.064 262.676 346.132 262.328L349.973 242.72Z" fill="#1BAD42"/>
<path d="M362.82 238.165C362.931 237.544 363.824 237.544 363.935 238.165L368.241 262.338C368.302 262.683 368.036 263 367.683 263H359.072C358.72 263 358.453 262.683 358.514 262.338L362.82 238.165Z" fill="#1BAD42"/>
<path d="M369 251.994C369.148 251.433 369.947 251.433 370.095 251.994L372.813 262.293C372.908 262.65 372.637 263 372.266 263H366.829C366.458 263 366.187 262.65 366.281 262.293L369 251.994Z" fill="#1BAD42"/>
<path d="M160.58 249.192C137.404 235.207 97.6456 253.188 81.1626 299.138C81.1626 316.619 128.514 344.699 172.069 348.295C226.512 352.79 398.834 354.578 414.818 325.61C422.486 311.712 409.998 282.602 396.836 270.17C383.35 257.431 304.931 244.198 279.957 225.718C249.79 203.396 233.505 202.743 216.023 222.222C190.903 250.211 189.551 266.673 160.58 249.192Z" fill="#BFE258"/>
<path d="M132.081 248.233C132.167 247.58 133.116 247.58 133.203 248.233L137.595 281.362C137.64 281.7 137.376 282 137.034 282H128.25C127.908 282 127.644 281.7 127.688 281.362L132.081 248.233Z" fill="#1BAD42"/>
<path d="M125.973 261.72C126.092 261.112 126.965 261.112 127.084 261.72L130.925 281.328C130.993 281.676 130.726 282 130.37 282H122.687C122.331 282 122.064 281.676 122.132 281.328L125.973 261.72Z" fill="#1BAD42"/>
<path d="M138.82 257.165C138.931 256.544 139.824 256.544 139.935 257.165L144.241 281.338C144.302 281.683 144.036 282 143.683 282H135.072C134.72 282 134.453 281.683 134.514 281.338L138.82 257.165Z" fill="#1BAD42"/>
<path d="M145 270.994C145.148 270.433 145.947 270.433 146.095 270.994L148.813 281.293C148.908 281.65 148.637 282 148.266 282H142.829C142.458 282 142.187 281.65 142.281 281.293L145 270.994Z" fill="#1BAD42"/>
<path d="M164.408 270.966C149.434 270.966 106.444 271.647 89.9536 317.676C89.9536 335.187 145.32 348.595 188.893 352.198C243.36 356.701 415.754 358.492 431.744 329.473C439.416 315.551 403.141 294.489 380.775 284.474C368.283 278.881 341.799 288.977 315.316 264.962C287.488 239.728 253.716 224.754 234.365 239.446C204.383 262.208 194.39 270.966 164.408 270.966Z" fill="#89D94F"/>
<path d="M224.081 295.233C224.167 294.58 225.116 294.58 225.203 295.233L229.595 328.362C229.64 328.7 229.376 329 229.034 329H220.25C219.908 329 219.644 328.7 219.688 328.362L224.081 295.233Z" fill="#1BAD42"/>
<path d="M217.973 308.72C218.092 308.112 218.965 308.112 219.084 308.72L222.925 328.328C222.993 328.676 222.726 329 222.37 329H214.687C214.331 329 214.064 328.676 214.132 328.328L217.973 308.72Z" fill="#1BAD42"/>
<path d="M230.82 304.165C230.931 303.544 231.824 303.544 231.935 304.165L236.241 328.338C236.302 328.683 236.036 329 235.683 329H227.072C226.72 329 226.453 328.683 226.514 328.338L230.82 304.165Z" fill="#1BAD42"/>
<path d="M237 317.994C237.148 317.433 237.947 317.433 238.095 317.994L240.813 328.293C240.908 328.65 240.637 329 240.266 329H234.829C234.458 329 234.187 328.65 234.281 328.293L237 317.994Z" fill="#1BAD42"/>
<defs>
<linearGradient id="paint0_linear_1263_3788" x1="255.512" y1="259.047" x2="255.512" y2="365.512" gradientUnits="userSpaceOnUse">
<stop stop-color="#DE7E55"/>
<stop offset="1" stop-color="#F3AC82"/>
</linearGradient>
</defs>
</svg>
