<svg width="512" height="512" viewBox="0 0 512 512" fill="none" xmlns="http://www.w3.org/2000/svg">
<path d="M120.302 251.568L100.261 275C93.0799 277.327 60.8815 299.33 51.6629 314.884C40.1396 334.328 47.2269 343.993 63.6872 355.766C79.7196 367.232 173.409 379.198 197.457 379.198C217.999 379.198 390.731 384.172 422.412 367.232C455.98 349.285 466 329.841 466 309.899C466 294.385 430.929 281.315 414.396 272.009C369.138 262.869 279.824 236.213 252.569 236.612C225.314 237.011 153.034 246.749 120.302 251.568Z" fill="#BBF9F4"/>
<path d="M439.535 341.773C469.9 314.977 443.219 285.216 422.954 277.832L260.166 258.196L96.3729 273.804C84.3146 283.538 49.2447 320.627 59.6953 336.738C72.7586 356.877 198.367 364.429 230.02 364.429C279.384 364.429 405.872 371.477 439.535 341.773Z" fill="url(#paint0_linear_1263_3819)"/>
<path d="M199.869 164.835C176.643 150.77 127.286 224.11 110.767 270.324C110.767 287.905 148.21 313.204 191.86 316.821C246.423 321.342 362.056 264.296 378.075 235.161C385.76 221.183 363.163 208.247 355.048 191.961C348.04 177.896 333.023 152.779 316.003 119.123C298.984 85.4672 271.952 166.342 252.43 180.91C232.907 195.477 228.903 182.416 199.869 164.835Z" fill="white"/>
<path d="M203.111 177.491C179.921 163.498 106.652 238.456 90.1587 284.431C90.1587 301.921 145.535 315.314 189.117 318.912C243.594 323.409 415.022 322.909 431.015 293.926C438.688 280.02 375.039 211.971 358.546 204.475C342.053 196.98 333.556 166.497 316.563 133.015C299.57 99.5339 273.082 177.491 253.59 191.983C234.098 206.475 232.099 194.981 203.111 177.491Z" fill="#7E7F90"/>
<path d="M202.79 200.478C179.567 186.375 105.694 238.473 89.1777 284.811C89.1777 302.439 145.133 339.39 188.776 343.017C243.33 347.55 414.999 323.594 431.015 294.381C438.698 280.365 374.959 235.231 358.443 227.676C341.927 220.121 333.418 189.397 316.402 155.651C299.385 121.905 272.859 200.478 253.339 215.084C233.82 229.691 231.818 218.106 202.79 200.478Z" fill="#6E6F81"/>
<path d="M355.081 234.233C355.167 233.58 356.116 233.58 356.203 234.233L360.595 267.362C360.64 267.7 360.376 268 360.034 268H351.25C350.908 268 350.644 267.7 350.688 267.362L355.081 234.233Z" fill="#1BAD42"/>
<path d="M348.973 247.72C349.092 247.112 349.965 247.112 350.084 247.72L353.925 267.328C353.993 267.676 353.726 268 353.37 268H345.687C345.331 268 345.064 267.676 345.132 267.328L348.973 247.72Z" fill="#1BAD42"/>
<path d="M361.82 243.165C361.931 242.544 362.824 242.544 362.935 243.165L367.241 267.338C367.302 267.683 367.036 268 366.683 268H358.072C357.72 268 357.453 267.683 357.514 267.338L361.82 243.165Z" fill="#1BAD42"/>
<path d="M368 256.994C368.148 256.433 368.947 256.433 369.095 256.994L371.813 267.293C371.908 267.65 371.637 268 371.266 268H365.829C365.458 268 365.187 267.65 365.281 267.293L368 256.994Z" fill="#1BAD42"/>
<path d="M165.739 256.791C142.432 242.858 96.9221 253.132 80.3457 298.911C80.3457 316.326 127.965 344.301 171.767 347.883C226.519 352.362 399.818 354.143 415.892 325.283C423.604 311.437 386.432 280.943 373.195 268.558C359.633 255.867 338.033 257.113 320.955 223.774C303.876 190.436 255.014 237.454 235.561 252.066C205.422 274.704 194.874 274.206 165.739 256.791Z" fill="#BFE258"/>
<path d="M132.081 248.233C132.167 247.58 133.116 247.58 133.203 248.233L137.595 281.362C137.64 281.7 137.376 282 137.034 282H128.25C127.908 282 127.644 281.7 127.688 281.362L132.081 248.233Z" fill="#1BAD42"/>
<path d="M125.973 261.72C126.092 261.112 126.965 261.112 127.084 261.72L130.925 281.328C130.993 281.676 130.726 282 130.37 282H122.687C122.331 282 122.064 281.676 122.132 281.328L125.973 261.72Z" fill="#1BAD42"/>
<path d="M138.82 257.165C138.931 256.544 139.824 256.544 139.935 257.165L144.241 281.338C144.302 281.683 144.036 282 143.683 282H135.072C134.72 282 134.453 281.683 134.514 281.338L138.82 257.165Z" fill="#1BAD42"/>
<path d="M145 270.994C145.148 270.433 145.947 270.433 146.095 270.994L148.813 281.293C148.908 281.65 148.637 282 148.266 282H142.829C142.458 282 142.187 281.65 142.281 281.293L145 270.994Z" fill="#1BAD42"/>
<path d="M163.794 284.915C140.551 270.83 106.689 270.796 90.1587 317.073C90.1587 334.678 145.661 348.159 189.341 351.781C243.941 356.308 416.759 358.109 432.788 328.934C440.479 314.937 392.715 301.892 368.67 296.862C350.457 293.051 344.125 290.826 327.094 257.124C310.063 223.422 280.872 265.995 261.473 280.766C231.418 303.651 192.847 302.52 163.794 284.915Z" fill="#89D94F"/>
<path d="M274.081 294.233C274.167 293.58 275.116 293.58 275.203 294.233L279.595 327.362C279.64 327.7 279.376 328 279.034 328H270.25C269.908 328 269.644 327.7 269.688 327.362L274.081 294.233Z" fill="#1BAD42"/>
<path d="M267.973 307.72C268.092 307.112 268.965 307.112 269.084 307.72L272.925 327.328C272.993 327.676 272.726 328 272.37 328H264.687C264.331 328 264.064 327.676 264.132 327.328L267.973 307.72Z" fill="#1BAD42"/>
<path d="M280.82 303.165C280.931 302.544 281.824 302.544 281.935 303.165L286.241 327.338C286.302 327.683 286.036 328 285.683 328H277.072C276.72 328 276.453 327.683 276.514 327.338L280.82 303.165Z" fill="#1BAD42"/>
<path d="M287 316.994C287.148 316.433 287.947 316.433 288.095 316.994L290.813 327.293C290.908 327.65 290.637 328 290.266 328H284.829C284.458 328 284.187 327.65 284.281 327.293L287 316.994Z" fill="#1BAD42"/>
<defs>
<linearGradient id="paint0_linear_1263_3819" x1="255.51" y1="258.196" x2="255.51" y2="365.159" gradientUnits="userSpaceOnUse">
<stop stop-color="#DE7E55"/>
<stop offset="1" stop-color="#F3AC82"/>
</linearGradient>
</defs>
</svg>
