<svg width="512" height="512" viewBox="0 0 512 512" fill="none" xmlns="http://www.w3.org/2000/svg">
<path d="M208.133 155.595C199.522 169.398 185.304 192.254 169.651 217.5C163.993 226.626 171.726 259.72 182.294 261.619L310.559 284.675C313.599 285.221 316.69 285.26 319.739 284.767C354.611 279.13 415.008 267.857 409.651 262.5C404.051 256.9 363.651 216 350.151 196C342.893 185.247 334.912 170.447 329.084 159.06C323.789 148.716 313.234 142 301.613 142H232.707C222.676 142 213.442 147.084 208.133 155.595Z" fill="#7E7F90"/>
<path fill-rule="evenodd" clip-rule="evenodd" d="M330.302 161.479L328.916 158.682C323.854 148.465 313.437 142 302.034 142H257.242C241.574 147.09 225.104 152.161 209.696 153.275C209.132 154.009 208.6 154.775 208.103 155.57C206.091 158.79 203.668 162.674 200.776 167.319C203.061 172.428 208.232 171.713 213.785 168.842C222.943 164.108 235.669 167.761 237.46 177.913C237.588 178.637 237.652 179.369 237.652 180.104V195.049C237.652 196.625 238.246 198.143 239.315 199.302C241.696 201.882 245.732 202.003 248.264 199.572L248.427 199.416C249.701 198.192 250.422 196.501 250.422 194.734V179.892C250.422 177.029 251.276 174.231 252.874 171.856L253.704 170.622C255.859 167.42 259.467 165.5 263.327 165.5H263.602C268.413 165.5 272.688 168.568 274.227 173.126C277.64 183.233 291.96 183.157 295.49 173.091C297.076 168.567 301.361 165.5 306.154 165.5H311.652H319.152H324.652C326.575 165.5 328.651 163.569 330.302 161.479Z" fill="#F0B658"/>
<path fill-rule="evenodd" clip-rule="evenodd" d="M326.754 155H209.652C209.268 155 208.89 154.973 208.521 154.921C213.896 146.807 222.935 142 232.707 142H302.034C311.999 142 321.21 146.936 326.754 155Z" fill="#E8565C"/>
<circle cx="276.151" cy="121.5" r="14.5" fill="white"/>
<circle cx="303.651" cy="107" r="24" fill="white"/>
<path fill-rule="evenodd" clip-rule="evenodd" d="M277.652 142C278.907 140.329 279.651 138.251 279.651 136C279.651 130.477 275.174 126 269.651 126C264.129 126 259.651 130.477 259.651 136C259.651 138.251 260.395 140.329 261.651 142H277.652Z" fill="white"/>
<path d="M120.152 250L100.151 273.5C92.9848 275.833 60.8514 297.9 51.6514 313.5C40.1514 333 47.2244 342.693 63.6514 354.5C79.6515 366 173.151 378 197.151 378C217.651 378 390.034 382.988 421.651 366C455.151 348 465.151 328.5 465.151 308.5C465.151 292.941 430.151 279.833 413.651 270.5C368.485 261.333 279.351 234.6 252.151 235C224.951 235.4 152.818 245.166 120.152 250Z" fill="#BBF9F4"/>
<path d="M438.151 340.5C468.37 313.889 441.818 284.333 421.651 277L259.651 257.5L96.6514 273C84.6514 282.666 49.7514 319.5 60.1514 335.5C73.1514 355.5 198.151 363 229.651 363C278.776 363 404.651 370 438.151 340.5Z" fill="url(#paint0_linear_1264_4012)"/>
<path d="M192.651 203.5C169.451 189.5 105.651 237.499 89.1514 283.499C89.1514 300.999 145.051 337.681 188.651 341.281C243.151 345.781 414.651 321.999 430.651 292.999C438.328 279.086 416.151 246 399.651 238.5C383.151 231 363.651 243.5 346.651 210C329.651 176.5 281.651 199 262.151 213.5C242.651 228 221.651 221 192.651 203.5Z" fill="#6E6F81"/>
<path d="M354.081 234.233C354.167 233.58 355.116 233.58 355.203 234.233L359.595 267.362C359.64 267.7 359.376 268 359.034 268H350.25C349.908 268 349.644 267.7 349.688 267.362L354.081 234.233Z" fill="#1BAD42"/>
<path d="M347.973 247.72C348.092 247.112 348.965 247.112 349.084 247.72L352.925 267.328C352.993 267.676 352.726 268 352.37 268H344.687C344.331 268 344.064 267.676 344.132 267.328L347.973 247.72Z" fill="#1BAD42"/>
<path d="M360.82 243.165C360.931 242.544 361.824 242.544 361.935 243.165L366.241 267.338C366.302 267.683 366.036 268 365.683 268H357.072C356.72 268 356.453 267.683 356.514 267.338L360.82 243.165Z" fill="#1BAD42"/>
<path d="M367 256.994C367.148 256.433 367.947 256.433 368.095 256.994L370.813 267.293C370.908 267.65 370.637 268 370.266 268H364.829C364.458 268 364.187 267.65 364.281 267.293L367 256.994Z" fill="#1BAD42"/>
<path d="M165.651 255.676C142.451 241.676 97.1514 252 80.6514 298C80.6514 315.5 128.051 343.61 171.651 347.21C226.151 351.71 398.651 353.5 414.651 324.5C422.328 310.587 385.327 279.946 372.151 267.5C358.651 254.748 337.151 256 320.151 222.5C303.151 189 254.514 236.245 235.151 250.928C205.151 273.676 194.651 273.176 165.651 255.676Z" fill="#BFE258"/>
<path d="M131.081 248.233C131.167 247.58 132.116 247.58 132.203 248.233L136.595 281.362C136.64 281.7 136.376 282 136.034 282H127.25C126.908 282 126.644 281.7 126.688 281.362L131.081 248.233Z" fill="#1BAD42"/>
<path d="M124.973 261.72C125.092 261.112 125.965 261.112 126.084 261.72L129.925 281.328C129.993 281.676 129.726 282 129.37 282H121.687C121.331 282 121.064 281.676 121.132 281.328L124.973 261.72Z" fill="#1BAD42"/>
<path d="M137.82 257.165C137.931 256.544 138.824 256.544 138.935 257.165L143.241 281.338C143.302 281.683 143.036 282 142.683 282H134.072C133.72 282 133.453 281.683 133.514 281.338L137.82 257.165Z" fill="#1BAD42"/>
<path d="M144 270.994C144.148 270.433 144.947 270.433 145.095 270.994L147.813 281.293C147.908 281.65 147.637 282 147.266 282H141.829C141.458 282 141.187 281.65 141.281 281.293L144 270.994Z" fill="#1BAD42"/>
<path d="M163.151 284.214C139.951 270.214 106.151 270.18 89.6514 316.18C89.6514 333.68 145.051 347.08 188.651 350.68C243.151 355.18 415.651 356.97 431.651 327.97C439.328 314.057 391.651 301.09 367.651 296.09C349.471 292.302 343.151 290.09 326.151 256.59C309.151 223.09 280.014 265.408 260.651 280.09C230.651 302.838 192.151 301.714 163.151 284.214Z" fill="#89D94F"/>
<path d="M273.081 294.233C273.167 293.58 274.116 293.58 274.203 294.233L278.595 327.362C278.64 327.7 278.376 328 278.034 328H269.25C268.908 328 268.644 327.7 268.688 327.362L273.081 294.233Z" fill="#1BAD42"/>
<path d="M266.973 307.72C267.092 307.112 267.965 307.112 268.084 307.72L271.925 327.328C271.993 327.676 271.726 328 271.37 328H263.687C263.331 328 263.064 327.676 263.132 327.328L266.973 307.72Z" fill="#1BAD42"/>
<path d="M279.82 303.165C279.931 302.544 280.824 302.544 280.935 303.165L285.241 327.338C285.302 327.683 285.036 328 284.683 328H276.072C275.72 328 275.453 327.683 275.514 327.338L279.82 303.165Z" fill="#1BAD42"/>
<path d="M286 316.994C286.148 316.433 286.947 316.433 287.095 316.994L289.813 327.293C289.908 327.65 289.637 328 289.266 328H283.829C283.458 328 283.187 327.65 283.281 327.293L286 316.994Z" fill="#1BAD42"/>
<defs>
<linearGradient id="paint0_linear_1264_4012" x1="255.017" y1="257.5" x2="255.017" y2="363.725" gradientUnits="userSpaceOnUse">
<stop stop-color="#DE7E55"/>
<stop offset="1" stop-color="#F3AC82"/>
</linearGradient>
</defs>
</svg>
