<svg width="512" height="512" viewBox="0 0 512 512" fill="none" xmlns="http://www.w3.org/2000/svg">
<path d="M0 0H512V512H0V0Z" fill="#5DB3E9"/>
<rect x="275" y="327" width="179" height="19" rx="9.5" fill="#71C0EA"/>
<rect x="147" y="379" width="116" height="15" rx="7.5" fill="#71C0EA"/>
<path fill-rule="evenodd" clip-rule="evenodd" d="M345 159.738C345 154.912 341.088 151 336.262 151H62.7376C57.912 151 54 154.912 54 159.738C54 164.563 57.912 168.475 62.7376 168.475H95.4086C98.5558 168.475 101.107 171.026 101.107 174.174C101.107 177.321 98.5558 179.872 95.4086 179.872H80.9726C76.1469 179.872 72.235 183.784 72.235 188.61C72.235 193.435 76.1469 197.347 80.9726 197.347H227.612C232.438 197.347 236.35 193.435 236.35 188.61C236.35 183.784 232.438 179.872 227.612 179.872H194.941C191.794 179.872 189.243 177.321 189.243 174.174C189.243 171.026 191.794 168.475 194.941 168.475H336.262C341.088 168.475 345 164.563 345 159.738Z" fill="#71C0EA"/>
</svg>
