<svg width="1600" height="900" viewBox="0 0 1600 900" fill="none" xmlns="http://www.w3.org/2000/svg">
<path d="M0 0H1600V900H0V0Z" fill="url(#paint0_linear_1314_4250)"/>
<path d="M0 215H1600V900H0V215Z" fill="url(#paint1_linear_1314_4250)"/>
<circle cx="1267.23" cy="77.2267" r="40.96" fill="#FCEA9E"/>
<circle opacity="0.3" cx="1267.23" cy="77.2267" r="66.1333" fill="#FCEA9E"/>
<path opacity="0.1" d="M1382 77.2267C1382 140.614 1330.61 192 1267.23 192C1203.84 192 1152.45 140.614 1152.45 77.2267C1152.45 47.4867 1163.76 20.3887 1182.32 3.22469e-05C1182.32 3.22469e-05 1234.65 0 1268.29 0C1301.94 0 1352.13 3.22469e-05 1352.13 3.22469e-05C1370.69 20.3887 1382 47.4867 1382 77.2267Z" fill="#FCEA9E"/>
<path d="M308.658 113H493.344C497.019 113 500 110.031 500 106.369C500 102.708 497.019 99.739 493.344 99.739H482.226C482.379 98.94 482.466 98.115 482.466 97.2698C482.466 90.2575 476.757 84.5735 469.718 84.5735C466.043 84.5735 462.734 86.1234 460.404 88.6003C459.218 80.8838 452.524 74.9733 444.44 74.9733C444.008 74.9733 443.576 74.9956 443.144 75.0299C442.657 56.153 427.136 41 408.062 41C393.754 41 381.448 49.5268 375.984 61.7547C371.84 59.0693 366.897 57.503 361.585 57.503C347.214 57.503 335.53 68.9222 335.163 83.1445C328.623 83.6852 323.483 89.1394 323.483 95.7928C323.483 95.8664 323.485 95.9393 323.488 96.0122C323.489 96.0521 323.491 96.092 323.492 96.1321C322.883 95.9861 322.251 95.9006 321.598 95.9006C318.687 95.9006 316.144 97.4391 314.723 99.739H308.658C308.072 99.739 307.503 99.8147 306.962 99.9563C304.106 100.703 302 103.291 302 106.369C302 107.756 302.427 109.043 303.158 110.108C304.358 111.854 306.374 113 308.658 113Z" fill="#FCFCE4"/>
<path d="M1372.4 467H241.733C236.357 467 232 471.357 232 476.733C232 482.108 236.357 486.465 241.733 486.465H948.227C953.219 486.465 957.265 490.511 957.265 495.503C957.265 500.494 953.219 504.54 948.227 504.54H838.701C830.063 504.54 823.06 511.543 823.06 520.182C823.06 528.82 830.063 535.824 838.701 535.824H867.565C872.556 535.824 876.603 539.87 876.603 544.861C876.603 549.852 872.556 553.898 867.565 553.898H681.735C670.689 553.898 661.735 562.853 661.735 573.898V577C661.735 588.046 670.689 597 681.735 597H992.894C1003.94 597 1012.89 588.046 1012.89 577V573.898C1012.89 562.853 1003.94 553.898 992.894 553.898H960.044C955.053 553.898 951.007 549.852 951.007 544.861C951.007 539.87 955.053 535.824 960.044 535.824H1476.36C1485 535.824 1492 528.82 1492 520.182C1492 511.543 1485 504.54 1476.36 504.54H1241.67C1236.68 504.54 1232.63 500.494 1232.63 495.503C1232.63 490.511 1236.68 486.465 1241.67 486.465H1372.4C1377.78 486.465 1382.13 482.108 1382.13 476.733C1382.13 471.357 1377.78 467 1372.4 467Z" fill="url(#paint2_linear_1314_4250)"/>
<path d="M232 725C232 720.029 236.029 716 241 716H527C531.971 716 536 720.029 536 725V725C536 729.971 531.971 734 527 734H241C236.029 734 232 729.971 232 725V725Z" fill="#76E0E2"/>
<defs>
<linearGradient id="paint0_linear_1314_4250" x1="800" y1="0" x2="800" y2="900" gradientUnits="userSpaceOnUse">
<stop stop-color="#2A61F4"/>
<stop offset="0.354167" stop-color="#A0CDF5"/>
</linearGradient>
<linearGradient id="paint1_linear_1314_4250" x1="800" y1="281.5" x2="800" y2="900" gradientUnits="userSpaceOnUse">
<stop stop-color="#5189F4"/>
<stop offset="1" stop-color="#3BC4D7"/>
</linearGradient>
<linearGradient id="paint2_linear_1314_4250" x1="862" y1="467" x2="862" y2="597" gradientUnits="userSpaceOnUse">
<stop stop-color="#70B1EF"/>
<stop offset="1" stop-color="#70D2E1"/>
</linearGradient>
</defs>
</svg>
