<svg width="624" height="496" viewBox="0 0 624 496" fill="none" xmlns="http://www.w3.org/2000/svg">
<path d="M621.778 337.089C622.874 332.674 619.533 328.403 614.984 328.403H438.573C434.707 328.403 431.573 331.537 431.573 335.403V351.479C431.573 355.345 428.439 358.479 424.573 358.479H128.581C123.18 358.479 119.814 364.336 122.532 369.003L193.952 491.598C195.206 493.75 197.51 495.074 200.001 495.074H577.103C580.32 495.074 583.123 492.882 583.897 489.76L621.778 337.089Z" fill="#9F805A"/>
<path d="M395.857 4.11967C395.857 2.10616 393.913 0.664286 391.986 1.24891L384.782 3.43487C382.888 4.00925 380.868 4.00925 378.975 3.43487L370.844 0.967897C368.925 0.385678 366.876 0.393794 364.961 0.991191L357.288 3.38608C355.348 3.99152 353.269 3.99152 351.329 3.38608L344.612 1.28955C342.68 0.68673 340.718 2.12988 340.718 4.15333V19.9757C340.718 21.4073 341.729 22.6394 343.133 22.9183L352.388 24.7562C353.656 25.0081 354.961 25.0116 356.231 24.7664L366.364 22.8098C367.634 22.5646 368.94 22.5681 370.208 22.82L379.957 24.7562C381.226 25.0081 382.531 25.0116 383.801 24.7664L393.426 22.908C394.837 22.6354 395.857 21.3999 395.857 19.9624V4.11967Z" fill="#B54028"/>
<path d="M230.44 21.6641C230.44 19.6506 228.495 18.2087 226.568 18.7933L219.364 20.9793C217.471 21.5537 215.45 21.5537 213.557 20.9793L205.427 18.5123C203.508 17.9301 201.458 17.9382 199.544 18.5356L191.87 20.9305C189.93 21.536 187.852 21.536 185.912 20.9305L179.194 18.834C177.262 18.2312 175.3 19.6743 175.3 21.6978V37.5202C175.3 38.9517 176.312 40.1838 177.716 40.4627L186.97 42.3006C188.239 42.5525 189.544 42.556 190.814 42.3108L200.947 40.3542C202.217 40.109 203.522 40.1125 204.791 40.3645L214.54 42.3006C215.808 42.5525 217.114 42.556 218.383 42.3108L228.008 40.4524C229.42 40.1799 230.44 38.9444 230.44 37.5068V21.6641Z" fill="#B54028"/>
<path d="M518.579 227.122C518.924 226.003 519.652 225.04 520.634 224.403L606.236 168.849C609.428 166.778 613.673 168.89 613.945 172.686L623.549 306.755C623.757 309.65 621.464 312.112 618.562 312.112H499.126C495.761 312.112 493.356 308.854 494.349 305.638L518.579 227.122Z" fill="#BFBFBF"/>
<path d="M518.579 227.122C518.924 226.003 519.652 225.04 520.634 224.403L606.236 168.849C609.428 166.778 613.673 168.89 613.945 172.686L623.549 306.755C623.757 309.65 621.464 312.112 618.562 312.112H499.126C495.761 312.112 493.356 308.854 494.349 305.638L518.579 227.122Z" fill="#BFBFBF"/>
<path d="M346.799 43.9146C347.373 41.7125 349.362 40.1758 351.638 40.1758H465.886C468.55 40.1758 470.746 42.2644 470.88 44.925L477.049 167.76C477.193 170.617 474.916 173.011 472.056 173.011H319.619C316.345 173.011 313.955 169.918 314.781 166.75L346.799 43.9146Z" fill="#BFBFBF"/>
<path d="M346.799 43.9146C347.373 41.7125 349.362 40.1758 351.638 40.1758H465.886C468.55 40.1758 470.746 42.2644 470.88 44.925L477.049 167.76C477.193 170.617 474.916 173.011 472.056 173.011H319.619C316.345 173.011 313.955 169.918 314.781 166.75L346.799 43.9146Z" fill="#BFBFBF"/>
<path d="M339.539 184.26C340.117 182.062 342.103 180.53 344.375 180.53H459.571C462.234 180.53 464.43 182.618 464.565 185.278L470.781 308.113C470.926 310.97 468.648 313.366 465.787 313.366H312.112C308.835 313.366 306.443 310.265 307.276 307.096L339.539 184.26Z" fill="#BFBFBF"/>
<path d="M339.539 184.26C340.117 182.062 342.103 180.53 344.375 180.53H459.571C462.234 180.53 464.43 182.618 464.565 185.278L470.781 308.113C470.926 310.97 468.648 313.366 465.787 313.366H312.112C308.835 313.366 306.443 310.265 307.276 307.096L339.539 184.26Z" fill="#BFBFBF"/>
<path d="M164.634 61.4652C165.205 59.2601 167.195 57.7202 169.474 57.7202H286.53C289.194 57.7202 291.39 59.8096 291.523 62.4707L297.848 189.066C297.991 191.921 295.714 194.315 292.854 194.315H136.648C133.377 194.315 130.987 191.226 131.808 188.06L164.634 61.4652Z" fill="#BFBFBF"/>
<path d="M164.634 61.4652C165.205 59.2601 167.195 57.7202 169.474 57.7202H286.53C289.194 57.7202 291.39 59.8096 291.523 62.4707L297.848 189.066C297.991 191.921 295.714 194.315 292.854 194.315H136.648C133.377 194.315 130.987 191.226 131.808 188.06L164.634 61.4652Z" fill="#BFBFBF"/>
<path d="M164.634 61.4652C165.205 59.2601 167.195 57.7202 169.474 57.7202H286.53C289.194 57.7202 291.39 59.8096 291.523 62.4707L297.848 189.066C297.991 191.921 295.714 194.315 292.854 194.315H136.648C133.377 194.315 130.987 191.226 131.808 188.06L164.634 61.4652Z" fill="#BFBFBF"/>
<path d="M164.634 61.4652C165.205 59.2601 167.195 57.7202 169.474 57.7202H286.53C289.194 57.7202 291.39 59.8096 291.523 62.4707L297.848 189.066C297.991 191.921 295.714 194.315 292.854 194.315H136.648C133.377 194.315 130.987 191.226 131.808 188.06L164.634 61.4652Z" fill="#BFBFBF"/>
<path d="M157.793 213.31C158.285 211.002 160.323 209.353 162.683 209.353H293.802C297.18 209.353 299.585 212.632 298.572 215.854L268.996 309.866C268.341 311.949 266.41 313.366 264.226 313.366H142.631C139.45 313.366 137.078 310.434 137.741 307.323L157.793 213.31Z" fill="#BFBFBF"/>
<path d="M157.793 213.31C158.285 211.002 160.323 209.353 162.683 209.353H293.802C297.18 209.353 299.585 212.632 298.572 215.854L268.996 309.866C268.341 311.949 266.41 313.366 264.226 313.366H142.631C139.45 313.366 137.078 310.434 137.741 307.323L157.793 213.31Z" fill="#BFBFBF"/>
<path d="M157.793 213.31C158.285 211.002 160.323 209.353 162.683 209.353H293.802C297.18 209.353 299.585 212.632 298.572 215.854L268.996 309.866C268.341 311.949 266.41 313.366 264.226 313.366H142.631C139.45 313.366 137.078 310.434 137.741 307.323L157.793 213.31Z" fill="#BFBFBF"/>
<path d="M157.793 213.31C158.285 211.002 160.323 209.353 162.683 209.353H293.802C297.18 209.353 299.585 212.632 298.572 215.854L268.996 309.866C268.341 311.949 266.41 313.366 264.226 313.366H142.631C139.45 313.366 137.078 310.434 137.741 307.323L157.793 213.31Z" fill="#BFBFBF"/>
<path d="M117.936 122.631C121.327 118.605 127.836 121.876 126.628 126.999L91.309 276.783C90.5427 280.033 86.8674 281.633 83.9666 279.979L22.6166 245.012C19.903 243.466 19.256 239.837 21.2676 237.448L117.936 122.631Z" fill="#BFBFBF"/>
<path d="M2.41338 294.802C0.0804493 293.425 -0.694769 290.418 0.681877 288.085C2.05852 285.752 5.06573 284.977 7.39866 286.354L149.772 370.368C152.105 371.744 152.881 374.751 151.504 377.084C150.127 379.417 147.12 380.192 144.787 378.816L2.41338 294.802Z" fill="#9F805A"/>
<path d="M603.093 412.365H147.799L195.978 495.074H582.579L603.093 412.365Z" fill="#765127"/>
<path d="M582.579 349.695C582.579 346.933 580.34 344.695 577.579 344.695H568.781C566.02 344.695 563.781 346.933 563.781 349.695V358.492C563.781 361.253 566.02 363.492 568.781 363.492H577.579C580.34 363.492 582.579 361.253 582.579 358.492V349.695Z" fill="#090302"/>
<path d="M532.452 349.695C532.452 346.933 530.214 344.695 527.452 344.695H518.655C515.893 344.695 513.655 346.933 513.655 349.695V358.492C513.655 361.253 515.893 363.492 518.655 363.492H527.452C530.214 363.492 532.452 361.253 532.452 358.492V349.695Z" fill="#090302"/>
<path d="M482.326 349.695C482.326 346.933 480.087 344.695 477.326 344.695H468.528C465.767 344.695 463.528 346.933 463.528 349.695V358.492C463.528 361.253 465.767 363.492 468.528 363.492H477.326C480.087 363.492 482.326 361.253 482.326 358.492V349.695Z" fill="#090302"/>
</svg>
