<svg width="772" height="670" viewBox="0 0 772 670" fill="none" xmlns="http://www.w3.org/2000/svg">
<path d="M5.83854 559.717C3.22441 555.051 6.59699 549.295 11.9454 549.295H763.367C767.648 549.295 770.926 553.104 770.289 557.338L759.897 626.338C759.381 629.763 756.439 632.295 752.975 632.295H50.602C48.0688 632.295 45.7333 630.927 44.4952 628.717L5.83854 559.717Z" fill="#B54028"/>
<path d="M496.659 19.7395C500.484 13.9471 509.5 16.6555 509.5 23.5971V526.295C509.5 530.161 506.366 533.295 502.5 533.295H170.512C164.935 533.295 161.597 527.092 164.671 522.438L496.659 19.7395Z" fill="#BFBFBF"/>
<path d="M700.657 314.765C704.48 308.969 713.5 311.676 713.5 318.619V526.295C713.5 530.161 710.366 533.295 706.5 533.295H569.504C563.928 533.295 560.59 527.095 563.66 522.441L700.657 314.765Z" fill="#BFBFBF"/>
<path d="M134.029 553.138C132.632 550.756 133.431 547.692 135.813 546.295L137.538 545.284C139.92 543.887 142.984 544.685 144.381 547.067L210.143 659.207C211.54 661.589 210.741 664.653 208.359 666.05L206.634 667.061C204.252 668.458 201.188 667.66 199.791 665.278L134.029 553.138Z" fill="#5C4736"/>
<path d="M304.029 553.138C302.632 550.756 303.431 547.692 305.813 546.295L307.538 545.284C309.92 543.887 312.984 544.685 314.381 547.067L380.143 659.207C381.54 661.589 380.741 664.653 378.359 666.05L376.634 667.061C374.252 668.458 371.188 667.66 369.791 665.278L304.029 553.138Z" fill="#5C4736"/>
<path d="M464.029 553.138C462.632 550.756 463.431 547.692 465.813 546.295L467.538 545.284C469.92 543.887 472.984 544.685 474.381 547.067L540.143 659.207C541.54 661.589 540.741 664.653 538.359 666.05L536.634 667.061C534.252 668.458 531.188 667.66 529.791 665.278L464.029 553.138Z" fill="#5C4736"/>
<path d="M624.029 553.138C622.632 550.756 623.431 547.692 625.813 546.295L627.538 545.284C629.92 543.887 632.984 544.685 634.381 547.067L700.143 659.207C701.54 661.589 700.741 664.653 698.359 666.05L696.634 667.061C694.252 668.458 691.188 667.66 689.791 665.278L624.029 553.138Z" fill="#5C4736"/>
</svg>
