<svg width="683" height="525" viewBox="0 0 683 525" fill="none" xmlns="http://www.w3.org/2000/svg">
<path d="M132.654 421.564C131.204 419.289 132.838 416.309 135.536 416.309H679.005C681.109 416.309 682.713 418.191 682.38 420.268L666.045 522.123C665.779 523.781 664.349 525 662.67 525H200.467C199.3 525 198.213 524.404 197.585 523.419L132.654 421.564Z" fill="#835432"/>
<path d="M1.68147 345.486C0.0557265 344.527 -0.484504 342.431 0.474837 340.805L0.640818 340.524C1.60016 338.898 3.69578 338.358 5.32153 339.317L147.481 423.205C149.107 424.164 149.647 426.26 148.688 427.886L148.522 428.167C147.562 429.793 145.467 430.333 143.841 429.374L1.68147 345.486Z" fill="#252823"/>
<path d="M551.331 314.912C551.567 314.147 552.063 313.489 552.734 313.053L647.678 251.305C649.86 249.886 652.765 251.33 652.951 253.927L663.613 403.077C663.754 405.055 662.187 406.738 660.204 406.738H527.683C525.383 406.738 523.74 404.512 524.417 402.314L551.331 314.912Z" fill="#BFBFBF"/>
<path d="M551.331 314.912C551.567 314.147 552.063 313.489 552.734 313.053L647.678 251.305C649.86 249.886 652.765 251.33 652.951 253.927L663.613 403.077C663.754 405.055 662.187 406.738 660.204 406.738H527.683C525.383 406.738 523.74 404.512 524.417 402.314L551.331 314.912Z" fill="#BFBFBF"/>
<path d="M545.508 144.222C545.839 142.638 547.235 141.504 548.853 141.504H637.168C639.318 141.504 640.934 143.465 640.523 145.575L617.895 261.786C617.582 263.392 616.176 264.551 614.54 264.551H524.527C522.358 264.551 520.737 262.556 521.182 260.433L545.508 144.222Z" fill="#BFBFBF"/>
<path d="M545.508 144.222C545.839 142.638 547.235 141.504 548.853 141.504H637.168C639.318 141.504 640.934 143.465 640.523 145.575L617.895 261.786C617.582 263.392 616.176 264.551 614.54 264.551H524.527C522.358 264.551 520.737 262.556 521.182 260.433L545.508 144.222Z" fill="#BFBFBF"/>
<path d="M367.496 118.08C367.889 116.576 369.248 115.527 370.802 115.527H496.914C498.735 115.527 500.236 116.955 500.328 118.773L507.151 254.125C507.249 256.078 505.692 257.715 503.737 257.715H335.392C333.153 257.715 331.518 255.598 332.085 253.432L367.496 118.08Z" fill="#BFBFBF"/>
<path d="M367.496 118.08C367.889 116.576 369.248 115.527 370.802 115.527H496.914C498.735 115.527 500.236 116.955 500.328 118.773L507.151 254.125C507.249 256.078 505.692 257.715 503.737 257.715H335.392C333.153 257.715 331.518 255.598 332.085 253.432L367.496 118.08Z" fill="#BFBFBF"/>
<path d="M359.978 268.475C360.37 266.969 361.73 265.918 363.286 265.918H489.394C491.215 265.918 492.716 267.346 492.808 269.165L499.632 405.2C499.73 407.152 498.173 408.789 496.218 408.789H327.867C325.629 408.789 323.995 406.675 324.559 404.51L359.978 268.475Z" fill="#BFBFBF"/>
<path d="M359.978 268.475C360.37 266.969 361.73 265.918 363.286 265.918H489.394C491.215 265.918 492.716 267.346 492.808 269.165L499.632 405.2C499.73 407.152 498.173 408.789 496.218 408.789H327.867C325.629 408.789 323.995 406.675 324.559 404.51L359.978 268.475Z" fill="#BFBFBF"/>
<path d="M385.472 2.56012C385.863 1.05267 387.223 0 388.78 0H481.629C483.45 0 484.951 1.42829 485.042 3.24743L490.062 103.736C490.16 105.688 488.603 107.324 486.649 107.324H362.725C360.489 107.324 358.856 105.213 359.417 103.048L385.472 2.56012Z" fill="#BFBFBF"/>
<path d="M385.472 2.56012C385.863 1.05267 387.223 0 388.78 0H481.629C483.45 0 484.951 1.42829 485.042 3.24743L490.062 103.736C490.16 105.688 488.603 107.324 486.649 107.324H362.725C360.489 107.324 358.856 105.213 359.417 103.048L385.472 2.56012Z" fill="#BFBFBF"/>
<path d="M385.472 2.56012C385.863 1.05267 387.223 0 388.78 0H481.629C483.45 0 484.951 1.42829 485.042 3.24743L490.062 103.736C490.16 105.688 488.603 107.324 486.649 107.324H362.725C360.489 107.324 358.856 105.213 359.417 103.048L385.472 2.56012Z" fill="#BFBFBF"/>
<path d="M385.472 2.56012C385.863 1.05267 387.223 0 388.78 0H481.629C483.45 0 484.951 1.42829 485.042 3.24743L490.062 103.736C490.16 105.688 488.603 107.324 486.649 107.324H362.725C360.489 107.324 358.856 105.213 359.417 103.048L385.472 2.56012Z" fill="#BFBFBF"/>
<path d="M214.384 31.2671C214.777 29.7616 216.136 28.7109 217.692 28.7109H297.754C299.575 28.7109 301.076 30.1387 301.167 31.9575L305.491 118.09C305.589 120.043 304.033 121.68 302.078 121.68H195.25C193.013 121.68 191.379 119.565 191.943 117.4L214.384 31.2671Z" fill="#BFBFBF"/>
<path d="M214.384 31.2671C214.777 29.7616 216.136 28.7109 217.692 28.7109H297.754C299.575 28.7109 301.076 30.1387 301.167 31.9575L305.491 118.09C305.589 120.043 304.033 121.68 302.078 121.68H195.25C193.013 121.68 191.379 119.565 191.943 117.4L214.384 31.2671Z" fill="#BFBFBF"/>
<path d="M214.384 31.2671C214.777 29.7616 216.136 28.7109 217.692 28.7109H297.754C299.575 28.7109 301.076 30.1387 301.167 31.9575L305.491 118.09C305.589 120.043 304.033 121.68 302.078 121.68H195.25C193.013 121.68 191.379 119.565 191.943 117.4L214.384 31.2671Z" fill="#BFBFBF"/>
<path d="M214.384 31.2671C214.777 29.7616 216.136 28.7109 217.692 28.7109H297.754C299.575 28.7109 301.076 30.1387 301.167 31.9575L305.491 118.09C305.589 120.043 304.033 121.68 302.078 121.68H195.25C193.013 121.68 191.379 119.565 191.943 117.4L214.384 31.2671Z" fill="#BFBFBF"/>
<path d="M172.174 137.229C172.565 135.721 173.925 134.668 175.483 134.668H304.656C306.477 134.668 307.979 136.096 308.07 137.916L315.063 278.052C315.16 280.004 313.604 281.641 311.649 281.641H139.189C136.953 281.641 135.32 279.53 135.88 277.366L172.174 137.229Z" fill="#BFBFBF"/>
<path d="M172.174 137.229C172.565 135.721 173.925 134.668 175.483 134.668H304.656C306.477 134.668 307.979 136.096 308.07 137.916L315.063 278.052C315.16 280.004 313.604 281.641 311.649 281.641H139.189C136.953 281.641 135.32 279.53 135.88 277.366L172.174 137.229Z" fill="#BFBFBF"/>
<path d="M172.174 137.229C172.565 135.721 173.925 134.668 175.483 134.668H304.656C306.477 134.668 307.979 136.096 308.07 137.916L315.063 278.052C315.16 280.004 313.604 281.641 311.649 281.641H139.189C136.953 281.641 135.32 279.53 135.88 277.366L172.174 137.229Z" fill="#BFBFBF"/>
<path d="M172.174 137.229C172.565 135.721 173.925 134.668 175.483 134.668H304.656C306.477 134.668 307.979 136.096 308.07 137.916L315.063 278.052C315.16 280.004 313.604 281.641 311.649 281.641H139.189C136.953 281.641 135.32 279.53 135.88 277.366L172.174 137.229Z" fill="#BFBFBF"/>
<path d="M164.867 299.387C165.202 297.808 166.596 296.68 168.21 296.68H313.322C315.63 296.68 317.274 298.919 316.584 301.12L283.573 406.394C283.126 407.819 281.805 408.789 280.312 408.789H145.83C143.656 408.789 142.035 406.787 142.487 404.66L164.867 299.387Z" fill="#BFBFBF"/>
<path d="M164.867 299.387C165.202 297.808 166.596 296.68 168.21 296.68H313.322C315.63 296.68 317.274 298.919 316.584 301.12L283.573 406.394C283.126 407.819 281.805 408.789 280.312 408.789H145.83C143.656 408.789 142.035 406.787 142.487 404.66L164.867 299.387Z" fill="#BFBFBF"/>
<path d="M164.867 299.387C165.202 297.808 166.596 296.68 168.21 296.68H313.322C315.63 296.68 317.274 298.919 316.584 301.12L283.573 406.394C283.126 407.819 281.805 408.789 280.312 408.789H145.83C143.656 408.789 142.035 406.787 142.487 404.66L164.867 299.387Z" fill="#BFBFBF"/>
<path d="M164.867 299.387C165.202 297.808 166.596 296.68 168.21 296.68H313.322C315.63 296.68 317.274 298.919 316.584 301.12L283.573 406.394C283.126 407.819 281.805 408.789 280.312 408.789H145.83C143.656 408.789 142.035 406.787 142.487 404.66L164.867 299.387Z" fill="#BFBFBF"/>
<path d="M126.909 198.316C129.222 195.557 133.679 197.788 132.856 201.293L92.7311 372.198C92.2085 374.424 89.6899 375.519 87.7056 374.383L18.0073 334.486C16.1591 333.428 15.7179 330.955 17.086 329.323L126.909 198.316Z" fill="#BFBFBF"/>
<path d="M133.591 424.018C131.446 420.691 133.835 416.309 137.794 416.309H677.762C680.863 416.309 683.216 419.103 682.689 422.159L673.438 475.734C673.024 478.131 670.944 479.883 668.511 479.883H172.335C170.636 479.883 169.054 479.02 168.133 477.592L133.591 424.018Z" fill="#252823"/>
<path d="M157.202 433.849C155.773 431.573 157.409 428.613 160.097 428.613H663.311C665.405 428.613 667.007 430.479 666.69 432.549L661.767 464.678C661.512 466.346 660.077 467.578 658.389 467.578H180.278C179.102 467.578 178.009 466.974 177.384 465.978L157.202 433.849Z" fill="#C4C4C4"/>
<path d="M219.539 442.285C219.539 440.397 221.069 438.867 222.957 438.867H233.894C235.782 438.867 237.312 440.397 237.312 442.285V453.223C237.312 455.11 235.782 456.641 233.894 456.641H222.957C221.069 456.641 219.539 455.11 219.539 453.223V442.285Z" fill="#090302"/>
<path d="M269.441 442.285C269.441 440.397 270.971 438.867 272.859 438.867H284.48C286.368 438.867 287.898 440.397 287.898 442.285V453.223C287.898 455.11 286.368 456.641 284.48 456.641H272.859C270.971 456.641 269.441 455.11 269.441 453.223V442.285Z" fill="#090302"/>
<path d="M320.027 442.285C320.027 440.397 321.557 438.867 323.445 438.867H334.382C336.27 438.867 337.8 440.397 337.8 442.285V453.223C337.8 455.11 336.27 456.641 334.382 456.641H323.445C321.557 456.641 320.027 455.11 320.027 453.223V442.285Z" fill="#090302"/>
<path d="M369.929 442.285C369.929 440.397 371.459 438.867 373.347 438.867H384.285C386.172 438.867 387.703 440.397 387.703 442.285V453.223C387.703 455.11 386.172 456.641 384.285 456.641H373.347C371.459 456.641 369.929 455.11 369.929 453.223V442.285Z" fill="#090302"/>
<path d="M419.832 442.285C419.832 440.397 421.362 438.867 423.249 438.867H434.871C436.758 438.867 438.289 440.397 438.289 442.285V453.223C438.289 455.11 436.758 456.641 434.871 456.641H423.249C421.362 456.641 419.832 455.11 419.832 453.223V442.285Z" fill="#090302"/>
<path d="M470.417 442.285C470.417 440.397 471.948 438.867 473.835 438.867H484.773C486.661 438.867 488.191 440.397 488.191 442.285V453.223C488.191 455.11 486.661 456.641 484.773 456.641H473.835C471.948 456.641 470.417 455.11 470.417 453.223V442.285Z" fill="#090302"/>
<path d="M520.32 442.285C520.32 440.397 521.85 438.867 523.738 438.867H534.675C536.563 438.867 538.093 440.397 538.093 442.285V453.223C538.093 455.11 536.563 456.641 534.675 456.641H523.738C521.85 456.641 520.32 455.11 520.32 453.223V442.285Z" fill="#090302"/>
<path d="M570.222 442.285C570.222 440.397 571.752 438.867 573.64 438.867H585.261C587.149 438.867 588.679 440.397 588.679 442.285V453.223C588.679 455.11 587.149 456.641 585.261 456.641H573.64C571.752 456.641 570.222 455.11 570.222 453.223V442.285Z" fill="#090302"/>
<path d="M620.808 442.285C620.808 440.397 622.338 438.867 624.226 438.867H635.164C637.051 438.867 638.582 440.397 638.582 442.285V453.223C638.582 455.11 637.051 456.641 635.164 456.641H624.226C622.338 456.641 620.808 455.11 620.808 453.223V442.285Z" fill="#090302"/>
</svg>
