<svg width="1600" height="900" viewBox="0 0 1600 900" fill="none" xmlns="http://www.w3.org/2000/svg">
<rect width="1600" height="900" fill="#D9D9D9"/>
<rect width="256.157" height="29.7846" rx="4" transform="matrix(0.499972 0.866041 -0.86601 0.500027 831.691 522.264)" fill="#835432"/>
<rect width="256.157" height="29.7846" rx="4" transform="matrix(0.499972 0.866041 -0.86601 0.500027 1018.34 522.264)" fill="#835432"/>
<rect width="256.157" height="29.7846" rx="4" transform="matrix(-0.499973 0.866041 0.86601 0.500027 1187.21 522.264)" fill="#835432"/>
<rect width="256.157" height="29.7846" rx="4" transform="matrix(-0.499972 0.866041 0.86601 0.500027 992.617 522.264)" fill="#835432"/>
<rect x="598.475" y="693.039" width="561.926" height="29.7863" rx="4" fill="#835432"/>
<rect x="667.971" y="558.008" width="522.214" height="29.7863" rx="4" fill="#835432"/>
<path d="M393.36 565.833C391.087 562.515 393.463 558.008 397.485 558.008H803.948C806.71 558.008 808.948 560.246 808.948 563.008V751.583C808.948 754.344 806.71 756.583 803.948 756.583H526.65C525 756.583 523.457 755.769 522.525 754.408L393.36 565.833Z" fill="#835432"/>
<path d="M797.703 151.362C799.948 148.163 804.977 149.752 804.977 153.66V530.179C804.977 532.388 803.186 534.179 800.977 534.179H536.673C533.434 534.179 531.538 530.531 533.399 527.881L797.703 151.362Z" fill="white"/>
</svg>
