<svg width="1600" height="900" viewBox="0 0 1600 900" fill="none" xmlns="http://www.w3.org/2000/svg">
<rect width="1600" height="900" fill="#D9D9D9"/>
<path d="M1031 553.882C1031 548.621 1033.76 543.744 1038.26 541.031L1110.26 497.687C1120.26 491.669 1133 498.869 1133 510.538V609C1133 617.284 1126.28 624 1118 624H1046C1037.72 624 1031 617.284 1031 609V553.882Z" fill="#EDF0FD"/>
<path d="M1031 431.587C1031 426.324 1033.76 421.446 1038.27 418.733L1078.27 394.673C1088.27 388.66 1101 395.86 1101 407.527V462C1101 470.284 1094.28 477 1086 477H1046C1037.72 477 1031 470.284 1031 462V431.587Z" fill="#EDF0FD"/>
<path d="M881.142 525.981C882.575 519.006 888.715 514 895.835 514H1001C1009.28 514 1016 520.716 1016 529V609C1016 617.284 1009.28 624 1001 624H879.396C869.898 624 862.791 615.284 864.703 605.981L881.142 525.981Z" fill="#EDF0FD"/>
<path d="M882.924 400.734C884.454 393.877 890.538 389 897.564 389L1001 389C1009.28 389 1016 395.716 1016 404V484C1016 492.284 1009.28 499 1001 499H879.715C870.114 499 862.985 490.105 865.075 480.734L882.924 400.734Z" fill="#EDF0FD"/>
<path d="M915.978 293.094C917.366 286.066 923.53 281 930.694 281L1001 281C1009.28 281 1016 287.716 1016 296V359C1016 367.284 1009.28 374 1001 374H918.252C908.801 374 901.705 365.366 903.536 356.094L915.978 293.094Z" fill="#EDF0FD"/>
<path d="M677.987 523.572C680.227 517.802 685.781 514 691.97 514H831C839.284 514 846 520.716 846 529V609C846 617.284 839.284 624 831 624H660.914C650.367 624 643.114 613.403 646.93 603.572L677.987 523.572Z" fill="white"/>
<path d="M698.079 399.155C700.152 393.082 705.858 389 712.275 389H831C839.284 389 846 395.716 846 404V484C846 492.284 839.284 499 831 499H684.97C674.686 499 667.452 488.887 670.774 479.155L698.079 399.155Z" fill="white"/>
<path d="M734.114 287.804C735.98 281.402 741.847 277 748.516 277H831C839.284 277 846 283.716 846 292V359C846 367.284 839.284 374 831 374H728.994C718.996 374 711.796 364.403 714.593 354.804L734.114 287.804Z" fill="white"/>
<path d="M598.701 419.118C607.816 408.679 625 415.126 625 428.984V602.826C625 613.168 614.781 620.407 605.025 616.977L488.883 576.141C478.877 572.623 475.583 560.114 482.56 552.124L598.701 419.118Z" fill="white"/>
</svg>
