<svg width="1600" height="900" viewBox="0 0 1600 900" fill="none" xmlns="http://www.w3.org/2000/svg">
<rect width="1600" height="900" fill="#D9D9D9"/>
<path d="M620 266.829C620 261.374 624.373 256.925 629.828 256.831L1132.83 248.175C1138.42 248.079 1143 252.583 1143 258.174V327.709C1143 333.344 1138.35 337.867 1132.71 337.705L629.713 323.279C624.304 323.123 620 318.694 620 313.283V266.829Z" fill="#616267"/>
<path d="M884.496 252.524C885.628 248.097 889.616 245 894.185 245H1079.82C1084.38 245 1088.37 248.097 1089.5 252.524L1126.81 398.524C1128.43 404.848 1123.65 411 1117.12 411H856.877C850.349 411 845.572 404.848 847.188 398.524L884.496 252.524Z" fill="#957856"/>
<circle cx="870" cy="394" r="56" fill="#816952"/>
<circle cx="1097" cy="394" r="56" fill="#816952"/>
<path d="M500 369.829C500 364.374 504.373 359.925 509.828 359.831L1012.83 351.175C1018.42 351.079 1023 355.583 1023 361.174V430.709C1023 436.344 1018.35 440.867 1012.71 440.705L509.713 426.279C504.304 426.123 500 421.694 500 416.283V369.829Z" fill="#616267"/>
<path d="M764.496 355.524C765.628 351.097 769.616 348 774.185 348H959.815C964.384 348 968.372 351.097 969.504 355.524L1006.81 501.524C1008.43 507.848 1003.65 514 997.123 514H736.877C730.349 514 725.572 507.848 727.188 501.524L764.496 355.524Z" fill="#957856"/>
<circle cx="750" cy="497" r="56" fill="#816952"/>
<circle cx="977" cy="497" r="56" fill="#816952"/>
<path d="M388 471.829C388 466.374 392.373 461.925 397.828 461.831L900.828 453.175C906.417 453.079 911 457.583 911 463.174V532.709C911 538.344 906.346 542.867 900.713 542.705L397.713 528.279C392.304 528.123 388 523.694 388 518.283V471.829Z" fill="#616267"/>
<path d="M652.496 457.524C653.628 453.097 657.616 450 662.185 450H847.815C852.384 450 856.372 453.097 857.504 457.524L894.812 603.524C896.428 609.848 891.651 616 885.123 616H624.877C618.349 616 613.572 609.848 615.188 603.524L652.496 457.524Z" fill="#957856"/>
<circle cx="638" cy="599" r="56" fill="#816952"/>
<circle cx="865" cy="599" r="56" fill="#816952"/>
</svg>
