<svg width="1600" height="900" viewBox="0 0 1600 900" fill="none" xmlns="http://www.w3.org/2000/svg">
<g clip-path="url(#clip0_201_2)">
<rect width="1600" height="900" fill="white"/>
<rect width="1600" height="720" fill="url(#paint0_linear_201_2)"/>
<circle cx="1069" cy="181" r="96" fill="#FCEA9E"/>
<circle opacity="0.3" cx="1069" cy="181" r="155" fill="#FCEA9E"/>
<circle opacity="0.1" cx="1069" cy="181" r="269" fill="#FCEA9E"/>
<circle cx="1009.07" cy="278.697" r="47.6971" fill="#C2FFFF"/>
<circle cx="942.36" cy="297.87" r="32.2278" fill="#C2FFFF"/>
<ellipse cx="858.604" cy="305.805" rx="27.5979" ry="28.3241" fill="#C2FFFF"/>
<circle cx="900.146" cy="308.347" r="20.6258" fill="#C2FFFF"/>
<circle cx="824.034" cy="314.084" r="20.6258" fill="#C2FFFF"/>
<circle cx="1058.05" cy="309.636" r="24.4931" fill="#C2FFFF"/>
<rect x="770" y="307.984" width="341.342" height="29.0504" rx="14.5252" fill="#C2FFFF"/>
<circle cx="338.692" cy="232.769" r="59.7692" fill="#C2FFFF"/>
<circle cx="251.462" cy="258.615" r="40.3846" fill="#C2FFFF"/>
<circle cx="194.923" cy="269.923" r="25.8462" fill="#C2FFFF"/>
<circle cx="400.077" cy="271.539" r="30.6923" fill="#C2FFFF"/>
<rect x="98" y="266.692" width="378" height="35.5385" rx="17.7692" fill="#C2FFFF"/>
<ellipse cx="1820.46" cy="931.011" rx="983.131" ry="389.116" transform="rotate(1.57621 1820.46 931.011)" fill="#21C4AF"/>
<ellipse cx="2060.58" cy="901.956" rx="1132.97" ry="389.116" transform="rotate(-8.643 2060.58 901.956)" fill="#119B60"/>
<path fill-rule="evenodd" clip-rule="evenodd" d="M1923.04 885.144H-53.4564V621.033C240.107 569.422 676.061 582.794 1151.35 671.957C1438.84 725.889 1702.87 800.45 1923.04 885.144Z" fill="#1BAD42"/>
<rect x="463.385" y="729.538" width="15.3347" height="72.0733" fill="#EDB07A"/>
<rect x="520.124" y="729.538" width="15.3347" height="72.0733" fill="#EDB07A"/>
<rect x="576.863" y="729.538" width="15.3347" height="72.0733" fill="#EDB07A"/>
<rect x="633.601" y="729.538" width="15.3347" height="72.0733" fill="#EDB07A"/>
<rect x="690.34" y="729.538" width="15.3347" height="72.0733" fill="#EDB07A"/>
<rect x="747.078" y="729.538" width="15.3347" height="72.0733" fill="#EDB07A"/>
<rect x="463.385" y="740.272" width="299.027" height="10.7343" fill="#EDB07A"/>
<rect x="463.385" y="761.741" width="299.027" height="10.7343" fill="#EDB07A"/>
<rect x="179.693" y="729.538" width="15.3347" height="72.0733" fill="#EDB07A"/>
<rect x="236.431" y="729.538" width="15.3347" height="72.0733" fill="#EDB07A"/>
<rect x="293.17" y="729.538" width="15.3347" height="72.0733" fill="#EDB07A"/>
<rect x="349.908" y="729.538" width="15.3347" height="72.0733" fill="#EDB07A"/>
<rect x="406.647" y="729.538" width="15.3347" height="72.0733" fill="#EDB07A"/>
<rect x="463.385" y="729.538" width="15.3347" height="72.0733" fill="#EDB07A"/>
<rect x="179.693" y="740.272" width="299.027" height="10.7343" fill="#EDB07A"/>
<rect x="179.693" y="761.741" width="299.027" height="10.7343" fill="#EDB07A"/>
<rect x="9.47717" y="729.538" width="15.3347" height="72.0733" fill="#EDB07A"/>
<rect x="66.2157" y="729.538" width="15.3347" height="72.0733" fill="#EDB07A"/>
<rect x="122.954" y="729.538" width="15.3347" height="72.0733" fill="#EDB07A"/>
<rect x="179.693" y="729.538" width="15.3347" height="72.0733" fill="#EDB07A"/>
<rect x="-104" y="740.272" width="299.027" height="10.7343" fill="#EDB07A"/>
<rect x="-104" y="761.741" width="299.027" height="10.7343" fill="#EDB07A"/>
<rect x="1205.59" y="729.538" width="15.3347" height="72.0733" fill="#EDB07A"/>
<rect x="1262.33" y="729.538" width="15.3347" height="72.0733" fill="#EDB07A"/>
<rect x="1319.06" y="729.538" width="15.3347" height="72.0733" fill="#EDB07A"/>
<rect x="1375.8" y="729.538" width="15.3347" height="72.0733" fill="#EDB07A"/>
<rect x="1432.54" y="729.538" width="15.3347" height="72.0733" fill="#EDB07A"/>
<rect x="1489.28" y="729.538" width="15.3347" height="72.0733" fill="#EDB07A"/>
<rect x="1205.59" y="740.272" width="299.027" height="10.7343" fill="#EDB07A"/>
<rect x="1205.59" y="761.741" width="299.027" height="10.7343" fill="#EDB07A"/>
<rect x="-6.18494" y="801.582" width="1618.6" height="297.418" fill="#5BBB35"/>
<circle cx="36.3036" cy="806.64" r="15.1744" fill="#5BBB35"/>
<circle cx="64.6291" cy="806.64" r="15.1744" fill="#5BBB35"/>
<circle cx="92.9547" cy="806.64" r="15.1744" fill="#5BBB35"/>
<circle cx="121.28" cy="806.64" r="15.1744" fill="#5BBB35"/>
<circle cx="149.606" cy="806.64" r="15.1744" fill="#5BBB35"/>
<circle cx="177.931" cy="806.64" r="15.1744" fill="#5BBB35"/>
<circle cx="206.257" cy="806.64" r="15.1744" fill="#5BBB35"/>
<circle cx="234.582" cy="806.64" r="15.1744" fill="#5BBB35"/>
<circle cx="262.908" cy="806.64" r="15.1744" fill="#5BBB35"/>
<circle cx="291.233" cy="806.64" r="15.1744" fill="#5BBB35"/>
<circle cx="319.559" cy="806.64" r="15.1744" fill="#5BBB35"/>
<circle cx="347.885" cy="806.64" r="15.1744" fill="#5BBB35"/>
<circle cx="376.21" cy="806.64" r="15.1744" fill="#5BBB35"/>
<circle cx="404.536" cy="806.64" r="15.1744" fill="#5BBB35"/>
<circle cx="432.861" cy="806.64" r="15.1744" fill="#5BBB35"/>
<circle cx="461.187" cy="806.64" r="15.1744" fill="#5BBB35"/>
<circle cx="489.513" cy="806.64" r="15.1744" fill="#5BBB35"/>
<circle cx="517.838" cy="806.64" r="15.1744" fill="#5BBB35"/>
<circle cx="546.164" cy="806.64" r="15.1744" fill="#5BBB35"/>
<circle cx="574.489" cy="806.64" r="15.1744" fill="#5BBB35"/>
<circle cx="602.815" cy="806.64" r="15.1744" fill="#5BBB35"/>
<circle cx="631.14" cy="806.64" r="15.1744" fill="#5BBB35"/>
<circle cx="659.466" cy="806.64" r="15.1744" fill="#5BBB35"/>
<circle cx="687.791" cy="806.64" r="15.1744" fill="#5BBB35"/>
<circle cx="716.117" cy="806.64" r="15.1744" fill="#5BBB35"/>
<circle cx="744.442" cy="806.64" r="15.1744" fill="#5BBB35"/>
<circle cx="772.768" cy="806.64" r="15.1744" fill="#5BBB35"/>
<circle cx="801.094" cy="806.64" r="15.1744" fill="#5BBB35"/>
<circle cx="829.419" cy="806.64" r="15.1744" fill="#5BBB35"/>
<circle cx="857.745" cy="806.64" r="15.1744" fill="#5BBB35"/>
<circle cx="886.07" cy="806.64" r="15.1744" fill="#5BBB35"/>
<circle cx="914.396" cy="806.64" r="15.1744" fill="#5BBB35"/>
<circle cx="942.721" cy="806.64" r="15.1744" fill="#5BBB35"/>
<circle cx="971.047" cy="806.64" r="15.1744" fill="#5BBB35"/>
<circle cx="999.372" cy="806.64" r="15.1744" fill="#5BBB35"/>
<circle cx="1027.7" cy="806.64" r="15.1744" fill="#5BBB35"/>
<circle cx="1056.02" cy="806.64" r="15.1744" fill="#5BBB35"/>
<circle cx="1084.35" cy="806.64" r="15.1744" fill="#5BBB35"/>
<circle cx="1112.67" cy="806.64" r="15.1744" fill="#5BBB35"/>
<circle cx="1141" cy="806.64" r="15.1744" fill="#5BBB35"/>
<circle cx="1169.33" cy="806.64" r="15.1744" fill="#5BBB35"/>
<circle cx="1197.65" cy="806.64" r="15.1744" fill="#5BBB35"/>
<circle cx="1225.98" cy="806.64" r="15.1744" fill="#5BBB35"/>
<circle cx="1254.3" cy="806.64" r="15.1744" fill="#5BBB35"/>
<circle cx="1282.63" cy="806.64" r="15.1744" fill="#5BBB35"/>
<circle cx="1310.95" cy="806.64" r="15.1744" fill="#5BBB35"/>
<circle cx="1339.28" cy="806.64" r="15.1744" fill="#5BBB35"/>
<circle cx="1367.6" cy="806.64" r="15.1744" fill="#5BBB35"/>
<circle cx="1395.93" cy="806.64" r="15.1744" fill="#5BBB35"/>
<circle cx="1424.26" cy="806.64" r="15.1744" fill="#5BBB35"/>
<circle cx="1452.58" cy="806.64" r="15.1744" fill="#5BBB35"/>
<circle cx="1480.91" cy="806.64" r="15.1744" fill="#5BBB35"/>
<circle cx="1424.26" cy="806.64" r="15.1744" fill="#5BBB35"/>
<circle cx="1452.58" cy="806.64" r="15.1744" fill="#5BBB35"/>
<circle cx="1480.91" cy="806.64" r="15.1744" fill="#5BBB35"/>
<circle cx="1509.23" cy="806.64" r="15.1744" fill="#5BBB35"/>
<circle cx="1537.56" cy="806.64" r="15.1744" fill="#5BBB35"/>
<circle cx="1565.88" cy="806.64" r="15.1744" fill="#5BBB35"/>
<circle cx="1594.21" cy="806.64" r="15.1744" fill="#5BBB35"/>
<path fill-rule="evenodd" clip-rule="evenodd" d="M7.97791 821.814C16.3585 821.814 23.1523 815.02 23.1523 806.64C23.1523 798.259 16.3585 791.465 7.97791 791.465C1.52165 791.465 -3.99287 795.497 -6.18494 801.181V812.099C-3.99287 817.782 1.52165 821.814 7.97791 821.814Z" fill="#5BBB35"/>
<rect x="299.304" y="669.732" width="733.001" height="35.2699" rx="17.635" fill="#0F8C48"/>
<path d="M481.787 664.365C481.787 685.115 464.966 701.935 444.217 701.935C423.468 701.935 406.647 685.115 406.647 664.365C406.647 643.616 423.468 626.795 444.217 626.795C464.966 626.795 481.787 643.616 481.787 664.365Z" fill="#0F8C48"/>
<path d="M420.448 667.432C420.448 678.865 411.18 688.134 399.746 688.134C388.313 688.134 379.044 678.865 379.044 667.432C379.044 655.999 388.313 646.73 399.746 646.73C411.18 646.73 420.448 655.999 420.448 667.432Z" fill="#0F8C48"/>
<path d="M832.953 575.66L918.061 520.985L1003.17 575.66V688.134H832.953V575.66Z" fill="#F9B07B"/>
<rect x="541.593" y="416.709" width="58.272" height="271.425" fill="#CE7C44"/>
<rect x="599.865" y="416.709" width="69.0063" height="271.425" fill="#F9B07B"/>
<rect x="533.925" y="402.908" width="65.9394" height="16.8682" fill="#F9B07B"/>
<rect x="599.865" y="402.908" width="76.6737" height="16.8682" fill="#FDD6AF"/>
<path d="M714.108 510.251H918.827L816.851 573.124H615.199L714.108 510.251Z" fill="#F79652"/>
<rect x="619.8" y="574.657" width="213.153" height="113.477" fill="#BA6E3A"/>
<rect width="12.2678" height="123.254" transform="matrix(-0.529191 0.848503 0.848503 0.529191 917.652 508.718)" fill="#FCD6AD"/>
<path d="M615.199 573.124H823.752V583.858L619.8 583.091L615.199 573.124Z" fill="#CE7C44"/>
<rect x="917.126" y="510.273" width="12.2678" height="120.316" transform="rotate(58.0492 917.126 510.273)" fill="#FCD6AD"/>
<path d="M892.758 628.393C892.758 617.348 901.713 608.393 912.758 608.393H924.896C935.942 608.393 944.896 617.348 944.896 628.393V688.134H892.758V628.393Z" fill="#FFF6A3"/>
<path d="M751.679 630.629C751.679 623.43 757.514 617.594 764.713 617.594V617.594C771.912 617.594 777.748 623.43 777.748 630.629V657.465H751.679V630.629Z" fill="#FFF6A3"/>
<path d="M690.34 630.629C690.34 623.43 696.175 617.594 703.374 617.594V617.594C710.573 617.594 716.409 623.43 716.409 630.629V657.465H690.34V630.629Z" fill="#FFF6A3"/>
<path d="M1444.51 420.444L1472.06 582.137C1472.32 583.664 1471.14 585.057 1469.59 585.057H1414.5C1412.95 585.057 1411.78 583.664 1412.04 582.137L1439.58 420.444C1440.05 417.67 1444.04 417.67 1444.51 420.444Z" fill="#21C4AF" stroke="#21C4AF"/>
<path d="M1406.73 486.185L1430.84 581.947C1431.24 583.526 1430.04 585.057 1428.41 585.057H1380.2C1378.57 585.057 1377.38 583.526 1377.78 581.947L1401.88 486.185C1402.52 483.665 1406.1 483.665 1406.73 486.185Z" fill="#21C4AF" stroke="#21C4AF"/>
<path d="M1486.07 464.1L1513.05 581.999C1513.41 583.565 1512.22 585.057 1510.62 585.057H1456.64C1455.04 585.057 1453.85 583.565 1454.21 581.999L1481.19 464.1C1481.79 461.511 1485.47 461.511 1486.07 464.1Z" fill="#21C4AF" stroke="#21C4AF"/>
<path d="M1524.09 531.254L1541.22 581.754C1541.77 583.375 1540.56 585.057 1538.85 585.057H1504.59C1502.88 585.057 1501.67 583.375 1502.22 581.754L1519.35 531.254C1520.12 528.992 1523.32 528.992 1524.09 531.254Z" fill="#21C4AF" stroke="#21C4AF"/>
<path d="M1238.71 288.158L1238.59 273.02C1238.51 262.459 1232.57 252.818 1223.17 248C1215.07 263.801 1221.31 283.178 1237.11 291.279C1252.91 299.381 1272.29 293.137 1280.39 277.336C1270.99 272.517 1259.69 273.319 1251.07 279.417L1238.71 288.158Z" fill="#009BA0"/>
<path d="M1329.21 469.05L1322.98 461.893C1318.64 456.901 1311.88 454.735 1305.44 456.272C1308.03 467.093 1318.9 473.771 1329.72 471.187C1340.54 468.602 1347.22 457.734 1344.63 446.913C1338.19 448.451 1333.14 453.436 1331.53 459.853L1329.21 469.05Z" fill="#009BA0"/>
<path d="M1187.17 396.759L1187.1 406.164C1187.05 412.725 1183.36 418.715 1177.52 421.708C1172.48 411.892 1176.36 399.853 1186.18 394.821C1196 389.787 1208.03 393.666 1213.07 403.483C1207.23 406.477 1200.21 405.978 1194.85 402.19L1187.17 396.759Z" fill="#009BA0"/>
</g>
<defs>
<linearGradient id="paint0_linear_201_2" x1="800" y1="0" x2="800" y2="720" gradientUnits="userSpaceOnUse">
<stop stop-color="#6999FF"/>
<stop offset="1" stop-color="#B1E1F8"/>
</linearGradient>
<clipPath id="clip0_201_2">
<rect width="1600" height="900" fill="white"/>
</clipPath>
</defs>
</svg>
