<svg width="1600" height="900" viewBox="0 0 1600 900" fill="none" xmlns="http://www.w3.org/2000/svg">
<rect width="1600" height="900" fill="#D9D9D9"/>
<rect x="509.492" y="506.952" width="55.0031" height="165.009" fill="#A78966"/>
<rect x="564.496" y="506.952" width="55.0031" height="165.009" fill="#957856"/>
<rect x="619.498" y="506.952" width="55.0031" height="165.009" fill="#A78966"/>
<rect x="647.001" y="506.952" width="27.5015" height="165.009" fill="#957856"/>
<rect x="674.503" y="506.952" width="55.0031" height="165.009" fill="#816952"/>
<rect x="729.505" y="506.952" width="55.0031" height="165.009" fill="#957856"/>
<rect x="728.474" y="717.893" width="286.016" height="38.5022" transform="rotate(-129.124 728.474 717.893)" fill="#7F8189"/>
<path fill-rule="evenodd" clip-rule="evenodd" d="M647.001 617.727V556.71L758.343 693.597L728.474 717.892L647.001 617.727Z" fill="#5D5F66"/>
<rect x="498.492" y="671.963" width="297.017" height="55.0031" fill="#816952"/>
<rect x="498.492" y="671.963" width="148.508" height="55.0031" fill="#957856"/>
<rect x="498.492" y="451.95" width="297.017" height="55.0031" fill="#816952"/>
<rect x="498.492" y="451.95" width="148.508" height="55.0031" fill="#957856"/>
<rect x="649.492" y="226.952" width="55.0031" height="165.009" fill="#A78966"/>
<rect x="704.496" y="226.952" width="55.0031" height="165.009" fill="#957856"/>
<rect x="759.498" y="226.952" width="55.0031" height="165.009" fill="#A78966"/>
<rect x="787.001" y="226.952" width="27.5015" height="165.009" fill="#957856"/>
<rect x="814.503" y="226.952" width="55.0031" height="165.009" fill="#816952"/>
<rect x="869.505" y="226.952" width="55.0031" height="165.009" fill="#957856"/>
<rect x="868.474" y="437.893" width="286.016" height="38.5022" transform="rotate(-129.124 868.474 437.893)" fill="#7F8189"/>
<path fill-rule="evenodd" clip-rule="evenodd" d="M787.001 337.727V276.71L898.343 413.597L868.474 437.892L787.001 337.727Z" fill="#5D5F66"/>
<rect x="638.492" y="391.963" width="297.017" height="55.0031" fill="#816952"/>
<rect x="638.492" y="391.963" width="148.508" height="55.0031" fill="#957856"/>
<rect x="638.492" y="171.95" width="297.017" height="55.0031" fill="#816952"/>
<rect x="638.492" y="171.95" width="148.508" height="55.0031" fill="#957856"/>
<rect x="816.492" y="506.952" width="55.0031" height="165.009" fill="#A78966"/>
<rect x="871.496" y="506.952" width="55.0031" height="165.009" fill="#957856"/>
<rect x="926.498" y="506.952" width="55.0031" height="165.009" fill="#A78966"/>
<rect x="954.001" y="506.952" width="27.5015" height="165.009" fill="#957856"/>
<rect x="981.503" y="506.952" width="55.0031" height="165.009" fill="#816952"/>
<rect x="1036.5" y="506.952" width="55.0031" height="165.009" fill="#957856"/>
<rect x="1035.47" y="717.893" width="286.016" height="38.5022" transform="rotate(-129.124 1035.47 717.893)" fill="#7F8189"/>
<path fill-rule="evenodd" clip-rule="evenodd" d="M954.001 617.727V556.71L1065.34 693.597L1035.47 717.892L954.001 617.727Z" fill="#5D5F66"/>
<rect x="805.492" y="671.963" width="297.017" height="55.0031" fill="#816952"/>
<rect x="805.492" y="671.963" width="148.508" height="55.0031" fill="#957856"/>
<rect x="805.492" y="451.95" width="297.017" height="55.0031" fill="#816952"/>
<rect x="805.492" y="451.95" width="148.508" height="55.0031" fill="#957856"/>
</svg>
