<svg width="1600" height="900" viewBox="0 0 1600 900" fill="none" xmlns="http://www.w3.org/2000/svg">
<g clip-path="url(#clip0_12_240)">
<rect width="1600" height="900" fill="white"/>
<rect width="1600" height="536" fill="url(#paint0_linear_12_240)"/>
<circle cx="1069" cy="181" r="96" fill="#FCEA9E"/>
<circle opacity="0.3" cx="1069" cy="181" r="155" fill="#FCEA9E"/>
<circle opacity="0.1" cx="1069" cy="181" r="269" fill="#FCEA9E"/>
<circle cx="1009.07" cy="278.697" r="47.6971" fill="#C2FFFF"/>
<circle cx="942.36" cy="297.87" r="32.2278" fill="#C2FFFF"/>
<ellipse cx="858.604" cy="305.805" rx="27.5979" ry="28.3241" fill="#C2FFFF"/>
<circle cx="900.146" cy="308.347" r="20.6258" fill="#C2FFFF"/>
<circle cx="824.034" cy="314.084" r="20.6258" fill="#C2FFFF"/>
<circle cx="1058.05" cy="309.636" r="24.4931" fill="#C2FFFF"/>
<rect x="770" y="307.984" width="341.342" height="29.0504" rx="14.5252" fill="#C2FFFF"/>
<circle cx="338.692" cy="232.769" r="59.7692" fill="#C2FFFF"/>
<circle cx="251.462" cy="258.615" r="40.3846" fill="#C2FFFF"/>
<circle cx="194.923" cy="269.923" r="25.8462" fill="#C2FFFF"/>
<circle cx="400.077" cy="271.539" r="30.6923" fill="#C2FFFF"/>
<rect x="98" y="266.692" width="378" height="35.5385" rx="17.7692" fill="#C2FFFF"/>
<ellipse cx="875.323" cy="686.153" rx="602.986" ry="238.658" transform="rotate(1.57621 875.323 686.153)" fill="#21C4AF"/>
<ellipse cx="1230.86" cy="696.373" rx="694.886" ry="238.658" transform="rotate(-8.643 1230.86 696.373)" fill="#119B60"/>
<path fill-rule="evenodd" clip-rule="evenodd" d="M1139.25 669.448H-73V507.46C107.052 475.805 374.437 484.007 665.948 538.693C842.276 571.772 1004.21 617.502 1139.25 669.448Z" fill="#1BAD42"/>
<rect x="266" y="589" width="10" height="47" fill="#EDB07A"/>
<rect x="303" y="589" width="10" height="47" fill="#EDB07A"/>
<rect x="340" y="589" width="10" height="47" fill="#EDB07A"/>
<rect x="377" y="589" width="10" height="47" fill="#EDB07A"/>
<rect x="414" y="589" width="10" height="47" fill="#EDB07A"/>
<rect x="451" y="589" width="10" height="47" fill="#EDB07A"/>
<rect x="266" y="596" width="195" height="7" fill="#EDB07A"/>
<rect x="266" y="610" width="195" height="7" fill="#EDB07A"/>
<rect x="81" y="589" width="10" height="47" fill="#EDB07A"/>
<rect x="118" y="589" width="10" height="47" fill="#EDB07A"/>
<rect x="155" y="589" width="10" height="47" fill="#EDB07A"/>
<rect x="192" y="589" width="10" height="47" fill="#EDB07A"/>
<rect x="229" y="589" width="10" height="47" fill="#EDB07A"/>
<rect x="266" y="589" width="10" height="47" fill="#EDB07A"/>
<rect x="81" y="596" width="195" height="7" fill="#EDB07A"/>
<rect x="81" y="610" width="195" height="7" fill="#EDB07A"/>
<rect x="7" y="589" width="10" height="47" fill="#EDB07A"/>
<rect x="44" y="589" width="10" height="47" fill="#EDB07A"/>
<rect x="81" y="589" width="10" height="47" fill="#EDB07A"/>
<rect x="-104" y="596" width="195" height="7" fill="#EDB07A"/>
<rect x="-104" y="610" width="195" height="7" fill="#EDB07A"/>
<rect x="1120" y="589" width="10" height="47" fill="#EDB07A"/>
<rect x="1157" y="589" width="10" height="47" fill="#EDB07A"/>
<rect x="1194" y="589" width="10" height="47" fill="#EDB07A"/>
<rect x="1231" y="589" width="10" height="47" fill="#EDB07A"/>
<rect x="1268" y="589" width="10" height="47" fill="#EDB07A"/>
<rect x="1305" y="589" width="10" height="47" fill="#EDB07A"/>
<rect x="1120" y="596" width="195" height="7" fill="#EDB07A"/>
<rect x="1120" y="610" width="195" height="7" fill="#EDB07A"/>
<rect x="935" y="589" width="10" height="47" fill="#EDB07A"/>
<rect x="972" y="589" width="10" height="47" fill="#EDB07A"/>
<rect x="1009" y="589" width="10" height="47" fill="#EDB07A"/>
<rect x="1046" y="589" width="10" height="47" fill="#EDB07A"/>
<rect x="1083" y="589" width="10" height="47" fill="#EDB07A"/>
<rect x="1120" y="589" width="10" height="47" fill="#EDB07A"/>
<rect x="935" y="596" width="195" height="7" fill="#EDB07A"/>
<rect x="935" y="610" width="195" height="7" fill="#EDB07A"/>
<rect x="1490" y="589" width="10" height="47" fill="#EDB07A"/>
<rect x="1527" y="589" width="10" height="47" fill="#EDB07A"/>
<rect x="1564" y="589" width="10" height="47" fill="#EDB07A"/>
<rect x="1490" y="596" width="195" height="7" fill="#EDB07A"/>
<rect x="1490" y="610" width="195" height="7" fill="#EDB07A"/>
<rect x="1305" y="589" width="10" height="47" fill="#EDB07A"/>
<rect x="1342" y="589" width="10" height="47" fill="#EDB07A"/>
<rect x="1379" y="589" width="10" height="47" fill="#EDB07A"/>
<rect x="1416" y="589" width="10" height="47" fill="#EDB07A"/>
<rect x="1453" y="589" width="10" height="47" fill="#EDB07A"/>
<rect x="1490" y="589" width="10" height="47" fill="#EDB07A"/>
<rect x="1305" y="596" width="195" height="7" fill="#EDB07A"/>
<rect x="1305" y="610" width="195" height="7" fill="#EDB07A"/>
<rect x="750" y="589" width="10" height="47" fill="#EDB07A"/>
<rect x="787" y="589" width="10" height="47" fill="#EDB07A"/>
<rect x="824" y="589" width="10" height="47" fill="#EDB07A"/>
<rect x="861" y="589" width="10" height="47" fill="#EDB07A"/>
<rect x="898" y="589" width="10" height="47" fill="#EDB07A"/>
<rect x="935" y="589" width="10" height="47" fill="#EDB07A"/>
<rect x="750" y="596" width="195" height="7" fill="#EDB07A"/>
<rect x="750" y="610" width="195" height="7" fill="#EDB07A"/>
<rect y="636" width="1600" height="294" fill="#5BBB35"/>
<circle cx="42" cy="641" r="15" fill="#5BBB35"/>
<circle cx="70" cy="641" r="15" fill="#5BBB35"/>
<circle cx="98" cy="641" r="15" fill="#5BBB35"/>
<circle cx="126" cy="641" r="15" fill="#5BBB35"/>
<circle cx="154" cy="641" r="15" fill="#5BBB35"/>
<circle cx="182" cy="641" r="15" fill="#5BBB35"/>
<circle cx="210" cy="641" r="15" fill="#5BBB35"/>
<circle cx="238" cy="641" r="15" fill="#5BBB35"/>
<circle cx="266" cy="641" r="15" fill="#5BBB35"/>
<circle cx="294" cy="641" r="15" fill="#5BBB35"/>
<circle cx="322" cy="641" r="15" fill="#5BBB35"/>
<circle cx="350" cy="641" r="15" fill="#5BBB35"/>
<circle cx="378" cy="641" r="15" fill="#5BBB35"/>
<circle cx="406" cy="641" r="15" fill="#5BBB35"/>
<circle cx="434" cy="641" r="15" fill="#5BBB35"/>
<circle cx="462" cy="641" r="15" fill="#5BBB35"/>
<circle cx="490" cy="641" r="15" fill="#5BBB35"/>
<circle cx="518" cy="641" r="15" fill="#5BBB35"/>
<circle cx="546" cy="641" r="15" fill="#5BBB35"/>
<circle cx="574" cy="641" r="15" fill="#5BBB35"/>
<circle cx="602" cy="641" r="15" fill="#5BBB35"/>
<circle cx="630" cy="641" r="15" fill="#5BBB35"/>
<circle cx="658" cy="641" r="15" fill="#5BBB35"/>
<circle cx="686" cy="641" r="15" fill="#5BBB35"/>
<circle cx="714" cy="641" r="15" fill="#5BBB35"/>
<circle cx="742" cy="641" r="15" fill="#5BBB35"/>
<circle cx="770" cy="641" r="15" fill="#5BBB35"/>
<circle cx="798" cy="641" r="15" fill="#5BBB35"/>
<circle cx="826" cy="641" r="15" fill="#5BBB35"/>
<circle cx="854" cy="641" r="15" fill="#5BBB35"/>
<circle cx="882" cy="641" r="15" fill="#5BBB35"/>
<circle cx="910" cy="641" r="15" fill="#5BBB35"/>
<circle cx="938" cy="641" r="15" fill="#5BBB35"/>
<circle cx="966" cy="641" r="15" fill="#5BBB35"/>
<circle cx="994" cy="641" r="15" fill="#5BBB35"/>
<circle cx="1022" cy="641" r="15" fill="#5BBB35"/>
<circle cx="1050" cy="641" r="15" fill="#5BBB35"/>
<circle cx="1078" cy="641" r="15" fill="#5BBB35"/>
<circle cx="1106" cy="641" r="15" fill="#5BBB35"/>
<circle cx="1134" cy="641" r="15" fill="#5BBB35"/>
<circle cx="1162" cy="641" r="15" fill="#5BBB35"/>
<circle cx="1190" cy="641" r="15" fill="#5BBB35"/>
<circle cx="1218" cy="641" r="15" fill="#5BBB35"/>
<circle cx="1246" cy="641" r="15" fill="#5BBB35"/>
<circle cx="1274" cy="641" r="15" fill="#5BBB35"/>
<circle cx="1302" cy="641" r="15" fill="#5BBB35"/>
<circle cx="1330" cy="641" r="15" fill="#5BBB35"/>
<circle cx="1358" cy="641" r="15" fill="#5BBB35"/>
<circle cx="1386" cy="641" r="15" fill="#5BBB35"/>
<circle cx="1414" cy="641" r="15" fill="#5BBB35"/>
<circle cx="1442" cy="641" r="15" fill="#5BBB35"/>
<circle cx="1470" cy="641" r="15" fill="#5BBB35"/>
<circle cx="1414" cy="641" r="15" fill="#5BBB35"/>
<circle cx="1442" cy="641" r="15" fill="#5BBB35"/>
<circle cx="1470" cy="641" r="15" fill="#5BBB35"/>
<circle cx="1498" cy="641" r="15" fill="#5BBB35"/>
<circle cx="1526" cy="641" r="15" fill="#5BBB35"/>
<circle cx="1554" cy="641" r="15" fill="#5BBB35"/>
<circle cx="1582" cy="641" r="15" fill="#5BBB35"/>
<path fill-rule="evenodd" clip-rule="evenodd" d="M1600 629.819V652.181C1596.93 649.434 1595 645.442 1595 641C1595 636.557 1596.93 632.566 1600 629.819Z" fill="#5BBB35"/>
<path fill-rule="evenodd" clip-rule="evenodd" d="M14 656C22.2843 656 29 649.284 29 641C29 632.716 22.2843 626 14 626C7.61801 626 2.16691 629.986 0 635.604V646.396C2.16691 652.014 7.61801 656 14 656Z" fill="#5BBB35"/>
<rect x="696.256" y="852.651" width="71.6277" height="7.16277" rx="3.58138" fill="#1A9E38"/>
<rect x="665" y="805.767" width="50.1394" height="19.5348" rx="9.76741" fill="#325163"/>
<rect x="675.419" y="798.059" width="5.20929" height="13.0232" rx="2.60464" transform="rotate(-23.2863 675.419 798.059)" fill="#325163"/>
<rect width="5.20929" height="13.0232" rx="2.60464" transform="matrix(-0.918541 -0.395326 -0.395326 0.918541 691.864 798.059)" fill="#325163"/>
<rect x="710.581" y="831.163" width="4.55813" height="25.3953" fill="#325163"/>
<rect x="719.046" y="831.163" width="4.55813" height="25.3953" fill="#325163"/>
<rect x="747.697" y="831.163" width="4.55813" height="25.3953" fill="#325163"/>
<rect x="739.232" y="831.163" width="4.55813" height="25.3953" fill="#325163"/>
<path fill-rule="evenodd" clip-rule="evenodd" d="M732.069 844.186C735.78 844.186 739.007 842.117 740.66 839.07C742.271 840.24 744.252 840.93 746.395 840.93C751.79 840.93 756.163 836.557 756.163 831.163C756.163 830.711 756.132 830.267 756.073 829.833C756.317 829.851 756.564 829.86 756.814 829.86C762.208 829.86 766.581 825.487 766.581 820.093C766.581 817.95 765.891 815.968 764.721 814.358C767.768 812.705 769.837 809.478 769.837 805.767C769.837 802.189 767.912 799.059 765.042 797.358C766.016 795.839 766.581 794.032 766.581 792.093C766.581 786.699 762.208 782.326 756.814 782.326C756.564 782.326 756.317 782.335 756.073 782.353C756.132 781.918 756.163 781.474 756.163 781.023C756.163 775.629 751.79 771.256 746.395 771.256C744.252 771.256 742.271 771.946 740.66 773.116C739.007 770.069 735.78 768 732.069 768C728.491 768 725.362 769.925 723.661 772.795C722.141 771.821 720.334 771.256 718.395 771.256C713.001 771.256 708.628 775.629 708.628 781.023C708.628 781.474 708.658 781.918 708.718 782.353C708.473 782.335 708.226 782.326 707.976 782.326C702.582 782.326 698.209 786.699 698.209 792.093C698.209 794.032 698.774 795.839 699.749 797.358C696.878 799.06 694.953 802.189 694.953 805.767C694.953 809.478 697.022 812.705 700.069 814.358C698.899 815.968 698.209 817.95 698.209 820.093C698.209 825.487 702.582 829.86 707.976 829.86C708.226 829.86 708.473 829.851 708.718 829.833C708.658 830.267 708.628 830.711 708.628 831.163C708.628 836.557 713.001 840.93 718.395 840.93C720.334 840.93 722.141 840.365 723.661 839.391C725.362 842.261 728.491 844.186 732.069 844.186Z" fill="#E9E0E5"/>
<path fill-rule="evenodd" clip-rule="evenodd" d="M697.558 799.272C699.282 805.64 705.102 810.325 712.016 810.325C714.639 810.325 717.104 809.651 719.249 808.466C722.223 812.367 726.918 814.884 732.202 814.884C737.726 814.884 742.608 812.131 745.551 807.923C747.894 809.443 750.689 810.325 753.69 810.325C760.391 810.325 766.064 805.924 767.977 799.855C767.214 798.853 766.262 798.003 765.174 797.358C766.148 795.839 766.713 794.032 766.713 792.093C766.713 786.699 762.34 782.326 756.946 782.326C756.696 782.326 756.449 782.335 756.205 782.353C756.264 781.918 756.295 781.474 756.295 781.023C756.295 780.88 756.291 780.738 756.285 780.596C756.062 775.4 751.778 771.256 746.527 771.256C744.384 771.256 742.403 771.946 740.792 773.116C739.139 770.069 735.912 768 732.202 768C728.623 768 725.494 769.925 723.793 772.795C722.273 771.821 720.466 771.256 718.527 771.256C713.47 771.256 709.31 775.099 708.81 780.025C708.787 780.256 708.771 780.49 708.764 780.726C708.761 780.825 708.76 780.924 708.76 781.023C708.76 781.474 708.79 781.918 708.85 782.353C708.605 782.335 708.358 782.326 708.109 782.326C702.714 782.326 698.341 786.699 698.341 792.093C698.341 794.032 698.906 795.839 699.881 797.358C699.01 797.874 698.227 798.521 697.558 799.272Z" fill="#F7F7F7"/>
<rect width="63.8263" height="6.38263" rx="3.19131" transform="matrix(-1 0 0 1 1221.57 805.431)" fill="#1A9E38"/>
<rect width="44.6784" height="17.4072" rx="8.70358" transform="matrix(-1 0 0 1 1249.42 763.654)" fill="#325163"/>
<rect width="4.64191" height="11.6048" rx="2.32096" transform="matrix(-0.918541 -0.395326 -0.395326 0.918541 1240.13 756.785)" fill="#325163"/>
<rect x="1225.48" y="756.785" width="4.64191" height="11.6048" rx="2.32096" transform="rotate(-23.2863 1225.48 756.785)" fill="#325163"/>
<rect width="4.06167" height="22.6293" transform="matrix(-1 0 0 1 1208.8 786.283)" fill="#325163"/>
<rect width="4.06167" height="22.6293" transform="matrix(-1 0 0 1 1201.26 786.283)" fill="#325163"/>
<rect width="4.06167" height="22.6293" transform="matrix(-1 0 0 1 1175.73 786.283)" fill="#325163"/>
<rect width="4.06167" height="22.6293" transform="matrix(-1 0 0 1 1183.27 786.283)" fill="#325163"/>
<path fill-rule="evenodd" clip-rule="evenodd" d="M1189.65 797.888C1186.35 797.888 1183.47 796.044 1182 793.329C1180.56 794.372 1178.8 794.987 1176.89 794.987C1172.08 794.987 1168.18 791.09 1168.18 786.283C1168.18 785.881 1168.21 785.486 1168.26 785.098C1168.05 785.114 1167.83 785.123 1167.6 785.123C1162.8 785.123 1158.9 781.226 1158.9 776.419C1158.9 774.51 1159.52 772.744 1160.56 771.309C1157.84 769.836 1156 766.96 1156 763.654C1156 760.465 1157.71 757.677 1160.27 756.161C1159.4 754.807 1158.9 753.197 1158.9 751.469C1158.9 746.662 1162.8 742.765 1167.6 742.765C1167.83 742.765 1168.05 742.774 1168.26 742.79C1168.21 742.402 1168.18 742.007 1168.18 741.605C1168.18 736.798 1172.08 732.901 1176.89 732.901C1178.8 732.901 1180.56 733.516 1182 734.559C1183.47 731.843 1186.35 730 1189.65 730C1192.84 730 1195.63 731.715 1197.15 734.273C1198.5 733.405 1200.11 732.901 1201.84 732.901C1206.65 732.901 1210.54 736.798 1210.54 741.605C1210.54 742.007 1210.52 742.402 1210.46 742.79C1210.68 742.774 1210.9 742.765 1211.12 742.765C1215.93 742.765 1219.83 746.662 1219.83 751.469C1219.83 753.197 1219.32 754.807 1218.45 756.161C1221.01 757.677 1222.73 760.465 1222.73 763.654C1222.73 766.96 1220.88 769.836 1218.17 771.309C1219.21 772.744 1219.83 774.51 1219.83 776.419C1219.83 781.226 1215.93 785.123 1211.12 785.123C1210.9 785.123 1210.68 785.114 1210.46 785.098C1210.52 785.486 1210.54 785.881 1210.54 786.283C1210.54 791.09 1206.65 794.987 1201.84 794.987C1200.11 794.987 1198.5 794.483 1197.15 793.615C1195.63 796.173 1192.84 797.888 1189.65 797.888Z" fill="#E9E0E5"/>
<path fill-rule="evenodd" clip-rule="evenodd" d="M1220.41 757.866C1218.87 763.541 1213.68 767.716 1207.52 767.716C1205.19 767.716 1202.99 767.115 1201.08 766.059C1198.43 769.534 1194.24 771.777 1189.54 771.777C1184.61 771.777 1180.26 769.325 1177.64 765.575C1175.55 766.929 1173.06 767.716 1170.39 767.716C1164.42 767.716 1159.36 763.794 1157.66 758.385C1158.34 757.493 1159.19 756.735 1160.16 756.161C1159.29 754.807 1158.78 753.197 1158.78 751.469C1158.78 746.662 1162.68 742.765 1167.49 742.765C1167.71 742.765 1167.93 742.774 1168.15 742.79C1168.09 742.402 1168.07 742.007 1168.07 741.605C1168.07 741.477 1168.07 741.35 1168.08 741.224C1168.27 736.594 1172.09 732.901 1176.77 732.901C1178.68 732.901 1180.45 733.516 1181.88 734.559C1183.35 731.843 1186.23 730 1189.54 730C1192.73 730 1195.51 731.715 1197.03 734.273C1198.38 733.405 1199.99 732.901 1201.72 732.901C1206.23 732.901 1209.93 736.326 1210.38 740.715C1210.4 740.921 1210.41 741.13 1210.42 741.34C1210.42 741.428 1210.42 741.516 1210.42 741.605C1210.42 742.007 1210.4 742.402 1210.34 742.79C1210.56 742.774 1210.78 742.765 1211.01 742.765C1215.81 742.765 1219.71 746.662 1219.71 751.469C1219.71 753.197 1219.21 754.807 1218.34 756.161C1219.11 756.62 1219.81 757.197 1220.41 757.866Z" fill="#F7F7F7"/>
<rect width="56.0248" height="5.60248" rx="2.80124" transform="matrix(-1 0 0 1 452.553 739.211)" fill="#1A9E38"/>
<rect width="39.2174" height="15.2795" rx="7.63975" transform="matrix(-0.964561 0.263859 0.263859 0.964561 474.828 695.231)" fill="#325163"/>
<rect width="4.07453" height="10.1863" rx="2.03727" transform="matrix(-0.990299 -0.138951 -0.138951 0.990299 465.377 691.566)" fill="#325163"/>
<rect x="452.97" y="694.96" width="4.07453" height="10.1863" rx="2.03727" transform="rotate(-38.5854 452.97 694.96)" fill="#325163"/>
<rect width="3.56522" height="19.8634" transform="matrix(-1 0 0 1 441.348 722.404)" fill="#325163"/>
<rect width="3.56522" height="19.8634" transform="matrix(-1 0 0 1 434.727 722.404)" fill="#325163"/>
<rect width="3.56522" height="19.8634" transform="matrix(-1 0 0 1 412.317 722.404)" fill="#325163"/>
<rect width="3.56522" height="19.8634" transform="matrix(-1 0 0 1 418.938 722.404)" fill="#325163"/>
<path fill-rule="evenodd" clip-rule="evenodd" d="M424.54 732.59C421.638 732.59 419.114 730.972 417.821 728.589C416.561 729.504 415.011 730.043 413.335 730.043C409.116 730.043 405.696 726.623 405.696 722.404C405.696 722.051 405.72 721.704 405.766 721.363C405.575 721.378 405.381 721.385 405.186 721.385C400.967 721.385 397.547 717.965 397.547 713.745C397.547 712.069 398.086 710.519 399.001 709.26C396.618 707.967 395 705.442 395 702.54C395 699.741 396.505 697.294 398.751 695.963C397.989 694.775 397.547 693.361 397.547 691.845C397.547 687.625 400.967 684.205 405.186 684.205C405.381 684.205 405.575 684.212 405.766 684.227C405.72 683.886 405.696 683.539 405.696 683.186C405.696 678.967 409.116 675.547 413.335 675.547C415.011 675.547 416.561 676.086 417.821 677.001C419.114 674.618 421.638 673 424.54 673C427.339 673 429.787 674.505 431.118 676.751C432.306 675.989 433.719 675.547 435.236 675.547C439.455 675.547 442.876 678.967 442.876 683.186C442.876 683.539 442.852 683.886 442.806 684.227C442.997 684.212 443.19 684.205 443.385 684.205C447.604 684.205 451.025 687.625 451.025 691.845C451.025 693.361 450.583 694.775 449.821 695.963C452.066 697.294 453.571 699.741 453.571 702.54C453.571 705.442 451.953 707.967 449.57 709.26C450.485 710.519 451.025 712.069 451.025 713.745C451.025 717.965 447.604 721.385 443.385 721.385C443.19 721.385 442.997 721.378 442.806 721.363C442.852 721.704 442.876 722.051 442.876 722.404C442.876 726.623 439.455 730.043 435.236 730.043C433.719 730.043 432.306 729.602 431.118 728.839C429.787 731.085 427.339 732.59 424.54 732.59Z" fill="#E9E0E5"/>
<path fill-rule="evenodd" clip-rule="evenodd" d="M451.534 697.46C450.186 702.441 445.634 706.106 440.226 706.106C438.174 706.106 436.246 705.578 434.569 704.651C432.242 707.702 428.57 709.671 424.437 709.671C420.116 709.671 416.297 707.518 413.995 704.227C412.163 705.415 409.977 706.106 407.63 706.106C402.388 706.106 397.951 702.663 396.455 697.916C397.052 697.132 397.796 696.468 398.647 695.963C397.885 694.775 397.443 693.361 397.443 691.845C397.443 687.625 400.864 684.205 405.083 684.205C405.278 684.205 405.471 684.212 405.663 684.227C405.616 683.886 405.592 683.539 405.592 683.186C405.592 683.074 405.595 682.963 405.6 682.852C405.774 678.788 409.125 675.547 413.232 675.547C414.699 675.547 416.069 675.96 417.232 676.676C417.398 676.778 417.56 676.887 417.718 677.001C419.011 674.618 421.535 673 424.437 673C427.236 673 429.684 674.505 431.014 676.751C432.203 675.989 433.616 675.547 435.133 675.547C439.088 675.547 442.342 678.553 442.733 682.405C442.751 682.586 442.764 682.769 442.769 682.954C442.771 683.031 442.773 683.109 442.773 683.186C442.773 683.539 442.749 683.886 442.702 684.227C442.894 684.212 443.087 684.205 443.282 684.205C447.501 684.205 450.922 687.625 450.922 691.845C450.922 693.361 450.48 694.775 449.718 695.963C450.398 696.367 451.011 696.873 451.534 697.46Z" fill="#F7F7F7"/>
<rect width="52.9043" height="5.29043" rx="2.64521" transform="matrix(-1 0 0 1 890.347 714.523)" fill="#1A9E38"/>
<rect width="37.033" height="14.4284" rx="7.21422" transform="matrix(-0.82296 -0.568099 -0.568099 0.82296 910.071 694.868)" fill="#325163"/>
<rect width="3.84758" height="9.61896" rx="1.92379" transform="matrix(-0.531339 -0.847159 -0.847159 0.531339 906.972 685.811)" fill="#325163"/>
<rect x="896.976" y="678.911" width="3.84758" height="9.61896" rx="1.92379" transform="rotate(11.3315 896.976 678.911)" fill="#325163"/>
<rect width="3.36664" height="18.757" transform="matrix(-1 0 0 1 879.766 698.652)" fill="#325163"/>
<rect width="3.36664" height="18.757" transform="matrix(-1 0 0 1 873.514 698.652)" fill="#325163"/>
<rect width="3.36664" height="18.757" transform="matrix(-1 0 0 1 852.352 698.652)" fill="#325163"/>
<rect width="3.36664" height="18.757" transform="matrix(-1 0 0 1 858.604 698.652)" fill="#325163"/>
<path fill-rule="evenodd" clip-rule="evenodd" d="M863.895 708.271C861.155 708.271 858.771 706.743 857.55 704.492C856.36 705.356 854.897 705.866 853.314 705.866C849.33 705.866 846.1 702.636 846.1 698.652C846.1 698.319 846.122 697.991 846.166 697.67C845.986 697.683 845.803 697.69 845.619 697.69C841.635 697.69 838.405 694.46 838.405 690.476C838.405 688.893 838.914 687.43 839.778 686.24C837.528 685.019 836 682.635 836 679.895C836 677.252 837.421 674.941 839.542 673.684C838.822 672.562 838.405 671.227 838.405 669.795C838.405 665.811 841.635 662.581 845.619 662.581C845.803 662.581 845.986 662.588 846.166 662.601C846.122 662.28 846.1 661.952 846.1 661.619C846.1 657.635 849.33 654.405 853.314 654.405C854.897 654.405 856.36 654.914 857.55 655.779C858.771 653.528 861.155 652 863.895 652C866.538 652 868.849 653.421 870.106 655.542C871.228 654.822 872.563 654.405 873.995 654.405C877.979 654.405 881.209 657.635 881.209 661.619C881.209 661.952 881.186 662.28 881.143 662.601C881.323 662.588 881.506 662.581 881.69 662.581C885.674 662.581 888.904 665.811 888.904 669.795C888.904 671.227 888.487 672.562 887.767 673.684C889.887 674.941 891.309 677.252 891.309 679.895C891.309 682.635 889.781 685.019 887.531 686.24C888.395 687.43 888.904 688.893 888.904 690.476C888.904 694.46 885.674 697.69 881.69 697.69C881.506 697.69 881.323 697.683 881.143 697.67C881.186 697.991 881.209 698.319 881.209 698.652C881.209 702.636 877.979 705.866 873.995 705.866C872.563 705.866 871.228 705.449 870.106 704.729C868.849 706.849 866.538 708.271 863.895 708.271Z" fill="#E9E0E5"/>
<path fill-rule="evenodd" clip-rule="evenodd" d="M889.385 675.098C888.112 679.801 883.813 683.262 878.707 683.262C876.769 683.262 874.948 682.764 873.364 681.888C871.168 684.769 867.7 686.628 863.797 686.628C859.717 686.628 856.111 684.595 853.937 681.487C852.207 682.61 850.142 683.262 847.926 683.262C842.977 683.262 838.786 680.011 837.374 675.528C837.937 674.788 838.64 674.16 839.444 673.684C838.724 672.562 838.307 671.227 838.307 669.795C838.307 665.811 841.537 662.581 845.521 662.581C845.705 662.581 845.888 662.588 846.069 662.601C846.025 662.28 846.002 661.952 846.002 661.619C846.002 661.513 846.005 661.408 846.009 661.304C846.174 657.466 849.338 654.405 853.216 654.405C854.799 654.405 856.263 654.914 857.452 655.779C858.673 653.528 861.057 652 863.797 652C866.441 652 868.752 653.422 870.008 655.542C871.13 654.822 872.465 654.405 873.897 654.405C877.633 654.405 880.705 657.244 881.074 660.881C881.092 661.052 881.103 661.225 881.108 661.399C881.11 661.472 881.111 661.546 881.111 661.619C881.111 661.952 881.089 662.28 881.045 662.601C881.226 662.588 881.408 662.581 881.592 662.581C885.577 662.581 888.807 665.811 888.807 669.795C888.807 671.227 888.389 672.562 887.67 673.684C888.312 674.065 888.891 674.543 889.385 675.098Z" fill="#F7F7F7"/>
<rect width="66.4241" height="6.64242" rx="3.32121" transform="matrix(-1 0 0 1 246.236 792.501)" fill="#1A9E38"/>
<rect width="46.4969" height="18.1157" rx="9.05784" transform="matrix(-0.82296 -0.568099 -0.568099 0.82296 271 767.824)" fill="#325163"/>
<rect width="4.83085" height="12.0771" rx="2.41542" transform="matrix(-0.531339 -0.847159 -0.847159 0.531339 267.11 756.452)" fill="#325163"/>
<rect x="254.559" y="747.788" width="4.83085" height="12.0771" rx="2.41542" transform="rotate(11.3315 254.559 747.788)" fill="#325163"/>
<rect width="4.22699" height="23.5504" transform="matrix(-1 0 0 1 232.951 772.574)" fill="#325163"/>
<rect width="4.22699" height="23.5504" transform="matrix(-1 0 0 1 225.101 772.574)" fill="#325163"/>
<rect width="4.22699" height="23.5504" transform="matrix(-1 0 0 1 198.531 772.574)" fill="#325163"/>
<rect width="4.22699" height="23.5504" transform="matrix(-1 0 0 1 206.381 772.574)" fill="#325163"/>
<path fill-rule="evenodd" clip-rule="evenodd" d="M213.024 784.651C209.583 784.651 206.59 782.733 205.057 779.907C203.564 780.992 201.726 781.632 199.739 781.632C194.736 781.632 190.681 777.577 190.681 772.574C190.681 772.156 190.709 771.744 190.764 771.341C190.537 771.358 190.308 771.366 190.077 771.366C185.075 771.366 181.019 767.311 181.019 762.308C181.019 760.321 181.659 758.484 182.744 756.99C179.919 755.457 178 752.464 178 749.024C178 745.705 179.785 742.803 182.447 741.226C181.543 739.817 181.019 738.141 181.019 736.343C181.019 731.34 185.075 727.285 190.077 727.285C190.308 727.285 190.537 727.293 190.764 727.31C190.709 726.907 190.681 726.496 190.681 726.077C190.681 721.075 194.736 717.019 199.739 717.019C201.726 717.019 203.564 717.659 205.057 718.744C206.59 715.919 209.583 714 213.024 714C216.342 714 219.244 715.785 220.822 718.447C222.231 717.543 223.906 717.019 225.704 717.019C230.707 717.019 234.762 721.075 234.762 726.077C234.762 726.496 234.734 726.907 234.679 727.31C234.906 727.293 235.135 727.285 235.366 727.285C240.369 727.285 244.424 731.34 244.424 736.343C244.424 738.141 243.9 739.817 242.997 741.226C245.659 742.803 247.443 745.705 247.443 749.024C247.443 752.464 245.525 755.457 242.699 756.99C243.784 758.484 244.424 760.321 244.424 762.308C244.424 767.311 240.369 771.366 235.366 771.366C235.135 771.366 234.906 771.358 234.679 771.341C234.734 771.744 234.762 772.156 234.762 772.574C234.762 777.577 230.707 781.632 225.704 781.632C223.906 781.632 222.231 781.108 220.822 780.205C219.244 782.867 216.342 784.651 213.024 784.651Z" fill="#E9E0E5"/>
<path fill-rule="evenodd" clip-rule="evenodd" d="M245.028 743C243.429 748.906 238.032 753.251 231.621 753.251C229.188 753.251 226.901 752.625 224.913 751.526C222.155 755.143 217.801 757.478 212.901 757.478C207.777 757.478 203.25 754.925 200.521 751.023C198.348 752.432 195.756 753.251 192.974 753.251C186.759 753.251 181.498 749.169 179.725 743.541C180.432 742.612 181.315 741.824 182.324 741.226C181.421 739.817 180.897 738.141 180.897 736.343C180.897 731.34 184.952 727.285 189.954 727.285C190.186 727.285 190.415 727.293 190.642 727.31C190.587 726.907 190.558 726.496 190.558 726.077C190.558 725.944 190.561 725.812 190.567 725.681C190.774 720.862 194.746 717.019 199.616 717.019C201.603 717.019 203.441 717.659 204.934 718.744C206.468 715.919 209.46 714 212.901 714C216.22 714 219.122 715.785 220.699 718.447C222.108 717.543 223.784 717.019 225.582 717.019C230.272 717.019 234.129 720.584 234.593 725.151C234.615 725.366 234.629 725.583 234.636 725.801C234.638 725.893 234.64 725.985 234.64 726.077C234.64 726.496 234.611 726.907 234.557 727.31C234.783 727.293 235.012 727.285 235.244 727.285C240.246 727.285 244.301 731.34 244.301 736.343C244.301 738.141 243.778 739.817 242.874 741.226C243.681 741.704 244.407 742.304 245.028 743Z" fill="#F7F7F7"/>
<rect x="1035.98" y="708.991" width="48.2234" height="4.82234" rx="2.41117" fill="#1A9E38"/>
<rect x="1018" y="691.075" width="33.7564" height="13.1518" rx="6.57592" transform="rotate(-34.6178 1018 691.075)" fill="#325163"/>
<rect x="1020.82" y="682.82" width="3.50716" height="8.7679" rx="1.75358" transform="rotate(-57.904 1020.82 682.82)" fill="#325163"/>
<rect width="3.50716" height="8.7679" rx="1.75358" transform="matrix(-0.980507 0.196485 0.196485 0.980507 1029.94 676.53)" fill="#325163"/>
<rect x="1045.62" y="694.524" width="3.06876" height="17.0974" fill="#325163"/>
<rect x="1051.32" y="694.524" width="3.06876" height="17.0974" fill="#325163"/>
<rect x="1070.61" y="694.524" width="3.06876" height="17.0974" fill="#325163"/>
<rect x="1064.91" y="694.524" width="3.06876" height="17.0974" fill="#325163"/>
<path fill-rule="evenodd" clip-rule="evenodd" d="M1060.09 703.292C1062.59 703.292 1064.76 701.899 1065.87 699.848C1066.96 700.636 1068.29 701.1 1069.74 701.1C1073.37 701.1 1076.31 698.156 1076.31 694.524C1076.31 694.221 1076.29 693.922 1076.25 693.629C1076.42 693.641 1076.58 693.648 1076.75 693.648C1080.38 693.648 1083.33 690.703 1083.33 687.072C1083.33 685.629 1082.86 684.295 1082.07 683.211C1084.12 682.098 1085.52 679.925 1085.52 677.427C1085.52 675.018 1084.22 672.911 1082.29 671.766C1082.94 670.743 1083.33 669.526 1083.33 668.221C1083.33 664.589 1080.38 661.645 1076.75 661.645C1076.58 661.645 1076.42 661.651 1076.25 661.663C1076.29 661.371 1076.31 661.072 1076.31 660.768C1076.31 657.136 1073.37 654.192 1069.74 654.192C1068.29 654.192 1066.96 654.657 1065.87 655.444C1064.76 653.393 1062.59 652 1060.09 652C1057.68 652 1055.57 653.296 1054.43 655.228C1053.41 654.572 1052.19 654.192 1050.88 654.192C1047.25 654.192 1044.31 657.136 1044.31 660.768C1044.31 661.072 1044.33 661.371 1044.37 661.663C1044.2 661.651 1044.04 661.645 1043.87 661.645C1040.24 661.645 1037.29 664.589 1037.29 668.221C1037.29 669.526 1037.67 670.743 1038.33 671.766C1036.4 672.911 1035.1 675.018 1035.1 677.427C1035.1 679.925 1036.49 682.097 1038.55 683.211C1037.76 684.295 1037.29 685.629 1037.29 687.072C1037.29 690.703 1040.24 693.648 1043.87 693.648C1044.04 693.648 1044.2 693.641 1044.37 693.629C1044.33 693.922 1044.31 694.221 1044.31 694.524C1044.31 698.156 1047.25 701.1 1050.88 701.1C1052.19 701.1 1053.41 700.72 1054.43 700.064C1055.57 701.996 1057.68 703.292 1060.09 703.292Z" fill="#E9E0E5"/>
<path fill-rule="evenodd" clip-rule="evenodd" d="M1036.86 673.054C1038.02 677.341 1041.93 680.496 1046.59 680.496C1048.36 680.496 1050.02 680.042 1051.46 679.244C1053.46 681.87 1056.62 683.564 1060.18 683.564C1063.9 683.564 1067.19 681.712 1069.17 678.878C1070.74 679.901 1072.63 680.496 1074.65 680.496C1079.16 680.496 1082.98 677.533 1084.27 673.446C1083.75 672.772 1083.11 672.2 1082.38 671.766C1083.03 670.743 1083.41 669.526 1083.41 668.221C1083.41 664.589 1080.47 661.645 1076.84 661.645C1076.67 661.645 1076.5 661.651 1076.34 661.663C1076.38 661.371 1076.4 661.072 1076.4 660.768C1076.4 660.672 1076.4 660.576 1076.39 660.48C1076.24 656.982 1073.36 654.192 1069.82 654.192C1068.38 654.192 1067.05 654.657 1065.96 655.444C1064.85 653.393 1062.68 652 1060.18 652C1057.77 652 1055.66 653.296 1054.52 655.228C1053.5 654.572 1052.28 654.192 1050.97 654.192C1047.57 654.192 1044.77 656.78 1044.43 660.096C1044.42 660.251 1044.4 660.409 1044.4 660.568C1044.4 660.634 1044.4 660.701 1044.4 660.768C1044.4 661.072 1044.42 661.371 1044.46 661.663C1044.29 661.651 1044.13 661.645 1043.96 661.645C1040.33 661.645 1037.38 664.589 1037.38 668.221C1037.38 669.526 1037.76 670.743 1038.42 671.766C1037.83 672.113 1037.31 672.548 1036.86 673.054Z" fill="#F7F7F7"/>
<rect x="159" y="550" width="478" height="23" rx="11.5" fill="#0F8C48"/>
<path d="M278 546.5C278 560.031 267.031 571 253.5 571C239.969 571 229 560.031 229 546.5C229 532.969 239.969 522 253.5 522C267.031 522 278 532.969 278 546.5Z" fill="#0F8C48"/>
<path d="M238 548.5C238 555.956 231.956 562 224.5 562C217.044 562 211 555.956 211 548.5C211 541.044 217.044 535 224.5 535C231.956 535 238 541.044 238 548.5Z" fill="#0F8C48"/>
<path d="M507 488.654L562.5 453L618 488.654V562H507V488.654Z" fill="#F9B07B"/>
<rect x="317" y="385" width="38" height="177" fill="#CE7C44"/>
<rect x="355" y="385" width="45" height="177" fill="#F9B07B"/>
<rect x="312" y="376" width="43" height="11" fill="#F9B07B"/>
<rect x="355" y="376" width="50" height="11" fill="#FDD6AF"/>
<path d="M429.5 446H563L496.5 487H365L429.5 446Z" fill="#F79652"/>
<rect x="368" y="488" width="139" height="74" fill="#BA6E3A"/>
<rect width="8" height="80.3756" transform="matrix(-0.529191 0.848503 0.848503 0.529191 562.234 445)" fill="#FCD6AD"/>
<path d="M365 487H501V494L368 493.5L365 487Z" fill="#CE7C44"/>
<rect x="561.891" y="446.014" width="8" height="78.4594" transform="rotate(58.0492 561.891 446.014)" fill="#FCD6AD"/>
<path d="M546 527C546 517.611 553.611 510 563 510C572.389 510 580 517.611 580 527V562H546V527Z" fill="#FFF6A3"/>
<path d="M454 524.5C454 519.806 457.806 516 462.5 516C467.194 516 471 519.806 471 524.5V542H454V524.5Z" fill="#FFF6A3"/>
<path d="M414 524.5C414 519.806 417.806 516 422.5 516C427.194 516 431 519.806 431 524.5V542H414V524.5Z" fill="#FFF6A3"/>
<path d="M1292.38 354.444C1292.85 351.67 1296.83 351.67 1297.3 354.444L1314.03 452.628C1314.29 454.155 1313.12 455.548 1311.57 455.548H1278.11C1276.57 455.548 1275.39 454.155 1275.65 452.628L1292.38 354.444Z" fill="#119B60" stroke="#119B60"/>
<path d="M1267.81 395.309C1268.44 392.789 1272.02 392.789 1272.65 395.309L1287.04 452.438C1287.43 454.017 1286.24 455.548 1284.61 455.548H1255.85C1254.22 455.548 1253.03 454.017 1253.42 452.438L1267.81 395.309Z" fill="#119B60" stroke="#119B60"/>
<path d="M1319.52 381.328C1320.11 378.738 1323.8 378.738 1324.39 381.328L1340.68 452.49C1341.04 454.056 1339.85 455.548 1338.25 455.548H1305.67C1304.06 455.548 1302.87 454.056 1303.23 452.49L1319.52 381.328Z" fill="#119B60" stroke="#119B60"/>
<path d="M1344.43 423.606C1345.2 421.343 1348.4 421.343 1349.16 423.606L1358.88 452.245C1359.43 453.866 1358.22 455.548 1356.51 455.548H1337.08C1335.37 455.548 1334.16 453.866 1334.71 452.245L1344.43 423.606Z" fill="#119B60" stroke="#119B60"/>
<path d="M719.528 272.63L719.456 263.346C719.406 256.868 715.761 250.955 709.997 248C705.028 257.691 708.856 269.576 718.547 274.544C728.239 279.513 740.123 275.684 745.092 265.993C739.327 263.037 732.398 263.529 727.109 267.269L719.528 272.63Z" fill="#009BA0"/>
<path d="M775.032 383.577L771.214 379.188C768.55 376.126 764.406 374.797 760.459 375.74C762.044 382.377 768.708 386.473 775.345 384.888C781.983 383.302 786.078 376.637 784.493 370C780.545 370.943 777.448 374.001 776.455 377.936L775.032 383.577Z" fill="#009BA0"/>
<path d="M687.918 339.239L687.874 345.007C687.842 349.032 685.578 352.705 681.997 354.541C678.91 348.52 681.288 341.137 687.309 338.05C693.33 334.963 700.713 337.342 703.8 343.363C700.218 345.199 695.914 344.893 692.628 342.57L687.918 339.239Z" fill="#009BA0"/>
</g>
<defs>
<linearGradient id="paint0_linear_12_240" x1="800" y1="0" x2="800" y2="536" gradientUnits="userSpaceOnUse">
<stop stop-color="#6999FF"/>
<stop offset="1" stop-color="#B1E1F8"/>
</linearGradient>
<clipPath id="clip0_12_240">
<rect width="1600" height="900" fill="white"/>
</clipPath>
</defs>
</svg>
