<svg width="1600" height="900" viewBox="0 0 1600 900" fill="none" xmlns="http://www.w3.org/2000/svg">
<rect width="1600" height="900" fill="#D9D9D9"/>
<path d="M772.826 319.506H595.899V278.745L759.239 246.196L772.826 319.506Z" fill="#FFB655"/>
<path d="M813.281 158.594V694.531H759.375V174.357L813.281 158.594Z" fill="#FFE477"/>
<path d="M614.443 305.932L704.293 487.019L667.785 505.144L595.896 360.266V305.932H614.443Z" fill="#FFB655"/>
<path d="M595.897 305.932V360.266L524.008 505.144L487.5 487.019L577.351 305.932H595.897Z" fill="#FFE477"/>
<path d="M595.9 360.266C618.411 360.266 636.66 342.017 636.66 319.505C636.66 296.993 618.411 278.744 595.9 278.744C573.388 278.744 555.139 296.993 555.139 319.505C555.139 342.017 573.388 360.266 595.9 360.266Z" fill="#FFA733"/>
<path d="M595.897 487.024L609.484 541.223L595.897 595.421C536.128 595.421 487.5 546.793 487.5 487.024H595.897Z" fill="#FFB655"/>
<path d="M595.896 487.024H704.293C704.293 546.793 655.666 595.421 595.896 595.421V487.024Z" fill="#FFA733"/>
<path d="M1022.65 305.932L1112.5 487.019L1075.99 505.144L1004.1 360.266V305.932H1022.65Z" fill="#FFA733"/>
<path d="M1004.1 305.932V360.266L932.215 505.144L895.707 487.019L985.558 305.932H1004.1Z" fill="#FFB655"/>
<path d="M827.174 319.506H1004.1V278.745L840.761 246.196L827.174 319.506Z" fill="#FFA733"/>
<path d="M1004.1 360.266C1026.61 360.266 1044.86 342.017 1044.86 319.505C1044.86 296.993 1026.61 278.744 1004.1 278.744C981.589 278.744 963.34 296.993 963.34 319.505C963.34 342.017 981.589 360.266 1004.1 360.266Z" fill="#CC7400"/>
<path d="M1004.1 487.024L1017.69 541.223L1004.1 595.421C944.335 595.421 895.707 546.793 895.707 487.024H1004.1Z" fill="#FFA733"/>
<path d="M800 680.979L813.587 735.326L691.305 721.739L716.252 684.318C717.643 682.232 719.985 680.979 722.492 680.979H800Z" fill="#FFB655"/>
<path d="M800 721.738L813.587 742.119L800 762.499H658.044C653.902 762.499 650.544 759.141 650.544 754.999V729.238C650.544 725.096 653.902 721.738 658.044 721.738H800Z" fill="#FFE477"/>
<path d="M1004.1 487.024H1112.5C1112.5 546.793 1063.87 595.421 1004.1 595.421V487.024Z" fill="#CC7400"/>
<path d="M840.625 174.357V694.531H800V174.357L820.312 158.594L840.625 174.357Z" fill="#FFB655"/>
<path d="M941.957 721.738H800V762.499H941.957C946.099 762.499 949.457 759.141 949.457 754.999V729.238C949.457 725.096 946.099 721.738 941.957 721.738Z" fill="#FFB655"/>
<path d="M877.508 680.979C880.016 680.979 882.357 682.232 883.748 684.318L908.696 721.739H800V680.979H877.508Z" fill="#FFA733"/>
<path d="M800 137.5C777.488 137.5 759.239 155.749 759.239 178.261H840.761C840.761 155.749 822.512 137.5 800 137.5Z" fill="#CC7400"/>
</svg>
