<svg width="1600" height="900" viewBox="0 0 1600 900" fill="none" xmlns="http://www.w3.org/2000/svg">
<rect width="1600" height="900" fill="#D9D9D9"/>
<path d="M915.49 271.304L914.91 271.571L719.247 193.307C716.84 192.34 714.293 191.864 711.746 191.855V682.57L907.926 761.035C908.175 761.133 908.444 761.093 908.694 761.182C910.897 761.966 913.17 762.493 915.488 762.493V271.304H915.49Z" fill="#D5D7E5"/>
<path d="M711.747 191.856C709.157 191.847 706.57 192.323 704.122 193.307L500.316 274.828C492.567 277.92 487.5 285.416 487.5 293.749V742.115C487.5 748.875 490.857 755.197 496.456 758.992C502.056 762.78 509.166 763.563 515.445 761.036L711.687 682.546L711.748 682.57L711.747 191.856Z" fill="#DFE2EF"/>
<path d="M1103.11 195.058C1097.25 191.323 1089.89 190.819 1083.58 193.725L915.489 271.304V762.495C917.27 762.495 919.04 762.178 920.782 761.707C921.29 761.57 921.771 761.386 922.268 761.21C922.855 761.003 923.463 760.882 924.034 760.618L1100.66 679.097C1107.88 675.767 1112.5 668.541 1112.5 660.595V212.229C1112.5 205.276 1108.96 198.807 1103.11 195.058Z" fill="#DFE2EF"/>
<path d="M693.16 241.59L528.261 307.547V712.008L711.685 638.647V241.59H693.16Z" fill="#95D6A6"/>
<path d="M922.283 313.061L916.06 315.933L730.211 241.59H711.686V638.647L914.919 719.929L922.283 716.531V313.061Z" fill="#34B772"/>
<path d="M711.752 137.5C602.158 137.5 533.597 256.694 588.176 351.408C588.19 351.408 588.19 351.415 588.19 351.415L694.115 534.916C701.927 548.479 721.581 548.479 729.392 534.916L835.331 351.408C889.844 256.804 821.449 137.5 711.752 137.5ZM711.686 341.303C677.971 341.303 650.544 313.876 650.544 280.161C650.544 246.447 677.971 219.02 711.686 219.02C745.401 219.02 772.828 246.447 772.828 280.161C772.828 313.876 745.401 341.303 711.686 341.303Z" fill="#FF5F4A"/>
<path d="M915.49 720.72L1071.74 647.55V244.078L922.284 313.061L915.49 720.72Z" fill="#95D6A6"/>
<path d="M711.752 137.5C711.729 137.5 711.708 137.505 711.685 137.505V219.021C745.399 219.021 772.827 246.448 772.827 280.163C772.827 313.877 745.399 341.304 711.685 341.304V545.081C718.574 545.103 725.473 541.72 729.391 534.916L835.33 351.408C889.844 256.804 821.449 137.5 711.752 137.5Z" fill="#D8482B"/>
</svg>
