<svg width="1600" height="900" viewBox="0 0 1600 900" fill="none" xmlns="http://www.w3.org/2000/svg">
<g clip-path="url(#clip0_48_2)">
<rect width="1600" height="900" fill="white"/>
<rect x="-4" y="-112" width="1639" height="551" fill="url(#paint0_linear_48_2)"/>
<path d="M1225.47 288H1654.54C1663.08 288 1670 281.032 1670 272.437C1670 263.841 1663.08 256.873 1654.54 256.873H1628.71C1629.06 254.998 1629.27 253.062 1629.27 251.078C1629.27 234.618 1616 221.277 1599.65 221.277C1591.11 221.277 1583.42 224.915 1578.01 230.728C1575.25 212.616 1559.7 198.743 1540.92 198.743C1539.92 198.743 1538.91 198.795 1537.91 198.876C1536.78 154.567 1500.72 119 1456.41 119C1423.17 119 1394.58 139.014 1381.88 167.716C1372.26 161.413 1360.77 157.736 1348.43 157.736C1315.04 157.736 1287.9 184.54 1287.05 217.922C1271.85 219.192 1259.91 231.994 1259.91 247.611C1259.91 247.784 1259.92 247.955 1259.92 248.126C1259.92 248.22 1259.93 248.313 1259.93 248.407C1258.52 248.065 1257.05 247.864 1255.53 247.864C1248.77 247.864 1242.86 251.475 1239.56 256.873H1225.47C1224.11 256.873 1222.79 257.051 1221.53 257.384C1214.89 259.137 1210 265.212 1210 272.437C1210 275.691 1210.99 278.713 1212.69 281.211C1215.48 285.309 1220.16 288 1225.47 288Z" fill="#FACECB"/>
<path fill-rule="evenodd" clip-rule="evenodd" d="M-41.1065 200C-52.0933 200 -61 191.194 -61 180.329C-61 169.465 -52.0933 160.658 -41.1065 160.658H-22.368C-22.7184 158.897 -22.9066 157.079 -22.9066 155.217C-22.9066 139.73 -10.2097 127.175 5.45168 127.175C15.6344 127.175 24.5584 132.483 29.5596 140.451C35.8195 126.235 50.1446 116.292 66.8251 116.292C72.2437 116.292 77.4106 117.35 82.1383 119.254C83.6777 81.3029 115.262 51 154.018 51C186.854 51 214.534 72.7584 223.166 102.485C228.922 99.0301 235.678 97.0398 242.903 97.0398C249.454 97.0398 255.616 98.6759 260.998 101.556C265.754 104.103 269.902 107.621 273.168 111.842C281.956 102.728 294.346 97.0398 308.086 97.0398C334.131 97.0398 355.346 117.449 356.293 142.976C360.513 139.39 365.998 137.22 371.998 137.22C385.181 137.22 395.887 147.676 396.114 160.658H443.107C454.093 160.658 463 169.465 463 180.329C463 191.194 454.093 200 443.107 200H-41.1065ZM214.831 160.164C214.779 160.246 214.726 160.326 214.674 160.407L214.511 160.658H215.306C215.259 160.61 215.212 160.562 215.165 160.514C215.052 160.399 214.939 160.284 214.831 160.164Z" fill="#FAC3D1"/>
<path fill-rule="evenodd" clip-rule="evenodd" d="M1015.53 108H1320.47C1327.39 108 1333 102.386 1333 95.4581C1333 88.5318 1327.39 82.9177 1320.47 82.9177H1308.67C1308.89 81.7939 1309.01 80.6347 1309.01 79.4465C1309.01 69.5724 1301.02 61.5675 1291.15 61.5675C1284.74 61.5675 1279.12 64.9533 1275.97 70.0329C1272.03 60.9702 1263.01 54.6299 1252.5 54.6299C1249.09 54.6299 1245.83 55.3029 1242.86 56.5168C1241.89 32.3201 1222 13 1197.59 13C1176.91 13 1159.48 26.8734 1154.04 45.8248C1150.42 43.6223 1146.16 42.3536 1141.61 42.3536C1133.84 42.3536 1126.93 46.0566 1122.55 51.7915C1119.08 48.1433 1114.71 45.3565 1109.8 43.7867C1106.88 42.8577 1103.78 42.3536 1100.56 42.3536C1084.16 42.3536 1070.8 55.3657 1070.2 71.6412C1067.54 69.3566 1064.09 67.972 1060.31 67.972C1052.01 67.972 1045.27 74.6391 1045.12 82.9177H1015.53C1008.61 82.9177 1003 88.5318 1003 95.4581C1003 102.386 1008.61 108 1015.53 108ZM1158.99 82.9177L1159.29 82.6022L1159.49 82.9177H1158.99Z" fill="#CE84B5"/>
<circle opacity="0.1" cx="715.708" cy="159.583" r="423.613" fill="#FCEA9E"/>
<circle opacity="0.3" cx="715.708" cy="159.584" r="244.089" fill="#FCEA9E"/>
<circle cx="715.709" cy="159.584" r="151.178" fill="#F4E659"/>
<rect x="-4" y="439" width="1639" height="677" fill="url(#paint1_linear_48_2)"/>
<path d="M-4 323.761C-4 321.835 -2.21111 320.408 -0.333345 320.836L887.004 523.075C890.49 523.869 889.912 529 886.337 529H-1.00002C-2.65687 529 -4 527.657 -4 526V323.761Z" fill="url(#paint2_linear_48_2)"/>
<path d="M-4 731.251C-4 733.173 -2.2178 734.6 -0.342451 734.178L886.616 534.927C890.11 534.142 889.539 529 885.958 529H-1.00002C-2.65687 529 -4 530.343 -4 532V731.251Z" fill="url(#paint3_linear_48_2)" fill-opacity="0.2"/>
<circle cx="704" cy="764" r="151" fill="url(#paint4_linear_48_2)"/>
<path d="M1796 340.31C1796 338.221 1793.92 336.771 1791.96 337.497L893.696 670.187C890.557 671.349 891.391 676 894.738 676H1793C1794.66 676 1796 674.657 1796 673V340.31Z" fill="url(#paint5_linear_48_2)"/>
<path opacity="0.2" d="M1796 1010.69C1796 1012.78 1793.92 1014.23 1791.96 1013.51L893.745 681.814C890.604 680.654 891.436 676 894.784 676H1793C1794.66 676 1796 677.343 1796 679V1010.69Z" fill="url(#paint6_linear_48_2)"/>
<path d="M4.20473 600.712L-25.2165 605.881C-33.1871 607.282 -39 614.205 -39 622.298L-33.5383 860.074C-32.3734 910.789 6.57967 952.597 57.0854 957.34L520.088 1000.82C545.398 1003.2 568.425 986.098 573.468 961.182C576.345 946.971 572.875 932.212 563.967 920.771L545.843 897.493C536.922 886.036 532.968 871.48 534.867 857.085L536.17 847.205C541.121 809.661 502.531 781.39 467.846 796.59C442.642 807.635 412.989 795.239 403.606 769.37L403.008 767.72C395.177 746.129 372.517 733.725 350.109 738.762C330.684 743.129 310.671 734.396 300.661 717.187L280.794 683.029C258.412 644.55 213.202 625.61 170.076 636.648L150.444 641.673C122.385 648.855 92.5904 643.518 68.7685 627.043L42.9651 609.198C31.6637 601.382 17.7382 598.333 4.20473 600.712Z" fill="url(#paint7_linear_48_2)"/>
<path d="M1697 533C1680.84 544.914 1665 557.25 1649.19 569.613C1639.74 576.998 1630.29 584.384 1620.86 591.769C1595.24 611.794 1567.53 632.669 1534.86 635.31C1502.91 637.892 1472.72 622.52 1441.81 614.192C1410.9 605.866 1371.78 607.447 1354.29 633.752C1332.98 665.795 1355.01 718.146 1323.93 741.29C1292.43 764.748 1243.83 729.053 1208.55 746.623C1174.39 763.64 1178.5 816.012 1149.47 840.518C1114.8 869.788 1058.75 842.058 1016.29 858.824C975.952 874.756 961.827 924.179 927.766 950.667C899.6 972.571 861.391 976.245 825.511 978.74C789.63 981.235 751.529 984.176 722.59 1005.09C703.588 1018.83 692.482 1039.91 694.168 1061H1697V533Z" fill="#26285A"/>
<rect opacity="0.6" x="1066" y="474" width="243" height="10" rx="5" fill="#F4A34A"/>
<rect x="144" y="587" width="106" height="10" rx="5" fill="#C57C6A"/>
<rect x="337" y="559" width="159" height="10" rx="5" fill="#B67262"/>
<rect opacity="0.6" x="897" y="506" width="242" height="7" rx="3.5" fill="#F4A34A"/>
<rect x="275" y="642" width="399" height="8" rx="4" fill="#DC817C"/>
<rect x="1051" y="550" width="88" height="11" rx="5.5" fill="#F38355"/>
<rect x="817" y="603" width="107" height="10" rx="5" fill="#EF8C6D"/>
<rect opacity="0.5" x="817" y="802" width="197" height="11" rx="5.5" fill="#DC807A"/>
<rect opacity="0.5" x="525" y="731" width="197" height="11" rx="5.5" fill="#DC807A"/>
<path d="M801.062 185.914L800.948 171.292C800.869 161.092 795.129 151.78 786.052 147.127C778.228 162.388 784.255 181.103 799.517 188.928C814.78 196.753 833.494 190.722 841.319 175.461C832.24 170.806 821.329 171.581 813 177.471L801.062 185.914Z" fill="#ED2B3C"/>
<path d="M938.209 192.707L933.019 187.465C929.398 183.807 924.046 182.465 919.128 183.981C921.676 192.249 930.444 196.887 938.713 194.339C946.982 191.791 951.619 183.022 949.071 174.754C944.152 176.269 940.483 180.392 939.549 185.453L938.209 192.707Z" fill="#ED2B3C"/>
<path d="M1008.14 241.008L1016.33 248.159C1022.04 253.148 1030.05 254.55 1037.12 251.799C1032.49 239.919 1019.11 234.037 1007.23 238.662C995.349 243.288 989.469 256.668 994.094 268.549C1001.16 265.797 1006.11 259.348 1006.95 251.811L1008.14 241.008Z" fill="#ED2B3C"/>
<path d="M990.914 326.015L981.816 314.502C975.468 306.469 965.77 302.779 956.647 304.924C960.672 322.045 976.37 333.002 991.709 329.396C1007.05 325.789 1016.22 308.985 1012.19 291.865C1003.07 294.01 996.032 301.635 993.929 311.654L990.914 326.015Z" fill="#ED2B3C"/>
<path d="M1090.09 362.785L1083.81 352.779C1079.44 345.797 1072 341.997 1064.51 342.916C1066.24 356.966 1077.84 367.104 1090.43 365.56C1103.01 364.015 1111.82 351.373 1110.1 337.324C1102.61 338.242 1096.31 343.727 1093.75 351.559L1090.09 362.785Z" fill="#ED2B3C"/>
<path d="M735.01 228.096L741.927 235.621C746.753 240.871 754.096 243.005 760.983 241.159C757.88 229.579 745.978 222.706 734.397 225.809C722.816 228.912 715.945 240.816 719.048 252.396C725.936 250.55 731.228 245.031 732.783 238.071L735.01 228.096Z" fill="#ED2B3C"/>
<path d="M397.013 535.786C394.891 532.458 397.282 528.098 401.229 528.098H480.019C483.096 528.098 485.443 530.852 484.956 533.89L483.607 542.297C483.218 544.722 481.126 546.506 478.67 546.506H406.588C404.88 546.506 403.29 545.634 402.372 544.193L397.013 535.786Z" fill="#5B4261"/>
<rect x="370" y="515.811" width="1.213" height="29.1119" rx="0.606498" transform="rotate(-59.4554 370 515.811)" fill="#252823"/>
<path d="M463.112 512.458C463.456 511.339 464.183 510.377 465.164 509.738L473.614 504.243C476.807 502.166 481.056 504.279 481.328 508.078L482.26 521.121C482.467 524.016 480.175 526.478 477.273 526.478H465.566C462.202 526.478 459.797 523.222 460.788 520.006L463.112 512.458Z" fill="#704E7B"/>
<path d="M463.112 512.458C463.456 511.339 464.183 510.377 465.164 509.738L473.614 504.243C476.807 502.166 481.056 504.279 481.328 508.078L482.26 521.121C482.467 524.016 480.175 526.478 477.273 526.478H465.566C462.202 526.478 459.797 523.222 460.788 520.006L463.112 512.458Z" fill="#704E7B"/>
<path d="M461.861 485.535C462.346 483.219 464.388 481.56 466.755 481.56H472.755C475.9 481.56 478.264 484.428 477.663 487.515L475.552 498.354C475.095 500.702 473.037 502.398 470.644 502.398H464.486C461.313 502.398 458.942 499.48 459.592 496.373L461.861 485.535Z" fill="#704E7B"/>
<path d="M461.861 485.535C462.346 483.219 464.388 481.56 466.755 481.56H472.755C475.9 481.56 478.264 484.428 477.663 487.515L475.552 498.354C475.095 500.702 473.037 502.398 470.644 502.398H464.486C461.313 502.398 458.942 499.48 459.592 496.373L461.861 485.535Z" fill="#704E7B"/>
<path d="M431.586 480.895C432.162 478.695 434.15 477.161 436.424 477.161H450.164C452.827 477.161 455.023 479.249 455.157 481.909L455.867 495.989C456.011 498.845 453.734 501.24 450.874 501.24H432.74C429.465 501.24 427.074 498.144 427.903 494.975L431.586 480.895Z" fill="#704E7B"/>
<path d="M431.586 480.895C432.162 478.695 434.15 477.161 436.424 477.161H450.164C452.827 477.161 455.023 479.249 455.157 481.909L455.867 495.989C456.011 498.845 453.734 501.24 450.874 501.24H432.74C429.465 501.24 427.074 498.144 427.903 494.975L431.586 480.895Z" fill="#704E7B"/>
<path d="M430.316 506.369C430.889 504.167 432.878 502.629 435.154 502.629H448.889C451.553 502.629 453.749 504.718 453.882 507.379L454.595 521.574C454.738 524.43 452.461 526.825 449.601 526.825H431.458C428.185 526.825 425.795 523.732 426.62 520.565L430.316 506.369Z" fill="#704E7B"/>
<path d="M430.316 506.369C430.889 504.167 432.878 502.629 435.154 502.629H448.889C451.553 502.629 453.749 504.718 453.882 507.379L454.595 521.574C454.738 524.43 452.461 526.825 449.601 526.825H431.458C428.185 526.825 425.795 523.732 426.62 520.565L430.316 506.369Z" fill="#704E7B"/>
<path d="M434.636 461.341C435.208 459.135 437.198 457.595 439.476 457.595H447.573C450.238 457.595 452.434 459.685 452.567 462.346L452.975 470.522C453.118 473.377 450.841 475.771 447.982 475.771H437.356C434.085 475.771 431.695 472.682 432.516 469.516L434.636 461.341Z" fill="#704E7B"/>
<path d="M434.636 461.341C435.208 459.135 437.198 457.595 439.476 457.595H447.573C450.238 457.595 452.434 459.685 452.567 462.346L452.975 470.522C453.118 473.377 450.841 475.771 447.982 475.771H437.356C434.085 475.771 431.695 472.682 432.516 469.516L434.636 461.341Z" fill="#704E7B"/>
<path d="M434.636 461.341C435.208 459.135 437.198 457.595 439.476 457.595H447.573C450.238 457.595 452.434 459.685 452.567 462.346L452.975 470.522C453.118 473.377 450.841 475.771 447.982 475.771H437.356C434.085 475.771 431.695 472.682 432.516 469.516L434.636 461.341Z" fill="#704E7B"/>
<path d="M434.636 461.341C435.208 459.135 437.198 457.595 439.476 457.595H447.573C450.238 457.595 452.434 459.685 452.567 462.346L452.975 470.522C453.118 473.377 450.841 475.771 447.982 475.771H437.356C434.085 475.771 431.695 472.682 432.516 469.516L434.636 461.341Z" fill="#704E7B"/>
<path d="M405.659 466.197C406.232 463.994 408.221 462.457 410.497 462.457H416.434C419.098 462.457 421.294 464.546 421.428 467.207L421.716 472.951C421.86 475.807 419.582 478.202 416.723 478.202H409C405.727 478.202 403.337 475.109 404.162 471.941L405.659 466.197Z" fill="#704E7B"/>
<path d="M405.659 466.197C406.232 463.994 408.221 462.457 410.497 462.457H416.434C419.098 462.457 421.294 464.546 421.428 467.207L421.716 472.951C421.86 475.807 419.582 478.202 416.723 478.202H409C405.727 478.202 403.337 475.109 404.162 471.941L405.659 466.197Z" fill="#704E7B"/>
<path d="M405.659 466.197C406.232 463.994 408.221 462.457 410.497 462.457H416.434C419.098 462.457 421.294 464.546 421.428 467.207L421.716 472.951C421.86 475.807 419.582 478.202 416.723 478.202H409C405.727 478.202 403.337 475.109 404.162 471.941L405.659 466.197Z" fill="#704E7B"/>
<path d="M405.659 466.197C406.232 463.994 408.221 462.457 410.497 462.457H416.434C419.098 462.457 421.294 464.546 421.428 467.207L421.716 472.951C421.86 475.807 419.582 478.202 416.723 478.202H409C405.727 478.202 403.337 475.109 404.162 471.941L405.659 466.197Z" fill="#704E7B"/>
<path d="M398.514 484.148C399.086 481.942 401.076 480.402 403.355 480.402H417.602C420.267 480.402 422.463 482.491 422.596 485.153L423.339 500.043C423.482 502.899 421.205 505.292 418.345 505.292H399.498C396.228 505.292 393.838 502.204 394.658 499.038L398.514 484.148Z" fill="#704E7B"/>
<path d="M398.514 484.148C399.086 481.942 401.076 480.402 403.355 480.402H417.602C420.267 480.402 422.463 482.491 422.596 485.153L423.339 500.043C423.482 502.899 421.205 505.292 418.345 505.292H399.498C396.228 505.292 393.838 502.204 394.658 499.038L398.514 484.148Z" fill="#704E7B"/>
<path d="M398.514 484.148C399.086 481.942 401.076 480.402 403.355 480.402H417.602C420.267 480.402 422.463 482.491 422.596 485.153L423.339 500.043C423.482 502.899 421.205 505.292 418.345 505.292H399.498C396.228 505.292 393.838 502.204 394.658 499.038L398.514 484.148Z" fill="#704E7B"/>
<path d="M398.514 484.148C399.086 481.942 401.076 480.402 403.355 480.402H417.602C420.267 480.402 422.463 482.491 422.596 485.153L423.339 500.043C423.482 502.899 421.205 505.292 418.345 505.292H399.498C396.228 505.292 393.838 502.204 394.658 499.038L398.514 484.148Z" fill="#704E7B"/>
<path d="M397.39 511.799C397.881 509.49 399.92 507.839 402.281 507.839H417.256C420.632 507.839 423.037 511.114 422.027 514.335L419.21 523.321C418.556 525.406 416.624 526.825 414.439 526.825H400.371C397.191 526.825 394.819 523.895 395.48 520.785L397.39 511.799Z" fill="#704E7B"/>
<path d="M397.39 511.799C397.881 509.49 399.92 507.839 402.281 507.839H417.256C420.632 507.839 423.037 511.114 422.027 514.335L419.21 523.321C418.556 525.406 416.624 526.825 414.439 526.825H400.371C397.191 526.825 394.819 523.895 395.48 520.785L397.39 511.799Z" fill="#704E7B"/>
<path d="M397.39 511.799C397.881 509.49 399.92 507.839 402.281 507.839H417.256C420.632 507.839 423.037 511.114 422.027 514.335L419.21 523.321C418.556 525.406 416.624 526.825 414.439 526.825H400.371C397.191 526.825 394.819 523.895 395.48 520.785L397.39 511.799Z" fill="#704E7B"/>
<path d="M397.39 511.799C397.881 509.49 399.92 507.839 402.281 507.839H417.256C420.632 507.839 423.037 511.114 422.027 514.335L419.21 523.321C418.556 525.406 416.624 526.825 414.439 526.825H400.371C397.191 526.825 394.819 523.895 395.48 520.785L397.39 511.799Z" fill="#704E7B"/>
<path d="M379.766 505.424C383.15 501.388 389.67 504.652 388.466 509.779L387.274 514.856C386.509 518.113 382.825 519.714 379.922 518.053L377.852 516.868C375.148 515.32 374.503 511.703 376.504 509.316L379.766 505.424Z" fill="#704E7B"/>
<path d="M396.966 535.808C394.821 532.481 397.21 528.098 401.169 528.098H480.063C483.164 528.098 485.517 530.893 484.99 533.949L484.857 534.716C484.443 537.113 482.363 538.865 479.93 538.865H401.663C399.964 538.865 398.381 538.002 397.461 536.574L396.966 535.808Z" fill="#252823"/>
<path d="M399.455 535.237C398.074 533.039 399.654 530.182 402.249 530.182H479.379C481.4 530.182 482.946 531.983 482.64 533.981C482.393 535.592 481.008 536.781 479.379 536.781H402.249C401.114 536.781 400.058 536.198 399.455 535.237Z" fill="#757575"/>
<rect x="407.393" y="531.919" width="3.00998" height="3.00998" rx="1.50499" fill="#090302"/>
<rect x="415.844" y="531.919" width="3.12575" height="3.00998" rx="1.50499" fill="#090302"/>
<rect x="424.411" y="531.919" width="3.00998" height="3.00998" rx="1.50499" fill="#090302"/>
<rect x="432.863" y="531.919" width="3.00998" height="3.00998" rx="1.50499" fill="#090302"/>
<rect x="441.314" y="531.919" width="3.12575" height="3.00998" rx="1.50499" fill="#090302"/>
<rect x="449.88" y="531.919" width="3.00998" height="3.00998" rx="1.50499" fill="#090302"/>
<rect x="458.331" y="531.919" width="3.00998" height="3.00998" rx="1.50499" fill="#090302"/>
<rect x="466.782" y="531.919" width="3.12575" height="3.00998" rx="1.50499" fill="#090302"/>
<rect x="475.349" y="531.919" width="3.00998" height="3.00998" rx="1.50499" fill="#090302"/>
<path d="M436 452.559C436 451.772 436.746 451.199 437.506 451.402C438.18 451.582 438.89 451.582 439.565 451.402L439.844 451.327C440.647 451.113 441.493 451.116 442.294 451.336L442.522 451.399C443.185 451.581 443.885 451.581 444.548 451.399C445.279 451.198 446 451.748 446 452.505V453.175C446 453.981 445.421 454.67 444.627 454.809L444.536 454.825C443.874 454.941 443.196 454.942 442.534 454.83L442.233 454.779C441.417 454.64 440.583 454.642 439.768 454.785L439.561 454.821C438.882 454.939 438.188 454.941 437.509 454.826L437.384 454.804C436.585 454.669 436 453.976 436 453.165V452.559Z" fill="#8E3E2E"/>
<path d="M406 458.559C406 457.772 406.746 457.199 407.506 457.402C408.18 457.582 408.89 457.582 409.565 457.402L409.844 457.327C410.647 457.113 411.493 457.116 412.294 457.336L412.522 457.399C413.185 457.581 413.885 457.581 414.548 457.399C415.279 457.198 416 457.748 416 458.505V459.175C416 459.981 415.421 460.67 414.627 460.809L414.536 460.825C413.874 460.941 413.196 460.942 412.534 460.83L412.233 460.779C411.417 460.64 410.583 460.642 409.768 460.785L409.561 460.821C408.882 460.939 408.188 460.941 407.509 460.826L407.384 460.804C406.585 460.669 406 459.976 406 459.165V458.559Z" fill="#8E3E2E"/>
<path d="M329.376 881.251C293.315 906.875 246.468 904.892 233.994 903.827C232.262 903.679 231.134 902.092 231.564 900.407C234.661 888.277 248.2 843.385 284.26 817.761C320.32 792.137 367.168 794.119 379.642 795.185C381.374 795.333 382.502 796.92 382.072 798.604C378.975 810.734 365.436 855.627 329.376 881.251Z" fill="#795BA5"/>
<rect x="360.848" y="809.607" width="1.83985" height="229.368" rx="0.919927" transform="rotate(54.6029 360.848 809.607)" fill="#623695"/>
<rect x="349.979" y="837.72" width="1.83985" height="25.1447" rx="0.919927" transform="rotate(95.9791 349.979 837.72)" fill="#623695"/>
<rect width="1.83985" height="25.1447" rx="0.919927" transform="matrix(0.973472 0.228804 0.228804 -0.973472 304.374 850.566)" fill="#623695"/>
<rect width="1.83985" height="25.1447" rx="0.919927" transform="matrix(0.973472 0.228804 0.228804 -0.973472 263.881 879.34)" fill="#623695"/>
<rect x="309.486" y="866.495" width="1.83985" height="25.1447" rx="0.919927" transform="rotate(95.9791 309.486 866.495)" fill="#623695"/>
<path d="M203.116 867.509C196.941 920.515 156.86 960.711 146.623 970.199C145.348 971.381 143.392 971.153 142.423 969.709C134.641 958.122 104.874 909.789 111.05 856.783C117.225 803.777 157.306 763.581 167.543 754.093C168.818 752.911 170.774 753.139 171.744 754.582C179.526 766.17 209.292 814.503 203.116 867.509Z" fill="#795BA5"/>
<rect x="164.882" y="782.597" width="2.18951" height="272.959" rx="1.09475" transform="rotate(6.64534 164.882 782.597)" fill="#623695"/>
<rect x="181.065" y="814.608" width="2.18951" height="29.9233" rx="1.09475" transform="rotate(48.0215 181.065 814.608)" fill="#623695"/>
<rect width="2.18951" height="29.9233" rx="1.09475" transform="matrix(0.821837 -0.569722 -0.569722 -0.821837 156.073 865.15)" fill="#623695"/>
<rect width="2.18951" height="29.9233" rx="1.09475" transform="matrix(0.821837 -0.569722 -0.569722 -0.821837 149.232 923.87)" fill="#623695"/>
<rect x="174.224" y="873.327" width="2.18951" height="29.9233" rx="1.09475" transform="rotate(48.0215 174.224 873.327)" fill="#623695"/>
<path d="M115.899 852.952C137.359 909.66 110.994 973.527 105.005 986.748C104.358 988.177 102.773 988.777 101.342 988.134C88.1005 982.19 26.0581 951.779 4.59819 895.071C-16.8617 838.363 9.50355 774.496 15.4922 761.275C16.1394 759.846 17.7242 759.247 19.1553 759.889C32.3965 765.833 94.439 796.244 115.899 852.952Z" fill="#653795"/>
<rect x="27.0879" y="791.679" width="2.81111" height="303.094" rx="1.40556" transform="rotate(-20.728 27.0879 791.679)" fill="#532B81"/>
<rect width="2.65184" height="35.5885" rx="1.32592" transform="matrix(0.958454 0.285248 -0.419414 0.907795 62.5991 813.767)" fill="#532B81"/>
<rect width="2.65184" height="35.5885" rx="1.32592" transform="matrix(0.52948 -0.848323 -0.915337 -0.402689 60.6797 877.53)" fill="#532B81"/>
<rect width="2.65184" height="35.5885" rx="1.32592" transform="matrix(0.958454 0.285248 -0.419414 0.907795 85.8325 875.161)" fill="#532B81"/>
<path d="M1373.09 810.64C1434.61 874.826 1432.21 978.987 1431.32 996.766C1431.25 998.287 1430.06 999.42 1428.54 999.432C1410.74 999.569 1306.57 997.531 1245.06 933.345C1183.54 869.159 1185.94 764.998 1186.83 747.219C1186.9 745.698 1188.09 744.564 1189.61 744.553C1207.41 744.416 1311.58 746.454 1373.09 810.64Z" fill="#795BA5"/>
<rect x="1219.11" y="782.15" width="4.18916" height="434.161" rx="2.09458" transform="rotate(-43.782 1219.11 782.15)" fill="#623695"/>
<rect width="3.89623" height="52.0353" rx="1.94812" transform="matrix(0.991292 -0.131678 -0.0501688 0.998741 1279.36 790.33)" fill="#623695"/>
<rect width="3.89623" height="52.0353" rx="1.94812" transform="matrix(0.173693 -0.9848 -0.999971 0.00767258 1311.58 876.422)" fill="#623695"/>
<rect width="3.89623" height="52.0353" rx="1.94812" transform="matrix(0.991292 -0.131678 -0.0501688 0.998741 1344.42 858.217)" fill="#623695"/>
<path d="M1580 861.018C1560.5 947.756 1472.37 1003.32 1457.06 1012.4C1455.75 1013.18 1454.15 1012.82 1453.3 1011.56C1443.35 996.799 1387.48 908.856 1406.98 822.117C1426.48 735.379 1514.62 679.812 1529.93 670.731C1531.24 669.954 1532.83 670.313 1533.69 671.576C1543.64 686.336 1599.5 774.28 1580 861.018Z" fill="#684A93"/>
<rect x="1518.65" y="716.936" width="4.18916" height="434.161" rx="2.09458" transform="rotate(12.6711 1518.65 716.936)" fill="#623695"/>
<rect width="3.89623" height="52.0353" rx="1.94812" transform="matrix(0.657553 0.753408 -0.860108 0.510112 1545.13 771.673)" fill="#623695"/>
<rect width="3.89623" height="52.0353" rx="1.94812" transform="matrix(0.916751 -0.399458 -0.558999 -0.829169 1491.19 846.104)" fill="#623695"/>
<rect width="3.89623" height="52.0353" rx="1.94812" transform="matrix(0.916751 -0.399458 -0.558999 -0.829169 1470.56 937.844)" fill="#623695"/>
<rect width="3.89623" height="52.0353" rx="1.94812" transform="matrix(0.657553 0.753408 -0.860108 0.510112 1524.51 863.413)" fill="#623695"/>
<rect x="103.128" y="673.615" width="26.5312" height="151.384" rx="13.2656" transform="rotate(4.99691 103.128 673.615)" fill="#EE973C"/>
<rect x="112.478" y="701.065" width="3.12132" height="262.191" rx="1.56066" transform="rotate(4.99691 112.478 701.065)" fill="#FF4949"/>
<rect x="1434.47" y="621.589" width="38.4656" height="219.48" rx="19.2328" transform="rotate(-5.85731 1434.47 621.589)" fill="#F1953C"/>
<rect x="1455.27" y="658.122" width="4.52537" height="380.131" rx="2.26268" transform="rotate(-5.85731 1455.27 658.122)" fill="#FF4949"/>
<rect x="320.438" y="653.224" width="36.4889" height="208.201" rx="18.2445" transform="rotate(38.0248 320.438 653.224)" fill="#F0963C"/>
<rect x="310.643" y="691.885" width="4.29281" height="360.596" rx="2.14641" transform="rotate(38.0248 310.643 691.885)" fill="#FF4949"/>
<rect x="1262.15" y="570.867" width="41.3618" height="236.005" rx="20" transform="rotate(-19.8544 1262.15 570.867)" fill="#F1963C"/>
<rect x="1293.36" y="603.573" width="4.86609" height="408.751" rx="2.43304" transform="rotate(-19.8544 1293.36 603.573)" fill="#FF4949"/>
<rect x="70" y="267" width="44" height="90" fill="#463647"/>
<path d="M62 256H122V262C122 264.761 119.761 267 117 267H67C64.2386 267 62 264.761 62 262V256Z" fill="#463647"/>
<path d="M62 254C62 251.239 64.2386 249 67 249H69C71.7614 249 74 251.239 74 254V256H62V254Z" fill="#463647"/>
<path d="M110 254C110 251.239 112.239 249 115 249H117C119.761 249 122 251.239 122 254V256H110V254Z" fill="#463647"/>
<path d="M87 254C87 251.239 89.2386 249 92 249H94C96.7614 249 99 251.239 99 254V256H87V254Z" fill="#463647"/>
<path d="M97 276C97 274.895 97.8954 274 99 274C100.105 274 101 274.895 101 276V282H97V276Z" fill="#FFF6A3"/>
<path d="M97 275.846C97 274.827 97.8954 274 99 274C100.105 274 101 274.827 101 275.846V282H97V275.846Z" fill="#FFF6A3"/>
<path d="M83 300C83 298.895 83.8954 298 85 298C86.1046 298 87 298.895 87 300V306H83V300Z" fill="#FFF6A3"/>
<path d="M83 299.846C83 298.827 83.8954 298 85 298C86.1046 298 87 298.827 87 299.846V306H83V299.846Z" fill="#FFF6A3"/>
<path d="M97 322C97 320.895 97.8954 320 99 320C100.105 320 101 320.895 101 322V328H97V322Z" fill="#FFF6A3"/>
<path d="M97 321.846C97 320.827 97.8954 320 99 320C100.105 320 101 320.827 101 321.846V328H97V321.846Z" fill="#FFF6A3"/>
<path d="M83 340C83 338.895 83.8954 338 85 338C86.1046 338 87 338.895 87 340V347H83V340Z" fill="#FFF6A3"/>
<path d="M83 340.077C83 338.93 83.8954 338 85 338C86.1046 338 87 338.93 87 340.077V347H83V340.077Z" fill="#FFF6A3"/>
<rect x="1002.33" y="506" width="73.3333" height="150" fill="#463647"/>
<path d="M989 487.667H1089V501C1089 503.762 1086.76 506 1084 506H994C991.239 506 989 503.762 989 501V487.667Z" fill="#463647"/>
<path d="M989 481C989 478.239 991.239 476 994 476H1004C1006.76 476 1009 478.239 1009 481V487.667H989V481Z" fill="#463647"/>
<path d="M1069 481C1069 478.239 1071.24 476 1074 476H1084C1086.76 476 1089 478.239 1089 481V487.667H1069V481Z" fill="#463647"/>
<path d="M1030.67 481C1030.67 478.239 1032.91 476 1035.67 476H1045.67C1048.43 476 1050.67 478.239 1050.67 481V487.667H1030.67V481Z" fill="#463647"/>
<path d="M1047.33 521C1047.33 519.159 1048.83 517.667 1050.67 517.667C1052.51 517.667 1054 519.159 1054 521V531H1047.33V521Z" fill="#FFF6A3"/>
<path d="M1047.33 520.744C1047.33 519.044 1048.83 517.667 1050.67 517.667C1052.51 517.667 1054 519.044 1054 520.744V531H1047.33V520.744Z" fill="#FFF6A3"/>
<path d="M1024 561C1024 559.159 1025.49 557.667 1027.33 557.667C1029.17 557.667 1030.67 559.159 1030.67 561V571H1024V561Z" fill="#FFF6A3"/>
<path d="M1024 560.744C1024 559.044 1025.49 557.667 1027.33 557.667C1029.17 557.667 1030.67 559.044 1030.67 560.744V571H1024V560.744Z" fill="#FFF6A3"/>
<path d="M1047.33 597.667C1047.33 595.826 1048.83 594.333 1050.67 594.333C1052.51 594.333 1054 595.826 1054 597.667V607.667H1047.33V597.667Z" fill="#FFF6A3"/>
<path d="M1047.33 597.41C1047.33 595.711 1048.83 594.333 1050.67 594.333C1052.51 594.333 1054 595.711 1054 597.41V607.667H1047.33V597.41Z" fill="#FFF6A3"/>
<path d="M1024 627.667C1024 625.826 1025.49 624.333 1027.33 624.333C1029.17 624.333 1030.67 625.826 1030.67 627.667V639.333H1024V627.667Z" fill="#FFF6A3"/>
<path d="M1024 627.795C1024 625.883 1025.49 624.333 1027.33 624.333C1029.17 624.333 1030.67 625.883 1030.67 627.795V639.333H1024V627.795Z" fill="#FFF6A3"/>
<path d="M1100.1 618.862L1069.49 647.009L1064.03 639.565L1100.1 618.862Z" fill="#463647"/>
<path d="M1083.73 623.912L1065.9 642.116L1061 635.425L1083.73 623.912Z" fill="#463647"/>
<path d="M1094.94 630.288L1073.1 651.943L1067.71 644.583L1094.94 630.288Z" fill="#463647"/>
<path d="M1085.22 644.413L1075.62 655.372L1071.88 650.27L1085.22 644.413Z" fill="#463647"/>
<path d="M977.855 618.862L1008.46 647.009L1013.92 639.565L977.855 618.862Z" fill="#463647"/>
<path d="M994.221 623.912L1012.05 642.116L1016.95 635.425L994.221 623.912Z" fill="#463647"/>
<path d="M983.013 630.288L1004.85 651.943L1010.24 644.583L983.013 630.288Z" fill="#463647"/>
<path d="M992.73 644.413L1002.34 655.372L1006.07 650.27L992.73 644.413Z" fill="#463647"/>
<path d="M54.1372 333.166L76.9717 350.041L72.6881 354.661L54.1372 333.166Z" fill="#463647"/>
<path d="M59.6435 343.484L74.1563 353.078L70.3058 357.231L59.6435 343.484Z" fill="#463647"/>
<path d="M62.4659 335.144L79.8115 346.978L75.576 351.547L62.4659 335.144Z" fill="#463647"/>
<path d="M73.1938 339.829L81.7845 344.849L78.8486 348.016L73.1938 339.829Z" fill="#463647"/>
<path d="M129.648 332.502L106.813 349.376L111.097 353.997L129.648 332.502Z" fill="#463647"/>
<path d="M124.141 342.819L109.629 352.413L113.479 356.566L124.141 342.819Z" fill="#463647"/>
<path d="M121.319 334.479L103.973 346.314L108.209 350.882L121.319 334.479Z" fill="#463647"/>
<path d="M110.591 339.164L102 344.185L104.936 347.352L110.591 339.164Z" fill="#463647"/>
<rect x="344" y="556" width="3" height="12" fill="#3E2D19"/>
<rect x="486" y="556" width="3" height="12" fill="#3E2D19"/>
<rect x="414" y="556" width="3" height="12" fill="#3E2D19"/>
<rect x="306" y="530" width="3" height="12" fill="#3E2D19"/>
<rect x="342" y="543" width="152" height="13" rx="3" fill="#553D22"/>
<path d="M343.068 524.118C343.583 524.118 344.09 524.251 344.539 524.504L390.525 550.386C393.214 551.9 392.14 556 389.053 556L344.751 556C344.166 556 343.593 555.829 343.104 555.507L303.731 529.625C301.242 527.989 302.401 524.118 305.379 524.118L343.068 524.118Z" fill="#553D22"/>
<rect x="398" y="401" width="24" height="24" rx="3" fill="#463647"/>
<path d="M409.349 391.558C409.724 391.237 410.276 391.237 410.651 391.558L421.948 401.241C422.652 401.845 422.225 403 421.297 403H398.703C397.775 403 397.348 401.845 398.052 401.241L409.349 391.558Z" fill="#463647"/>
<rect x="331" y="459" width="39" height="38" rx="3" fill="#463647"/>
<path d="M349.836 442.591C350.215 442.254 350.785 442.254 351.164 442.591L371.034 460.253C371.721 460.863 371.289 462 370.37 462H330.63C329.711 462 329.279 460.863 329.966 460.253L349.836 442.591Z" fill="#463647"/>
<rect x="246" y="445" width="34" height="34" rx="3" fill="#463647"/>
<path d="M262.331 430.602C262.711 430.26 263.289 430.26 263.669 430.602L281.063 446.257C281.744 446.87 281.311 448 280.394 448H245.606C244.689 448 244.256 446.87 244.937 446.257L262.331 430.602Z" fill="#463647"/>
<rect x="504" y="471" width="31" height="31" rx="3" fill="#463647"/>
<path d="M518.823 457.622C519.206 457.27 519.794 457.27 520.177 457.622L536.11 472.264C536.782 472.88 536.345 474 535.434 474H503.566C502.655 474 502.218 472.88 502.89 472.264L518.823 457.622Z" fill="#463647"/>
<path d="M145.539 562.563C144.757 559.41 147.143 556.359 150.392 556.359H182.54C184.345 556.359 185.808 557.823 185.808 559.628C185.808 561.433 187.271 562.896 189.076 562.896H245.608C249.466 562.896 251.87 567.08 249.928 570.413L238.459 590.101C237.563 591.638 235.918 592.584 234.139 592.584H156.899C154.601 592.584 152.599 591.018 152.046 588.788L145.539 562.563Z" fill="#6F5D47"/>
<path d="M167.316 535.703C166.971 534.583 166.243 533.621 165.26 532.983L153.406 525.29C150.214 523.218 145.969 525.331 145.697 529.127L144.384 547.461C144.176 550.356 146.469 552.819 149.371 552.819H165.822C169.188 552.819 171.593 549.56 170.6 546.344L167.316 535.703Z" fill="#704E7B"/>
<path d="M167.316 535.703C166.971 534.583 166.243 533.621 165.26 532.983L153.406 525.29C150.214 523.218 145.969 525.331 145.697 529.127L144.384 547.461C144.176 550.356 146.469 552.819 149.371 552.819H165.822C169.188 552.819 171.593 549.56 170.6 546.344L167.316 535.703Z" fill="#704E7B"/>
<path d="M204.995 497.454C204.421 495.252 202.433 493.716 200.157 493.716H182.072C179.408 493.716 177.212 495.804 177.078 498.465L176.13 517.335C175.987 520.192 178.264 522.586 181.124 522.586H205.076C208.35 522.586 210.74 519.493 209.914 516.325L204.995 497.454Z" fill="#704E7B"/>
<path d="M204.995 497.454C204.421 495.252 202.433 493.716 200.157 493.716H182.072C179.408 493.716 177.212 495.804 177.078 498.465L176.13 517.335C175.987 520.192 178.264 522.586 181.124 522.586H205.076C208.35 522.586 210.74 519.493 209.914 516.325L204.995 497.454Z" fill="#704E7B"/>
<path d="M193.57 486.814C193.57 485.911 194.442 485.265 195.306 485.527C196.155 485.784 197.062 485.784 197.911 485.527L198.177 485.446C199.135 485.155 200.158 485.159 201.113 485.458L201.32 485.522C202.154 485.782 203.047 485.782 203.881 485.522C204.711 485.263 205.554 485.883 205.554 486.753V488.183C205.554 489.158 204.865 489.997 203.909 490.187C203.045 490.359 202.156 490.361 201.291 490.194L201.041 490.146C200.064 489.958 199.061 489.96 198.085 490.154L197.949 490.181C197.064 490.357 196.153 490.359 195.267 490.188C194.282 489.998 193.57 489.136 193.57 488.133V486.814Z" fill="#8E3E2E"/>
<path d="M229.522 490.627C229.522 489.724 230.394 489.078 231.259 489.34C232.108 489.597 233.014 489.597 233.863 489.34L234.129 489.259C235.087 488.968 236.11 488.972 237.065 489.271L237.272 489.335C238.106 489.595 238.999 489.595 239.833 489.335C240.663 489.076 241.506 489.696 241.506 490.566V491.996C241.506 492.971 240.818 493.81 239.861 494C238.997 494.172 238.108 494.174 237.243 494.007L236.993 493.959C236.017 493.771 235.013 493.773 234.038 493.967L233.901 493.994C233.016 494.17 232.105 494.172 231.219 494.001C230.234 493.811 229.522 492.949 229.522 491.946V490.627Z" fill="#8E3E2E"/>
<path d="M206.577 527.95C206 525.753 204.014 524.22 201.741 524.22H183.443C180.78 524.22 178.584 526.308 178.449 528.968L177.494 547.838C177.35 550.695 179.627 553.091 182.488 553.091H206.698C209.975 553.091 212.366 549.991 211.534 546.821L206.577 527.95Z" fill="#704E7B"/>
<path d="M206.577 527.95C206 525.753 204.014 524.22 201.741 524.22H183.443C180.78 524.22 178.584 526.308 178.449 528.968L177.494 547.838C177.35 550.695 179.627 553.091 182.488 553.091H206.698C209.975 553.091 212.366 549.991 211.534 546.821L206.577 527.95Z" fill="#704E7B"/>
<path d="M244.585 501.274C244.013 499.069 242.023 497.529 239.745 497.529H221.054C218.39 497.529 216.194 499.618 216.061 502.279L215.077 521.967C214.934 524.823 217.211 527.217 220.071 527.217H244.85C248.121 527.217 250.511 524.128 249.69 520.962L244.585 501.274Z" fill="#704E7B"/>
<path d="M244.585 501.274C244.013 499.069 242.023 497.529 239.745 497.529H221.054C218.39 497.529 216.194 499.618 216.061 502.279L215.077 521.967C214.934 524.823 217.211 527.217 220.071 527.217H244.85C248.121 527.217 250.511 524.128 249.69 520.962L244.585 501.274Z" fill="#704E7B"/>
<path d="M244.585 501.274C244.013 499.069 242.023 497.529 239.745 497.529H221.054C218.39 497.529 216.194 499.618 216.061 502.279L215.077 521.967C214.934 524.823 217.211 527.217 220.071 527.217H244.85C248.121 527.217 250.511 524.128 249.69 520.962L244.585 501.274Z" fill="#704E7B"/>
<path d="M244.585 501.274C244.013 499.069 242.023 497.529 239.745 497.529H221.054C218.39 497.529 216.194 499.618 216.061 502.279L215.077 521.967C214.934 524.823 217.211 527.217 220.071 527.217H244.85C248.121 527.217 250.511 524.128 249.69 520.962L244.585 501.274Z" fill="#704E7B"/>
<path d="M245.972 534.442C245.48 532.134 243.442 530.485 241.082 530.485H221.085C217.707 530.485 215.302 533.764 216.315 536.985L220.281 549.592C220.936 551.674 222.867 553.091 225.05 553.091H243.771C246.952 553.091 249.324 550.159 248.661 547.048L245.972 534.442Z" fill="#704E7B"/>
<path d="M245.972 534.442C245.48 532.134 243.442 530.485 241.082 530.485H221.085C217.707 530.485 215.302 533.764 216.315 536.985L220.281 549.592C220.936 551.674 222.867 553.091 225.05 553.091H243.771C246.952 553.091 249.324 550.159 248.661 547.048L245.972 534.442Z" fill="#704E7B"/>
<path d="M245.972 534.442C245.48 532.134 243.442 530.485 241.082 530.485H221.085C217.707 530.485 215.302 533.764 216.315 536.985L220.281 549.592C220.936 551.674 222.867 553.091 225.05 553.091H243.771C246.952 553.091 249.324 550.159 248.661 547.048L245.972 534.442Z" fill="#704E7B"/>
<path d="M245.972 534.442C245.48 532.134 243.442 530.485 241.082 530.485H221.085C217.707 530.485 215.302 533.764 216.315 536.985L220.281 549.592C220.936 551.674 222.867 553.091 225.05 553.091H243.771C246.952 553.091 249.324 550.159 248.661 547.048L245.972 534.442Z" fill="#704E7B"/>
<path d="M264.542 524.189C261.152 520.162 254.643 523.434 255.851 528.557L258.56 540.047C259.327 543.297 263.002 544.897 265.903 543.244L270.609 540.561C273.323 539.015 273.97 535.386 271.958 532.997L264.542 524.189Z" fill="#704E7B"/>
<path d="M279.082 549.056C279.589 548.757 279.757 548.104 279.458 547.597C279.159 547.09 278.505 546.921 277.998 547.22L247.055 565.48C246.548 565.779 246.379 566.433 246.678 566.94C246.978 567.447 247.631 567.615 248.138 567.316L279.082 549.056Z" fill="#6F5D47"/>
<path d="M150.068 580.812C149.286 577.658 151.672 574.608 154.921 574.608H238.785C242.642 574.608 245.047 578.791 243.105 582.125L238.459 590.101C237.563 591.638 235.918 592.584 234.139 592.584H156.899C154.602 592.584 152.6 591.018 152.047 588.788L150.068 580.812Z" fill="#553D22"/>
<rect x="152.988" y="559.9" width="4.08547" height="4.08547" rx="2.04273" fill="#090302"/>
<rect x="163.883" y="559.9" width="4.08547" height="4.08547" rx="2.04273" fill="#090302"/>
<rect x="174.777" y="559.9" width="4.08547" height="4.08547" rx="2.04273" fill="#090302"/>
<path d="M408 417.5C408 416.119 409.119 415 410.5 415C411.881 415 413 416.119 413 417.5V425H408V417.5Z" fill="#FFF6A3"/>
<path d="M408 417.308C408 416.033 409.119 415 410.5 415C411.881 415 413 416.033 413 417.308V425H408V417.308Z" fill="#FFF6A3"/>
<path d="M347 485C347 482.791 348.791 481 351 481C353.209 481 355 482.791 355 485V497H347V485Z" fill="#FFF6A3"/>
<path d="M347 484.692C347 482.653 348.791 481 351 481C353.209 481 355 482.653 355 484.692V497H347V484.692Z" fill="#FFF6A3"/>
<path d="M259 468C259 465.791 260.791 464 263 464C265.209 464 267 465.791 267 468V479H259V468Z" fill="#FFF6A3"/>
<path d="M259 467.462C259 465.55 260.791 464 263 464C265.209 464 267 465.55 267 467.462V479H259V467.462Z" fill="#FFF6A3"/>
<path d="M516 491C516 488.791 517.791 487 520 487C522.209 487 524 488.791 524 491V502H516V491Z" fill="#FFF6A3"/>
<path d="M516 490.462C516 488.55 517.791 487 520 487C522.209 487 524 488.55 524 490.462V502H516V490.462Z" fill="#FFF6A3"/>
<path d="M1436.58 409.313C1437.31 406.236 1441.69 406.236 1442.42 409.313L1466.12 509.308C1466.57 511.192 1465.14 513 1463.21 513H1415.79C1413.86 513 1412.43 511.192 1412.88 509.308L1436.58 409.313Z" fill="#463647"/>
<path d="M1342.08 484.374C1342.81 481.293 1347.19 481.293 1347.92 484.374L1365.13 557.311C1365.57 559.195 1364.15 561 1362.21 561H1327.79C1325.85 561 1324.43 559.195 1324.87 557.311L1342.08 484.374Z" fill="#463647"/>
<path d="M222.582 336.238C223.314 333.165 227.686 333.165 228.418 336.238L240.119 385.304C240.568 387.19 239.139 389 237.2 389H213.8C211.861 389 210.432 387.19 210.881 385.304L222.582 336.238Z" fill="#463647"/>
<path d="M306.083 375.155C306.819 372.088 311.181 372.088 311.917 375.155L320.112 409.3C320.565 411.186 319.135 413 317.195 413H300.805C298.865 413 297.435 411.186 297.888 409.3L306.083 375.155Z" fill="#463647"/>
<path d="M621.083 442.155C621.819 439.088 626.181 439.088 626.917 442.155L635.112 476.3C635.565 478.186 634.135 480 632.195 480H615.805C613.865 480 612.435 478.186 612.888 476.3L621.083 442.155Z" fill="#463647"/>
<path d="M649.586 459.935C650.331 456.884 654.669 456.884 655.414 459.935L662.094 487.288C662.555 489.178 661.124 491 659.179 491H645.821C643.876 491 642.445 489.178 642.906 487.288L649.586 459.935Z" fill="#463647"/>
<path d="M169.576 378.712C170.29 375.608 174.71 375.608 175.424 378.712L183.155 412.328C183.588 414.207 182.16 416 180.232 416H164.768C162.84 416 161.412 414.207 161.845 412.328L169.576 378.712Z" fill="#463647"/>
<path d="M100.077 440.667C100.792 437.567 105.208 437.567 105.923 440.667L117.152 489.325C117.586 491.205 116.158 493 114.229 493H91.7712C89.8419 493 88.4142 491.205 88.848 489.325L100.077 440.667Z" fill="#463647"/>
<path d="M49.5763 416.712C50.2901 413.608 54.7099 413.608 55.4237 416.712L63.1553 450.328C63.5876 452.207 62.16 454 60.2317 454H44.7683C42.84 454 41.4124 452.207 41.8447 450.328L49.5763 416.712Z" fill="#463647"/>
</g>
<defs>
<linearGradient id="paint0_linear_48_2" x1="815.5" y1="-112" x2="815.5" y2="439" gradientUnits="userSpaceOnUse">
<stop stop-color="#723EA1"/>
<stop offset="0.53125" stop-color="#E94C76"/>
<stop offset="0.947917" stop-color="#F2BA44"/>
</linearGradient>
<linearGradient id="paint1_linear_48_2" x1="815.5" y1="439" x2="815.5" y2="1116" gradientUnits="userSpaceOnUse">
<stop stop-color="#F49541"/>
<stop offset="0.489583" stop-color="#CF4177"/>
<stop offset="1" stop-color="#933B8E"/>
</linearGradient>
<linearGradient id="paint2_linear_48_2" x1="680.211" y1="354.042" x2="-4.54529" y2="526.839" gradientUnits="userSpaceOnUse">
<stop stop-color="#654861"/>
<stop offset="1" stop-color="#58317E"/>
</linearGradient>
<linearGradient id="paint3_linear_48_2" x1="876.823" y1="529" x2="-4.00001" y2="529" gradientUnits="userSpaceOnUse">
<stop stop-color="#654861"/>
<stop offset="1" stop-color="#58317E"/>
</linearGradient>
<linearGradient id="paint4_linear_48_2" x1="704" y1="613" x2="704" y2="915" gradientUnits="userSpaceOnUse">
<stop stop-color="#FBE780" stop-opacity="0.24"/>
<stop offset="1" stop-color="#FBE780" stop-opacity="0"/>
</linearGradient>
<linearGradient id="paint5_linear_48_2" x1="892.959" y1="675.213" x2="1795.21" y2="675.213" gradientUnits="userSpaceOnUse">
<stop stop-color="#664A60"/>
<stop offset="1" stop-color="#572F81"/>
</linearGradient>
<linearGradient id="paint6_linear_48_2" x1="892.959" y1="676.785" x2="1795.21" y2="676.785" gradientUnits="userSpaceOnUse">
<stop stop-color="#664A60"/>
<stop offset="1" stop-color="#572F81"/>
</linearGradient>
<linearGradient id="paint7_linear_48_2" x1="528.683" y1="597" x2="177.951" y2="898.617" gradientUnits="userSpaceOnUse">
<stop stop-color="#765FA4"/>
<stop offset="0.723958" stop-color="#2E2966"/>
<stop offset="1" stop-color="#2E2966"/>
</linearGradient>
<clipPath id="clip0_48_2">
<rect width="1600" height="900" fill="white"/>
</clipPath>
</defs>
</svg>
