<svg width="1600" height="900" viewBox="0 0 1600 900" fill="none" xmlns="http://www.w3.org/2000/svg">
<g clip-path="url(#clip0_17_3)">
<rect width="1600" height="900" fill="white"/>
<rect x="-4" y="-112" width="1639" height="551" fill="url(#paint0_linear_17_3)"/>
<path d="M1225.47 288H1654.54C1663.08 288 1670 281.032 1670 272.437C1670 263.841 1663.08 256.873 1654.54 256.873H1628.71C1629.06 254.998 1629.27 253.062 1629.27 251.078C1629.27 234.618 1616 221.277 1599.65 221.277C1591.11 221.277 1583.42 224.915 1578.01 230.728C1575.25 212.616 1559.7 198.743 1540.92 198.743C1539.92 198.743 1538.91 198.795 1537.91 198.876C1536.78 154.567 1500.72 119 1456.41 119C1423.17 119 1394.58 139.014 1381.88 167.716C1372.26 161.413 1360.77 157.736 1348.43 157.736C1315.04 157.736 1287.9 184.54 1287.05 217.922C1271.85 219.192 1259.91 231.994 1259.91 247.611C1259.91 247.784 1259.92 247.955 1259.92 248.126C1259.92 248.22 1259.93 248.313 1259.93 248.407C1258.52 248.065 1257.05 247.864 1255.53 247.864C1248.77 247.864 1242.86 251.475 1239.56 256.873H1225.47C1224.11 256.873 1222.79 257.051 1221.53 257.384C1214.89 259.137 1210 265.212 1210 272.437C1210 275.691 1210.99 278.713 1212.69 281.211C1215.48 285.309 1220.16 288 1225.47 288Z" fill="#FACECB"/>
<path fill-rule="evenodd" clip-rule="evenodd" d="M-41.1065 200C-52.0933 200 -61 191.194 -61 180.329C-61 169.465 -52.0933 160.658 -41.1065 160.658H-22.368C-22.7184 158.897 -22.9066 157.079 -22.9066 155.217C-22.9066 139.73 -10.2097 127.175 5.45168 127.175C15.6344 127.175 24.5584 132.483 29.5596 140.451C35.8195 126.235 50.1446 116.292 66.8251 116.292C72.2437 116.292 77.4106 117.35 82.1383 119.254C83.6777 81.3029 115.262 51 154.018 51C186.854 51 214.534 72.7584 223.166 102.485C228.922 99.0301 235.678 97.0398 242.903 97.0398C249.454 97.0398 255.616 98.6759 260.998 101.556C265.754 104.103 269.902 107.621 273.168 111.842C281.956 102.728 294.346 97.0398 308.086 97.0398C334.131 97.0398 355.346 117.449 356.293 142.976C360.513 139.39 365.998 137.22 371.998 137.22C385.181 137.22 395.887 147.676 396.114 160.658H443.107C454.093 160.658 463 169.465 463 180.329C463 191.194 454.093 200 443.107 200H-41.1065ZM214.831 160.164C214.779 160.246 214.726 160.326 214.674 160.407L214.511 160.658H215.306C215.259 160.61 215.212 160.562 215.165 160.514C215.052 160.399 214.939 160.284 214.831 160.164Z" fill="#FAC3D1"/>
<path fill-rule="evenodd" clip-rule="evenodd" d="M1015.53 108H1320.47C1327.39 108 1333 102.386 1333 95.4581C1333 88.5318 1327.39 82.9177 1320.47 82.9177H1308.67C1308.89 81.7939 1309.01 80.6347 1309.01 79.4465C1309.01 69.5724 1301.02 61.5675 1291.15 61.5675C1284.74 61.5675 1279.12 64.9533 1275.97 70.0329C1272.03 60.9702 1263.01 54.6299 1252.5 54.6299C1249.09 54.6299 1245.83 55.3029 1242.86 56.5168C1241.89 32.3201 1222 13 1197.59 13C1176.91 13 1159.48 26.8734 1154.04 45.8248C1150.42 43.6223 1146.16 42.3536 1141.61 42.3536C1133.84 42.3536 1126.93 46.0566 1122.55 51.7915C1119.08 48.1433 1114.71 45.3565 1109.8 43.7867C1106.88 42.8577 1103.78 42.3536 1100.56 42.3536C1084.16 42.3536 1070.8 55.3657 1070.2 71.6412C1067.54 69.3566 1064.09 67.972 1060.31 67.972C1052.01 67.972 1045.27 74.6391 1045.12 82.9177H1015.53C1008.61 82.9177 1003 88.5318 1003 95.4581C1003 102.386 1008.61 108 1015.53 108ZM1158.99 82.9177L1159.29 82.6022L1159.49 82.9177H1158.99Z" fill="#CE84B5"/>
<circle opacity="0.1" cx="715.708" cy="159.583" r="423.613" fill="#FCEA9E"/>
<circle opacity="0.3" cx="715.708" cy="159.584" r="244.089" fill="#FCEA9E"/>
<circle cx="715.709" cy="159.584" r="151.178" fill="#F4E659"/>
<rect x="-4" y="439" width="1639" height="677" fill="url(#paint1_linear_17_3)"/>
<path d="M-4 323.761C-4 321.835 -2.21111 320.408 -0.333345 320.836L887.004 523.075C890.49 523.869 889.912 529 886.337 529H-1.00002C-2.65687 529 -4 527.657 -4 526V323.761Z" fill="url(#paint2_linear_17_3)"/>
<path d="M-4 731.251C-4 733.173 -2.2178 734.6 -0.342451 734.178L886.616 534.927C890.11 534.142 889.539 529 885.958 529H-1.00002C-2.65687 529 -4 530.343 -4 532V731.251Z" fill="url(#paint3_linear_17_3)" fill-opacity="0.2"/>
<circle cx="704" cy="764" r="151" fill="url(#paint4_linear_17_3)"/>
<path d="M1796 340.31C1796 338.221 1793.92 336.771 1791.96 337.497L893.696 670.187C890.557 671.349 891.391 676 894.738 676H1793C1794.66 676 1796 674.657 1796 673V340.31Z" fill="url(#paint5_linear_17_3)"/>
<path opacity="0.2" d="M1796 1010.69C1796 1012.78 1793.92 1014.23 1791.96 1013.51L893.745 681.814C890.604 680.654 891.436 676 894.784 676H1793C1794.66 676 1796 677.343 1796 679V1010.69Z" fill="url(#paint6_linear_17_3)"/>
<path d="M4.20473 600.712L-25.2165 605.881C-33.1871 607.282 -39 614.205 -39 622.298L-33.5383 860.074C-32.3734 910.789 6.57967 952.597 57.0854 957.34L520.088 1000.82C545.398 1003.2 568.425 986.098 573.468 961.182C576.345 946.971 572.875 932.212 563.967 920.771L545.843 897.493C536.922 886.036 532.968 871.48 534.867 857.085L536.17 847.205C541.121 809.661 502.531 781.39 467.846 796.59C442.642 807.635 412.989 795.239 403.606 769.37L403.008 767.72C395.177 746.129 372.517 733.725 350.109 738.762C330.684 743.129 310.671 734.396 300.661 717.187L280.794 683.029C258.412 644.55 213.202 625.61 170.076 636.648L150.444 641.673C122.385 648.855 92.5904 643.518 68.7685 627.043L42.9651 609.198C31.6637 601.382 17.7382 598.333 4.20473 600.712Z" fill="url(#paint7_linear_17_3)"/>
<path d="M1697 533C1680.84 544.914 1665 557.25 1649.19 569.613C1639.74 576.998 1630.29 584.384 1620.86 591.769C1595.24 611.794 1567.53 632.669 1534.86 635.31C1502.91 637.892 1472.72 622.52 1441.81 614.192C1410.9 605.866 1371.78 607.447 1354.29 633.752C1332.98 665.795 1355.01 718.146 1323.93 741.29C1292.43 764.748 1243.83 729.053 1208.55 746.623C1174.39 763.64 1178.5 816.012 1149.47 840.518C1114.8 869.788 1058.75 842.058 1016.29 858.824C975.952 874.756 961.827 924.179 927.766 950.667C899.6 972.571 861.391 976.245 825.511 978.74C789.63 981.235 751.529 984.176 722.59 1005.09C703.588 1018.83 692.482 1039.91 694.168 1061H1697V533Z" fill="#26285A"/>
<rect opacity="0.6" x="1066" y="474" width="243" height="10" rx="5" fill="#F4A34A"/>
<rect x="322" y="571" width="242" height="13" rx="6.5" fill="#D37969"/>
<rect x="122" y="613" width="243" height="10" rx="5" fill="#D5806B"/>
<rect opacity="0.6" x="897" y="506" width="242" height="7" rx="3.5" fill="#F4A34A"/>
<rect x="275" y="642" width="399" height="8" rx="4" fill="#DC817C"/>
<rect x="1051" y="550" width="88" height="11" rx="5.5" fill="#F38355"/>
<rect x="817" y="603" width="107" height="10" rx="5" fill="#EF8C6D"/>
<rect opacity="0.5" x="817" y="802" width="197" height="11" rx="5.5" fill="#DC807A"/>
<rect opacity="0.5" x="525" y="731" width="197" height="11" rx="5.5" fill="#DC807A"/>
<path d="M801.062 185.914L800.948 171.292C800.869 161.092 795.129 151.78 786.052 147.127C778.228 162.388 784.255 181.103 799.517 188.928C814.78 196.753 833.494 190.722 841.319 175.461C832.24 170.806 821.329 171.581 813 177.471L801.062 185.914Z" fill="#ED2B3C"/>
<path d="M938.209 192.707L933.019 187.465C929.398 183.808 924.046 182.465 919.128 183.981C921.676 192.249 930.444 196.887 938.713 194.339C946.982 191.791 951.619 183.022 949.071 174.754C944.152 176.27 940.483 180.392 939.549 185.453L938.209 192.707Z" fill="#ED2B3C"/>
<path d="M1008.14 241.008L1016.33 248.159C1022.04 253.147 1030.05 254.55 1037.12 251.799C1032.49 239.919 1019.11 234.037 1007.23 238.662C995.349 243.288 989.469 256.668 994.094 268.548C1001.16 265.797 1006.11 259.348 1006.95 251.811L1008.14 241.008Z" fill="#ED2B3C"/>
<path d="M990.914 326.015L981.816 314.502C975.468 306.469 965.77 302.779 956.647 304.924C960.672 322.045 976.37 333.002 991.709 329.396C1007.05 325.789 1016.22 308.985 1012.19 291.865C1003.07 294.01 996.032 301.635 993.929 311.654L990.914 326.015Z" fill="#ED2B3C"/>
<path d="M1090.09 362.785L1083.81 352.779C1079.44 345.797 1072 341.997 1064.51 342.916C1066.24 356.965 1077.84 367.104 1090.43 365.56C1103.01 364.015 1111.82 351.373 1110.1 337.323C1102.61 338.242 1096.31 343.727 1093.75 351.559L1090.09 362.785Z" fill="#ED2B3C"/>
<path d="M735.01 228.096L741.927 235.621C746.753 240.871 754.096 243.005 760.983 241.159C757.88 229.579 745.978 222.706 734.397 225.809C722.816 228.912 715.945 240.816 719.048 252.396C725.936 250.55 731.228 245.031 732.783 238.071L735.01 228.096Z" fill="#ED2B3C"/>
<path d="M539.063 708.69C536.941 705.361 539.332 701.002 543.279 701.002H693.361C696.439 701.002 698.785 703.755 698.298 706.794L694.705 729.195C694.317 731.62 692.224 733.404 689.769 733.404H557.56C555.852 733.404 554.262 732.532 553.344 731.091L539.063 708.69Z" fill="#5B4261"/>
<rect x="495.239" y="679.372" width="2.1352" height="51.2447" rx="1.0676" transform="rotate(-59.4554 495.239 679.372)" fill="#252823"/>
<path d="M659.547 672.154C659.891 671.035 660.618 670.073 661.599 669.434L683.033 655.495C686.225 653.418 690.475 655.531 690.746 659.33L693.138 692.793C693.345 695.687 691.053 698.149 688.151 698.149H658.313C654.949 698.149 652.544 694.893 653.535 691.678L659.547 672.154Z" fill="#704E7B"/>
<path d="M659.547 672.154C659.891 671.035 660.618 670.073 661.599 669.434L683.033 655.495C686.225 653.418 690.475 655.531 690.746 659.33L693.138 692.793C693.345 695.687 691.053 698.149 688.151 698.149H658.313C654.949 698.149 652.544 694.893 653.535 691.678L659.547 672.154Z" fill="#704E7B"/>
<path d="M657.572 623.057C658.057 620.74 660.099 619.081 662.466 619.081H680.728C683.873 619.081 686.237 621.95 685.636 625.037L680.441 651.718C679.983 654.067 677.926 655.762 675.533 655.762H656.881C653.708 655.762 651.337 652.844 651.987 649.738L657.572 623.057Z" fill="#704E7B"/>
<path d="M657.572 623.057C658.057 620.74 660.099 619.081 662.466 619.081H680.728C683.873 619.081 686.237 621.95 685.636 625.037L680.441 651.718C679.983 654.067 677.926 655.762 675.533 655.762H656.881C653.708 655.762 651.337 652.844 651.987 649.738L657.572 623.057Z" fill="#704E7B"/>
<path d="M604.391 615.073C604.966 612.873 606.954 611.338 609.228 611.338H639.964C642.627 611.338 644.823 613.426 644.957 616.086L646.59 648.473C646.734 651.33 644.456 653.725 641.596 653.725H600.755C597.479 653.725 595.088 650.628 595.918 647.46L604.391 615.073Z" fill="#704E7B"/>
<path d="M604.391 615.073C604.966 612.873 606.954 611.338 609.228 611.338H639.964C642.627 611.338 644.823 613.426 644.957 616.086L646.59 648.473C646.734 651.33 644.456 653.725 641.596 653.725H600.755C597.479 653.725 595.088 650.628 595.918 647.46L604.391 615.073Z" fill="#704E7B"/>
<path d="M602.151 659.91C602.725 657.707 604.714 656.169 606.99 656.169H637.72C640.384 656.169 642.58 658.258 642.714 660.919L644.349 693.51C644.492 696.366 642.215 698.76 639.355 698.76H598.504C595.231 698.76 592.841 695.668 593.666 692.5L602.151 659.91Z" fill="#704E7B"/>
<path d="M602.151 659.91C602.725 657.707 604.714 656.169 606.99 656.169H637.72C640.384 656.169 642.58 658.258 642.714 660.919L644.349 693.51C644.492 696.366 642.215 698.76 639.355 698.76H598.504C595.231 698.76 592.841 695.668 593.666 692.5L602.151 659.91Z" fill="#704E7B"/>
<path d="M609.754 580.643C610.326 578.438 612.316 576.898 614.594 576.898H635.405C638.07 576.898 640.266 578.987 640.399 581.649L641.498 603.643C641.64 606.498 639.363 608.892 636.504 608.892H608.891C605.621 608.892 603.231 605.803 604.051 602.637L609.754 580.643Z" fill="#704E7B"/>
<path d="M609.754 580.643C610.326 578.438 612.316 576.898 614.594 576.898H635.405C638.07 576.898 640.266 578.987 640.399 581.649L641.498 603.643C641.64 606.498 639.363 608.892 636.504 608.892H608.891C605.621 608.892 603.231 605.803 604.051 602.637L609.754 580.643Z" fill="#704E7B"/>
<path d="M609.754 580.643C610.326 578.438 612.316 576.898 614.594 576.898H635.405C638.07 576.898 640.266 578.987 640.399 581.649L641.498 603.643C641.64 606.498 639.363 608.892 636.504 608.892H608.891C605.621 608.892 603.231 605.803 604.051 602.637L609.754 580.643Z" fill="#704E7B"/>
<path d="M609.754 580.643C610.326 578.438 612.316 576.898 614.594 576.898H635.405C638.07 576.898 640.266 578.987 640.399 581.649L641.498 603.643C641.64 606.498 639.363 608.892 636.504 608.892H608.891C605.621 608.892 603.231 605.803 604.051 602.637L609.754 580.643Z" fill="#704E7B"/>
<path d="M558.749 589.196C559.323 586.994 561.312 585.457 563.588 585.457H580.591C583.255 585.457 585.452 587.545 585.585 590.206L586.474 607.92C586.618 610.777 584.341 613.171 581.481 613.171H558.972C555.699 613.171 553.308 610.078 554.134 606.91L558.749 589.196Z" fill="#704E7B"/>
<path d="M558.749 589.196C559.323 586.994 561.312 585.457 563.588 585.457H580.591C583.255 585.457 585.452 587.545 585.585 590.206L586.474 607.92C586.618 610.777 584.341 613.171 581.481 613.171H558.972C555.699 613.171 553.308 610.078 554.134 606.91L558.749 589.196Z" fill="#704E7B"/>
<path d="M558.749 589.196C559.323 586.994 561.312 585.457 563.588 585.457H580.591C583.255 585.457 585.452 587.545 585.585 590.206L586.474 607.92C586.618 610.777 584.341 613.171 581.481 613.171H558.972C555.699 613.171 553.308 610.078 554.134 606.91L558.749 589.196Z" fill="#704E7B"/>
<path d="M558.749 589.196C559.323 586.994 561.312 585.457 563.588 585.457H580.591C583.255 585.457 585.452 587.545 585.585 590.206L586.474 607.92C586.618 610.777 584.341 613.171 581.481 613.171H558.972C555.699 613.171 553.308 610.078 554.134 606.91L558.749 589.196Z" fill="#704E7B"/>
<path d="M546.169 620.79C546.741 618.584 548.731 617.043 551.01 617.043H582.648C585.313 617.043 587.509 619.133 587.642 621.794L589.329 655.608C589.472 658.463 587.195 660.857 584.336 660.857H542.252C538.982 660.857 536.592 657.769 537.412 654.603L546.169 620.79Z" fill="#704E7B"/>
<path d="M546.169 620.79C546.741 618.584 548.731 617.043 551.01 617.043H582.648C585.313 617.043 587.509 619.133 587.642 621.794L589.329 655.608C589.472 658.463 587.195 660.857 584.336 660.857H542.252C538.982 660.857 536.592 657.769 537.412 654.603L546.169 620.79Z" fill="#704E7B"/>
<path d="M546.169 620.79C546.741 618.584 548.731 617.043 551.01 617.043H582.648C585.313 617.043 587.509 619.133 587.642 621.794L589.329 655.608C589.472 658.463 587.195 660.857 584.336 660.857H542.252C538.982 660.857 536.592 657.769 537.412 654.603L546.169 620.79Z" fill="#704E7B"/>
<path d="M546.169 620.79C546.741 618.584 548.731 617.043 551.01 617.043H582.648C585.313 617.043 587.509 619.133 587.642 621.794L589.329 655.608C589.472 658.463 587.195 660.857 584.336 660.857H542.252C538.982 660.857 536.592 657.769 537.412 654.603L546.169 620.79Z" fill="#704E7B"/>
<path d="M544.094 669.3C544.585 666.991 546.624 665.34 548.984 665.34H583.599C586.974 665.34 589.38 668.615 588.37 671.836L581.026 695.256C580.372 697.341 578.44 698.76 576.255 698.76H544.006C540.826 698.76 538.454 695.831 539.115 692.721L544.094 669.3Z" fill="#704E7B"/>
<path d="M544.094 669.3C544.585 666.991 546.624 665.34 548.984 665.34H583.599C586.974 665.34 589.38 668.615 588.37 671.836L581.026 695.256C580.372 697.341 578.44 698.76 576.255 698.76H544.006C540.826 698.76 538.454 695.831 539.115 692.721L544.094 669.3Z" fill="#704E7B"/>
<path d="M544.094 669.3C544.585 666.991 546.624 665.34 548.984 665.34H583.599C586.974 665.34 589.38 668.615 588.37 671.836L581.026 695.256C580.372 697.341 578.44 698.76 576.255 698.76H544.006C540.826 698.76 538.454 695.831 539.115 692.721L544.094 669.3Z" fill="#704E7B"/>
<path d="M544.094 669.3C544.585 666.991 546.624 665.34 548.984 665.34H583.599C586.974 665.34 589.38 668.615 588.37 671.836L581.026 695.256C580.372 697.341 578.44 698.76 576.255 698.76H544.006C540.826 698.76 538.454 695.831 539.115 692.721L544.094 669.3Z" fill="#704E7B"/>
<path d="M522.697 648.843C526.081 644.807 532.6 648.071 531.397 653.198L524.481 682.655C523.716 685.911 520.032 687.513 517.129 685.852L505.116 678.975C502.412 677.427 501.767 673.811 503.768 671.424L522.697 648.843Z" fill="#704E7B"/>
<path d="M538.929 708.711C536.783 705.384 539.172 701.002 543.131 701.002H693.493C696.594 701.002 698.948 703.797 698.42 706.853L696.874 715.805C696.46 718.202 694.38 719.954 691.947 719.954H548.903C547.204 719.954 545.621 719.091 544.7 717.663L538.929 708.711Z" fill="#252823"/>
<path d="M546.31 712.33C544.218 709 546.612 704.67 550.544 704.67H688.716C691.779 704.67 694.122 707.4 693.658 710.427L693.41 712.043C693.037 714.484 690.937 716.286 688.468 716.286H551.559C549.839 716.286 548.239 715.402 547.325 713.945L546.31 712.33Z" fill="#757575"/>
<rect x="561.061" y="707.727" width="5.29837" height="5.29837" rx="2.64919" fill="#090302"/>
<rect x="575.937" y="707.727" width="5.50216" height="5.29837" rx="2.64919" fill="#090302"/>
<rect x="591.018" y="707.727" width="5.29837" height="5.29837" rx="2.64919" fill="#090302"/>
<rect x="605.894" y="707.727" width="5.29837" height="5.29837" rx="2.64919" fill="#090302"/>
<rect x="620.771" y="707.727" width="5.50216" height="5.29837" rx="2.64919" fill="#090302"/>
<rect x="635.85" y="707.727" width="5.29837" height="5.29837" rx="2.64919" fill="#090302"/>
<rect x="650.726" y="707.727" width="5.29837" height="5.29837" rx="2.64919" fill="#090302"/>
<rect x="665.602" y="707.727" width="5.50216" height="5.29837" rx="2.64919" fill="#090302"/>
<rect x="680.682" y="707.727" width="5.29837" height="5.29837" rx="2.64919" fill="#090302"/>
<path d="M329.376 881.251C293.315 906.875 246.468 904.892 233.994 903.827C232.262 903.679 231.134 902.092 231.564 900.407C234.661 888.277 248.2 843.385 284.26 817.761C320.32 792.137 367.168 794.119 379.642 795.185C381.374 795.333 382.502 796.92 382.072 798.604C378.975 810.734 365.436 855.627 329.376 881.251Z" fill="#795BA5"/>
<rect x="360.848" y="809.607" width="1.83985" height="229.368" rx="0.919927" transform="rotate(54.6029 360.848 809.607)" fill="#623695"/>
<rect x="349.979" y="837.72" width="1.83985" height="25.1447" rx="0.919927" transform="rotate(95.9791 349.979 837.72)" fill="#623695"/>
<rect width="1.83985" height="25.1447" rx="0.919927" transform="matrix(0.973472 0.228804 0.228804 -0.973472 304.374 850.566)" fill="#623695"/>
<rect width="1.83985" height="25.1447" rx="0.919927" transform="matrix(0.973472 0.228804 0.228804 -0.973472 263.881 879.34)" fill="#623695"/>
<rect x="309.486" y="866.495" width="1.83985" height="25.1447" rx="0.919927" transform="rotate(95.9791 309.486 866.495)" fill="#623695"/>
<path d="M203.116 867.509C196.941 920.515 156.86 960.711 146.623 970.199C145.348 971.381 143.392 971.153 142.423 969.709C134.641 958.122 104.874 909.789 111.05 856.783C117.225 803.777 157.306 763.581 167.543 754.093C168.818 752.911 170.774 753.139 171.744 754.582C179.526 766.17 209.292 814.503 203.116 867.509Z" fill="#795BA5"/>
<rect x="164.882" y="782.597" width="2.18951" height="272.959" rx="1.09475" transform="rotate(6.64534 164.882 782.597)" fill="#623695"/>
<rect x="181.065" y="814.608" width="2.18951" height="29.9233" rx="1.09475" transform="rotate(48.0215 181.065 814.608)" fill="#623695"/>
<rect width="2.18951" height="29.9233" rx="1.09475" transform="matrix(0.821837 -0.569722 -0.569722 -0.821837 156.073 865.15)" fill="#623695"/>
<rect width="2.18951" height="29.9233" rx="1.09475" transform="matrix(0.821837 -0.569722 -0.569722 -0.821837 149.232 923.87)" fill="#623695"/>
<rect x="174.224" y="873.327" width="2.18951" height="29.9233" rx="1.09475" transform="rotate(48.0215 174.224 873.327)" fill="#623695"/>
<path d="M115.899 852.952C137.359 909.66 110.994 973.527 105.005 986.748C104.358 988.177 102.773 988.777 101.342 988.134C88.1005 982.19 26.0581 951.779 4.59819 895.071C-16.8617 838.363 9.50355 774.496 15.4922 761.275C16.1394 759.846 17.7242 759.247 19.1553 759.889C32.3965 765.833 94.439 796.244 115.899 852.952Z" fill="#653795"/>
<rect x="27.0879" y="791.679" width="2.81111" height="303.094" rx="1.40556" transform="rotate(-20.728 27.0879 791.679)" fill="#532B81"/>
<rect width="2.65184" height="35.5885" rx="1.32592" transform="matrix(0.958454 0.285248 -0.419414 0.907795 62.5991 813.767)" fill="#532B81"/>
<rect width="2.65184" height="35.5885" rx="1.32592" transform="matrix(0.52948 -0.848323 -0.915337 -0.402689 60.6797 877.53)" fill="#532B81"/>
<rect width="2.65184" height="35.5885" rx="1.32592" transform="matrix(0.958454 0.285248 -0.419414 0.907795 85.8325 875.161)" fill="#532B81"/>
<path d="M1373.09 810.64C1434.61 874.826 1432.21 978.987 1431.32 996.766C1431.25 998.287 1430.06 999.42 1428.54 999.432C1410.74 999.569 1306.57 997.531 1245.06 933.345C1183.54 869.159 1185.94 764.998 1186.83 747.219C1186.9 745.698 1188.09 744.564 1189.61 744.553C1207.41 744.416 1311.58 746.454 1373.09 810.64Z" fill="#795BA5"/>
<rect x="1219.11" y="782.15" width="4.18916" height="434.161" rx="2.09458" transform="rotate(-43.782 1219.11 782.15)" fill="#623695"/>
<rect width="3.89623" height="52.0353" rx="1.94812" transform="matrix(0.991292 -0.131678 -0.0501688 0.998741 1279.36 790.33)" fill="#623695"/>
<rect width="3.89623" height="52.0353" rx="1.94812" transform="matrix(0.173693 -0.9848 -0.999971 0.00767258 1311.58 876.422)" fill="#623695"/>
<rect width="3.89623" height="52.0353" rx="1.94812" transform="matrix(0.991292 -0.131678 -0.0501688 0.998741 1344.42 858.217)" fill="#623695"/>
<path d="M1580 861.018C1560.5 947.756 1472.37 1003.32 1457.06 1012.4C1455.75 1013.18 1454.15 1012.82 1453.3 1011.56C1443.35 996.799 1387.48 908.856 1406.98 822.117C1426.48 735.379 1514.62 679.812 1529.93 670.731C1531.24 669.954 1532.83 670.313 1533.69 671.576C1543.64 686.336 1599.5 774.28 1580 861.018Z" fill="#684A93"/>
<rect x="1518.65" y="716.936" width="4.18916" height="434.161" rx="2.09458" transform="rotate(12.6711 1518.65 716.936)" fill="#623695"/>
<rect width="3.89623" height="52.0353" rx="1.94812" transform="matrix(0.657553 0.753408 -0.860108 0.510112 1545.13 771.673)" fill="#623695"/>
<rect width="3.89623" height="52.0353" rx="1.94812" transform="matrix(0.916751 -0.399458 -0.558999 -0.829169 1491.19 846.104)" fill="#623695"/>
<rect width="3.89623" height="52.0353" rx="1.94812" transform="matrix(0.916751 -0.399458 -0.558999 -0.829169 1470.56 937.844)" fill="#623695"/>
<rect width="3.89623" height="52.0353" rx="1.94812" transform="matrix(0.657553 0.753408 -0.860108 0.510112 1524.51 863.413)" fill="#623695"/>
<rect x="103.128" y="673.615" width="26.5312" height="151.384" rx="13.2656" transform="rotate(4.99691 103.128 673.615)" fill="#EE973C"/>
<rect x="112.478" y="701.065" width="3.12132" height="262.191" rx="1.56066" transform="rotate(4.99691 112.478 701.065)" fill="#FF4949"/>
<rect x="1434.47" y="621.589" width="38.4656" height="219.48" rx="19.2328" transform="rotate(-5.85731 1434.47 621.589)" fill="#F1953C"/>
<rect x="1455.27" y="658.122" width="4.52537" height="380.131" rx="2.26268" transform="rotate(-5.85731 1455.27 658.122)" fill="#FF4949"/>
<rect x="320.438" y="653.224" width="36.4889" height="208.201" rx="18.2445" transform="rotate(38.0248 320.438 653.224)" fill="#F0963C"/>
<rect x="310.643" y="691.885" width="4.29281" height="360.596" rx="2.14641" transform="rotate(38.0248 310.643 691.885)" fill="#FF4949"/>
<rect x="1262.15" y="570.867" width="41.3618" height="236.005" rx="20" transform="rotate(-19.8544 1262.15 570.867)" fill="#F1963C"/>
<rect x="1293.36" y="603.573" width="4.86609" height="408.751" rx="2.43304" transform="rotate(-19.8544 1293.36 603.573)" fill="#FF4949"/>
<path d="M755 427C755 424.239 757.239 422 760 422H768C770.761 422 773 424.239 773 427V432H755V427Z" fill="#463647"/>
<path d="M719 427C719 424.239 721.239 422 724 422H732C734.761 422 737 424.239 737 427V432H719V427Z" fill="#463647"/>
<rect x="706" y="432" width="81" height="89" fill="#463647"/>
<path d="M732 453C732 451.343 733.343 450 735 450C736.657 450 738 451.343 738 453V462H732V453Z" fill="#FFF6A3"/>
<path d="M732 452.769C732 451.24 733.343 450 735 450C736.657 450 738 451.24 738 452.769V462H732V452.769Z" fill="#FFF6A3"/>
<path d="M754 453C754 451.343 755.343 450 757 450C758.657 450 760 451.343 760 453V462H754V453Z" fill="#FFF6A3"/>
<path d="M754 452.769C754 451.24 755.343 450 757 450C758.657 450 760 451.24 760 452.769V462H754V452.769Z" fill="#FFF6A3"/>
<path d="M726.713 484.586C726.713 481.824 728.952 479.586 731.713 479.586H760.367C763.128 479.586 765.367 481.824 765.367 484.586V521H726.713V484.586Z" fill="#3D2B49"/>
<rect x="731.315" y="480.506" width="2.76096" height="39.5737" rx="1.38048" fill="#252823"/>
<rect x="758.004" y="480.506" width="2.76096" height="39.5737" rx="1.38048" fill="#252823"/>
<rect x="740.518" y="480.506" width="2.76096" height="39.5737" rx="1.38048" fill="#252823"/>
<rect x="748.801" y="480.506" width="2.76096" height="39.5737" rx="1.38048" fill="#252823"/>
<rect x="726.713" y="515.478" width="2.76096" height="38.6534" rx="1.38048" transform="rotate(-90 726.713 515.478)" fill="#252823"/>
<rect x="726.713" y="488.789" width="2.76096" height="38.6534" rx="1.38048" transform="rotate(-90 726.713 488.789)" fill="#252823"/>
<rect x="726.713" y="506.275" width="2.76096" height="38.6534" rx="1.38048" transform="rotate(-90 726.713 506.275)" fill="#252823"/>
<rect x="726.713" y="497.992" width="2.76096" height="38.6534" rx="1.38048" transform="rotate(-90 726.713 497.992)" fill="#252823"/>
<rect x="642.044" y="391.235" width="64.4223" height="129.765" fill="#463647"/>
<path d="M631 375.59H717.51V386.235C717.51 388.996 715.271 391.235 712.51 391.235H636C633.239 391.235 631 388.996 631 386.235V375.59Z" fill="#463647"/>
<path d="M631 370.466C631 367.705 633.239 365.466 636 365.466H643.486C646.247 365.466 648.486 367.705 648.486 370.466V375.59H631V370.466Z" fill="#463647"/>
<path d="M700.024 370.466C700.024 367.705 702.263 365.466 705.024 365.466H712.51C715.271 365.466 717.51 367.705 717.51 370.466V375.59H700.024V370.466Z" fill="#463647"/>
<path d="M666.892 370.466C666.892 367.705 669.131 365.466 671.892 365.466H679.378C682.14 365.466 684.378 367.705 684.378 370.466V375.59H666.892V370.466Z" fill="#463647"/>
<path d="M681.617 404.119C681.617 402.595 682.854 401.359 684.378 401.359C685.903 401.359 687.139 402.595 687.139 404.119V413.323H681.617V404.119Z" fill="#FFF6A3"/>
<path d="M681.617 404.119C681.617 402.595 682.854 401.359 684.378 401.359C685.903 401.359 687.139 402.595 687.139 404.119V413.323H681.617V404.119Z" fill="#FFF6A3"/>
<path d="M661.371 438.171C661.371 436.646 662.607 435.41 664.132 435.41C665.656 435.41 666.893 436.646 666.893 438.171V447.374H661.371V438.171Z" fill="#FFF6A3"/>
<path d="M661.371 438.171C661.371 436.646 662.607 435.41 664.132 435.41C665.656 435.41 666.893 436.646 666.893 438.171V447.374H661.371V438.171Z" fill="#FFF6A3"/>
<path d="M681.617 470.382C681.617 468.858 682.854 467.621 684.378 467.621C685.903 467.621 687.139 468.858 687.139 470.382V479.586H681.617V470.382Z" fill="#FFF6A3"/>
<path d="M681.617 470.382C681.617 468.858 682.854 467.621 684.378 467.621C685.903 467.621 687.139 468.858 687.139 470.382V479.586H681.617V470.382Z" fill="#FFF6A3"/>
<path d="M661.371 497.072C661.371 495.547 662.607 494.311 664.132 494.311C665.656 494.311 666.893 495.547 666.893 497.072V506.275H661.371V497.072Z" fill="#FFF6A3"/>
<path d="M661.371 497.072C661.371 495.547 662.607 494.311 664.132 494.311C665.656 494.311 666.893 495.547 666.893 497.072V506.275H661.371V497.072Z" fill="#FFF6A3"/>
<rect x="786.534" y="391.235" width="64.4223" height="129.765" fill="#463647"/>
<path d="M775.49 375.59H862V386.235C862 388.996 859.761 391.235 857 391.235H780.49C777.729 391.235 775.49 388.996 775.49 386.235V375.59Z" fill="#463647"/>
<path d="M775.49 370.466C775.49 367.705 777.729 365.466 780.49 365.466H787.976C790.737 365.466 792.976 367.705 792.976 370.466V375.59H775.49V370.466Z" fill="#463647"/>
<path d="M844.514 370.466C844.514 367.705 846.752 365.466 849.514 365.466H857C859.761 365.466 862 367.705 862 370.466V375.59H844.514V370.466Z" fill="#463647"/>
<path d="M811.382 370.466C811.382 367.705 813.621 365.466 816.382 365.466H823.868C826.63 365.466 828.868 367.705 828.868 370.466V375.59H811.382V370.466Z" fill="#463647"/>
<path d="M826.107 404.119C826.107 402.595 827.344 401.359 828.868 401.359C830.393 401.359 831.629 402.595 831.629 404.119V413.323H826.107V404.119Z" fill="#FFF6A3"/>
<path d="M826.107 404.119C826.107 402.595 827.344 401.359 828.868 401.359C830.393 401.359 831.629 402.595 831.629 404.119V413.323H826.107V404.119Z" fill="#FFF6A3"/>
<path d="M805.861 438.171C805.861 436.646 807.097 435.41 808.622 435.41C810.146 435.41 811.383 436.646 811.383 438.171V447.374H805.861V438.171Z" fill="#FFF6A3"/>
<path d="M805.861 438.171C805.861 436.646 807.097 435.41 808.622 435.41C810.146 435.41 811.383 436.646 811.383 438.171V447.374H805.861V438.171Z" fill="#FFF6A3"/>
<path d="M826.107 470.382C826.107 468.858 827.344 467.621 828.868 467.621C830.393 467.621 831.629 468.858 831.629 470.382V479.586H826.107V470.382Z" fill="#FFF6A3"/>
<path d="M826.107 470.382C826.107 468.858 827.344 467.621 828.868 467.621C830.393 467.621 831.629 468.858 831.629 470.382V479.586H826.107V470.382Z" fill="#FFF6A3"/>
<path d="M805.861 497.072C805.861 495.547 807.097 494.311 808.622 494.311C810.146 494.311 811.383 495.547 811.383 497.072V506.275H805.861V497.072Z" fill="#FFF6A3"/>
<path d="M805.861 497.072C805.861 495.547 807.097 494.311 808.622 494.311C810.146 494.311 811.383 495.547 811.383 497.072V506.275H805.861V497.072Z" fill="#FFF6A3"/>
<rect x="70" y="267" width="44" height="90" fill="#463647"/>
<path d="M62 256H122V262C122 264.761 119.761 267 117 267H67C64.2386 267 62 264.761 62 262V256Z" fill="#463647"/>
<path d="M62 254C62 251.239 64.2386 249 67 249H69C71.7614 249 74 251.239 74 254V256H62V254Z" fill="#463647"/>
<path d="M110 254C110 251.239 112.239 249 115 249H117C119.761 249 122 251.239 122 254V256H110V254Z" fill="#463647"/>
<path d="M87 254C87 251.239 89.2386 249 92 249H94C96.7614 249 99 251.239 99 254V256H87V254Z" fill="#463647"/>
<path d="M97 276C97 274.895 97.8954 274 99 274C100.105 274 101 274.895 101 276V282H97V276Z" fill="#FFF6A3"/>
<path d="M97 275.846C97 274.827 97.8954 274 99 274C100.105 274 101 274.827 101 275.846V282H97V275.846Z" fill="#FFF6A3"/>
<path d="M83 300C83 298.895 83.8954 298 85 298C86.1046 298 87 298.895 87 300V306H83V300Z" fill="#FFF6A3"/>
<path d="M83 299.846C83 298.827 83.8954 298 85 298C86.1046 298 87 298.827 87 299.846V306H83V299.846Z" fill="#FFF6A3"/>
<path d="M97 322C97 320.895 97.8954 320 99 320C100.105 320 101 320.895 101 322V328H97V322Z" fill="#FFF6A3"/>
<path d="M97 321.846C97 320.827 97.8954 320 99 320C100.105 320 101 320.827 101 321.846V328H97V321.846Z" fill="#FFF6A3"/>
<path d="M83 340C83 338.895 83.8954 338 85 338C86.1046 338 87 338.895 87 340V347H83V340Z" fill="#FFF6A3"/>
<path d="M83 340.077C83 338.93 83.8954 338 85 338C86.1046 338 87 338.93 87 340.077V347H83V340.077Z" fill="#FFF6A3"/>
<rect x="1002.33" y="506" width="73.3333" height="150" fill="#463647"/>
<path d="M989 487.667H1089V501C1089 503.761 1086.76 506 1084 506H994C991.239 506 989 503.761 989 501V487.667Z" fill="#463647"/>
<path d="M989 481C989 478.239 991.239 476 994 476H1004C1006.76 476 1009 478.239 1009 481V487.667H989V481Z" fill="#463647"/>
<path d="M1069 481C1069 478.239 1071.24 476 1074 476H1084C1086.76 476 1089 478.239 1089 481V487.667H1069V481Z" fill="#463647"/>
<path d="M1030.67 481C1030.67 478.239 1032.91 476 1035.67 476H1045.67C1048.43 476 1050.67 478.239 1050.67 481V487.667H1030.67V481Z" fill="#463647"/>
<path d="M1047.33 521C1047.33 519.159 1048.83 517.667 1050.67 517.667C1052.51 517.667 1054 519.159 1054 521V531H1047.33V521Z" fill="#FFF6A3"/>
<path d="M1047.33 520.744C1047.33 519.044 1048.83 517.667 1050.67 517.667C1052.51 517.667 1054 519.044 1054 520.744V531H1047.33V520.744Z" fill="#FFF6A3"/>
<path d="M1024 561C1024 559.159 1025.49 557.667 1027.33 557.667C1029.17 557.667 1030.67 559.159 1030.67 561V571H1024V561Z" fill="#FFF6A3"/>
<path d="M1024 560.744C1024 559.044 1025.49 557.667 1027.33 557.667C1029.17 557.667 1030.67 559.044 1030.67 560.744V571H1024V560.744Z" fill="#FFF6A3"/>
<path d="M1047.33 597.667C1047.33 595.826 1048.83 594.333 1050.67 594.333C1052.51 594.333 1054 595.826 1054 597.667V607.667H1047.33V597.667Z" fill="#FFF6A3"/>
<path d="M1047.33 597.41C1047.33 595.711 1048.83 594.333 1050.67 594.333C1052.51 594.333 1054 595.711 1054 597.41V607.667H1047.33V597.41Z" fill="#FFF6A3"/>
<path d="M1024 627.667C1024 625.826 1025.49 624.333 1027.33 624.333C1029.17 624.333 1030.67 625.826 1030.67 627.667V639.333H1024V627.667Z" fill="#FFF6A3"/>
<path d="M1024 627.795C1024 625.883 1025.49 624.333 1027.33 624.333C1029.17 624.333 1030.67 625.883 1030.67 627.795V639.333H1024V627.795Z" fill="#FFF6A3"/>
<path d="M875.097 483.862L844.487 512.009L839.033 504.565L875.097 483.862Z" fill="#463647"/>
<path d="M858.73 488.912L840.902 507.116L836 500.425L858.73 488.912Z" fill="#463647"/>
<path d="M869.939 495.288L848.102 516.943L842.71 509.583L869.939 495.288Z" fill="#463647"/>
<path d="M860.221 509.413L850.615 520.372L846.877 515.27L860.221 509.413Z" fill="#463647"/>
<path d="M1100.1 618.862L1069.49 647.009L1064.03 639.565L1100.1 618.862Z" fill="#463647"/>
<path d="M1083.73 623.912L1065.9 642.116L1061 635.425L1083.73 623.912Z" fill="#463647"/>
<path d="M1094.94 630.288L1073.1 651.943L1067.71 644.583L1094.94 630.288Z" fill="#463647"/>
<path d="M1085.22 644.413L1075.62 655.372L1071.88 650.27L1085.22 644.413Z" fill="#463647"/>
<path d="M977.855 618.862L1008.46 647.009L1013.92 639.565L977.855 618.862Z" fill="#463647"/>
<path d="M994.221 623.912L1012.05 642.116L1016.95 635.425L994.221 623.912Z" fill="#463647"/>
<path d="M983.013 630.288L1004.85 651.943L1010.24 644.583L983.013 630.288Z" fill="#463647"/>
<path d="M992.73 644.413L1002.34 655.372L1006.07 650.27L992.73 644.413Z" fill="#463647"/>
<path d="M618.626 484.986L652.069 509.701L645.795 516.467L618.626 484.986Z" fill="#463647"/>
<path d="M626.69 500.098L647.945 514.148L642.306 520.231L626.69 500.098Z" fill="#463647"/>
<path d="M630.824 487.883L656.228 505.215L650.024 511.905L630.824 487.883Z" fill="#463647"/>
<path d="M646.536 494.745L659.117 502.097L654.817 506.735L646.536 494.745Z" fill="#463647"/>
<path d="M54.1372 333.166L76.9717 350.041L72.6881 354.661L54.1372 333.166Z" fill="#463647"/>
<path d="M59.6435 343.484L74.1563 353.078L70.3058 357.231L59.6435 343.484Z" fill="#463647"/>
<path d="M62.4659 335.144L79.8115 346.978L75.576 351.547L62.4659 335.144Z" fill="#463647"/>
<path d="M73.1938 339.829L81.7845 344.849L78.8486 348.016L73.1938 339.829Z" fill="#463647"/>
<path d="M129.648 332.502L106.813 349.376L111.097 353.997L129.648 332.502Z" fill="#463647"/>
<path d="M124.141 342.819L109.629 352.413L113.479 356.566L124.141 342.819Z" fill="#463647"/>
<path d="M121.319 334.48L103.973 346.314L108.209 350.882L121.319 334.48Z" fill="#463647"/>
<path d="M110.591 339.164L102 344.185L104.936 347.352L110.591 339.164Z" fill="#463647"/>
</g>
<defs>
<linearGradient id="paint0_linear_17_3" x1="815.5" y1="-112" x2="815.5" y2="439" gradientUnits="userSpaceOnUse">
<stop stop-color="#723EA1"/>
<stop offset="0.53125" stop-color="#E94C76"/>
<stop offset="0.947917" stop-color="#F2BA44"/>
</linearGradient>
<linearGradient id="paint1_linear_17_3" x1="815.5" y1="439" x2="815.5" y2="1116" gradientUnits="userSpaceOnUse">
<stop stop-color="#F49541"/>
<stop offset="0.489583" stop-color="#CF4177"/>
<stop offset="1" stop-color="#933B8E"/>
</linearGradient>
<linearGradient id="paint2_linear_17_3" x1="680.211" y1="354.042" x2="-4.54529" y2="526.839" gradientUnits="userSpaceOnUse">
<stop stop-color="#654861"/>
<stop offset="1" stop-color="#58317E"/>
</linearGradient>
<linearGradient id="paint3_linear_17_3" x1="876.823" y1="529" x2="-4.00001" y2="529" gradientUnits="userSpaceOnUse">
<stop stop-color="#654861"/>
<stop offset="1" stop-color="#58317E"/>
</linearGradient>
<linearGradient id="paint4_linear_17_3" x1="704" y1="613" x2="704" y2="915" gradientUnits="userSpaceOnUse">
<stop stop-color="#FBE780" stop-opacity="0.24"/>
<stop offset="1" stop-color="#FBE780" stop-opacity="0"/>
</linearGradient>
<linearGradient id="paint5_linear_17_3" x1="892.959" y1="675.213" x2="1795.21" y2="675.213" gradientUnits="userSpaceOnUse">
<stop stop-color="#664A60"/>
<stop offset="1" stop-color="#572F81"/>
</linearGradient>
<linearGradient id="paint6_linear_17_3" x1="892.959" y1="676.785" x2="1795.21" y2="676.785" gradientUnits="userSpaceOnUse">
<stop stop-color="#664A60"/>
<stop offset="1" stop-color="#572F81"/>
</linearGradient>
<linearGradient id="paint7_linear_17_3" x1="528.683" y1="597" x2="177.951" y2="898.617" gradientUnits="userSpaceOnUse">
<stop stop-color="#765FA4"/>
<stop offset="0.723958" stop-color="#2E2966"/>
<stop offset="1" stop-color="#2E2966"/>
</linearGradient>
<clipPath id="clip0_17_3">
<rect width="1600" height="900" fill="white"/>
</clipPath>
</defs>
</svg>
