<svg width="240" height="240" viewBox="0 0 240 240" fill="none" xmlns="http://www.w3.org/2000/svg">
<path d="M184.435 70.2388C184.435 66.3369 183.804 62.5097 182.577 58.9053C180.868 53.7773 177.97 49.0955 174.031 45.1566C172.488 43.6143 169.999 43.6146 168.457 45.1566L85.3763 128.238C83.8342 129.78 83.834 132.269 85.3763 133.811L107.672 156.107C109.214 157.649 111.703 157.649 113.245 156.107L174.031 95.3209C180.738 88.6135 184.435 79.7142 184.435 70.2388Z" fill="#DFE2EF"/>
<path d="M174.031 95.3208L114.76 154.592C113.218 156.134 110.729 156.134 109.186 154.592L98.0391 143.444L182.577 58.9054C183.804 62.5098 184.435 66.3372 184.435 70.2389C184.435 79.7143 180.738 88.6135 174.031 95.3208Z" fill="#D5D7E5"/>
<path d="M103.788 167.078L79.6352 191.231C71.9436 198.923 59.4581 198.923 51.7662 191.231C45.0218 184.487 44.2045 174.082 49.258 166.428C49.964 165.35 50.8185 164.31 51.7662 163.362L75.9194 139.209L103.788 167.078Z" fill="#816952"/>
<path d="M51.7662 191.231C59.4578 198.923 71.9433 198.923 79.6352 191.231L103.788 167.078L89.8538 153.144L51.7662 191.231Z" fill="#77604B"/>
<path d="M79.6353 168.936C78.0932 170.478 75.6037 170.479 74.0616 168.936L60.1271 155.002L65.7008 149.428L79.6353 163.362C81.1774 164.905 81.1774 167.394 79.6353 168.936Z" fill="#A78966"/>
<path d="M68.4877 180.084C66.9456 181.626 64.456 181.626 62.914 180.084L49.2583 166.428C49.9644 165.351 50.8188 164.31 51.7666 163.363L54.5534 160.575L68.4879 174.51C70.0298 176.052 70.0298 178.542 68.4877 180.084Z" fill="#A78966"/>
<path d="M104.274 144.297L98.7004 138.724L139.617 97.8068C141.156 96.2675 143.652 96.2675 145.191 97.8068C146.73 99.346 146.73 101.841 145.191 103.38L104.274 144.297Z" fill="#C1C4CE"/>
<path d="M68.4876 180.084C66.9456 181.626 64.456 181.626 62.9139 180.084L68.4876 174.51C70.0297 176.052 70.0297 178.542 68.4876 180.084Z" fill="#957856"/>
<path d="M79.6353 168.936C78.0932 170.478 75.6037 170.478 74.0616 168.936L79.6353 163.362C81.1774 164.904 81.1774 167.394 79.6353 168.936Z" fill="#957856"/>
<path d="M104.274 144.297L145.191 103.38C146.73 101.841 146.73 99.3458 145.191 97.8068L101.487 141.51L104.274 144.297Z" fill="#B7B9C4"/>
<path d="M96.3566 168.936L74.0613 146.641C69.4436 142.023 69.4436 134.537 74.0613 129.919C78.679 125.302 86.1652 125.302 90.7827 129.919L113.078 152.215C117.696 156.832 117.696 164.319 113.078 168.936C108.46 173.553 100.974 173.553 96.3566 168.936Z" fill="#A78966"/>
<path d="M113.078 152.215L101.931 141.067L85.2092 157.789L96.3566 168.936C100.974 173.554 108.461 173.554 113.078 168.936C117.695 164.318 117.695 156.832 113.078 152.215Z" fill="#957856"/>
<path d="M54.6346 70.2388C54.6346 66.3369 55.2664 62.5097 56.4927 58.9053C58.2021 53.7773 61.1002 49.0955 65.0393 45.1566C66.5816 43.6143 69.0709 43.6146 70.613 45.1566L153.694 128.238C155.236 129.78 155.236 132.269 153.694 133.811L131.398 156.107C129.856 157.649 127.367 157.649 125.825 156.107L65.0391 95.3209C58.3321 88.6135 54.6346 79.7142 54.6346 70.2388Z" fill="#DFE2EF"/>
<path d="M65.0391 95.3208L124.31 154.592C125.852 156.134 128.342 156.134 129.884 154.592L141.031 143.444L56.4928 58.9054C55.2662 62.5098 54.6349 66.3372 54.6347 70.2389C54.6347 79.7143 58.3321 88.6135 65.0391 95.3208Z" fill="#D5D7E5"/>
<path d="M135.282 167.078L159.435 191.231C167.126 198.923 179.612 198.923 187.304 191.231C194.048 184.487 194.866 174.082 189.812 166.428C189.106 165.35 188.252 164.31 187.304 163.362L163.151 139.209L135.282 167.078Z" fill="#816952"/>
<path d="M187.304 191.231C179.612 198.923 167.127 198.923 159.435 191.231L135.282 167.078L149.216 153.144L187.304 191.231Z" fill="#77604B"/>
<path d="M159.435 168.936C160.977 170.478 163.466 170.479 165.009 168.936L178.943 155.002L173.369 149.428L159.435 163.362C157.893 164.905 157.893 167.394 159.435 168.936Z" fill="#A78966"/>
<path d="M170.583 180.084C172.125 181.626 174.614 181.626 176.156 180.084L189.812 166.428C189.106 165.351 188.251 164.31 187.304 163.363L184.517 160.575L170.582 174.51C169.04 176.052 169.04 178.542 170.583 180.084Z" fill="#A78966"/>
<path d="M134.796 144.297L140.37 138.724L99.4528 97.8068C97.9136 96.2675 95.4183 96.2675 93.8791 97.8068C92.3399 99.346 92.3399 101.841 93.8791 103.38L134.796 144.297Z" fill="#C1C4CE"/>
<path d="M170.582 180.084C172.125 181.626 174.614 181.626 176.156 180.084L170.582 174.51C169.04 176.052 169.04 178.542 170.582 180.084Z" fill="#957856"/>
<path d="M159.435 168.936C160.977 170.478 163.466 170.478 165.009 168.936L159.435 163.362C157.893 164.904 157.893 167.394 159.435 168.936Z" fill="#957856"/>
<path d="M134.796 144.297L93.8792 103.38C92.3399 101.841 92.3402 99.3458 93.8792 97.8068L137.583 141.51L134.796 144.297Z" fill="#B7B9C4"/>
<path d="M142.713 168.936L165.009 146.641C169.626 142.023 169.626 134.537 165.009 129.919C160.391 125.302 152.905 125.302 148.287 129.919L125.992 152.215C121.374 156.832 121.374 164.319 125.992 168.936C130.61 173.553 138.096 173.553 142.713 168.936Z" fill="#A78966"/>
<path d="M125.992 152.215L137.139 141.067L153.861 157.789L142.713 168.936C138.096 173.554 130.61 173.554 125.992 168.936C121.375 164.318 121.375 156.832 125.992 152.215Z" fill="#957856"/>
</svg>
