<svg width="800" height="800" viewBox="0 0 800 800" fill="none" xmlns="http://www.w3.org/2000/svg">
<rect width="800" height="800" rx="100" fill="#EAF2FF"/>
<path d="M131 486H710.822C720.248 486 727.338 494.593 725.549 503.848L699.638 637.848C698.273 644.903 692.097 650 684.911 650H233.695C228.32 650 223.355 647.123 220.682 642.459L131 486Z" fill="#616267"/>
<path fill-rule="evenodd" clip-rule="evenodd" d="M441 650V486H710.822C720.248 486 727.338 494.593 725.549 503.848L699.638 637.848C698.273 644.903 692.097 650 684.911 650H441Z" fill="#55575C"/>
<path d="M168.704 520.418C163.034 510.414 170.268 498.013 181.768 498.023L692.679 498.483C702.153 498.492 709.246 507.172 707.368 516.457L704.432 530.974C703.017 537.97 696.868 543 689.73 543H190.241C184.839 543 179.854 540.095 177.191 535.395L168.704 520.418Z" fill="white"/>
<path d="M202.446 580.308C196.868 570.31 204.096 558 215.545 558H680.901C690.302 558 697.386 566.547 695.641 575.784L692.807 590.784C691.469 597.869 685.279 603 678.068 603H223.913C218.476 603 213.463 600.057 210.814 595.308L202.446 580.308Z" fill="white"/>
<path d="M618 400.882C618 395.621 620.756 390.744 625.264 388.031L697.264 344.687C707.261 338.669 720 345.869 720 357.538V456C720 464.284 713.284 471 705 471H633C624.716 471 618 464.284 618 456V400.882Z" fill="#D5D7E5"/>
<path d="M618 278.587C618 273.324 620.758 268.446 625.268 265.733L665.268 241.673C675.266 235.66 688 242.86 688 254.527V309C688 317.284 681.284 324 673 324H633C624.716 324 618 317.284 618 309V278.587Z" fill="#D5D7E5"/>
<path d="M468.142 372.981C469.575 366.006 475.715 361 482.835 361H588C596.284 361 603 367.716 603 376V456C603 464.284 596.284 471 588 471H466.396C456.898 471 449.791 462.284 451.703 452.981L468.142 372.981Z" fill="#D5D7E5"/>
<path d="M469.924 247.734C471.454 240.877 477.538 236 484.564 236L588 236C596.284 236 603 242.716 603 251V331C603 339.284 596.284 346 588 346H466.715C457.114 346 449.985 337.105 452.075 327.734L469.924 247.734Z" fill="#D5D7E5"/>
<path d="M502.978 140.094C504.366 133.066 510.53 128 517.694 128L588 128C596.284 128 603 134.716 603 143V206C603 214.284 596.284 221 588 221H505.252C495.801 221 488.705 212.366 490.536 203.094L502.978 140.094Z" fill="#D5D7E5"/>
<path d="M264.987 370.572C267.227 364.802 272.781 361 278.97 361H418C426.284 361 433 367.716 433 376V456C433 464.284 426.284 471 418 471H247.914C237.367 471 230.114 460.403 233.93 450.572L264.987 370.572Z" fill="#DFE2EF"/>
<path d="M285.079 246.155C287.152 240.082 292.858 236 299.275 236H418C426.284 236 433 242.716 433 251V331C433 339.284 426.284 346 418 346H271.97C261.686 346 254.452 335.887 257.774 326.155L285.079 246.155Z" fill="#DFE2EF"/>
<path d="M321.114 134.804C322.98 128.402 328.847 124 335.516 124H418C426.284 124 433 130.716 433 139V206C433 214.284 426.284 221 418 221H315.994C305.996 221 298.796 211.403 301.593 201.804L321.114 134.804Z" fill="#DFE2EF"/>
<path d="M185.701 266.118C194.816 255.679 212 262.126 212 275.984V449.826C212 460.168 201.781 467.407 192.025 463.977L75.8832 423.141C65.8769 419.623 62.5834 407.114 69.56 399.124L185.701 266.118Z" fill="#DFE2EF"/>
<path d="M30.6463 451.017C32.108 447.142 36.4348 445.185 40.3105 446.647L164.286 493.404L158.993 507.439L35.0171 460.682C31.1415 459.22 29.1846 454.893 30.6463 451.017V451.017Z" fill="#616267"/>
<rect x="239" y="568" width="25" height="25" rx="12.5" fill="#616267"/>
<rect x="304" y="568" width="25" height="25" rx="12.5" fill="#616267"/>
<rect x="369" y="568" width="25" height="25" rx="12.5" fill="#616267"/>
<rect x="434" y="568" width="25" height="25" rx="12.5" fill="#55575C"/>
<rect x="499" y="568" width="25" height="25" rx="12.5" fill="#55575C"/>
<rect x="564" y="568" width="25" height="25" rx="12.5" fill="#55575C"/>
<rect x="629" y="568" width="25" height="25" rx="12.5" fill="#55575C"/>
<rect x="200" y="507" width="25" height="25" rx="12.5" fill="#616267"/>
<rect x="265" y="507" width="25" height="25" rx="12.5" fill="#616267"/>
<rect x="330" y="507" width="25" height="25" rx="12.5" fill="#616267"/>
<rect x="395" y="507" width="25" height="25" rx="12.5" fill="#616267"/>
<rect x="460" y="507" width="25" height="25" rx="12.5" fill="#55575C"/>
<rect x="525" y="507" width="25" height="25" rx="12.5" fill="#55575C"/>
<rect x="590" y="507" width="25" height="25" rx="12.5" fill="#55575C"/>
<rect x="655" y="507" width="25" height="25" rx="12.5" fill="#55575C"/>
<path d="M392.139 88.5826C392.139 86.5691 390.195 85.1272 388.268 85.7118L381.064 87.8978C379.171 88.4721 377.15 88.4721 375.257 87.8978L367.126 85.4308C365.207 84.8486 363.158 84.8567 361.244 85.4541L353.57 87.849C351.63 88.4544 349.551 88.4544 347.611 87.849L340.894 85.7524C338.962 85.1496 337 86.5928 337 88.6162V104.439C337 105.87 338.011 107.102 339.416 107.381L348.67 109.219C349.938 109.471 351.244 109.474 352.514 109.229L362.647 107.273C363.917 107.028 365.222 107.031 366.491 107.283L376.239 109.219C377.508 109.471 378.813 109.474 380.083 109.229L389.708 107.371C391.119 107.098 392.139 105.863 392.139 104.425V88.5826Z" fill="#B54028"/>
<path d="M571.139 88.5826C571.139 86.5691 569.195 85.1272 567.268 85.7118L560.064 87.8978C558.171 88.4721 556.15 88.4721 554.257 87.8978L546.126 85.4308C544.207 84.8486 542.158 84.8567 540.244 85.4541L532.57 87.849C530.63 88.4544 528.551 88.4544 526.611 87.849L519.894 85.7524C517.962 85.1496 516 86.5928 516 88.6162V104.439C516 105.87 517.011 107.102 518.416 107.381L527.67 109.219C528.938 109.471 530.244 109.474 531.514 109.229L541.647 107.273C542.917 107.028 544.222 107.031 545.491 107.283L555.239 109.219C556.508 109.471 557.813 109.474 559.083 109.229L568.708 107.371C570.119 107.098 571.139 105.863 571.139 104.425V88.5826Z" fill="#9D311B"/>
<path d="M723.599 96.5784C723.599 91.2132 722.731 85.9509 721.044 80.9948C718.694 73.9438 714.709 67.5063 709.293 62.0904C707.172 59.9697 703.749 59.97 701.629 62.0904L587.393 176.327C585.273 178.447 585.272 181.87 587.393 183.99L618.049 214.647C620.17 216.767 623.593 216.767 625.713 214.647L709.293 131.066C718.515 121.844 723.599 109.607 723.599 96.5784Z" fill="#DFE2EF"/>
<path d="M709.292 131.066L627.794 212.563C625.674 214.683 622.251 214.684 620.13 212.563L604.803 197.235L721.043 80.9946C722.729 85.9507 723.597 91.2133 723.598 96.5781C723.598 109.607 718.514 121.843 709.292 131.066Z" fill="#D5D7E5"/>
<path d="M612.709 229.733L579.498 262.943C568.922 273.519 551.755 273.519 541.179 262.943C531.905 253.67 530.781 239.363 537.73 228.839C538.701 227.357 539.875 225.926 541.179 224.624L574.389 191.413L612.709 229.733Z" fill="#816952"/>
<path d="M541.178 262.943C551.754 273.519 568.921 273.519 579.498 262.943L612.708 229.732L593.548 210.572L541.178 262.943Z" fill="#77604B"/>
<path d="M579.5 232.288C577.379 234.408 573.956 234.408 571.836 232.288L552.676 213.128L560.34 205.464L579.5 224.624C581.62 226.744 581.62 230.167 579.5 232.288Z" fill="#A78966"/>
<path d="M564.171 247.616C562.051 249.736 558.627 249.736 556.507 247.616L537.73 228.839C538.701 227.358 539.876 225.927 541.179 224.624L545.011 220.792L564.171 239.952C566.291 242.073 566.291 245.495 564.171 247.616Z" fill="#A78966"/>
<path d="M613.377 198.408L605.713 190.745L661.974 134.484C664.09 132.367 667.521 132.367 669.637 134.484C671.754 136.6 671.754 140.031 669.637 142.148L613.377 198.408Z" fill="#C1C4CE"/>
<path d="M564.17 247.615C562.049 249.735 558.626 249.736 556.506 247.615L564.17 239.951C566.29 242.072 566.29 245.495 564.17 247.615Z" fill="#957856"/>
<path d="M579.498 232.287C577.377 234.407 573.954 234.408 571.834 232.287L579.498 224.623C581.618 226.743 581.618 230.167 579.498 232.287Z" fill="#957856"/>
<path d="M613.377 198.409L669.638 142.148C671.754 140.032 671.754 136.6 669.638 134.484L609.545 194.577L613.377 198.409Z" fill="#B7B9C4"/>
<path d="M602.49 232.287L571.834 201.631C565.485 195.281 565.485 184.988 571.834 178.639C578.184 172.29 588.477 172.29 594.826 178.639L625.482 209.295C631.831 215.644 631.831 225.938 625.482 232.287C619.133 238.636 608.839 238.636 602.49 232.287Z" fill="#A78966"/>
<path d="M625.482 209.295L610.154 193.968L587.162 216.96L602.49 232.288C608.839 238.637 619.133 238.637 625.482 232.288C631.831 225.938 631.831 215.645 625.482 209.295Z" fill="#957856"/>
<path d="M545.123 96.5784C545.123 91.2132 545.992 85.9509 547.678 80.9948C550.029 73.9438 554.013 67.5063 559.43 62.0904C561.55 59.9697 564.973 59.97 567.094 62.0904L681.33 176.327C683.45 178.447 683.45 181.87 681.33 183.99L650.673 214.647C648.553 216.767 645.13 216.767 643.01 214.647L559.429 131.066C550.207 121.844 545.123 109.607 545.123 96.5784Z" fill="#DFE2EF"/>
<path d="M559.429 131.066L640.926 212.563C643.047 214.683 646.47 214.684 648.59 212.563L663.918 197.235L547.678 80.9946C545.991 85.9507 545.123 91.2133 545.123 96.5781C545.123 109.607 550.207 121.843 559.429 131.066Z" fill="#D5D7E5"/>
<path d="M656.012 229.733L689.222 262.943C699.798 273.519 716.966 273.519 727.542 262.943C736.816 253.67 737.939 239.363 730.991 228.839C730.02 227.357 728.845 225.926 727.542 224.624L694.332 191.413L656.012 229.733Z" fill="#816952"/>
<path d="M727.543 262.943C716.967 273.519 699.799 273.519 689.223 262.943L656.013 229.732L675.172 210.572L727.543 262.943Z" fill="#77604B"/>
<path d="M689.223 232.288C691.343 234.408 694.767 234.408 696.887 232.288L716.047 213.128L708.383 205.464L689.223 224.624C687.103 226.744 687.103 230.167 689.223 232.288Z" fill="#A78966"/>
<path d="M704.552 247.616C706.672 249.736 710.095 249.736 712.216 247.616L730.992 228.839C730.021 227.358 728.846 225.927 727.543 224.624L723.711 220.792L704.551 239.952C702.431 242.073 702.431 245.495 704.552 247.616Z" fill="#A78966"/>
<path d="M655.344 198.408L663.008 190.745L606.747 134.484C604.631 132.367 601.2 132.367 599.083 134.484C596.967 136.6 596.967 140.031 599.083 142.148L655.344 198.408Z" fill="#C1C4CE"/>
<path d="M704.551 247.615C706.671 249.735 710.094 249.736 712.215 247.615L704.551 239.951C702.431 242.072 702.431 245.495 704.551 247.615Z" fill="#957856"/>
<path d="M689.223 232.287C691.343 234.407 694.766 234.408 696.887 232.287L689.223 224.623C687.103 226.743 687.103 230.167 689.223 232.287Z" fill="#957856"/>
<path d="M655.345 198.409L599.085 142.148C596.968 140.032 596.969 136.6 599.085 134.484L659.178 194.577L655.345 198.409Z" fill="#B7B9C4"/>
<path d="M666.23 232.287L696.886 201.631C703.236 195.281 703.236 184.988 696.886 178.639C690.537 172.29 680.244 172.29 673.895 178.639L643.239 209.295C636.889 215.644 636.889 225.938 643.239 232.287C649.588 238.636 659.881 238.636 666.23 232.287Z" fill="#A78966"/>
<path d="M643.239 209.295L658.567 193.968L681.559 216.96L666.231 232.288C659.882 238.637 649.588 238.637 643.239 232.288C636.89 225.938 636.89 215.645 643.239 209.295Z" fill="#957856"/>
</svg>
