<svg width="800" height="800" viewBox="0 0 800 800" fill="none" xmlns="http://www.w3.org/2000/svg">
<rect width="800" height="800" rx="100" fill="#EAF2FF"/>
<path d="M131 486H710.822C720.248 486 727.339 494.593 725.549 503.848L699.638 637.848C698.273 644.903 692.097 650 684.911 650H233.695C228.32 650 223.355 647.123 220.682 642.459L131 486Z" fill="#616267"/>
<path fill-rule="evenodd" clip-rule="evenodd" d="M441 650V486H710.822C720.248 486 727.338 494.593 725.549 503.848L699.638 637.848C698.273 644.903 692.097 650 684.911 650H441Z" fill="#55575C"/>
<path d="M168.704 520.418C163.034 510.414 170.268 498.013 181.768 498.023L692.679 498.483C702.153 498.492 709.246 507.172 707.368 516.457L704.432 530.974C703.017 537.97 696.868 543 689.73 543H190.241C184.839 543 179.854 540.095 177.191 535.395L168.704 520.418Z" fill="white"/>
<path d="M202.446 580.308C196.868 570.31 204.096 558 215.545 558H680.901C690.302 558 697.386 566.547 695.641 575.784L692.807 590.784C691.469 597.869 685.279 603 678.068 603H223.913C218.476 603 213.463 600.057 210.814 595.308L202.446 580.308Z" fill="white"/>
<path d="M618 400.882C618 395.621 620.756 390.744 625.264 388.031L697.264 344.687C707.261 338.669 720 345.869 720 357.538V456C720 464.284 713.284 471 705 471H633C624.716 471 618 464.284 618 456V400.882Z" fill="#D5D7E5"/>
<path d="M618 278.587C618 273.324 620.758 268.446 625.268 265.733L665.268 241.673C675.266 235.66 688 242.86 688 254.527V309C688 317.284 681.284 324 673 324H633C624.716 324 618 317.284 618 309V278.587Z" fill="#D5D7E5"/>
<path d="M468.142 372.981C469.575 366.006 475.715 361 482.835 361H588C596.284 361 603 367.716 603 376V456C603 464.284 596.284 471 588 471H466.396C456.898 471 449.791 462.284 451.703 452.981L468.142 372.981Z" fill="#D5D7E5"/>
<path d="M469.924 247.734C471.454 240.877 477.538 236 484.564 236L588 236C596.284 236 603 242.716 603 251V331C603 339.284 596.284 346 588 346H466.715C457.114 346 449.985 337.105 452.075 327.734L469.924 247.734Z" fill="#D5D7E5"/>
<path d="M502.978 140.094C504.366 133.066 510.53 128 517.694 128L588 128C596.284 128 603 134.716 603 143V206C603 214.284 596.284 221 588 221H505.252C495.801 221 488.705 212.366 490.536 203.094L502.978 140.094Z" fill="#D5D7E5"/>
<path d="M264.987 370.572C267.227 364.802 272.781 361 278.97 361H418C426.284 361 433 367.716 433 376V456C433 464.284 426.284 471 418 471H247.914C237.367 471 230.114 460.403 233.93 450.572L264.987 370.572Z" fill="#DFE2EF"/>
<path d="M285.079 246.155C287.152 240.082 292.858 236 299.275 236H418C426.284 236 433 242.716 433 251V331C433 339.284 426.284 346 418 346H271.97C261.686 346 254.452 335.887 257.774 326.155L285.079 246.155Z" fill="#DFE2EF"/>
<path d="M321.114 134.804C322.98 128.402 328.847 124 335.516 124H418C426.284 124 433 130.716 433 139V206C433 214.284 426.284 221 418 221H315.994C305.996 221 298.796 211.403 301.593 201.804L321.114 134.804Z" fill="#DFE2EF"/>
<path d="M185.701 266.118C194.816 255.679 212 262.126 212 275.984V449.826C212 460.168 201.781 467.407 192.025 463.977L75.8832 423.141C65.8769 419.623 62.5834 407.114 69.56 399.124L185.701 266.118Z" fill="#DFE2EF"/>
<path d="M30.6463 451.017C32.108 447.142 36.4348 445.185 40.3105 446.647L164.286 493.404L158.993 507.439L35.0171 460.682C31.1415 459.22 29.1846 454.893 30.6463 451.017Z" fill="#616267"/>
<rect x="239" y="568" width="25" height="25" rx="12.5" fill="#616267"/>
<rect x="304" y="568" width="25" height="25" rx="12.5" fill="#616267"/>
<rect x="369" y="568" width="25" height="25" rx="12.5" fill="#616267"/>
<rect x="434" y="568" width="25" height="25" rx="12.5" fill="#55575C"/>
<rect x="499" y="568" width="25" height="25" rx="12.5" fill="#55575C"/>
<rect x="564" y="568" width="25" height="25" rx="12.5" fill="#55575C"/>
<rect x="629" y="568" width="25" height="25" rx="12.5" fill="#55575C"/>
<rect x="200" y="507" width="25" height="25" rx="12.5" fill="#616267"/>
<rect x="265" y="507" width="25" height="25" rx="12.5" fill="#616267"/>
<rect x="330" y="507" width="25" height="25" rx="12.5" fill="#616267"/>
<rect x="395" y="507" width="25" height="25" rx="12.5" fill="#616267"/>
<rect x="460" y="507" width="25" height="25" rx="12.5" fill="#55575C"/>
<rect x="525" y="507" width="25" height="25" rx="12.5" fill="#55575C"/>
<rect x="590" y="507" width="25" height="25" rx="12.5" fill="#55575C"/>
<rect x="655" y="507" width="25" height="25" rx="12.5" fill="#55575C"/>
<path d="M392.139 88.5826C392.139 86.5691 390.195 85.1272 388.268 85.7118L381.064 87.8978C379.171 88.4721 377.15 88.4721 375.257 87.8978L367.126 85.4308C365.207 84.8486 363.158 84.8567 361.244 85.4541L353.57 87.849C351.63 88.4544 349.551 88.4544 347.611 87.849L340.894 85.7524C338.962 85.1496 337 86.5928 337 88.6162V104.439C337 105.87 338.011 107.102 339.416 107.381L348.67 109.219C349.938 109.471 351.244 109.474 352.514 109.229L362.647 107.273C363.917 107.028 365.222 107.031 366.491 107.283L376.239 109.219C377.508 109.471 378.813 109.474 380.083 109.229L389.708 107.371C391.119 107.098 392.139 105.863 392.139 104.425V88.5826Z" fill="#B54028"/>
<path d="M571.139 88.5826C571.139 86.5691 569.195 85.1272 567.268 85.7118L560.064 87.8978C558.171 88.4721 556.15 88.4721 554.257 87.8978L546.126 85.4308C544.207 84.8486 542.158 84.8567 540.244 85.4541L532.57 87.849C530.63 88.4544 528.551 88.4544 526.611 87.849L519.894 85.7524C517.962 85.1496 516 86.5928 516 88.6162V104.439C516 105.87 517.011 107.102 518.416 107.381L527.67 109.219C528.938 109.471 530.244 109.474 531.514 109.229L541.647 107.273C542.917 107.028 544.222 107.031 545.491 107.283L555.239 109.219C556.508 109.471 557.813 109.474 559.083 109.229L568.708 107.371C570.119 107.098 571.139 105.863 571.139 104.425V88.5826Z" fill="#9D311B"/>
<path fill-rule="evenodd" clip-rule="evenodd" d="M590.843 237.438C558.667 212.648 520.875 183.531 520.875 133.056C520.875 77.3352 583.898 37.8188 635.458 91.3884V263.256C624 263.256 612.542 254.426 600.645 245.048C597.471 242.545 594.187 240.015 590.843 237.438Z" fill="#FF5F4A"/>
<path d="M670.275 245.048C703.989 218.47 750.044 188.777 750.044 133.056C750.044 77.3352 687.021 37.8188 635.461 91.3884V263.256C646.919 263.256 658.378 254.426 670.275 245.048Z" fill="#D8482B"/>
</svg>
