<svg width="26" height="61" viewBox="0 0 26 61" fill="none" xmlns="http://www.w3.org/2000/svg">
<path d="M5.12412 9.58624C5.24978 8.39248 6.98748 8.39248 7.11313 9.58623L8.47344 22.5092C8.59774 23.69 7.67183 24.7185 6.48443 24.7185H5.75283C4.56542 24.7185 3.63951 23.69 3.76382 22.5092L5.12412 9.58624Z" fill="url(#paint0_linear_763_7229)"/>
<circle cx="6.11909" cy="27.3059" r="5.17476" fill="url(#paint1_linear_763_7229)"/>
<path d="M21.3437 51.4941C21.218 52.6878 19.4803 52.6878 19.3546 51.4941L17.9943 38.5712C17.87 37.3903 18.7959 36.3618 19.9833 36.3618L20.715 36.3618C21.9024 36.3618 22.8283 37.3903 22.704 38.5712L21.3437 51.4941Z" fill="url(#paint2_linear_763_7229)"/>
<circle cx="20.3497" cy="33.7745" r="5.17476" transform="rotate(-180 20.3497 33.7745)" fill="url(#paint3_linear_763_7229)"/>
<defs>
<linearGradient id="paint0_linear_763_7229" x1="6.11863" y1="0.138428" x2="6.11863" y2="24.7185" gradientUnits="userSpaceOnUse">
<stop offset="0.349392" stop-color="#E3FF37" stop-opacity="0"/>
<stop offset="1" stop-color="#FF9737"/>
</linearGradient>
<linearGradient id="paint1_linear_763_7229" x1="6.11909" y1="22.1311" x2="6.11909" y2="32.4806" gradientUnits="userSpaceOnUse">
<stop stop-color="#FF9737"/>
<stop offset="0.479167" stop-color="#383838"/>
</linearGradient>
<linearGradient id="paint2_linear_763_7229" x1="20.3491" y1="60.9419" x2="20.3491" y2="36.3618" gradientUnits="userSpaceOnUse">
<stop offset="0.349392" stop-color="#E3FF37" stop-opacity="0"/>
<stop offset="1" stop-color="#FF9737"/>
</linearGradient>
<linearGradient id="paint3_linear_763_7229" x1="20.3497" y1="28.5997" x2="20.3497" y2="38.9492" gradientUnits="userSpaceOnUse">
<stop stop-color="#FF9737"/>
<stop offset="0.479167" stop-color="#383838"/>
</linearGradient>
</defs>
</svg>
