<svg width="800" height="800" viewBox="0 0 800 800" fill="none" xmlns="http://www.w3.org/2000/svg">
<rect width="800" height="800" rx="100" fill="#EAF2FF"/>
<path d="M167 520.704H508.875V496C508.875 487.716 515.591 481 523.875 481H543.062H577.25H695.09C704.753 481 711.896 490.004 709.696 499.414L677.208 638.414C675.622 645.2 669.571 650 662.602 650H255.831C250.65 650 245.835 647.326 243.097 642.928L167 520.704Z" fill="#A78966"/>
<path fill-rule="evenodd" clip-rule="evenodd" d="M440 650V520.704H508.875V496C508.875 487.716 515.591 481 523.875 481H543.062H577.25H695.09C704.753 481 711.896 490.004 709.696 499.414L677.208 638.414C675.622 645.2 669.571 650 662.602 650H440Z" fill="#997A60"/>
<path fill-rule="evenodd" clip-rule="evenodd" d="M689.224 587L677.207 638.414C675.621 645.2 669.57 650 662.601 650H255.83C250.649 650 245.835 647.326 243.096 642.928L208.275 587H689.224Z" fill="#997A60"/>
<path fill-rule="evenodd" clip-rule="evenodd" d="M440 650V587H689.225L677.208 638.414C675.622 645.2 669.571 650 662.602 650H440Z" fill="#816952"/>
<path d="M610 395.882C610 390.621 612.756 385.744 617.264 383.031L689.264 339.687C699.261 333.669 712 340.869 712 352.538V451C712 459.284 705.284 466 697 466H625C616.716 466 610 459.284 610 451V395.882Z" fill="#D5D7E5"/>
<path d="M460.429 349.411C461.687 342.235 467.919 337 475.204 337H580C588.284 337 595 343.716 595 352V451C595 459.284 588.284 466 580 466H457.857C448.537 466 441.474 457.591 443.082 448.411L460.429 349.411Z" fill="#D5D7E5"/>
<path d="M462.149 210.088C463.54 203.062 469.702 198 476.864 198L580 198C588.284 198 595 204.716 595 213V307C595 315.284 588.284 322 580 322H458.26C448.806 322 441.71 313.361 443.545 304.088L462.149 210.088Z" fill="#D5D7E5"/>
<path d="M257.298 387.286C259.33 381.146 265.07 377 271.538 377H410C418.284 377 425 383.716 425 392V491C425 499.284 418.284 506 410 506H238.766C228.541 506 221.312 495.993 224.526 486.286L257.298 387.286Z" fill="#DFE2EF"/>
<path d="M277.4 243.808C279.264 237.404 285.132 233 291.802 233H410C418.284 233 425 239.716 425 248V347C425 355.284 418.284 362 410 362H262.988C252.992 362 245.792 352.406 248.586 342.808L277.4 243.808Z" fill="#DFE2EF"/>
<path d="M176.705 350.092C185.822 339.658 203 346.106 203 359.962V473.831C203 484.171 192.783 491.41 183.028 487.983L106.898 461.235C96.8874 457.718 93.5933 445.203 100.575 437.213L176.705 350.092Z" fill="#DFE2EF"/>
<path d="M88.6463 493.017C90.108 489.142 94.4348 487.185 98.3105 488.647L203.573 528.347L198.279 542.382L93.0171 502.682C89.1415 501.22 87.1846 496.893 88.6463 493.017Z" fill="#A78966"/>
<rect x="540" y="501" width="25" height="25" rx="12.5" fill="#616267"/>
<rect x="595" y="501" width="25" height="25" rx="12.5" fill="#616267"/>
<rect x="650" y="501" width="25" height="25" rx="12.5" fill="#616267"/>
<path d="M518.139 156.583C518.139 154.569 516.195 153.127 514.268 153.712L507.064 155.898C505.171 156.472 503.15 156.472 501.257 155.898L493.126 153.431C491.207 152.849 489.158 152.857 487.244 153.454L479.57 155.849C477.63 156.454 475.551 156.454 473.611 155.849L466.894 153.752C464.962 153.15 463 154.593 463 156.616V172.439C463 173.87 464.011 175.102 465.416 175.381L474.67 177.219C475.938 177.471 477.244 177.474 478.514 177.229L488.647 175.273C489.917 175.028 491.222 175.031 492.491 175.283L502.239 177.219C503.508 177.471 504.813 177.474 506.083 177.229L515.708 175.371C517.119 175.098 518.139 173.863 518.139 172.425V156.583Z" fill="#9D311B"/>
<path d="M389.139 189.583C389.139 187.569 387.195 186.127 385.268 186.712L378.064 188.898C376.171 189.472 374.15 189.472 372.257 188.898L364.126 186.431C362.207 185.849 360.158 185.857 358.244 186.454L350.57 188.849C348.63 189.454 346.551 189.454 344.611 188.849L337.894 186.752C335.962 186.15 334 187.593 334 189.616V205.439C334 206.87 335.011 208.102 336.416 208.381L345.67 210.219C346.938 210.471 348.244 210.474 349.514 210.229L359.647 208.273C360.917 208.028 362.222 208.031 363.491 208.283L373.239 210.219C374.508 210.471 375.813 210.474 377.083 210.229L386.708 208.371C388.119 208.098 389.139 206.863 389.139 205.425V189.583Z" fill="#B54028"/>
<path fill-rule="evenodd" clip-rule="evenodd" d="M590.843 237.438C558.667 212.648 520.875 183.531 520.875 133.056C520.875 77.3352 583.898 37.8188 635.458 91.3884V263.256C624 263.256 612.542 254.426 600.645 245.048C597.471 242.545 594.187 240.015 590.843 237.438Z" fill="#FF5F4A"/>
<path d="M670.275 245.048C703.989 218.47 750.044 188.777 750.044 133.056C750.044 77.3352 687.021 37.8188 635.461 91.3884V263.256C646.919 263.256 658.378 254.426 670.275 245.048Z" fill="#D8482B"/>
</svg>
