<svg width="240" height="240" viewBox="0 0 240 240" fill="none" xmlns="http://www.w3.org/2000/svg">
<path d="M133.043 217.653H106.956C103.355 217.653 100.434 214.734 100.434 211.131V41.5652C100.434 30.7765 109.21 22 119.999 22C130.788 22 139.564 30.7765 139.564 41.5652V211.131C139.565 214.734 136.644 217.653 133.043 217.653Z" fill="#C79A5C"/>
<path d="M133.043 217.653C136.643 217.653 139.565 214.734 139.565 211.131V41.5652C139.565 30.7765 130.788 22 120 22V217.653H133.043Z" fill="#957856"/>
<path d="M187.391 178.522H100.434V113.304H187.391C189.12 113.304 190.778 113.991 192.001 115.214L218.089 141.302C220.636 143.849 220.636 147.978 218.089 150.524L192.001 176.613C190.778 177.835 189.12 178.522 187.391 178.522Z" fill="#DDDD47"/>
<path d="M192.002 115.215C190.779 113.992 189.119 113.304 187.391 113.304H120V178.522H187.392C189.12 178.522 190.78 177.834 192.002 176.611L218.09 150.524C220.637 147.978 220.637 143.847 218.09 141.301L192.002 115.215Z" fill="#C7D100"/>
<path d="M139.565 113.304H52.6078C50.8786 113.304 49.2204 112.617 47.9977 111.395L21.9099 85.3072C19.3634 82.7607 19.3634 78.6314 21.9099 76.0849L47.9981 49.9967C49.2207 48.774 50.8789 48.0869 52.6082 48.0869H139.565V113.304H139.565Z" fill="#FFB655"/>
<path d="M139.566 48.0869H120V113.304H139.566V48.0869Z" fill="#FFA733"/>
</svg>
