<svg width="13" height="16" viewBox="0 0 13 16" fill="none" xmlns="http://www.w3.org/2000/svg">
<path d="M8.5293 5.80132C8.5293 5.00978 9.58208 4.79997 9.86138 5.54059C10.537 7.33212 11.0293 8.93477 11.0293 9.80124C11.0293 12.5627 8.79072 14.8012 6.0293 14.8012C3.26787 14.8012 1.0293 12.5627 1.0293 9.80124C1.0293 8.87033 1.59752 7.08969 2.35085 5.13801C3.32672 2.60981 3.81466 1.34572 4.41697 1.27763C4.6097 1.25584 4.81995 1.29501 4.99191 1.38474C5.5293 1.66515 5.5293 3.04387 5.5293 5.80132C5.5293 6.62974 6.20087 7.30132 7.0293 7.30132C7.85772 7.30132 8.5293 6.62974 8.5293 5.80132Z" fill="#E6E960" stroke="#FF9737" stroke-width="2"/>
</svg>
