<svg width="800" height="800" viewBox="0 0 800 800" fill="none" xmlns="http://www.w3.org/2000/svg">
<rect width="800" height="800" rx="100" fill="#EAF2FF"/>
<path d="M175 521H684.395C693.961 521 701.083 529.833 699.054 539.182L677.565 638.182C676.068 645.079 669.965 650 662.907 650H266.185C261.084 650 256.332 647.407 253.571 643.116L175 521Z" fill="#A78966"/>
<path fill-rule="evenodd" clip-rule="evenodd" d="M689.109 585L677.565 638.182C676.068 645.079 669.965 650 662.907 650H448V585H689.109Z" fill="#816952"/>
<path fill-rule="evenodd" clip-rule="evenodd" d="M687.806 591H220.039L175 521H684.395C693.961 521 701.083 529.833 699.054 539.182L687.806 591Z" fill="#616267"/>
<path d="M217.819 555.78C211.755 545.783 218.951 533 230.643 533H664.595C674.096 533 681.203 541.721 679.286 551.027L676.196 566.027C674.76 572.998 668.622 578 661.504 578H239.743C234.5 578 229.637 575.262 226.918 570.78L217.819 555.78Z" fill="white"/>
<path fill-rule="evenodd" clip-rule="evenodd" d="M448 578V533H664.595C674.096 533 681.203 541.721 679.286 551.027L676.196 566.027C674.76 572.998 668.622 578 661.504 578H448Z" fill="#EDF0FD"/>
<path d="M618 435.882C618 430.621 620.756 425.744 625.264 423.031L697.264 379.687C707.261 373.669 720 380.869 720 392.538V491C720 499.284 713.284 506 705 506H633C624.716 506 618 499.284 618 491V435.882Z" fill="#D5D7E5"/>
<path d="M618 313.587C618 308.324 620.758 303.446 625.268 300.733L665.268 276.673C675.266 270.66 688 277.86 688 289.527V344C688 352.284 681.284 359 673 359H633C624.716 359 618 352.284 618 344V313.587Z" fill="#D5D7E5"/>
<path d="M468.142 407.981C469.575 401.006 475.715 396 482.835 396H588C596.284 396 603 402.716 603 411V491C603 499.284 596.284 506 588 506H466.396C456.898 506 449.791 497.284 451.703 487.981L468.142 407.981Z" fill="#D5D7E5"/>
<path d="M469.924 282.734C471.454 275.877 477.538 271 484.564 271L588 271C596.284 271 603 277.716 603 286V366C603 374.284 596.284 381 588 381H466.715C457.114 381 449.985 372.105 452.075 362.734L469.924 282.734Z" fill="#D5D7E5"/>
<path d="M502.978 175.094C504.366 168.066 510.53 163 517.694 163L588 163C596.284 163 603 169.716 603 178V241C603 249.284 596.284 256 588 256H505.252C495.801 256 488.705 247.366 490.536 238.094L502.978 175.094Z" fill="#D5D7E5"/>
<path d="M264.987 405.572C267.227 399.802 272.781 396 278.97 396H418C426.284 396 433 402.716 433 411V491C433 499.284 426.284 506 418 506H247.914C237.367 506 230.114 495.403 233.93 485.572L264.987 405.572Z" fill="#DFE2EF"/>
<path d="M285.079 281.155C287.152 275.082 292.858 271 299.275 271H418C426.284 271 433 277.716 433 286V366C433 374.284 426.284 381 418 381H271.97C261.686 381 254.452 370.887 257.774 361.155L285.079 281.155Z" fill="#DFE2EF"/>
<path d="M321.114 169.804C322.98 163.402 328.847 159 335.516 159H418C426.284 159 433 165.716 433 174V241C433 249.284 426.284 256 418 256H315.994C305.996 256 298.796 246.403 301.593 236.804L321.114 169.804Z" fill="#DFE2EF"/>
<path d="M185.701 301.118C194.816 290.679 212 297.126 212 310.984V484.826C212 495.168 201.781 502.407 192.025 498.977L75.8832 458.141C65.8769 454.623 62.5834 442.114 69.56 434.124L185.701 301.118Z" fill="#DFE2EF"/>
<path d="M51.119 478.864C52.5807 474.989 56.9075 473.032 60.7831 474.493L203.472 528.309L198.179 542.344L55.4898 488.528C51.6141 487.067 49.6573 482.74 51.119 478.864V478.864Z" fill="#616267"/>
<rect x="243" y="542" width="25" height="25" rx="12.5" fill="#616267"/>
<rect x="298" y="542" width="25" height="25" rx="12.5" fill="#616267"/>
<rect x="353" y="542" width="25" height="25" rx="12.5" fill="#616267"/>
<rect x="408" y="542" width="25" height="25" rx="12.5" fill="#616267"/>
<rect x="463" y="542" width="25" height="25" rx="12.5" fill="#616267"/>
<rect x="518" y="542" width="25" height="25" rx="12.5" fill="#616267"/>
<rect x="573" y="542" width="25" height="25" rx="12.5" fill="#616267"/>
<rect x="628" y="542" width="25" height="25" rx="12.5" fill="#616267"/>
<path d="M400.139 125.583C400.139 123.569 398.195 122.127 396.268 122.712L389.064 124.898C387.171 125.472 385.15 125.472 383.257 124.898L375.126 122.431C373.207 121.849 371.158 121.857 369.244 122.454L361.57 124.849C359.63 125.454 357.551 125.454 355.611 124.849L348.894 122.752C346.962 122.15 345 123.593 345 125.616V141.439C345 142.87 346.011 144.102 347.416 144.381L356.67 146.219C357.938 146.471 359.244 146.474 360.514 146.229L370.647 144.273C371.917 144.028 373.222 144.031 374.491 144.283L384.239 146.219C385.508 146.471 386.813 146.474 388.083 146.229L397.708 144.371C399.119 144.098 400.139 142.863 400.139 141.425V125.583Z" fill="#B54028"/>
<path d="M562.139 125.583C562.139 123.569 560.195 122.127 558.268 122.712L551.064 124.898C549.171 125.472 547.15 125.472 545.257 124.898L537.126 122.431C535.207 121.849 533.158 121.857 531.244 122.454L523.57 124.849C521.63 125.454 519.551 125.454 517.611 124.849L510.894 122.752C508.962 122.15 507 123.593 507 125.616V141.439C507 142.87 508.011 144.102 509.416 144.381L518.67 146.219C519.938 146.471 521.244 146.474 522.514 146.229L532.647 144.273C533.917 144.028 535.222 144.031 536.491 144.283L546.239 146.219C547.508 146.471 548.813 146.474 550.083 146.229L559.708 144.371C561.119 144.098 562.139 142.863 562.139 141.425V125.583Z" fill="#9D311B"/>
<path d="M723.599 96.5784C723.599 91.2132 722.731 85.9509 721.044 80.9948C718.694 73.9438 714.709 67.5063 709.293 62.0904C707.172 59.9697 703.749 59.97 701.629 62.0904L587.393 176.327C585.273 178.447 585.272 181.87 587.393 183.99L618.049 214.647C620.17 216.767 623.593 216.767 625.713 214.647L709.293 131.066C718.515 121.844 723.599 109.607 723.599 96.5784Z" fill="#DFE2EF"/>
<path d="M709.292 131.066L627.794 212.563C625.674 214.683 622.251 214.684 620.13 212.563L604.803 197.235L721.043 80.9946C722.729 85.9507 723.597 91.2133 723.598 96.5781C723.598 109.607 718.514 121.843 709.292 131.066Z" fill="#D5D7E5"/>
<path d="M612.709 229.733L579.498 262.943C568.922 273.519 551.755 273.519 541.179 262.943C531.905 253.67 530.781 239.363 537.73 228.839C538.701 227.357 539.875 225.926 541.179 224.624L574.389 191.413L612.709 229.733Z" fill="#816952"/>
<path d="M541.178 262.943C551.754 273.519 568.921 273.519 579.498 262.943L612.708 229.732L593.548 210.572L541.178 262.943Z" fill="#77604B"/>
<path d="M579.5 232.288C577.379 234.408 573.956 234.408 571.836 232.288L552.676 213.128L560.34 205.464L579.5 224.624C581.62 226.744 581.62 230.167 579.5 232.288Z" fill="#A78966"/>
<path d="M564.171 247.616C562.051 249.736 558.627 249.736 556.507 247.616L537.73 228.839C538.701 227.358 539.876 225.927 541.179 224.624L545.011 220.792L564.171 239.952C566.291 242.073 566.291 245.495 564.171 247.616Z" fill="#A78966"/>
<path d="M613.377 198.408L605.713 190.745L661.974 134.484C664.09 132.367 667.521 132.367 669.637 134.484C671.754 136.6 671.754 140.031 669.637 142.148L613.377 198.408Z" fill="#C1C4CE"/>
<path d="M564.17 247.615C562.049 249.735 558.626 249.736 556.506 247.615L564.17 239.951C566.29 242.072 566.29 245.495 564.17 247.615Z" fill="#957856"/>
<path d="M579.498 232.287C577.377 234.407 573.954 234.408 571.834 232.287L579.498 224.623C581.618 226.743 581.618 230.167 579.498 232.287Z" fill="#957856"/>
<path d="M613.377 198.409L669.638 142.148C671.754 140.032 671.754 136.6 669.638 134.484L609.545 194.577L613.377 198.409Z" fill="#B7B9C4"/>
<path d="M602.49 232.287L571.834 201.631C565.485 195.281 565.485 184.988 571.834 178.639C578.184 172.29 588.477 172.29 594.826 178.639L625.482 209.295C631.831 215.644 631.831 225.938 625.482 232.287C619.133 238.636 608.839 238.636 602.49 232.287Z" fill="#A78966"/>
<path d="M625.482 209.295L610.154 193.968L587.162 216.96L602.49 232.288C608.839 238.637 619.133 238.637 625.482 232.288C631.831 225.938 631.831 215.645 625.482 209.295Z" fill="#957856"/>
<path d="M545.123 96.5784C545.123 91.2132 545.992 85.9509 547.678 80.9948C550.029 73.9438 554.013 67.5063 559.43 62.0904C561.55 59.9697 564.973 59.97 567.094 62.0904L681.33 176.327C683.45 178.447 683.45 181.87 681.33 183.99L650.673 214.647C648.553 216.767 645.13 216.767 643.01 214.647L559.429 131.066C550.207 121.844 545.123 109.607 545.123 96.5784Z" fill="#DFE2EF"/>
<path d="M559.429 131.066L640.926 212.563C643.047 214.683 646.47 214.684 648.59 212.563L663.918 197.235L547.678 80.9946C545.991 85.9507 545.123 91.2133 545.123 96.5781C545.123 109.607 550.207 121.843 559.429 131.066Z" fill="#D5D7E5"/>
<path d="M656.012 229.733L689.222 262.943C699.798 273.519 716.966 273.519 727.542 262.943C736.816 253.67 737.939 239.363 730.991 228.839C730.02 227.357 728.845 225.926 727.542 224.624L694.332 191.413L656.012 229.733Z" fill="#816952"/>
<path d="M727.543 262.943C716.967 273.519 699.799 273.519 689.223 262.943L656.013 229.732L675.172 210.572L727.543 262.943Z" fill="#77604B"/>
<path d="M689.223 232.288C691.343 234.408 694.767 234.408 696.887 232.288L716.047 213.128L708.383 205.464L689.223 224.624C687.103 226.744 687.103 230.167 689.223 232.288Z" fill="#A78966"/>
<path d="M704.552 247.616C706.672 249.736 710.095 249.736 712.216 247.616L730.992 228.839C730.021 227.358 728.846 225.927 727.543 224.624L723.711 220.792L704.551 239.952C702.431 242.073 702.431 245.495 704.552 247.616Z" fill="#A78966"/>
<path d="M655.344 198.408L663.008 190.745L606.747 134.484C604.631 132.367 601.2 132.367 599.083 134.484C596.967 136.6 596.967 140.031 599.083 142.148L655.344 198.408Z" fill="#C1C4CE"/>
<path d="M704.551 247.615C706.671 249.735 710.094 249.736 712.215 247.615L704.551 239.951C702.431 242.072 702.431 245.495 704.551 247.615Z" fill="#957856"/>
<path d="M689.223 232.287C691.343 234.407 694.766 234.408 696.887 232.287L689.223 224.623C687.103 226.743 687.103 230.167 689.223 232.287Z" fill="#957856"/>
<path d="M655.345 198.409L599.085 142.148C596.968 140.032 596.969 136.6 599.085 134.484L659.178 194.577L655.345 198.409Z" fill="#B7B9C4"/>
<path d="M666.23 232.287L696.886 201.631C703.236 195.281 703.236 184.988 696.886 178.639C690.537 172.29 680.244 172.29 673.895 178.639L643.239 209.295C636.889 215.644 636.889 225.938 643.239 232.287C649.588 238.636 659.881 238.636 666.23 232.287Z" fill="#A78966"/>
<path d="M643.239 209.295L658.567 193.968L681.559 216.96L666.231 232.288C659.882 238.637 649.588 238.637 643.239 232.288C636.89 225.938 636.89 215.645 643.239 209.295Z" fill="#957856"/>
</svg>
