<svg width="800" height="800" viewBox="0 0 800 800" fill="none" xmlns="http://www.w3.org/2000/svg">
<rect width="800" height="800" rx="100" fill="#EAF2FF"/>
<path d="M175 521H684.395C693.961 521 701.083 529.833 699.054 539.182L677.565 638.182C676.068 645.079 669.965 650 662.907 650H266.185C261.084 650 256.332 647.407 253.571 643.116L175 521Z" fill="#A78966"/>
<path fill-rule="evenodd" clip-rule="evenodd" d="M689.109 585L677.565 638.182C676.068 645.079 669.965 650 662.907 650H448V585H689.109Z" fill="#816952"/>
<path fill-rule="evenodd" clip-rule="evenodd" d="M687.806 591H220.039L175 521H684.395C693.961 521 701.083 529.833 699.054 539.182L687.806 591Z" fill="#616267"/>
<path d="M217.819 555.78C211.755 545.783 218.951 533 230.643 533H664.595C674.096 533 681.203 541.721 679.286 551.027L676.196 566.027C674.76 572.998 668.622 578 661.504 578H239.743C234.5 578 229.637 575.262 226.918 570.78L217.819 555.78Z" fill="white"/>
<path fill-rule="evenodd" clip-rule="evenodd" d="M448 578V533H664.595C674.096 533 681.203 541.721 679.286 551.027L676.196 566.027C674.76 572.998 668.622 578 661.504 578H448Z" fill="#EDF0FD"/>
<path d="M618 435.882C618 430.621 620.756 425.744 625.264 423.031L697.264 379.687C707.261 373.669 720 380.869 720 392.538V491C720 499.284 713.284 506 705 506H633C624.716 506 618 499.284 618 491V435.882Z" fill="#D5D7E5"/>
<path d="M618 313.587C618 308.324 620.758 303.446 625.268 300.733L665.268 276.673C675.266 270.66 688 277.86 688 289.527V344C688 352.284 681.284 359 673 359H633C624.716 359 618 352.284 618 344V313.587Z" fill="#D5D7E5"/>
<path d="M468.142 407.981C469.575 401.006 475.715 396 482.835 396H588C596.284 396 603 402.716 603 411V491C603 499.284 596.284 506 588 506H466.396C456.898 506 449.791 497.284 451.703 487.981L468.142 407.981Z" fill="#D5D7E5"/>
<path d="M469.924 282.734C471.454 275.877 477.538 271 484.564 271L588 271C596.284 271 603 277.716 603 286V366C603 374.284 596.284 381 588 381H466.715C457.114 381 449.985 372.105 452.075 362.734L469.924 282.734Z" fill="#D5D7E5"/>
<path d="M502.978 175.094C504.366 168.066 510.53 163 517.694 163L588 163C596.284 163 603 169.716 603 178V241C603 249.284 596.284 256 588 256H505.252C495.801 256 488.705 247.366 490.536 238.094L502.978 175.094Z" fill="#D5D7E5"/>
<path d="M264.987 405.572C267.227 399.802 272.781 396 278.97 396H418C426.284 396 433 402.716 433 411V491C433 499.284 426.284 506 418 506H247.914C237.367 506 230.114 495.403 233.93 485.572L264.987 405.572Z" fill="#DFE2EF"/>
<path d="M285.079 281.155C287.152 275.082 292.858 271 299.275 271H418C426.284 271 433 277.716 433 286V366C433 374.284 426.284 381 418 381H271.97C261.686 381 254.452 370.887 257.774 361.155L285.079 281.155Z" fill="#DFE2EF"/>
<path d="M321.114 169.804C322.98 163.402 328.847 159 335.516 159H418C426.284 159 433 165.716 433 174V241C433 249.284 426.284 256 418 256H315.994C305.996 256 298.796 246.403 301.593 236.804L321.114 169.804Z" fill="#DFE2EF"/>
<path d="M185.701 301.118C194.816 290.679 212 297.126 212 310.984V484.826C212 495.168 201.781 502.407 192.025 498.977L75.8832 458.141C65.8769 454.623 62.5834 442.114 69.56 434.124L185.701 301.118Z" fill="#DFE2EF"/>
<path d="M51.119 478.864C52.5807 474.988 56.9075 473.031 60.7831 474.493L203.472 528.308L198.179 542.343L55.4898 488.528C51.6141 487.066 49.6573 482.739 51.119 478.864Z" fill="#616267"/>
<rect x="243" y="542" width="25" height="25" rx="12.5" fill="#616267"/>
<rect x="298" y="542" width="25" height="25" rx="12.5" fill="#616267"/>
<rect x="353" y="542" width="25" height="25" rx="12.5" fill="#616267"/>
<rect x="408" y="542" width="25" height="25" rx="12.5" fill="#616267"/>
<rect x="463" y="542" width="25" height="25" rx="12.5" fill="#616267"/>
<rect x="518" y="542" width="25" height="25" rx="12.5" fill="#616267"/>
<rect x="573" y="542" width="25" height="25" rx="12.5" fill="#616267"/>
<rect x="628" y="542" width="25" height="25" rx="12.5" fill="#616267"/>
<path d="M400.139 125.583C400.139 123.569 398.195 122.127 396.268 122.712L389.064 124.898C387.171 125.472 385.15 125.472 383.257 124.898L375.126 122.431C373.207 121.849 371.158 121.857 369.244 122.454L361.57 124.849C359.63 125.454 357.551 125.454 355.611 124.849L348.894 122.752C346.962 122.15 345 123.593 345 125.616V141.439C345 142.87 346.011 144.102 347.416 144.381L356.67 146.219C357.938 146.471 359.244 146.474 360.514 146.229L370.647 144.273C371.917 144.028 373.222 144.031 374.491 144.283L384.239 146.219C385.508 146.471 386.813 146.474 388.083 146.229L397.708 144.371C399.119 144.098 400.139 142.863 400.139 141.425V125.583Z" fill="#B54028"/>
<path d="M562.139 125.583C562.139 123.569 560.195 122.127 558.268 122.712L551.064 124.898C549.171 125.472 547.15 125.472 545.257 124.898L537.126 122.431C535.207 121.849 533.158 121.857 531.244 122.454L523.57 124.849C521.63 125.454 519.551 125.454 517.611 124.849L510.894 122.752C508.962 122.15 507 123.593 507 125.616V141.439C507 142.87 508.011 144.102 509.416 144.381L518.67 146.219C519.938 146.471 521.244 146.474 522.514 146.229L532.647 144.273C533.917 144.028 535.222 144.031 536.491 144.283L546.239 146.219C547.508 146.471 548.813 146.474 550.083 146.229L559.708 144.371C561.119 144.098 562.139 142.863 562.139 141.425V125.583Z" fill="#9D311B"/>
<path fill-rule="evenodd" clip-rule="evenodd" d="M590.843 237.438C558.667 212.648 520.875 183.531 520.875 133.056C520.875 77.3352 583.898 37.8188 635.458 91.3884V263.256C624 263.256 612.542 254.426 600.645 245.048C597.471 242.545 594.187 240.015 590.843 237.438Z" fill="#FF5F4A"/>
<path d="M670.275 245.048C703.989 218.47 750.044 188.777 750.044 133.056C750.044 77.3352 687.021 37.8188 635.461 91.3884V263.256C646.919 263.256 658.378 254.426 670.275 245.048Z" fill="#D8482B"/>
</svg>
