<svg width="800" height="800" viewBox="0 0 800 800" fill="none" xmlns="http://www.w3.org/2000/svg">
<rect width="800" height="800" rx="100" fill="#EAF2FF"/>
<path d="M100.525 580.826C92.1036 571.113 99.0029 556 111.858 556H703.569C713.078 556 720.188 564.736 718.256 574.047L704.98 638.047C703.535 645.009 697.402 650 690.292 650H167.348C162.998 650 158.863 648.112 156.014 644.826L100.525 580.826Z" fill="#957856"/>
<path fill-rule="evenodd" clip-rule="evenodd" d="M421 650V556H703.569C713.078 556 720.188 564.736 718.256 574.047L704.98 638.047C703.535 645.009 697.402 650 690.292 650H421Z" fill="#816952"/>
<rect x="209" y="562.606" width="15" height="160" rx="7.5" transform="rotate(-45 209 562.606)" fill="#616267"/>
<rect x="322" y="562.606" width="15" height="160" rx="7.5" transform="rotate(-45 322 562.606)" fill="#616267"/>
<rect x="435" y="562.606" width="15" height="160" rx="7.5" transform="rotate(-45 435 562.606)" fill="#616267"/>
<rect x="548" y="562.606" width="15" height="160" rx="7.5" transform="rotate(-45 548 562.606)" fill="#616267"/>
<path d="M482.832 216.642C490.273 203 511 208.285 511 223.825V518.5C511 526.784 504.284 533.5 496 533.5H335.268C323.882 533.5 316.648 521.313 322.1 511.317L482.832 216.642Z" fill="#DFE2EF"/>
<path fill-rule="evenodd" clip-rule="evenodd" d="M421 533.5V330L482.832 216.642C490.273 203 511 208.285 511 223.825V518.5C511 526.784 504.284 533.5 496 533.5H421Z" fill="#D5D7E5"/>
<path d="M266.826 293.74C274.261 280.087 295 285.368 295 300.913V519C295 527.284 288.284 534 280 534H161.247C149.866 534 142.631 521.822 148.074 511.827L266.826 293.74Z" fill="#DFE2EF"/>
<path d="M614.965 377.242C622.581 363.863 643 369.269 643 384.663V518.5C643 526.784 636.284 533.5 628 533.5H551.801C540.294 533.5 533.072 521.078 538.766 511.078L614.965 377.242Z" fill="#D5D7E5"/>
<path fill-rule="evenodd" clip-rule="evenodd" d="M590.843 237.438C558.667 212.648 520.875 183.531 520.875 133.056C520.875 77.3352 583.898 37.8188 635.458 91.3884V263.256C624 263.256 612.542 254.426 600.645 245.048C597.471 242.545 594.187 240.015 590.843 237.438Z" fill="#FF5F4A"/>
<path d="M670.275 245.048C703.989 218.47 750.044 188.777 750.044 133.056C750.044 77.3352 687.021 37.8188 635.461 91.3884V263.256C646.919 263.256 658.378 254.426 670.275 245.048Z" fill="#D8482B"/>
</svg>
