<svg width="800" height="800" viewBox="0 0 800 800" fill="none" xmlns="http://www.w3.org/2000/svg">
<rect width="800" height="800" rx="100" fill="#EAF2FF"/>
<path d="M100.525 580.826C92.1036 571.113 99.0029 556 111.858 556H703.569C713.078 556 720.188 564.736 718.256 574.047L704.98 638.047C703.535 645.009 697.402 650 690.292 650H167.348C162.998 650 158.863 648.112 156.014 644.826L100.525 580.826Z" fill="#957856"/>
<path fill-rule="evenodd" clip-rule="evenodd" d="M421 650V556H703.569C713.078 556 720.188 564.736 718.256 574.047L704.98 638.047C703.535 645.009 697.402 650 690.292 650H421Z" fill="#816952"/>
<rect x="209" y="562.606" width="15" height="160" rx="7.5" transform="rotate(-45 209 562.606)" fill="#616267"/>
<rect x="322" y="562.606" width="15" height="160" rx="7.5" transform="rotate(-45 322 562.606)" fill="#616267"/>
<rect x="435" y="562.606" width="15" height="160" rx="7.5" transform="rotate(-45 435 562.606)" fill="#616267"/>
<rect x="548" y="562.606" width="15" height="160" rx="7.5" transform="rotate(-45 548 562.606)" fill="#616267"/>
<path d="M482.832 216.642C490.273 203 511 208.285 511 223.825V518.5C511 526.784 504.284 533.5 496 533.5H335.268C323.882 533.5 316.648 521.313 322.1 511.317L482.832 216.642Z" fill="#DFE2EF"/>
<path fill-rule="evenodd" clip-rule="evenodd" d="M421 533.5V330L482.832 216.642C490.273 203 511 208.285 511 223.825V518.5C511 526.784 504.284 533.5 496 533.5H421Z" fill="#D5D7E5"/>
<path d="M266.826 293.74C274.261 280.087 295 285.368 295 300.913V519C295 527.284 288.284 534 280 534H161.247C149.866 534 142.631 521.822 148.074 511.827L266.826 293.74Z" fill="#DFE2EF"/>
<path d="M614.965 377.242C622.581 363.863 643 369.269 643 384.663V518.5C643 526.784 636.284 533.5 628 533.5H551.801C540.294 533.5 533.072 521.078 538.766 511.078L614.965 377.242Z" fill="#D5D7E5"/>
<path d="M713.688 55H682.213C682.213 55 678.773 92.476 678.773 165.577C678.773 238.677 682.213 276.153 682.213 276.153H713.688C713.688 276.153 716.411 265.191 718.913 243.561L711.227 230.524L721.294 217.487C722.304 202.869 723 185.553 723 165.577C723 145.601 722.304 128.284 721.294 113.667L711.227 100.629L718.913 87.5925C716.411 65.9618 713.688 55 713.688 55Z" fill="#77604B"/>
<path d="M683.127 55H635C635 55 635 92.476 635 165.577C635 238.677 635 276.153 635 276.153H683.127C683.127 276.153 691.671 238.677 691.671 165.577C691.671 92.476 683.127 55 683.127 55Z" fill="#816952"/>
<path d="M635 55H586.86C586.86 55 564.508 92.476 564.508 165.577C564.508 238.677 586.86 276.153 586.86 276.153H635C635 276.153 635 238.677 635 165.577C635 92.476 635 55 635 55Z" fill="#957856"/>
<path d="M587.787 55H556.312C556.312 55 553.588 65.9618 551.087 87.5925L558.773 100.629L548.706 113.667C547.695 128.284 547 145.6 547 165.577C547 185.553 547.695 202.869 548.706 217.487L558.773 230.524L551.087 243.561C553.588 265.191 556.312 276.153 556.312 276.153H587.787C587.787 276.153 582.2 238.677 582.2 165.577C582.2 92.476 587.787 55 587.787 55Z" fill="#A78966"/>
<path d="M718.911 87.5928H634.999L625.973 100.63L634.999 113.667H721.292C720.604 103.723 719.771 95.0278 718.911 87.5928Z" fill="#5D5F66"/>
<path d="M634.999 243.561H718.911C719.771 236.126 720.604 227.431 721.291 217.487H634.999L625.973 230.524L634.999 243.561Z" fill="#5D5F66"/>
<path d="M551.089 87.5928C550.007 98.0444 548.383 117.503 548.708 113.667H635V87.5928H551.089Z" fill="#7F8189"/>
<path d="M548.709 217.487C549.397 227.431 550.229 236.126 551.089 243.561H635.002V217.487H548.709Z" fill="#7F8189"/>
</svg>
