<svg width="240" height="240" viewBox="0 0 240 240" fill="none" xmlns="http://www.w3.org/2000/svg">
<path d="M137.182 64.4545V111H131.545V70.3636H131.273L119.909 77.9091V72.1818L131.545 64.4545H137.182Z" fill="black"/>
<circle cx="133" cy="82" r="40" fill="#F8CE3D" stroke="#DAB224" stroke-width="10"/>
<circle cx="160" cy="142" r="40" fill="#F8CE3D" stroke="#DAB224" stroke-width="10"/>
<path d="M160.409 159.477C158.159 159.477 156.153 159.091 154.392 158.318C152.642 157.545 151.25 156.472 150.216 155.097C149.193 153.71 148.636 152.102 148.545 150.273H152.841C152.932 151.398 153.318 152.369 154 153.188C154.682 153.994 155.574 154.619 156.676 155.062C157.778 155.506 159 155.727 160.341 155.727C161.841 155.727 163.17 155.466 164.33 154.943C165.489 154.42 166.398 153.693 167.057 152.761C167.716 151.83 168.045 150.75 168.045 149.523C168.045 148.239 167.727 147.108 167.091 146.131C166.455 145.142 165.523 144.369 164.295 143.812C163.068 143.256 161.568 142.977 159.795 142.977H157V139.227H159.795C161.182 139.227 162.398 138.977 163.443 138.477C164.5 137.977 165.324 137.273 165.915 136.364C166.517 135.455 166.818 134.386 166.818 133.159C166.818 131.977 166.557 130.949 166.034 130.074C165.511 129.199 164.773 128.517 163.818 128.028C162.875 127.54 161.761 127.295 160.477 127.295C159.273 127.295 158.136 127.517 157.068 127.96C156.011 128.392 155.148 129.023 154.477 129.852C153.807 130.67 153.443 131.659 153.386 132.818H149.295C149.364 130.989 149.915 129.386 150.949 128.011C151.983 126.625 153.335 125.545 155.006 124.773C156.688 124 158.534 123.614 160.545 123.614C162.705 123.614 164.557 124.051 166.102 124.926C167.648 125.79 168.835 126.932 169.665 128.352C170.494 129.773 170.909 131.307 170.909 132.955C170.909 134.92 170.392 136.597 169.358 137.983C168.335 139.369 166.943 140.33 165.182 140.864V141.136C167.386 141.5 169.108 142.437 170.347 143.949C171.585 145.449 172.205 147.307 172.205 149.523C172.205 151.42 171.688 153.125 170.653 154.636C169.631 156.136 168.233 157.318 166.46 158.182C164.688 159.045 162.67 159.477 160.409 159.477Z" fill="black"/>
<path d="M136.886 64.0909V99H132.659V68.5227H132.455L123.932 74.1818V69.8864L132.659 64.0909H136.886Z" fill="black"/>
<circle cx="96" cy="142" r="55" fill="#F8CE3D" stroke="#DAB224" stroke-width="10"/>
<path d="M96.3636 165.636C93.697 165.636 91.2955 165.106 89.1591 164.045C87.0227 162.985 85.3106 161.53 84.0227 159.682C82.7348 157.833 82.0303 155.727 81.9091 153.364H87.3636C87.5758 155.47 88.5303 157.212 90.2273 158.591C91.9394 159.955 93.9848 160.636 96.3636 160.636C98.2727 160.636 99.9697 160.189 101.455 159.295C102.955 158.402 104.129 157.174 104.977 155.614C105.841 154.038 106.273 152.258 106.273 150.273C106.273 148.242 105.826 146.432 104.932 144.841C104.053 143.235 102.841 141.97 101.295 141.045C99.75 140.121 97.9848 139.652 96 139.636C94.5758 139.621 93.1136 139.841 91.6136 140.295C90.1136 140.735 88.8788 141.303 87.9091 142L82.6364 141.364L85.4545 118.455H109.636V123.455H90.1818L88.5455 137.182H88.8182C89.7727 136.424 90.9697 135.795 92.4091 135.295C93.8485 134.795 95.3485 134.545 96.9091 134.545C99.7576 134.545 102.295 135.227 104.523 136.591C106.765 137.939 108.523 139.788 109.795 142.136C111.083 144.485 111.727 147.167 111.727 150.182C111.727 153.152 111.061 155.803 109.727 158.136C108.409 160.455 106.591 162.288 104.273 163.636C101.955 164.97 99.3182 165.636 96.3636 165.636Z" fill="black"/>
</svg>
