<svg width="240" height="240" viewBox="0 0 240 240" fill="none" xmlns="http://www.w3.org/2000/svg">
<circle cx="147.5" cy="86.5" r="52.5" fill="#FFE477"/>
<path d="M200 86.5C200 115.495 176.271 139 147 139C147 139 147 115.495 147 86.5C147 57.505 147 34 147 34C176.271 34 200 57.505 200 86.5Z" fill="#FFB655"/>
<circle cx="157.5" cy="153.5" r="52.5" fill="#FFE477"/>
<path d="M210 153.5C210 182.495 186.719 206 158 206C158 206 158 182.495 158 153.5C158 124.505 158 101 158 101C186.719 101 210 124.505 210 153.5Z" fill="#FFB655"/>
<circle cx="82.5" cy="120.5" r="52.5" fill="#FFE477"/>
<path d="M135 120.5C135 149.495 111.271 173 82 173C82 173 82.0002 149.495 82.0002 120.5C82.0002 91.505 82 68 82 68C111.271 68 135 91.505 135 120.5Z" fill="#FFB655"/>
</svg>
