<svg width="136" height="169" viewBox="0 0 136 169" fill="none" xmlns="http://www.w3.org/2000/svg">
<path fill-rule="evenodd" clip-rule="evenodd" d="M67.3423 168.123C67.7191 168.452 68.281 168.452 68.6577 168.123L72.9695 164.358C114.759 127.868 136 96.0066 136 68C136 28.3383 105.044 0 68 0C30.9555 0 0 28.3383 0 68C0 96.0066 21.241 127.868 63.0305 164.358L67.3423 168.123ZM68.6747 147.959C68.295 148.302 67.705 148.302 67.3253 147.959C32.3178 116.265 15.1111 89.3906 15.1111 68C15.1111 36.9965 39.0178 15.1111 68 15.1111C96.9822 15.1111 120.889 36.9965 120.889 68C120.889 89.3906 103.682 116.265 68.6747 147.959Z" fill="#474747"/>
<path d="M59.2727 88.0682V86.9091C59.2955 82.9318 59.6477 79.7614 60.3295 77.3977C61.0341 75.0341 62.0568 73.125 63.3977 71.6705C64.7386 70.2159 66.3523 68.8977 68.2386 67.7159C69.6477 66.8068 70.9091 65.8636 72.0227 64.8864C73.1364 63.9091 74.0227 62.8295 74.6818 61.6477C75.3409 60.4432 75.6705 59.1023 75.6705 57.625C75.6705 56.0568 75.2955 54.6818 74.5455 53.5C73.7955 52.3182 72.7841 51.4091 71.5114 50.7727C70.2614 50.1364 68.875 49.8182 67.3523 49.8182C65.875 49.8182 64.4773 50.1477 63.1591 50.8068C61.8409 51.4432 60.7614 52.3977 59.9205 53.6705C59.0795 54.9205 58.625 56.4773 58.5568 58.3409H44.6477C44.7614 53.7955 45.8523 50.0455 47.9205 47.0909C49.9886 44.1136 52.7273 41.8977 56.1364 40.4432C59.5455 38.9659 63.3068 38.2273 67.4205 38.2273C71.9432 38.2273 75.9432 38.9773 79.4205 40.4773C82.8977 41.9545 85.625 44.1023 87.6023 46.9205C89.5795 49.7386 90.5682 53.1364 90.5682 57.1136C90.5682 59.7727 90.125 62.1364 89.2386 64.2045C88.375 66.25 87.1591 68.0682 85.5909 69.6591C84.0227 71.2273 82.1705 72.6477 80.0341 73.9205C78.2386 74.9886 76.7614 76.1023 75.6023 77.2614C74.4659 78.4205 73.6136 79.7614 73.0455 81.2841C72.5 82.8068 72.2159 84.6818 72.1932 86.9091V88.0682H59.2727ZM66.0227 109.886C63.75 109.886 61.8068 109.091 60.1932 107.5C58.6023 105.886 57.8182 103.955 57.8409 101.705C57.8182 99.4773 58.6023 97.5682 60.1932 95.9773C61.8068 94.3864 63.75 93.5909 66.0227 93.5909C68.1818 93.5909 70.0795 94.3864 71.7159 95.9773C73.3523 97.5682 74.1818 99.4773 74.2045 101.705C74.1818 103.205 73.7841 104.58 73.0114 105.83C72.2614 107.057 71.2727 108.045 70.0455 108.795C68.8182 109.523 67.4773 109.886 66.0227 109.886Z" fill="#474747"/>
</svg>
