<svg width="240" height="240" viewBox="0 0 240 240" fill="none" xmlns="http://www.w3.org/2000/svg">
<path d="M71.645 67.4241C71.645 61.667 76.312 57 82.0691 57H169.632H186.223C190.551 57 194.429 59.6742 195.967 63.7195L211.82 105.416C214.414 112.238 209.375 119.545 202.076 119.545H82.0691C76.312 119.545 71.645 114.878 71.645 109.121V67.4241Z" fill="#7F8189"/>
<path fill-rule="evenodd" clip-rule="evenodd" d="M201.339 77.8486L205.302 88.2728H130.15C130.15 82.5157 134.817 77.8486 140.575 77.8486H201.339Z" fill="#B7B9C4"/>
<path fill-rule="evenodd" clip-rule="evenodd" d="M82.0691 119.545H202.076C209.375 119.545 214.414 112.238 211.82 105.416L205.302 88.2725H71.645V109.121C71.645 114.878 76.312 119.545 82.0691 119.545Z" fill="#616267"/>
<path fill-rule="evenodd" clip-rule="evenodd" d="M82.0691 119.545H202.076C209.375 119.545 214.414 112.238 211.82 105.416L205.302 88.2725H71.645V109.121C71.645 114.878 76.312 119.545 82.0691 119.545Z" fill="#616267"/>
<path fill-rule="evenodd" clip-rule="evenodd" d="M205.302 88.2725H130.15C130.15 94.0296 134.817 98.6966 140.575 98.6966H209.265L205.302 88.2725Z" fill="#7F8189"/>
<path d="M43.2252 63.7195C44.7633 59.6742 48.641 57 52.9689 57H69.5601H86.1513C90.4792 57 94.3569 59.6742 95.895 63.7195L111.748 105.416C114.342 112.238 109.303 119.545 102.005 119.545H37.1155C29.8171 119.545 24.7781 112.238 27.3719 105.416L43.2252 63.7195Z" fill="#B7B9C4"/>
<path fill-rule="evenodd" clip-rule="evenodd" d="M37.1155 119.545H102.005C109.303 119.545 114.342 112.238 111.748 105.416L105.23 88.2725H33.89L27.3719 105.416C24.7781 112.238 29.8171 119.545 37.1155 119.545Z" fill="#7F8189"/>
<path d="M53.6149 73.3171C54.5462 70.8677 56.8941 69.2485 59.5145 69.2485H69.5602H79.6058C82.2262 69.2485 84.5741 70.8677 85.5054 73.3171L95.1043 98.5635C96.6747 102.694 93.6237 107.118 89.2047 107.118H49.9156C45.4966 107.118 42.4456 102.694 44.016 98.5635L53.6149 73.3171Z" fill="#7F8189"/>
<path fill-rule="evenodd" clip-rule="evenodd" d="M91.1577 88.1831L95.1043 98.5632C96.6747 102.694 93.6237 107.118 89.2047 107.118H49.9156C45.4966 107.118 42.4456 102.694 44.0161 98.5632L47.9627 88.1831H91.1577Z" fill="#616267"/>
<path d="M167.547 129.969C167.547 124.212 162.88 119.545 157.123 119.545H69.5601H52.9689C48.641 119.545 44.7633 122.219 43.2253 126.264L27.3719 167.961C24.7781 174.783 29.8171 182.09 37.1155 182.09H157.123C162.88 182.09 167.547 177.423 167.547 171.666V129.969Z" fill="#7F8189"/>
<path fill-rule="evenodd" clip-rule="evenodd" d="M37.8533 140.393L33.89 150.817H109.042C109.042 145.06 104.374 140.393 98.6174 140.393H37.8533Z" fill="#B7B9C4"/>
<path fill-rule="evenodd" clip-rule="evenodd" d="M157.123 182.09H37.1155C29.8172 182.09 24.7782 174.783 27.3719 167.961L33.8901 150.817H167.547V171.666C167.547 177.423 162.88 182.09 157.123 182.09Z" fill="#616267"/>
<path fill-rule="evenodd" clip-rule="evenodd" d="M157.123 182.09H37.1155C29.8172 182.09 24.7782 174.783 27.3719 167.961L33.8901 150.817H167.547V171.666C167.547 177.423 162.88 182.09 157.123 182.09Z" fill="#616267"/>
<path fill-rule="evenodd" clip-rule="evenodd" d="M33.8899 150.817H109.042C109.042 156.574 104.374 161.242 98.6174 161.242H29.9266L33.8899 150.817Z" fill="#7F8189"/>
<path d="M195.967 126.264C194.429 122.219 190.551 119.545 186.223 119.545H169.632H153.041C148.713 119.545 144.835 122.219 143.297 126.264L127.444 167.961C124.85 174.783 129.889 182.09 137.187 182.09H202.076C209.375 182.09 214.414 174.783 211.82 167.961L195.967 126.264Z" fill="#B7B9C4"/>
<path fill-rule="evenodd" clip-rule="evenodd" d="M202.083 182.09C209.378 182.085 214.413 174.781 211.82 167.961L205.302 150.817H133.962L127.444 167.961C124.851 174.781 129.886 182.085 137.181 182.09C137.183 182.09 137.185 182.09 137.187 182.09H202.076C202.079 182.09 202.081 182.09 202.083 182.09Z" fill="#7F8189"/>
<path d="M185.577 135.862C184.646 133.412 182.298 131.793 179.677 131.793H169.632H159.586C156.966 131.793 154.618 133.412 153.687 135.862L144.088 161.108C142.517 165.238 145.568 169.663 149.987 169.663H189.276C193.695 169.663 196.746 165.238 195.176 161.108L185.577 135.862Z" fill="#7F8189"/>
<path fill-rule="evenodd" clip-rule="evenodd" d="M148.034 150.728L144.088 161.108C142.517 165.239 145.568 169.663 149.987 169.663H189.276C193.695 169.663 196.746 165.239 195.176 161.108L191.229 150.728H148.034Z" fill="#616267"/>
</svg>
