<svg width="520" height="520" viewBox="0 0 520 520" fill="none" xmlns="http://www.w3.org/2000/svg">
<g clip-path="url(#clip0_1342_132232)" filter="url(#filter0_d_1342_132232)">
<path d="M254.435 194.782H187.652C178.435 194.782 170.956 202.255 170.956 211.478V495.304C170.956 504.527 178.435 512 187.652 512H254.435C263.652 512 271.131 504.527 271.131 495.304V211.478C271.13 202.255 263.652 194.782 254.435 194.782Z" fill="#816952"/>
<path d="M254.435 194.782H221.044V512H254.435C263.652 512 271.131 504.527 271.131 495.304V211.478C271.13 202.255 263.652 194.782 254.435 194.782Z" fill="#77604B"/>
<path d="M438.087 172.521C438.087 181.759 430.631 189.105 421.391 189.105H353.606C382.435 219.268 397.461 257.557 392.896 289.835C390.782 304.861 384.437 317.995 374.532 327.901C367.964 334.468 357.391 334.468 350.934 327.901L242.635 219.603H199.45L91.151 327.902C84.694 334.469 74.121 334.469 67.553 327.902C50.857 311.206 44.736 286.608 50.412 258.671C55.199 234.295 68.779 209.808 88.369 189.217H20.696C11.456 189.217 4 181.76 4 172.521C4 127.331 51.861 91.714 113.969 89.265L67.555 42.852C61.099 36.285 61.099 25.711 67.555 19.255C84.25 2.55998 108.849 -3.56202 136.786 2.00298C162.275 7.12298 187.987 21.593 209.245 42.852C213.698 47.304 217.593 52.09 221.044 57.21C221.155 57.21 221.155 57.32 221.155 57.32C224.718 52.2 228.611 47.303 233.066 42.85C254.323 21.592 280.034 7.12198 305.524 2.00198C333.46 -3.56302 358.06 2.55898 374.755 19.254C381.322 25.71 381.322 36.284 374.755 42.851L328.23 89.377C368.745 91.047 405.03 107.186 424.174 132.563C433.302 144.695 438.087 158.497 438.087 172.521Z" fill="#7CCC92"/>
<path d="M438.087 172.521C438.087 181.759 430.631 189.105 421.391 189.105H353.606C382.435 219.268 397.461 257.557 392.896 289.835C390.782 304.861 384.437 317.995 374.532 327.901C367.964 334.468 357.391 334.468 350.934 327.901L242.635 219.603H221.043V57.21C221.154 57.21 221.154 57.32 221.154 57.32C224.717 52.2 228.61 47.303 233.065 42.85C254.323 21.592 280.034 7.12198 305.524 2.00198C333.46 -3.56302 358.06 2.55898 374.755 19.254C381.322 25.71 381.322 36.284 374.755 42.851L328.23 89.377C368.745 91.047 405.03 107.186 424.174 132.563C433.302 144.695 438.087 158.497 438.087 172.521Z" fill="#34B772"/>
<path d="M254.435 100.174C241.56 100.174 229.926 105.192 221.044 113.201C212.162 105.192 200.527 100.174 187.653 100.174C160.034 100.174 137.566 122.642 137.566 150.261C137.566 177.88 160.034 200.348 187.653 200.348C200.528 200.348 212.162 195.33 221.044 187.321C229.926 195.33 241.561 200.348 254.435 200.348C282.054 200.348 304.522 177.88 304.522 150.261C304.522 122.642 282.054 100.174 254.435 100.174Z" fill="#816952"/>
<path d="M271.131 395.13H170.957V428.521H271.131V395.13Z" fill="#D8B68A"/>
<path d="M271.131 328.348H170.957V361.739H271.131V328.348Z" fill="#D8B68A"/>
<path d="M271.13 328.348H221.043V361.739H271.13V328.348Z" fill="#C9A06F"/>
<path d="M271.13 395.13H221.043V428.521H271.13V395.13Z" fill="#C9A06F"/>
<path d="M465.913 512H365.739C338.12 512 315.652 489.532 315.652 461.913C315.652 447.837 321.532 434.386 331.793 425.011C339.021 418.397 347.934 414.233 357.619 412.81C369.195 391.652 390.978 378.522 415.837 378.522C440.685 378.522 462.457 391.653 474.032 412.81C483.728 414.234 492.63 418.397 499.858 425.011C510.12 434.385 516 447.836 516 461.913C516 489.532 493.532 512 465.913 512Z" fill="#34B772"/>
<path d="M254.435 200.348C282.054 200.348 304.522 177.88 304.522 150.261C304.522 122.642 282.054 100.174 254.435 100.174C241.56 100.174 229.926 105.192 221.044 113.201V187.321C229.926 195.33 241.56 200.348 254.435 200.348Z" fill="#77604B"/>
<path d="M221.043 258.782C193.424 258.782 170.956 236.314 170.956 208.695C170.956 181.076 193.424 158.608 221.043 158.608C248.662 158.608 271.13 181.076 271.13 208.695C271.13 236.314 248.663 258.782 221.043 258.782Z" fill="#D8B68A"/>
<path d="M271.13 208.695C271.13 181.076 248.662 158.608 221.043 158.608V258.782C248.663 258.782 271.13 236.314 271.13 208.695Z" fill="#C9A06F"/>
<path d="M499.304 512H120.87C111.653 512 104.174 504.527 104.174 495.304C104.174 486.081 111.653 478.608 120.87 478.608H499.305C508.522 478.608 516.001 486.081 516.001 495.304C516.001 504.527 508.521 512 499.304 512Z" fill="#696B6F"/>
<path d="M499.304 478.608H221.043V512H499.304C508.521 512 516 504.527 516 495.304C516 486.081 508.521 478.608 499.304 478.608Z" fill="#616267"/>
</g>
<defs>
<filter id="filter0_d_1342_132232" x="0" y="0" width="520" height="520" filterUnits="userSpaceOnUse" color-interpolation-filters="sRGB">
<feFlood flood-opacity="0" result="BackgroundImageFix"/>
<feColorMatrix in="SourceAlpha" type="matrix" values="0 0 0 0 0 0 0 0 0 0 0 0 0 0 0 0 0 0 127 0" result="hardAlpha"/>
<feOffset dy="4"/>
<feGaussianBlur stdDeviation="2"/>
<feComposite in2="hardAlpha" operator="out"/>
<feColorMatrix type="matrix" values="0 0 0 0 0 0 0 0 0 0 0 0 0 0 0 0 0 0 0.25 0"/>
<feBlend mode="normal" in2="BackgroundImageFix" result="effect1_dropShadow_1342_132232"/>
<feBlend mode="normal" in="SourceGraphic" in2="effect1_dropShadow_1342_132232" result="shape"/>
</filter>
<clipPath id="clip0_1342_132232">
<rect width="512" height="512" fill="white" transform="translate(4)"/>
</clipPath>
</defs>
</svg>
