<svg width="240" height="240" viewBox="0 0 240 240" fill="none" xmlns="http://www.w3.org/2000/svg">
<path d="M27.4863 179.905C27.4863 154.592 48.0066 134.071 73.3197 134.071H164.986C190.299 134.071 210.82 154.592 210.82 179.905V179.905H27.4863V179.905Z" fill="#FAEB66"/>
<rect x="68.2722" y="62.0721" width="13.0952" height="86.009" rx="6.54762" transform="rotate(-19.8444 68.2722 62.0721)" fill="#FFBE83"/>
<rect x="15.7007" y="193" width="15.7143" height="206.905" rx="7.85714" transform="rotate(-90 15.7007 193)" fill="#8BD5FF"/>
<path d="M70.4076 66.2463C47.739 74.5889 42.7731 95.2196 45.4479 121.445" stroke="#39858B" stroke-width="10" stroke-linecap="round"/>
<path d="M70.8993 60.0834C52.5587 45.748 35.0465 52.6889 17.6826 68.9689" stroke="#39858B" stroke-width="10" stroke-linecap="round"/>
<path d="M77.2482 60.8761C95.3565 58.7159 108.694 71.216 120.119 90.2448" stroke="#39858B" stroke-width="10" stroke-linecap="round"/>
<path d="M77.1701 54.8326C83.1048 33.0809 99.4248 29.6765 120.46 34.212" stroke="#39858B" stroke-width="10" stroke-linecap="round"/>
<rect width="13.0952" height="85.1851" rx="6.54762" transform="matrix(-0.940618 -0.339467 -0.339467 0.940618 177.611 89.0375)" fill="#FFBE83"/>
<path d="M175.756 92.4368C197.58 97.6759 201.266 113.605 197.107 134.378" stroke="#39858B" stroke-width="10" stroke-linecap="round"/>
<path d="M175.264 86.2738C191.893 71.325 206.812 77.3366 221.168 92.5387" stroke="#39858B" stroke-width="10" stroke-linecap="round"/>
<path d="M168.915 87.0666C150.807 84.9063 137.469 97.4065 126.045 116.435" stroke="#39858B" stroke-width="10" stroke-linecap="round"/>
<path d="M168.993 81.0231C163.058 59.2714 146.738 55.867 125.703 60.4025" stroke="#39858B" stroke-width="10" stroke-linecap="round"/>
</svg>
