<svg width="240" height="240" viewBox="0 0 240 240" fill="none" xmlns="http://www.w3.org/2000/svg">
<path d="M185.638 54.3909C183.767 52.5212 180.909 52.0622 178.562 53.2413L135.817 74.6138C132.788 76.1285 131.562 79.8103 133.075 82.8396L157.19 106.956C160.251 108.48 163.912 107.22 165.416 104.214L186.788 61.4666C187.969 59.1064 187.506 56.2566 185.638 54.3909Z" fill="#CC7400"/>
<path d="M186.788 178.592L165.416 135.844C163.904 132.815 160.224 131.595 157.19 133.102L133.075 157.219C131.563 160.248 132.788 163.93 135.817 165.444L178.563 186.817C180.916 187.994 183.771 187.536 185.639 185.668C187.506 183.802 187.969 180.953 186.788 178.592Z" fill="#CC7400"/>
<path d="M104.183 74.6137L61.4378 53.2412C59.087 52.0636 56.2336 52.5208 54.3617 54.3909C52.4938 56.2565 52.0308 59.1063 53.212 61.4669L74.5846 104.215C75.6582 106.362 77.8254 107.605 80.0726 107.605L106.925 82.8399C108.438 79.8102 107.213 76.1284 104.183 74.6137Z" fill="#FFA733"/>
<path d="M106.925 157.22L82.8099 133.103C79.7766 131.596 76.1007 132.816 74.5842 135.845L53.212 178.592C52.0304 180.953 52.4934 183.802 54.3617 185.668C56.2299 187.536 59.0844 187.994 61.4377 186.818L104.183 165.445C107.212 163.931 108.438 160.249 106.925 157.22Z" fill="#FFA733"/>
<path d="M30.9646 113.948L29.9065 114.351C24.6978 116.329 24.6978 123.672 29.9065 125.65L30.9646 126.053L84.2316 146.512L90.457 148.892L119.593 120L90.4574 91.1084L84.2312 93.4892L30.9646 113.948Z" fill="#79675A"/>
<path d="M120.407 120.407L91.0181 91.1084L84.7378 93.5227L31.0076 114.27L29.9404 114.679C27.3136 115.681 26 118.044 26 120.407H120.407Z" fill="#FFE477"/>
<path d="M210.06 114.678L208.992 114.269L155.262 93.5227L148.982 91.1084L119.593 120.407H214C214 118.044 212.686 115.681 210.06 114.678Z" fill="#FFB655"/>
<path d="M155.768 146.545L209.036 126.375L210.094 125.977C212.698 125.002 214 122.704 214 120.407H120.407L149.543 148.892L155.768 146.545Z" fill="#FFE477"/>
<path d="M29.9064 125.977L30.9645 126.375L84.2316 146.545L90.457 148.892L119.593 120.407H26C26.0004 122.704 27.3023 125.002 29.9064 125.977Z" fill="#FFB655"/>
<path d="M120.407 120.407L91.1082 149.543L91.1086 149.543L93.5221 155.769L114.269 209.035C115.374 211.965 117.133 214 120.407 214V120.407Z" fill="#FFE477"/>
<path d="M126.13 209.043L146.852 155.545L149.262 149.292L149.263 149.291L120 120.029V214.029C123.392 214.029 124.986 211.986 126.13 209.043Z" fill="#FFB655"/>
<path d="M120 26.0703C117.67 26.0295 115.3 27.3371 114.278 29.9529L113.87 31.0155L93.1486 84.5137L90.738 90.767L120 120.029V26.0703Z" fill="#FFB655"/>
<path d="M148.892 91.0054L146.478 84.7223L125.731 30.9689L125.322 29.9012C124.299 27.3142 121.967 26 119.593 26V120.407L148.892 91.0054Z" fill="#FFE477"/>
</svg>
