<svg width="240" height="240" viewBox="0 0 240 240" fill="none" xmlns="http://www.w3.org/2000/svg">
<path d="M180.522 71.0003V120.331H57.5869C45.974 120.331 36.2151 112.249 33.6804 101.358C33.227 99.5364 33 97.639 33 95.6656C33 93.6925 33.2274 91.7951 33.6804 89.9734C34.7394 85.4196 37.0475 81.3974 40.1868 78.2098C44.6506 73.7699 50.7777 71 57.5869 71H180.522V71.0003Z" fill="#957856"/>
<path d="M78.3911 95.6658C78.3911 98.8156 75.857 101.358 72.717 101.358H33.6804C33.227 99.5367 32.9999 97.6393 32.9999 95.6658C32.9999 93.6928 33.2273 91.7953 33.6804 89.9736H72.7174C75.8574 89.9736 78.3911 92.5161 78.3911 95.6658Z" fill="#A78966"/>
<path d="M138.913 71.0003V84.2818C138.913 88.6457 137.287 92.6301 134.526 95.6659C131.424 99.1569 126.923 101.358 121.892 101.358H95.4133C92.2733 101.358 89.7393 98.8156 89.7393 95.6659C89.7393 92.5162 92.2733 89.9737 95.4133 89.9737H121.892C125.032 89.9737 127.566 87.4312 127.566 84.2815V71H138.913V71.0003Z" fill="#A78966"/>
<path d="M33 95.6665C33 97.6396 33.2274 99.537 33.6804 101.359C36.2148 112.249 45.974 120.332 57.5869 120.332H180.522V95.6668L33 95.6665Z" fill="#816952"/>
<path d="M134.525 95.6665C131.423 99.1575 126.922 101.359 121.891 101.359H95.4129C92.2729 101.359 89.7388 98.8162 89.7388 95.6665H134.525Z" fill="#957856"/>
<path d="M33.6804 101.359H72.7174C75.8574 101.359 78.3915 98.8162 78.3915 95.6665H33C33 97.6396 33.2274 99.537 33.6804 101.359Z" fill="#957856"/>
<path d="M182.413 71.0005C195.992 71.0005 207 82.0436 207 95.6661C207 109.288 195.992 120.332 182.413 120.332C168.834 120.332 157.826 109.288 157.826 95.6661C157.826 82.044 168.834 71.0005 182.413 71.0005Z" fill="#F7E4B3"/>
<path d="M182.413 108.948C175.101 108.948 169.174 103.002 169.174 95.6663C169.174 88.331 175.101 82.3848 182.413 82.3848C189.725 82.3848 195.652 88.331 195.652 95.6663C195.652 103.002 189.725 108.948 182.413 108.948Z" fill="#E6C892"/>
<path d="M182.413 120.332C195.991 120.332 207 109.289 207 95.6665H157.826C157.826 109.289 168.834 120.332 182.413 120.332Z" fill="#E6C892"/>
<path d="M182.413 108.948C189.725 108.948 195.652 103.002 195.652 95.6665H169.174C169.174 103.002 175.101 108.948 182.413 108.948Z" fill="#D8B68A"/>
<path d="M59.4781 120.332V169.663H182.413C194.026 169.663 203.785 161.58 206.319 150.689C206.773 148.868 207 146.971 207 144.997C207 143.024 206.772 141.127 206.319 139.305C205.26 134.751 202.952 130.729 199.813 127.541C195.349 123.101 189.222 120.332 182.413 120.332H59.4781V120.332Z" fill="#957856"/>
<path d="M161.608 144.997C161.608 148.147 164.143 150.69 167.283 150.69H206.32C206.773 148.868 207 146.971 207 144.997C207 143.024 206.773 141.127 206.32 139.305H167.283C164.143 139.306 161.608 141.848 161.608 144.997Z" fill="#A78966"/>
<path d="M101.087 120.332V133.613C101.087 137.977 102.713 141.962 105.474 144.997C108.576 148.488 113.077 150.69 118.108 150.69H144.587C147.727 150.69 150.261 148.147 150.261 144.997C150.261 141.848 147.727 139.305 144.587 139.305H118.108C114.968 139.305 112.434 136.763 112.434 133.613V120.332H101.087V120.332Z" fill="#A78966"/>
<path d="M207 144.998C207 146.971 206.772 148.869 206.319 150.69C203.785 161.581 194.026 169.664 182.413 169.664H59.4781V144.998H207Z" fill="#816952"/>
<path d="M105.474 144.998C108.576 148.489 113.077 150.69 118.108 150.69H144.587C147.727 150.69 150.261 148.148 150.261 144.998H105.474Z" fill="#957856"/>
<path d="M206.319 150.69H167.282C164.142 150.69 161.608 148.148 161.608 144.998H206.999C207 146.971 206.773 148.869 206.319 150.69Z" fill="#957856"/>
<path d="M57.5869 120.332C44.0076 120.332 33 131.375 33 144.997C33 158.62 44.0076 169.663 57.5869 169.663C71.1656 169.663 82.1738 158.62 82.1738 144.997C82.1738 131.375 71.1659 120.332 57.5869 120.332Z" fill="#F7E4B3"/>
<path d="M57.5868 158.279C64.8987 158.279 70.8259 152.333 70.8259 144.997C70.8259 137.662 64.8987 131.716 57.5868 131.716C50.2749 131.716 44.3477 137.662 44.3477 144.997C44.3477 152.333 50.2749 158.279 57.5868 158.279Z" fill="#E6C892"/>
<path d="M57.5869 169.663C44.0082 169.663 32.9999 158.619 32.9999 144.997H82.1738C82.1738 158.62 71.1659 169.663 57.5869 169.663Z" fill="#E6C892"/>
<path d="M57.5867 158.28C50.2749 158.28 44.3476 152.333 44.3476 144.998H70.8259C70.8259 152.333 64.8986 158.28 57.5867 158.28Z" fill="#D8B68A"/>
</svg>
