<svg width="800" height="800" viewBox="0 0 800 800" fill="none" xmlns="http://www.w3.org/2000/svg">
<rect width="800" height="800" rx="100" fill="#EAF2FF"/>
<path d="M149.662 572.256C140.685 562.674 147.479 547 160.608 547H612.984C623.558 547 630.813 557.648 626.944 567.489L598.24 640.489C595.984 646.227 590.446 650 584.28 650H229.001C224.854 650 220.891 648.282 218.055 645.256L149.662 572.256Z" fill="#957856"/>
<path d="M368.832 210.642C376.273 197 397 202.285 397 217.825V512.5C397 520.784 390.284 527.5 382 527.5H221.268C209.882 527.5 202.648 515.313 208.1 505.317L368.832 210.642Z" fill="#DFE2EF"/>
<path d="M445.035 371.242C437.419 357.863 417 363.269 417 378.663V512.5C417 520.784 423.716 527.5 432 527.5H508.199C519.706 527.5 526.928 515.078 521.234 505.078L445.035 371.242Z" fill="#D5D7E5"/>
<path d="M400 547H615.083C625.631 547 632.884 557.598 629.066 567.43L600.716 640.43C598.476 646.199 592.923 650 586.734 650H400V547Z" fill="#816952"/>
<path d="M723.599 96.5784C723.599 91.2132 722.731 85.9509 721.044 80.9948C718.694 73.9438 714.709 67.5063 709.293 62.0904C707.172 59.9697 703.749 59.97 701.629 62.0904L587.393 176.327C585.273 178.447 585.272 181.87 587.393 183.99L618.049 214.647C620.17 216.767 623.593 216.767 625.713 214.647L709.293 131.066C718.515 121.844 723.599 109.607 723.599 96.5784Z" fill="#DFE2EF"/>
<path d="M709.292 131.066L627.794 212.563C625.674 214.683 622.251 214.684 620.13 212.563L604.803 197.235L721.043 80.9946C722.729 85.9507 723.597 91.2133 723.598 96.5781C723.598 109.607 718.514 121.843 709.292 131.066Z" fill="#D5D7E5"/>
<path d="M612.709 229.733L579.498 262.943C568.922 273.519 551.755 273.519 541.179 262.943C531.905 253.67 530.781 239.363 537.73 228.839C538.701 227.357 539.875 225.926 541.179 224.624L574.389 191.413L612.709 229.733Z" fill="#816952"/>
<path d="M541.178 262.943C551.754 273.519 568.921 273.519 579.498 262.943L612.708 229.732L593.548 210.572L541.178 262.943Z" fill="#77604B"/>
<path d="M579.5 232.288C577.379 234.408 573.956 234.408 571.836 232.288L552.676 213.128L560.34 205.464L579.5 224.624C581.62 226.744 581.62 230.167 579.5 232.288Z" fill="#A78966"/>
<path d="M564.171 247.616C562.051 249.736 558.627 249.736 556.507 247.616L537.73 228.839C538.701 227.358 539.876 225.927 541.179 224.624L545.011 220.792L564.171 239.952C566.291 242.073 566.291 245.495 564.171 247.616Z" fill="#A78966"/>
<path d="M613.377 198.408L605.713 190.745L661.974 134.484C664.09 132.367 667.521 132.367 669.637 134.484C671.754 136.6 671.754 140.031 669.637 142.148L613.377 198.408Z" fill="#C1C4CE"/>
<path d="M564.17 247.615C562.049 249.735 558.626 249.736 556.506 247.615L564.17 239.951C566.29 242.072 566.29 245.495 564.17 247.615Z" fill="#957856"/>
<path d="M579.498 232.287C577.377 234.407 573.954 234.408 571.834 232.287L579.498 224.623C581.618 226.743 581.618 230.167 579.498 232.287Z" fill="#957856"/>
<path d="M613.377 198.409L669.638 142.148C671.754 140.032 671.754 136.6 669.638 134.484L609.545 194.577L613.377 198.409Z" fill="#B7B9C4"/>
<path d="M602.49 232.287L571.834 201.631C565.485 195.281 565.485 184.988 571.834 178.639C578.184 172.29 588.477 172.29 594.826 178.639L625.482 209.295C631.831 215.644 631.831 225.938 625.482 232.287C619.133 238.636 608.839 238.636 602.49 232.287Z" fill="#A78966"/>
<path d="M625.482 209.295L610.154 193.968L587.162 216.96L602.49 232.288C608.839 238.637 619.133 238.637 625.482 232.288C631.831 225.938 631.831 215.645 625.482 209.295Z" fill="#957856"/>
<path d="M545.123 96.5784C545.123 91.2132 545.992 85.9509 547.678 80.9948C550.029 73.9438 554.013 67.5063 559.43 62.0904C561.55 59.9697 564.973 59.97 567.094 62.0904L681.33 176.327C683.45 178.447 683.45 181.87 681.33 183.99L650.673 214.647C648.553 216.767 645.13 216.767 643.01 214.647L559.429 131.066C550.207 121.844 545.123 109.607 545.123 96.5784Z" fill="#DFE2EF"/>
<path d="M559.429 131.066L640.926 212.563C643.047 214.683 646.47 214.684 648.59 212.563L663.918 197.235L547.678 80.9946C545.991 85.9507 545.123 91.2133 545.123 96.5781C545.123 109.607 550.207 121.843 559.429 131.066Z" fill="#D5D7E5"/>
<path d="M656.012 229.733L689.222 262.943C699.798 273.519 716.966 273.519 727.542 262.943C736.816 253.67 737.939 239.363 730.991 228.839C730.02 227.357 728.845 225.926 727.542 224.624L694.332 191.413L656.012 229.733Z" fill="#816952"/>
<path d="M727.543 262.943C716.967 273.519 699.799 273.519 689.223 262.943L656.013 229.732L675.172 210.572L727.543 262.943Z" fill="#77604B"/>
<path d="M689.223 232.288C691.343 234.408 694.767 234.408 696.887 232.288L716.047 213.128L708.383 205.464L689.223 224.624C687.103 226.744 687.103 230.167 689.223 232.288Z" fill="#A78966"/>
<path d="M704.552 247.616C706.672 249.736 710.095 249.736 712.216 247.616L730.992 228.839C730.021 227.358 728.846 225.927 727.543 224.624L723.711 220.792L704.551 239.952C702.431 242.073 702.431 245.495 704.552 247.616Z" fill="#A78966"/>
<path d="M655.344 198.408L663.008 190.745L606.747 134.484C604.631 132.367 601.2 132.367 599.083 134.484C596.967 136.6 596.967 140.031 599.083 142.148L655.344 198.408Z" fill="#C1C4CE"/>
<path d="M704.551 247.615C706.671 249.735 710.094 249.736 712.215 247.615L704.551 239.951C702.431 242.072 702.431 245.495 704.551 247.615Z" fill="#957856"/>
<path d="M689.223 232.287C691.343 234.407 694.766 234.408 696.887 232.287L689.223 224.623C687.103 226.743 687.103 230.167 689.223 232.287Z" fill="#957856"/>
<path d="M655.345 198.409L599.085 142.148C596.968 140.032 596.969 136.6 599.085 134.484L659.178 194.577L655.345 198.409Z" fill="#B7B9C4"/>
<path d="M666.23 232.287L696.886 201.631C703.236 195.281 703.236 184.988 696.886 178.639C690.537 172.29 680.244 172.29 673.895 178.639L643.239 209.295C636.889 215.644 636.889 225.938 643.239 232.287C649.588 238.636 659.881 238.636 666.23 232.287Z" fill="#A78966"/>
<path d="M643.239 209.295L658.567 193.968L681.559 216.96L666.231 232.288C659.882 238.637 649.588 238.637 643.239 232.288C636.89 225.938 636.89 215.645 643.239 209.295Z" fill="#957856"/>
</svg>
