<svg width="800" height="800" viewBox="0 0 800 800" fill="none" xmlns="http://www.w3.org/2000/svg">
<rect width="800" height="800" rx="100" fill="#EAF2FF"/>
<path d="M149.662 572.256C140.685 562.674 147.479 547 160.608 547H612.984C623.558 547 630.813 557.648 626.944 567.489L598.24 640.489C595.984 646.227 590.446 650 584.28 650H229.001C224.854 650 220.891 648.282 218.055 645.256L149.662 572.256Z" fill="#957856"/>
<path d="M368.832 210.642C376.273 197 397 202.285 397 217.825V512.5C397 520.784 390.284 527.5 382 527.5H221.268C209.882 527.5 202.648 515.313 208.1 505.317L368.832 210.642Z" fill="#DFE2EF"/>
<path d="M445.035 371.242C437.419 357.863 417 363.269 417 378.663V512.5C417 520.784 423.716 527.5 432 527.5H508.199C519.706 527.5 526.928 515.078 521.234 505.078L445.035 371.242Z" fill="#D5D7E5"/>
<path d="M400 547H615.083C625.631 547 632.884 557.598 629.066 567.43L600.716 640.43C598.476 646.199 592.923 650 586.734 650H400V547Z" fill="#816952"/>
<path fill-rule="evenodd" clip-rule="evenodd" d="M590.843 237.438C558.667 212.648 520.875 183.531 520.875 133.056C520.875 77.3352 583.898 37.8188 635.458 91.3884V263.256C624 263.256 612.542 254.426 600.645 245.048C597.471 242.545 594.187 240.015 590.843 237.438Z" fill="#FF5F4A"/>
<path d="M670.275 245.048C703.989 218.47 750.044 188.777 750.044 133.056C750.044 77.3352 687.021 37.8188 635.461 91.3884V263.256C646.919 263.256 658.378 254.426 670.275 245.048Z" fill="#D8482B"/>
</svg>
