<svg width="800" height="800" viewBox="0 0 800 800" fill="none" xmlns="http://www.w3.org/2000/svg">
<rect width="800" height="800" rx="100" fill="#EAF2FF"/>
<path d="M149.662 572.256C140.685 562.674 147.479 547 160.608 547H612.984C623.558 547 630.813 557.648 626.944 567.489L598.24 640.489C595.984 646.227 590.446 650 584.28 650H229.001C224.854 650 220.891 648.282 218.055 645.256L149.662 572.256Z" fill="#957856"/>
<path d="M368.832 210.642C376.273 197 397 202.285 397 217.825V512.5C397 520.784 390.284 527.5 382 527.5H221.268C209.882 527.5 202.648 515.313 208.1 505.317L368.832 210.642Z" fill="#DFE2EF"/>
<path d="M445.035 371.242C437.419 357.863 417 363.269 417 378.663V512.5C417 520.784 423.716 527.5 432 527.5H508.199C519.706 527.5 526.928 515.078 521.234 505.078L445.035 371.242Z" fill="#D5D7E5"/>
<path d="M400 547H615.083C625.631 547 632.884 557.598 629.066 567.43L600.716 640.43C598.476 646.199 592.923 650 586.734 650H400V547Z" fill="#816952"/>
<path d="M713.688 55H682.213C682.213 55 678.773 92.476 678.773 165.577C678.773 238.677 682.213 276.153 682.213 276.153H713.688C713.688 276.153 716.411 265.191 718.913 243.561L711.227 230.524L721.294 217.487C722.304 202.869 723 185.553 723 165.577C723 145.601 722.304 128.284 721.294 113.667L711.227 100.629L718.913 87.5925C716.411 65.9618 713.688 55 713.688 55Z" fill="#77604B"/>
<path d="M683.127 55H635C635 55 635 92.476 635 165.577C635 238.677 635 276.153 635 276.153H683.127C683.127 276.153 691.671 238.677 691.671 165.577C691.671 92.476 683.127 55 683.127 55Z" fill="#816952"/>
<path d="M635 55H586.86C586.86 55 564.508 92.476 564.508 165.577C564.508 238.677 586.86 276.153 586.86 276.153H635C635 276.153 635 238.677 635 165.577C635 92.476 635 55 635 55Z" fill="#957856"/>
<path d="M587.787 55H556.312C556.312 55 553.588 65.9618 551.087 87.5925L558.773 100.629L548.706 113.667C547.695 128.284 547 145.6 547 165.577C547 185.553 547.695 202.869 548.706 217.487L558.773 230.524L551.087 243.561C553.588 265.191 556.312 276.153 556.312 276.153H587.787C587.787 276.153 582.2 238.677 582.2 165.577C582.2 92.476 587.787 55 587.787 55Z" fill="#A78966"/>
<path d="M718.911 87.5928H634.999L625.973 100.63L634.999 113.667H721.292C720.604 103.723 719.771 95.0278 718.911 87.5928Z" fill="#5D5F66"/>
<path d="M634.999 243.561H718.911C719.771 236.126 720.604 227.431 721.291 217.487H634.999L625.973 230.524L634.999 243.561Z" fill="#5D5F66"/>
<path d="M551.089 87.5928C550.007 98.0444 548.383 117.503 548.708 113.667H635V87.5928H551.089Z" fill="#7F8189"/>
<path d="M548.709 217.487C549.397 227.431 550.229 236.126 551.089 243.561H635.002V217.487H548.709Z" fill="#7F8189"/>
</svg>
