<svg width="240" height="240" viewBox="0 0 240 240" fill="none" xmlns="http://www.w3.org/2000/svg">
<path d="M176.201 90.8056C176.201 87.5992 173.602 85 170.395 85H95.5038V108.222H170.395C173.602 108.222 176.201 105.623 176.201 102.417V90.8056Z" fill="#816952"/>
<path d="M176.201 90.8056C176.201 87.5992 173.602 85 170.395 85H95.5038V96.6111H176.201V90.8056Z" fill="#957856"/>
<rect width="43.7352" height="23.2222" rx="5.80556" transform="matrix(-1 0 0 1 105.567 85)" fill="#E6C892"/>
<path d="M105.567 90.8056C105.567 87.5992 102.967 85 99.7612 85H67.6371C64.4308 85 61.8315 87.5992 61.8315 90.8056V96.6111H105.567V90.8056Z" fill="#F7E4B3"/>
<path d="M83.6991 102.417C80.4928 102.417 77.8936 99.8176 77.8936 96.6112C77.8936 93.4049 80.4928 90.8057 83.6991 90.8057C86.9055 90.8057 89.5047 93.4049 89.5047 96.6112C89.5047 99.8176 86.9055 102.417 83.6991 102.417Z" fill="#E6C892"/>
<path d="M83.6991 102.417C86.9055 102.417 89.5047 99.8177 89.5047 96.6113H77.8936C77.8936 99.8177 80.4928 102.417 83.6991 102.417Z" fill="#D8B68A"/>
<path d="M123.177 96.6109C123.177 98.6455 126.137 100.288 129.805 100.288H176.201C176.201 99.1428 176.201 97.8857 176.201 96.6109C176.201 95.3364 176.201 94.0685 176.201 92.9341H129.805C126.137 92.9341 123.177 94.5764 123.177 96.6109Z" fill="#A78966"/>
<path d="M176.201 100.288H129.805C126.137 100.288 123.177 98.6459 123.177 96.6113H176.201C176.201 97.8858 176.201 99.0728 176.201 100.288Z" fill="#957856"/>
<path d="M153.559 114.028C153.559 110.821 150.96 108.222 147.754 108.222H72.8622V131.444H147.754C150.96 131.444 153.559 128.845 153.559 125.639V114.028Z" fill="#816952"/>
<path d="M153.559 114.028C153.559 110.821 150.96 108.222 147.754 108.222H72.8622V119.833H153.559V114.028Z" fill="#957856"/>
<rect width="43.7352" height="23.2222" rx="5.80556" transform="matrix(-1 0 0 1 82.925 108.222)" fill="#E6C892"/>
<path d="M82.925 114.028C82.925 110.821 80.3258 108.222 77.1195 108.222H44.9954C41.7891 108.222 39.1899 110.821 39.1899 114.028V119.833H82.925V114.028Z" fill="#F7E4B3"/>
<path d="M61.0575 125.639C57.8511 125.639 55.2519 123.04 55.2519 119.833C55.2519 116.627 57.8511 114.028 61.0575 114.028C64.2638 114.028 66.863 116.627 66.863 119.833C66.863 123.04 64.2638 125.639 61.0575 125.639Z" fill="#E6C892"/>
<path d="M61.0575 125.639C64.2638 125.639 66.863 123.04 66.863 119.833H55.2519C55.2519 123.04 57.8511 125.639 61.0575 125.639Z" fill="#D8B68A"/>
<path d="M100.535 119.833C100.535 121.868 103.495 123.51 107.163 123.51H153.559C153.559 122.365 153.559 121.108 153.559 119.833C153.559 118.559 153.559 117.291 153.559 116.156H107.163C103.495 116.156 100.535 117.799 100.535 119.833Z" fill="#A78966"/>
<path d="M153.559 123.51H107.163C103.495 123.51 100.535 121.868 100.535 119.833H153.559C153.559 121.108 153.559 122.295 153.559 123.51Z" fill="#957856"/>
<path d="M201.165 114.028C201.165 110.821 198.566 108.222 195.359 108.222H120.468V131.444H195.359C198.566 131.444 201.165 128.845 201.165 125.639V114.028Z" fill="#816952"/>
<path d="M201.165 114.028C201.165 110.821 198.566 108.222 195.359 108.222H120.468V119.833H201.165V114.028Z" fill="#957856"/>
<rect width="43.7352" height="23.2222" rx="5.80556" transform="matrix(-1 0 0 1 130.531 108.222)" fill="#E6C892"/>
<path d="M130.531 114.028C130.531 110.821 127.931 108.222 124.725 108.222H92.601C89.3947 108.222 86.7955 110.821 86.7955 114.028V119.833H130.531V114.028Z" fill="#F7E4B3"/>
<path d="M108.663 125.639C105.457 125.639 102.857 123.04 102.857 119.833C102.857 116.627 105.457 114.028 108.663 114.028C111.869 114.028 114.469 116.627 114.469 119.833C114.469 123.04 111.869 125.639 108.663 125.639Z" fill="#E6C892"/>
<path d="M108.663 125.639C111.869 125.639 114.469 123.04 114.469 119.833H102.857C102.857 123.04 105.457 125.639 108.663 125.639Z" fill="#D8B68A"/>
<path d="M148.141 119.833C148.141 121.868 151.101 123.51 154.769 123.51H201.165C201.165 122.365 201.165 121.108 201.165 119.833C201.165 118.559 201.165 117.291 201.165 116.156H154.769C151.101 116.156 148.141 117.799 148.141 119.833Z" fill="#A78966"/>
<path d="M201.165 123.51H154.769C151.101 123.51 148.141 121.868 148.141 119.833H201.165C201.165 121.108 201.165 122.295 201.165 123.51Z" fill="#957856"/>
<path d="M129.369 137.25C129.369 134.044 126.77 131.444 123.564 131.444H48.6722V154.667H123.564C126.77 154.667 129.369 152.067 129.369 148.861V137.25Z" fill="#816952"/>
<path d="M129.369 137.25C129.369 134.044 126.77 131.444 123.564 131.444H48.6722V143.055H129.369V137.25Z" fill="#957856"/>
<rect width="43.7352" height="23.2222" rx="5.80556" transform="matrix(-1 0 0 1 58.7352 131.444)" fill="#E6C892"/>
<path d="M58.7352 137.25C58.7352 134.044 56.136 131.444 52.9297 131.444H20.8056C17.5993 131.444 15 134.044 15 137.25V143.055H58.7352V137.25Z" fill="#F7E4B3"/>
<path d="M36.8677 148.861C33.6613 148.861 31.0621 146.262 31.0621 143.056C31.0621 139.849 33.6613 137.25 36.8677 137.25C40.074 137.25 42.6732 139.849 42.6732 143.056C42.6732 146.262 40.074 148.861 36.8677 148.861Z" fill="#E6C892"/>
<path d="M36.8677 148.861C40.074 148.861 42.6732 146.262 42.6732 143.056H31.0621C31.0621 146.262 33.6613 148.861 36.8677 148.861Z" fill="#D8B68A"/>
<path d="M76.3454 143.056C76.3454 145.09 79.3056 146.733 82.9736 146.733H129.37C129.37 145.588 129.37 144.33 129.37 143.056C129.37 141.781 129.37 140.513 129.37 139.379H82.9732C79.3052 139.379 76.3454 141.021 76.3454 143.056Z" fill="#A78966"/>
<path d="M129.37 146.733H82.9736C79.3056 146.733 76.3454 145.09 76.3454 143.056H129.37C129.37 144.33 129.37 145.517 129.37 146.733Z" fill="#957856"/>
<path d="M176.782 137.25C176.782 134.044 174.182 131.444 170.976 131.444H96.0843V154.667H170.976C174.182 154.667 176.782 152.067 176.782 148.861V137.25Z" fill="#816952"/>
<path d="M176.782 137.25C176.782 134.044 174.182 131.444 170.976 131.444H96.0843V143.055H176.782V137.25Z" fill="#957856"/>
<rect width="43.7352" height="23.2222" rx="5.80556" transform="matrix(-1 0 0 1 106.147 131.444)" fill="#E6C892"/>
<path d="M106.147 137.25C106.147 134.044 103.548 131.444 100.342 131.444H68.2176C65.0113 131.444 62.4121 134.044 62.4121 137.25V143.055H106.147V137.25Z" fill="#F7E4B3"/>
<path d="M84.2797 148.861C81.0733 148.861 78.4742 146.262 78.4742 143.056C78.4742 139.849 81.0733 137.25 84.2797 137.25C87.4861 137.25 90.0853 139.849 90.0853 143.056C90.0853 146.262 87.4861 148.861 84.2797 148.861Z" fill="#E6C892"/>
<path d="M84.2797 148.861C87.4861 148.861 90.0853 146.262 90.0853 143.056H78.4742C78.4742 146.262 81.0733 148.861 84.2797 148.861Z" fill="#D8B68A"/>
<path d="M123.757 143.056C123.757 145.09 126.718 146.733 130.386 146.733H176.782C176.782 145.588 176.782 144.33 176.782 143.056C176.782 141.781 176.782 140.513 176.782 139.379H130.385C126.717 139.379 123.757 141.021 123.757 143.056Z" fill="#A78966"/>
<path d="M176.782 146.733H130.386C126.718 146.733 123.757 145.09 123.757 143.056H176.782C176.782 144.33 176.782 145.517 176.782 146.733Z" fill="#957856"/>
<path d="M224 137.25C224 134.044 221.401 131.444 218.195 131.444H143.303V154.667H218.195C221.401 154.667 224 152.067 224 148.861V137.25Z" fill="#816952"/>
<path d="M224 137.25C224 134.044 221.401 131.444 218.195 131.444H143.303V143.055H224V137.25Z" fill="#957856"/>
<rect width="43.7352" height="23.2222" rx="5.80556" transform="matrix(-1 0 0 1 153.366 131.444)" fill="#E6C892"/>
<path d="M153.366 137.25C153.366 134.044 150.767 131.444 147.56 131.444H115.436C112.23 131.444 109.631 134.044 109.631 137.25V143.055H153.366V137.25Z" fill="#F7E4B3"/>
<path d="M131.498 148.861C128.292 148.861 125.693 146.262 125.693 143.056C125.693 139.849 128.292 137.25 131.498 137.25C134.705 137.25 137.304 139.849 137.304 143.056C137.304 146.262 134.705 148.861 131.498 148.861Z" fill="#E6C892"/>
<path d="M131.498 148.861C134.705 148.861 137.304 146.262 137.304 143.056H125.693C125.693 146.262 128.292 148.861 131.498 148.861Z" fill="#D8B68A"/>
<path d="M170.976 143.056C170.976 145.09 173.936 146.733 177.604 146.733H224C224 145.588 224 144.33 224 143.056C224 141.781 224 140.513 224 139.379H177.604C173.936 139.379 170.976 141.021 170.976 143.056Z" fill="#A78966"/>
<path d="M224 146.733H177.604C173.936 146.733 170.976 145.09 170.976 143.056H224C224 144.33 224 145.517 224 146.733Z" fill="#957856"/>
</svg>
