<svg width="240" height="240" viewBox="0 0 240 240" fill="none" xmlns="http://www.w3.org/2000/svg">
<path d="M213.27 171.998H119.967L88.7108 120.233L118.491 80.4738C118.957 79.8504 119.424 79.2263 119.968 78.6807C125.799 71.8201 134.198 68 143.293 68C153.168 68 162.187 72.5219 168.096 80.4738L222.601 153.288C228.354 160.928 222.912 171.998 213.27 171.998Z" fill="#5B5B5B"/>
<path d="M213.27 171.998H119.967V78.6807C125.799 71.8201 134.197 68 143.293 68C153.167 68 162.186 72.5219 168.095 80.4738L222.6 153.288C228.353 160.928 222.912 171.998 213.27 171.998Z" fill="#828282"/>
<path d="M119.967 172H26.6638C22.3662 172 18.4103 169.625 16.3824 165.826C14.3475 162.023 14.5752 157.41 16.9594 153.82L44.2032 112.845C50.7103 103.062 61.591 97.2231 73.3143 97.2231C85.0375 97.2231 95.9182 103.063 102.425 112.845L129.669 153.82C132.053 157.409 132.281 162.023 130.246 165.826C128.22 169.625 124.264 172 119.967 172Z" fill="#A4A4A4"/>
</svg>
