<svg width="24" height="24" viewBox="0 0 24 24" fill="none" xmlns="http://www.w3.org/2000/svg">
<path fill-rule="evenodd" clip-rule="evenodd" d="M21 10C21 13.7068 18.1887 17.9237 12.6577 22.7533C12.281 23.0822 11.719 23.0822 11.3423 22.7533C5.81131 17.9237 3 13.7068 3 10C3 4.75066 7.09705 1 12 1C16.9029 1 21 4.75066 21 10ZM11.3346 20.0532C11.709 20.4027 12.291 20.4027 12.6654 20.0532C16.9115 16.088 19 12.7112 19 10C19 5.8966 15.8359 3 12 3C8.16411 3 5 5.8966 5 10C5 12.7112 7.08853 16.088 11.3346 20.0532ZM7 10.5C7 10.7761 7.22386 11 7.5 11H12.3787C12.8241 11 13.0472 11.5386 12.7322 11.8536L11.6464 12.9393C11.4512 13.1346 11.4512 13.4512 11.6464 13.6464L12.3536 14.3536C12.5488 14.5488 12.8654 14.5488 13.0607 14.3536L17.0607 10.3536C17.2559 10.1583 17.2559 9.84171 17.0607 9.64645L13.0607 5.64645C12.8654 5.45118 12.5488 5.45118 12.3536 5.64645L11.6464 6.35355C11.4512 6.54882 11.4512 6.8654 11.6464 7.06066L12.7322 8.14645C13.0472 8.46143 12.8241 9 12.3787 9H7.5C7.22386 9 7 9.22386 7 9.5V10.5Z" fill="#474747"/>
</svg>
