<svg width="16" height="16" viewBox="0 0 16 16" fill="none" xmlns="http://www.w3.org/2000/svg">
<path fill-rule="evenodd" clip-rule="evenodd" d="M8.66683 7.93324V12.6666H7.3335V7.93324C5.812 7.62439 4.66683 6.27922 4.66683 4.66658C4.66683 2.82564 6.15921 1.33325 8.00016 1.33325C9.84111 1.33325 11.3335 2.82564 11.3335 4.66658C11.3335 6.27922 10.1883 7.62439 8.66683 7.93324ZM6.00016 9.43812V10.7895C4.04495 11.0336 2.66683 11.5911 2.66683 11.9999C2.66683 12.5379 5.05292 13.3333 8.00016 13.3333C10.9474 13.3333 13.3335 12.5379 13.3335 11.9999C13.3335 11.5911 11.9554 11.0336 10.0002 10.7895V9.43812C12.7041 9.73439 14.6668 10.6451 14.6668 11.9999C14.6668 13.6711 11.6803 14.6666 8.00016 14.6666C4.31998 14.6666 1.3335 13.6711 1.3335 11.9999C1.3335 10.6451 3.29625 9.73439 6.00016 9.43812ZM10.0002 4.66659C10.0002 5.77115 9.10473 6.66659 8.00016 6.66659C6.89559 6.66659 6.00016 5.77115 6.00016 4.66659C6.00016 3.56202 6.89559 2.66659 8.00016 2.66659C9.10473 2.66659 10.0002 3.56202 10.0002 4.66659Z" fill="#474747"/>
</svg>
