<svg width="240" height="240" viewBox="0 0 240 240" fill="none" xmlns="http://www.w3.org/2000/svg">
<path d="M191.704 86.7778C191.704 82.4822 188.221 79 183.926 79H83.5925V120.481H183.926C188.221 120.481 191.704 116.999 191.704 112.704V86.7778Z" fill="#816952"/>
<path d="M191.704 86.7778C191.704 82.4822 188.221 79 183.926 79H83.5925V99.7407H191.704V86.7778Z" fill="#957856"/>
<path d="M150.564 99.7503C150.564 103.493 153.584 106.513 157.327 106.513H191.704C191.704 104.407 191.704 102.085 191.704 99.7406C191.704 97.3963 191.704 95.0739 191.704 92.9873H157.327C153.584 92.9873 150.564 96.0081 150.564 99.7503Z" fill="#A78966"/>
<path d="M119.649 79V86.2248C119.649 91.4096 121.587 96.1435 124.878 99.7504C128.576 103.898 133.941 106.513 139.937 106.513H171.497C175.24 106.513 178.26 103.493 178.26 99.7504C178.26 96.0082 175.24 92.9874 171.497 92.9874H139.937C136.195 92.9874 133.174 89.9666 133.174 86.2244V79H119.649Z" fill="#A78966"/>
<rect width="58.5926" height="41.4815" rx="7.77778" transform="matrix(-1 0 0 1 97.0741 79)" fill="#E6C892"/>
<path d="M97.0741 86.7778C97.0741 82.4822 93.5919 79 89.2963 79H46.2593C41.9637 79 38.4815 82.4822 38.4815 86.7778V99.7407H97.0741V86.7778Z" fill="#F7E4B3"/>
<path d="M67.8127 115.486C59.0975 115.486 52.0327 108.421 52.0327 99.7058C52.0327 90.9906 59.0975 83.9258 67.8127 83.9258C76.5278 83.9258 83.5927 90.9906 83.5927 99.7058C83.5927 108.421 76.5278 115.486 67.8127 115.486Z" fill="#E6C892"/>
<path d="M67.8126 115.486C76.5278 115.486 83.5926 108.421 83.5926 99.7061H52.0326C52.0326 108.421 59.0975 115.486 67.8126 115.486Z" fill="#D8B68A"/>
<path d="M124.879 99.7505C128.576 103.898 133.941 106.513 139.938 106.513H171.498C175.24 106.513 178.261 103.493 178.261 99.7505H124.879Z" fill="#957856"/>
<path d="M191.704 106.504H157.245C153.502 106.504 150.481 103.483 150.481 99.7407H191.704C191.704 102.085 191.704 104.268 191.704 106.504Z" fill="#957856"/>
<path d="M164.222 128.259C164.222 123.964 160.74 120.481 156.444 120.481H56.1109V161.963H156.444C160.74 161.963 164.222 158.481 164.222 154.185V128.259Z" fill="#816952"/>
<path d="M164.222 128.259C164.222 123.964 160.74 120.481 156.444 120.481H56.1109V141.222H164.222V128.259Z" fill="#957856"/>
<path d="M123.082 141.232C123.082 144.974 126.103 147.995 129.846 147.995H164.222C164.222 145.889 164.222 143.567 164.222 141.222C164.222 138.878 164.222 136.555 164.222 134.469H129.845C126.102 134.469 123.082 137.49 123.082 141.232Z" fill="#A78966"/>
<path d="M92.1675 120.481V127.706C92.1675 132.891 94.1058 137.625 97.3968 141.232C101.094 145.38 106.459 147.995 112.456 147.995H144.016C147.758 147.995 150.779 144.974 150.779 141.232C150.779 137.49 147.758 134.469 144.016 134.469H112.456C108.713 134.469 105.693 131.448 105.693 127.706V120.481H92.1675Z" fill="#A78966"/>
<rect width="58.5926" height="41.4815" rx="7.77778" transform="matrix(-1 0 0 1 69.5926 120.481)" fill="#E6C892"/>
<path d="M69.5926 128.259C69.5926 123.964 66.1104 120.481 61.8148 120.481H18.7778C14.4822 120.481 11 123.964 11 128.259V141.222H69.5926V128.259Z" fill="#F7E4B3"/>
<path d="M40.3312 156.968C31.6161 156.968 24.5513 149.903 24.5513 141.188C24.5513 132.473 31.6161 125.408 40.3312 125.408C49.0464 125.408 56.1112 132.473 56.1112 141.188C56.1112 149.903 49.0464 156.968 40.3312 156.968Z" fill="#E6C892"/>
<path d="M40.3312 156.967C49.0463 156.967 56.1111 149.903 56.1111 141.188H24.5512C24.5512 149.903 31.616 156.967 40.3312 156.967Z" fill="#D8B68A"/>
<path d="M97.3973 141.232C101.095 145.38 106.46 147.995 112.456 147.995H144.016C147.759 147.995 150.779 144.974 150.779 141.232H97.3973Z" fill="#957856"/>
<path d="M164.222 147.985H129.763C126.02 147.985 123 144.964 123 141.222H164.222C164.222 143.566 164.222 145.75 164.222 147.985Z" fill="#957856"/>
<path d="M228 128.259C228 123.964 224.518 120.481 220.222 120.481H119.889V161.963H220.222C224.518 161.963 228 158.481 228 154.185V128.259Z" fill="#816952"/>
<path d="M228 128.259C228 123.964 224.518 120.481 220.222 120.481H119.889V141.222H228V128.259Z" fill="#957856"/>
<path d="M186.86 141.232C186.86 144.974 189.881 147.995 193.623 147.995H228C228 145.889 228 143.567 228 141.222C228 138.878 228 136.555 228 134.469H193.623C189.88 134.469 186.86 137.49 186.86 141.232Z" fill="#A78966"/>
<path d="M155.945 120.481V127.706C155.945 132.891 157.884 137.625 161.175 141.232C164.872 145.38 170.237 147.995 176.233 147.995H207.793C211.536 147.995 214.556 144.974 214.556 141.232C214.556 137.49 211.536 134.469 207.793 134.469H176.233C172.491 134.469 169.47 131.448 169.47 127.706V120.481H155.945Z" fill="#A78966"/>
<rect width="58.5926" height="41.4815" rx="7.77778" transform="matrix(-1 0 0 1 133.37 120.481)" fill="#E6C892"/>
<path d="M133.37 128.259C133.37 123.964 129.888 120.481 125.593 120.481H82.5556C78.26 120.481 74.7778 123.964 74.7778 128.259V141.222H133.37V128.259Z" fill="#F7E4B3"/>
<path d="M104.109 156.968C95.3937 156.968 88.3289 149.903 88.3289 141.188C88.3289 132.473 95.3937 125.408 104.109 125.408C112.824 125.408 119.889 132.473 119.889 141.188C119.889 149.903 112.824 156.968 104.109 156.968Z" fill="#E6C892"/>
<path d="M104.109 156.967C112.824 156.967 119.889 149.903 119.889 141.188H88.3289C88.3289 149.903 95.3937 156.967 104.109 156.967Z" fill="#D8B68A"/>
<path d="M161.175 141.232C164.872 145.38 170.237 147.995 176.234 147.995H207.794C211.536 147.995 214.557 144.974 214.557 141.232H161.175Z" fill="#957856"/>
<path d="M228 147.985H193.541C189.798 147.985 186.778 144.964 186.778 141.222H228C228 143.566 228 145.75 228 147.985Z" fill="#957856"/>
</svg>
