<svg width="240" height="240" viewBox="0 0 240 240" fill="none" xmlns="http://www.w3.org/2000/svg">
<g clip-path="url(#clip0_1380_26885)">
<path d="M105.794 115.548C105.794 139.555 86.3495 159 62.3423 159C38.3351 159 18.8904 139.555 18.8904 115.548C18.8904 91.5404 38.3351 72.0957 62.3423 72.0957C86.3495 72.0957 105.794 91.5404 105.794 115.548Z" fill="#B7B9C4"/>
<path fill-rule="evenodd" clip-rule="evenodd" d="M62.499 159V71.9902C86.4784 72.0572 105.88 91.5 105.88 115.495C105.88 139.49 86.4784 158.933 62.499 159Z" fill="#D5D7E5"/>
<path d="M62.3422 62.0684C55.4306 62.0684 49.808 56.4458 49.808 49.5342C49.808 42.6226 55.4306 37 62.3422 37C69.2538 37 74.8764 42.6226 74.8764 49.5342C74.8764 56.4458 69.2538 62.0684 62.3422 62.0684Z" fill="#A78966"/>
<path d="M74.8765 49.5342C74.8765 42.6226 69.2539 37 62.3423 37V62.0684C69.2539 62.0684 74.8765 56.4458 74.8765 49.5342Z" fill="#957856"/>
<ellipse cx="42.7053" cy="119.725" rx="12.952" ry="9.19175" fill="#616267"/>
<ellipse cx="80.3079" cy="119.725" rx="12.952" ry="9.19175" fill="#7F8189"/>
<path d="M62.3422 48.6982C36.9953 48.6982 16.3835 69.31 16.3835 94.657V103.013C16.3835 105.325 18.2494 107.191 20.5617 107.191H104.123C106.435 107.191 108.301 105.325 108.301 103.013V94.657C108.301 69.3103 87.6891 48.6982 62.3422 48.6982Z" fill="#D8B68A"/>
<path d="M108.301 94.657V103.013C108.301 105.325 106.435 107.191 104.123 107.191H62.3423V48.6982C87.6893 48.6982 108.301 69.3102 108.301 94.657Z" fill="#CAA579"/>
<path d="M83.2325 107.191H41.4518V69.5885C41.4518 58.0513 50.8049 48.6982 62.3422 48.6982C73.8794 48.6982 83.2325 58.0513 83.2325 69.5885V107.191Z" fill="#E6C892"/>
<path d="M83.2326 107.191V69.5885C83.2326 58.051 73.8795 48.6982 62.3423 48.6982V107.191H83.2326Z" fill="#D8B68A"/>
<path d="M114.096 90.479H10.5887C3.65081 90.479 -2 96.1056 -2 103.013C-2 109.921 3.65081 115.547 10.5887 115.547H114.096C121.033 115.547 126.685 109.921 126.685 103.013C126.685 96.1056 121.033 90.479 114.096 90.479Z" fill="#F7E4B3"/>
<path d="M126.685 103.013C126.685 109.921 121.034 115.547 114.096 115.547H62.3423V90.479H114.096C121.033 90.479 126.685 96.1056 126.685 103.013Z" fill="#E6C892"/>
<path d="M105.794 90.479L80.8015 115.547H69.0272L94.0199 90.479H105.794Z" fill="#616267"/>
<rect x="48.9724" y="140.616" width="26.7396" height="6.68491" rx="3.34245" fill="#7F8189"/>
<path d="M213.513 148.831C213.513 178.121 189.79 201.844 160.5 201.844C131.21 201.844 107.487 178.121 107.487 148.831C107.487 119.542 131.21 95.8184 160.5 95.8184C189.79 95.8184 213.513 119.542 213.513 148.831Z" fill="#B7B9C4"/>
<path fill-rule="evenodd" clip-rule="evenodd" d="M160.691 201.845V95.6895C189.947 95.7712 213.617 119.492 213.617 148.767C213.617 178.042 189.947 201.763 160.691 201.845Z" fill="#D5D7E5"/>
<path d="M160.5 83.5844C152.067 83.5844 145.208 76.7246 145.208 68.2922C145.208 59.8598 152.067 53 160.5 53C168.932 53 175.792 59.8598 175.792 68.2922C175.792 76.7246 168.932 83.5844 160.5 83.5844Z" fill="#A78966"/>
<path d="M175.792 68.2922C175.792 59.8598 168.932 53 160.5 53V83.5844C168.932 83.5844 175.792 76.7246 175.792 68.2922Z" fill="#957856"/>
<ellipse cx="136.542" cy="153.928" rx="15.8019" ry="11.2143" fill="#616267"/>
<ellipse cx="182.419" cy="153.928" rx="15.8019" ry="11.2143" fill="#7F8189"/>
<path d="M160.5 67.2725C129.576 67.2725 104.429 92.4196 104.429 123.344V133.539C104.429 136.359 106.705 138.636 109.526 138.636H211.474C214.295 138.636 216.572 136.359 216.572 133.539V123.344C216.571 92.4199 191.424 67.2725 160.5 67.2725Z" fill="#D8B68A"/>
<path d="M216.571 123.344V133.539C216.571 136.359 214.295 138.636 211.474 138.636H160.5V67.2725C191.424 67.2725 216.571 92.4198 216.571 123.344Z" fill="#CAA579"/>
<path d="M185.987 138.636H135.013V92.7594C135.013 78.6835 146.424 67.2725 160.5 67.2725C174.576 67.2725 185.987 78.6835 185.987 92.7594V138.636Z" fill="#E6C892"/>
<path d="M185.987 138.636V92.7594C185.987 78.6832 174.576 67.2725 160.5 67.2725V138.636H185.987Z" fill="#D8B68A"/>
<path d="M223.641 118.247H97.3587C88.8942 118.247 82 125.111 82 133.539C82 141.966 88.8942 148.831 97.3587 148.831H223.641C232.105 148.831 239 141.967 239 133.539C239 125.111 232.105 118.247 223.641 118.247Z" fill="#F7E4B3"/>
<path d="M239 133.539C239 141.966 232.106 148.831 223.641 148.831H160.5V118.247H223.641C232.105 118.247 239 125.111 239 133.539Z" fill="#E6C892"/>
<path d="M213.513 118.247L183.021 148.831H168.656L199.148 118.247H213.513Z" fill="#616267"/>
<rect x="144.188" y="179.416" width="32.6234" height="8.15584" rx="4.07792" fill="#7F8189"/>
</g>
<defs>
<clipPath id="clip0_1380_26885">
<rect width="240" height="240" fill="white"/>
</clipPath>
</defs>
</svg>
