<svg width="800" height="800" viewBox="0 0 800 800" fill="none" xmlns="http://www.w3.org/2000/svg">
<g clip-path="url(#clip0_1400_15173)">
<path fill-rule="evenodd" clip-rule="evenodd" d="M400 479.564C512.114 479.564 603 388.678 603 276.564C603 263.73 601.809 251.174 599.531 239H200.469C198.191 251.174 197 263.73 197 276.564C197 388.678 287.886 479.564 400 479.564Z" fill="#757880"/>
<path fill-rule="evenodd" clip-rule="evenodd" d="M399.581 239V479.564C287.66 479.337 197 388.538 197 276.564C197 263.73 198.191 251.174 200.469 239H399.581Z" fill="#7F8189"/>
<rect x="239" y="296" width="126" height="20" rx="10" fill="#616267"/>
<rect x="427" y="386" width="97" height="20" rx="10" fill="#55575C"/>
<path d="M508.435 538.209V626.594H288.177C267.37 626.594 249.885 612.112 245.344 592.599C244.532 589.336 244.125 585.936 244.125 582.4C244.125 578.865 244.532 575.466 245.344 572.202C247.241 564.043 251.377 556.837 257.001 551.126C264.999 543.171 275.977 538.208 288.177 538.208H508.435V538.209Z" fill="#957856"/>
<path d="M325.451 582.401C325.451 588.044 320.911 592.599 315.285 592.599H245.344C244.532 589.336 244.125 585.936 244.125 582.401C244.125 578.866 244.532 575.466 245.344 572.202H315.285C320.911 572.202 325.451 576.757 325.451 582.401Z" fill="#A78966"/>
<path d="M433.886 538.209V562.005C433.886 569.823 430.972 576.962 426.025 582.401C420.468 588.656 412.403 592.6 403.389 592.6H355.949C350.323 592.6 345.783 588.044 345.783 582.401C345.783 576.758 350.323 572.203 355.949 572.203H403.389C409.015 572.203 413.555 567.647 413.555 562.004V538.208H433.886V538.209Z" fill="#A78966"/>
<path d="M244.125 582.402C244.125 585.937 244.532 589.337 245.344 592.601C249.885 612.113 267.37 626.595 288.177 626.595H508.435V582.403L244.125 582.402Z" fill="#816952"/>
<path d="M426.025 582.401C420.467 588.656 412.402 592.6 403.389 592.6H355.948C350.322 592.6 345.782 588.045 345.782 582.401H426.025Z" fill="#957856"/>
<path d="M245.344 592.6H315.285C320.911 592.6 325.451 588.045 325.451 582.401H244.125C244.125 585.936 244.532 589.336 245.344 592.6Z" fill="#957856"/>
<path d="M511.823 538.209C536.153 538.209 555.875 557.995 555.875 582.401C555.875 606.808 536.152 626.594 511.823 626.594C487.495 626.594 467.771 606.808 467.771 582.401C467.771 557.995 487.495 538.209 511.823 538.209Z" fill="#F7E4B3"/>
<path d="M511.823 606.197C498.723 606.197 488.103 595.544 488.103 582.401C488.103 569.259 498.723 558.605 511.823 558.605C524.924 558.605 535.543 569.259 535.543 582.401C535.543 595.544 524.924 606.197 511.823 606.197Z" fill="#E6C892"/>
<path d="M511.823 626.594C536.151 626.594 555.875 606.808 555.875 582.401H467.771C467.771 606.808 487.495 626.594 511.823 626.594Z" fill="#E6C892"/>
<path d="M511.823 606.198C524.924 606.198 535.543 595.545 535.543 582.402H488.103C488.103 595.545 498.723 606.198 511.823 606.198Z" fill="#D8B68A"/>
<path d="M291.565 626.594V714.979H511.823C532.63 714.979 550.114 700.498 554.656 680.985C555.468 677.721 555.875 674.322 555.875 670.786C555.875 667.251 555.467 663.852 554.656 660.588C552.758 652.429 548.623 645.222 542.998 639.511C535.001 631.557 524.023 626.594 511.823 626.594H291.565V626.594Z" fill="#957856"/>
<path d="M474.549 670.786C474.549 676.43 479.089 680.985 484.715 680.985H554.656C555.468 677.722 555.875 674.322 555.875 670.786C555.875 667.251 555.468 663.852 554.656 660.588H484.715C479.089 660.589 474.549 665.144 474.549 670.786Z" fill="#A78966"/>
<path d="M366.114 626.594V650.39C366.114 658.209 369.028 665.348 373.975 670.787C379.533 677.042 387.597 680.985 396.611 680.985H444.051C449.677 680.985 454.217 676.43 454.217 670.787C454.217 665.144 449.677 660.588 444.051 660.588H396.611C390.985 660.588 386.445 656.033 386.445 650.39V626.594H366.114V626.594Z" fill="#A78966"/>
<path d="M555.875 670.788C555.875 674.323 555.467 677.723 554.656 680.987C550.115 700.499 532.63 714.981 511.823 714.981H291.565V670.788H555.875Z" fill="#816952"/>
<path d="M373.975 670.787C379.533 677.042 387.597 680.986 396.611 680.986H444.052C449.677 680.986 454.218 676.43 454.218 670.787H373.975Z" fill="#957856"/>
<path d="M554.656 680.986H484.714C479.088 680.986 474.548 676.43 474.548 670.787H555.874C555.875 674.323 555.469 677.722 554.656 680.986Z" fill="#957856"/>
<path d="M288.177 626.594C263.847 626.594 244.125 646.379 244.125 670.786C244.125 695.193 263.847 714.979 288.177 714.979C312.505 714.979 332.228 695.193 332.228 670.786C332.228 646.38 312.506 626.594 288.177 626.594Z" fill="#F7E4B3"/>
<path d="M288.177 694.582C301.277 694.582 311.897 683.929 311.897 670.786C311.897 657.644 301.277 646.99 288.177 646.99C275.076 646.99 264.457 657.644 264.457 670.786C264.457 683.929 275.076 694.582 288.177 694.582Z" fill="#E6C892"/>
<path d="M288.177 714.979C263.848 714.979 244.125 695.192 244.125 670.786H332.228C332.228 695.194 312.506 714.979 288.177 714.979Z" fill="#E6C892"/>
<path d="M288.176 694.584C275.076 694.584 264.456 683.93 264.456 670.788H311.896C311.896 683.93 301.277 694.584 288.176 694.584Z" fill="#D8B68A"/>
</g>
<defs>
<clipPath id="clip0_1400_15173">
<rect width="800" height="800" fill="white"/>
</clipPath>
</defs>
</svg>
