<svg width="240" height="240" viewBox="0 0 240 240" fill="none" xmlns="http://www.w3.org/2000/svg">
<g clip-path="url(#clip0_1340_14243)">
<rect x="166.909" y="75.5844" width="50" height="10" rx="4.74026" fill="#96C8EF"/>
<rect x="152" y="98" width="50" height="10" rx="4.74026" fill="#96C8EF"/>
<rect x="169" y="120" width="50" height="10" rx="4.74026" fill="#96C8EF"/>
<rect x="39.8701" y="172.234" width="140.312" height="10" rx="4.74026" fill="#96C8EF"/>
<path d="M41.9698 151.655C39.5125 149.032 41.3723 144.741 44.9664 144.741H168.804C171.699 144.741 173.685 147.656 172.626 150.35L164.768 170.334C164.15 171.905 162.634 172.937 160.947 172.937H63.6891C62.5536 172.937 61.4688 172.467 60.6925 171.639L41.9698 151.655Z" fill="#957856"/>
<path d="M101.968 52.6633C104.005 48.9286 109.679 50.3755 109.679 54.6296V135.297C109.679 137.565 107.84 139.403 105.572 139.403H61.5721C58.4552 139.403 56.4747 136.067 57.9672 133.331L101.968 52.6633Z" fill="white"/>
<path d="M122.828 96.6274C120.743 92.9651 115.154 94.4448 115.154 98.6591V135.297C115.154 137.565 116.992 139.403 119.26 139.403H140.119C143.269 139.403 145.246 136.003 143.688 133.265L122.828 96.6274Z" fill="#EDF0FD"/>
<path d="M110.5 144.741H169.379C172.266 144.741 174.252 147.642 173.207 150.334L165.446 170.318C164.833 171.897 163.313 172.937 161.618 172.937H110.5V144.741Z" fill="#816952"/>
</g>
<defs>
<clipPath id="clip0_1340_14243">
<rect width="240" height="240" fill="white"/>
</clipPath>
</defs>
</svg>
