<svg width="240" height="240" viewBox="0 0 240 240" fill="none" xmlns="http://www.w3.org/2000/svg">
<path d="M19.0495 152.67C16.0169 149.487 18.2731 144.221 22.6696 144.221H164.677C167.833 144.221 170.2 147.109 169.579 150.204L166.815 163.983C166.347 166.319 164.295 168 161.913 168H35.7974C34.4294 168 33.1211 167.439 32.1774 166.449L19.0495 152.67Z" fill="#A67029"/>
<path d="M92.3745 53.5757C94.565 48.6373 101.945 50.2007 101.945 55.603V134.215C101.945 136.976 99.7065 139.215 96.945 139.215H62.0745C58.4578 139.215 56.0375 135.493 57.504 132.187L92.3745 53.5757Z" fill="#BFBFBF"/>
<path d="M116.494 102.813C114.252 97.9385 106.951 99.5367 106.951 104.902V134.215C106.951 136.976 109.19 139.215 111.951 139.215H125.431C129.077 139.215 131.497 135.438 129.973 132.126L116.494 102.813Z" fill="#BFBFBF"/>
<rect x="150" y="78" width="76" height="8" rx="4" fill="#8BD5FF"/>
<rect x="136" y="103" width="76" height="8" rx="4" fill="#8BD5FF"/>
<rect x="150" y="128" width="76" height="8" rx="4" fill="#8BD5FF"/>
<rect x="26" y="168" width="148" height="8" rx="4" fill="#8BD5FF"/>
</svg>
