<svg width="240" height="240" viewBox="0 0 240 240" fill="none" xmlns="http://www.w3.org/2000/svg">
<path d="M180.522 71.0003V120.174H57.5869C45.974 120.174 36.2151 112.117 33.6804 101.261C33.227 99.4454 33 97.554 33 95.5869C33 93.6201 33.2274 91.7287 33.6804 89.9128C34.7394 85.3736 37.0475 81.3642 40.1868 78.1868C44.6506 73.7611 50.7777 71 57.5869 71H180.522V71.0003Z" fill="#7F8189"/>
<path d="M78.3911 95.5871C78.3911 98.7268 75.8571 101.261 72.717 101.261H33.6804C33.227 99.4456 33 97.5543 33 95.5871C33 93.6203 33.2274 91.729 33.6804 89.9131H72.7174C75.8574 89.9131 78.3911 92.4475 78.3911 95.5871Z" fill="#B7B9C4"/>
<path d="M138.913 71.0003V84.2395C138.913 88.5894 137.287 92.5611 134.526 95.5872C131.424 99.0671 126.923 101.261 121.892 101.261H95.4133C92.2732 101.261 89.7392 98.7269 89.7392 95.5872C89.7392 92.4476 92.2732 89.9132 95.4133 89.9132H121.892C125.032 89.9132 127.566 87.3788 127.566 84.2391V71H138.913V71.0003Z" fill="#B7B9C4"/>
<path d="M33 95.5874C33 97.5542 33.2274 99.4455 33.6804 101.261C36.2148 112.117 45.974 120.175 57.5869 120.175H180.522V95.5877L33 95.5874Z" fill="#616267"/>
<path d="M134.525 95.5874C131.423 99.0673 126.922 101.261 121.891 101.261H95.4129C92.2729 101.261 89.7389 98.7271 89.7389 95.5874H134.525Z" fill="#7F8189"/>
<path d="M33.6804 101.261H72.7174C75.8574 101.261 78.3914 98.7271 78.3914 95.5874H33C33 97.5542 33.2274 99.4455 33.6804 101.261Z" fill="#7F8189"/>
<path d="M182.413 71.0005C195.992 71.0005 207 82.0084 207 95.5874C207 109.166 195.992 120.174 182.413 120.174C168.834 120.174 157.826 109.166 157.826 95.5874C157.826 82.0087 168.834 71.0005 182.413 71.0005Z" fill="#B7B9C4"/>
<path d="M182.413 108.826C175.101 108.826 169.174 102.899 169.174 95.5873C169.174 88.2754 175.101 82.3481 182.413 82.3481C189.725 82.3481 195.652 88.2754 195.652 95.5873C195.652 102.899 189.725 108.826 182.413 108.826Z" fill="#7F8189"/>
<path d="M182.413 120.174C195.991 120.174 207 109.166 207 95.5874H157.826C157.826 109.166 168.834 120.174 182.413 120.174Z" fill="#7F8189"/>
<path d="M182.413 108.827C189.725 108.827 195.652 102.899 195.652 95.5874H169.174C169.174 102.899 175.101 108.827 182.413 108.827Z" fill="#616267"/>
<path d="M59.4783 120.174V169.348H182.413C194.026 169.348 203.785 161.291 206.319 150.435C206.773 148.619 207 146.728 207 144.761C207 142.794 206.772 140.903 206.319 139.087C205.26 134.547 202.952 130.538 199.813 127.361C195.349 122.935 189.222 120.174 182.413 120.174H59.4783V120.174Z" fill="#7F8189"/>
<path d="M161.609 144.761C161.609 147.901 164.143 150.435 167.283 150.435H206.32C206.773 148.619 207 146.728 207 144.761C207 142.794 206.773 140.903 206.32 139.087H167.283C164.143 139.087 161.609 141.622 161.609 144.761Z" fill="#B7B9C4"/>
<path d="M101.087 120.174V133.413C101.087 137.763 102.713 141.735 105.474 144.761C108.576 148.241 113.077 150.435 118.109 150.435H144.587C147.727 150.435 150.261 147.901 150.261 144.761C150.261 141.621 147.727 139.087 144.587 139.087H118.109C114.969 139.087 112.434 136.553 112.434 133.413V120.174H101.087V120.174Z" fill="#B7B9C4"/>
<path d="M207 144.761C207 146.728 206.772 148.619 206.319 150.435C203.785 161.291 194.026 169.348 182.413 169.348H59.4783V144.761H207Z" fill="#616267"/>
<path d="M105.474 144.761C108.576 148.241 113.077 150.435 118.109 150.435H144.587C147.727 150.435 150.261 147.901 150.261 144.761H105.474Z" fill="#7F8189"/>
<path d="M206.319 150.435H167.282C164.142 150.435 161.608 147.901 161.608 144.761H206.999C207 146.728 206.773 148.619 206.319 150.435Z" fill="#7F8189"/>
<path d="M57.5869 120.174C44.0076 120.174 33 131.182 33 144.761C33 158.34 44.0076 169.348 57.5869 169.348C71.1656 169.348 82.1738 158.34 82.1738 144.761C82.1738 131.183 71.1659 120.174 57.5869 120.174Z" fill="#B7B9C4"/>
<path d="M57.5869 158C64.8988 158 70.826 152.073 70.826 144.761C70.826 137.449 64.8988 131.522 57.5869 131.522C50.275 131.522 44.3478 137.449 44.3478 144.761C44.3478 152.073 50.275 158 57.5869 158Z" fill="#7F8189"/>
<path d="M57.5869 169.348C44.0082 169.348 33 158.339 33 144.761H82.1738C82.1738 158.34 71.1659 169.348 57.5869 169.348Z" fill="#7F8189"/>
<path d="M57.587 158C50.2751 158 44.3478 152.073 44.3478 144.761H70.8261C70.8261 152.073 64.8988 158 57.587 158Z" fill="#616267"/>
</svg>
