<svg width="240" height="240" viewBox="0 0 240 240" fill="none" xmlns="http://www.w3.org/2000/svg">
<path d="M115.729 130.986C117.677 134.185 122.323 134.185 124.271 130.986L165.602 63.1002C167.631 59.7682 165.232 55.5 161.331 55.5H78.6686C74.7676 55.5 72.3692 59.7682 74.3978 63.1002L115.729 130.986Z" fill="#96C8EF"/>
<path d="M115.729 110.014C117.677 106.815 122.323 106.815 124.271 110.014L165.602 177.9C167.631 181.232 165.232 185.5 161.331 185.5H78.6686C74.7676 185.5 72.3692 181.232 74.3978 177.9L115.729 110.014Z" fill="#96C8EF"/>
<path fill-rule="evenodd" clip-rule="evenodd" d="M126.697 114L165.602 177.9C167.631 181.232 165.232 185.5 161.331 185.5H120V114H126.697Z" fill="#5AAAE7"/>
<path fill-rule="evenodd" clip-rule="evenodd" d="M120 133.385V55.5H161.331C165.232 55.5 167.631 59.7682 165.602 63.1002L124.271 130.986C123.297 132.585 121.648 133.385 120 133.385Z" fill="#5AAAE7"/>
<path d="M115.841 109.766C117.82 112.732 122.18 112.732 124.159 109.766L137.33 90.0249C139.546 86.7023 137.164 82.25 133.17 82.25H106.83C102.836 82.25 100.454 86.7023 102.67 90.0249L115.841 109.766Z" fill="#FFE03A"/>
<path d="M115.843 137.218C117.823 134.256 122.177 134.256 124.157 137.218L143.379 165.971C145.6 169.294 143.218 173.75 139.222 173.75H100.778C96.7817 173.75 94.4004 169.294 96.6214 165.971L115.843 137.218Z" fill="#FFE477"/>
<path fill-rule="evenodd" clip-rule="evenodd" d="M120 111.991V82.25H133.17C137.164 82.25 139.546 86.7023 137.33 90.0249L124.159 109.766C123.17 111.249 121.585 111.991 120 111.991Z" fill="#FFB655"/>
<path fill-rule="evenodd" clip-rule="evenodd" d="M120 173.75V134.997C121.583 134.997 123.167 135.737 124.157 137.218L143.379 165.971C145.6 169.294 143.218 173.75 139.222 173.75H120Z" fill="#FFB655"/>
<rect x="65" y="54" width="110" height="10" rx="5" fill="#C9A06F"/>
<path fill-rule="evenodd" clip-rule="evenodd" d="M120 64V54H170C172.761 54 175 56.2386 175 59C175 61.7614 172.761 64 170 64H120Z" fill="#816952"/>
<rect x="65" y="177" width="110" height="10" rx="5" fill="#C9A06F"/>
<path fill-rule="evenodd" clip-rule="evenodd" d="M120 187V177H170C172.761 177 175 179.239 175 182C175 184.761 172.761 187 170 187H120Z" fill="#816952"/>
</svg>
