<svg width="240" height="240" viewBox="0 0 240 240" fill="none" xmlns="http://www.w3.org/2000/svg">
<path d="M115.846 115.797C117.826 118.754 122.174 118.754 124.154 115.797L165.017 54.7823C167.242 51.4602 164.861 47 160.863 47H79.1369C75.1386 47 72.7577 51.4602 74.9825 54.7823L115.846 115.797Z" fill="#A9F0FF"/>
<path d="M115.846 125.203C117.826 122.246 122.174 122.246 124.154 125.203L165.017 186.218C167.242 189.54 164.861 194 160.863 194H79.1369C75.1386 194 72.7577 189.54 74.9825 186.218L115.846 125.203Z" fill="#A9F0FF"/>
<path d="M115.841 109.766C117.82 112.732 122.18 112.732 124.159 109.766L137.33 90.0249C139.546 86.7023 137.164 82.25 133.17 82.25H106.83C102.836 82.25 100.454 86.7023 102.67 90.0249L115.841 109.766Z" fill="#FFE03A"/>
<path d="M115.843 147.218C117.823 144.256 122.177 144.256 124.157 147.218L143.379 175.971C145.6 179.294 143.218 183.75 139.222 183.75H100.778C96.7817 183.75 94.4004 179.294 96.6214 175.971L115.843 147.218Z" fill="#FFE03A"/>
<rect x="65" y="44" width="110" height="10" rx="5" fill="#D28C22"/>
<rect x="65" y="187" width="110" height="10" rx="5" fill="#D28C22"/>
</svg>
