<svg width="240" height="240" viewBox="0 0 240 240" fill="none" xmlns="http://www.w3.org/2000/svg">
<path d="M147 70.5C147 85.1355 135.136 97 120.5 97C105.864 97 94 85.1355 94 70.5C94 55.8645 105.864 44 120.5 44C135.136 44 147 55.8645 147 70.5Z" fill="#474747"/>
<path d="M90 112C90 106.477 94.4772 102 100 102H139C144.523 102 149 106.477 149 112V196H90V112Z" fill="#474747"/>
<rect x="149" y="108.602" width="58.412" height="15.2379" rx="7.61895" transform="rotate(-54.5808 149 108.602)" fill="#454545"/>
<rect x="60.2927" y="161.371" width="58" height="15" rx="7.5" transform="rotate(-76.1865 60.2927 161.371)" fill="#454545"/>
</svg>
