<svg width="468" height="385" viewBox="0 0 468 385" fill="none" xmlns="http://www.w3.org/2000/svg">
<g filter="url(#filter0_d_1261_3264)">
<path d="M5.70141 316.868C1.98912 312.972 4.75104 306.526 10.1328 306.526H457.218C461.082 306.526 463.979 310.062 463.219 313.85L451.679 371.384C451.105 374.243 448.594 376.301 445.678 376.301H64.9475C63.2728 376.301 61.6713 375.615 60.5161 374.402L5.70141 316.868Z" fill="#A67029"/>
<path d="M250.992 3.64701C253.673 -2.39812 262.708 -0.484397 262.708 6.12878V285.715C262.708 289.096 259.967 291.836 256.587 291.836H132.568C128.141 291.836 125.178 287.281 126.973 283.234L250.992 3.64701Z" fill="white"/>
<path d="M289.078 149.533C286.335 143.566 277.397 145.523 277.397 152.091V285.715C277.397 289.096 280.137 291.836 283.518 291.836H344.966C349.429 291.836 352.391 287.213 350.526 283.158L289.078 149.533Z" fill="white"/>
</g>
<defs>
<filter id="filter0_d_1261_3264" x="0" y="0" width="467.34" height="384.301" filterUnits="userSpaceOnUse" color-interpolation-filters="sRGB">
<feFlood flood-opacity="0" result="BackgroundImageFix"/>
<feColorMatrix in="SourceAlpha" type="matrix" values="0 0 0 0 0 0 0 0 0 0 0 0 0 0 0 0 0 0 127 0" result="hardAlpha"/>
<feOffset dy="4"/>
<feGaussianBlur stdDeviation="2"/>
<feComposite in2="hardAlpha" operator="out"/>
<feColorMatrix type="matrix" values="0 0 0 0 0 0 0 0 0 0 0 0 0 0 0 0 0 0 0.25 0"/>
<feBlend mode="normal" in2="BackgroundImageFix" result="effect1_dropShadow_1261_3264"/>
<feBlend mode="normal" in="SourceGraphic" in2="effect1_dropShadow_1261_3264" result="shape"/>
</filter>
</defs>
</svg>
