<svg width="624" height="495" viewBox="0 0 624 495" fill="none" xmlns="http://www.w3.org/2000/svg">
<path d="M621.778 336.552C622.873 332.137 619.533 327.866 614.984 327.866H438.572C434.706 327.866 431.572 331 431.572 334.866V350.942C431.572 354.808 428.438 357.942 424.572 357.942H128.58C123.18 357.942 119.813 363.799 122.532 368.466L193.952 491.061C195.206 493.213 197.509 494.537 200 494.537H577.103C580.32 494.537 583.122 492.345 583.897 489.223L621.778 336.552Z" fill="#9F805A"/>
<path d="M395.857 3.58256C395.857 1.56905 393.912 0.127177 391.985 0.711796L384.781 2.89776C382.888 3.47214 380.867 3.47214 378.974 2.89776L370.844 0.430788C368.925 -0.151432 366.875 -0.143316 364.961 0.454081L357.287 2.84897C355.347 3.45441 353.269 3.45441 351.329 2.84897L344.611 0.75244C342.679 0.14962 340.717 1.59277 340.717 3.61622V19.4386C340.717 20.8702 341.729 22.1023 343.133 22.3812L352.387 24.219C353.656 24.471 354.961 24.4744 356.231 24.2293L366.364 22.2727C367.634 22.0275 368.939 22.031 370.208 22.2829L379.957 24.219C381.225 24.471 382.531 24.4744 383.8 24.2293L393.425 22.3709C394.837 22.0983 395.857 20.8628 395.857 19.4253V3.58256Z" fill="#B54028"/>
<path d="M230.439 21.1269C230.439 19.1134 228.495 17.6715 226.568 18.2561L219.364 20.4421C217.471 21.0165 215.45 21.0165 213.557 20.4421L205.426 17.9751C203.507 17.3929 201.458 17.401 199.543 17.9984L191.87 20.3933C189.93 20.9987 187.851 20.9987 185.911 20.3933L179.194 18.2968C177.262 17.6939 175.3 19.1371 175.3 21.1605V36.9829C175.3 38.4145 176.311 39.6466 177.715 39.9255L186.97 41.7634C188.238 42.0153 189.543 42.0188 190.813 41.7736L200.947 39.817C202.216 39.5718 203.522 39.5753 204.79 39.8272L214.539 41.7634C215.808 42.0153 217.113 42.0188 218.383 41.7736L228.008 39.9152C229.419 39.6426 230.439 38.4071 230.439 36.9696V21.1269Z" fill="#B54028"/>
<path d="M518.578 226.585C518.924 225.466 519.651 224.503 520.634 223.865L606.235 168.312C609.428 166.24 613.672 168.353 613.944 172.149L623.549 306.218C623.756 309.113 621.464 311.575 618.562 311.575H499.126C495.76 311.575 493.356 308.317 494.348 305.101L518.578 226.585Z" fill="white"/>
<path d="M518.578 226.585C518.924 225.466 519.651 224.503 520.634 223.865L606.235 168.312C609.428 166.24 613.672 168.353 613.944 172.149L623.549 306.218C623.756 309.113 621.464 311.575 618.562 311.575H499.126C495.76 311.575 493.356 308.317 494.348 305.101L518.578 226.585Z" fill="white"/>
<path d="M346.799 43.3774C347.373 41.1753 349.361 39.6385 351.637 39.6385H465.886C468.55 39.6385 470.746 41.7272 470.88 44.3877L477.049 167.223C477.192 170.08 474.915 172.474 472.055 172.474H319.618C316.345 172.474 313.954 169.38 314.78 166.213L346.799 43.3774Z" fill="white"/>
<path d="M346.799 43.3774C347.373 41.1753 349.361 39.6385 351.637 39.6385H465.886C468.55 39.6385 470.746 41.7272 470.88 44.3877L477.049 167.223C477.192 170.08 474.915 172.474 472.055 172.474H319.618C316.345 172.474 313.954 169.38 314.78 166.213L346.799 43.3774Z" fill="white"/>
<path d="M339.539 183.723C340.116 181.525 342.103 179.993 344.375 179.993H459.571C462.234 179.993 464.43 182.08 464.564 184.74L470.781 307.576C470.925 310.433 468.648 312.828 465.787 312.828H312.112C308.834 312.828 306.443 309.728 307.276 306.558L339.539 183.723Z" fill="white"/>
<path d="M339.539 183.723C340.116 181.525 342.103 179.993 344.375 179.993H459.571C462.234 179.993 464.43 182.08 464.564 184.74L470.781 307.576C470.925 310.433 468.648 312.828 465.787 312.828H312.112C308.834 312.828 306.443 309.728 307.276 306.558L339.539 183.723Z" fill="white"/>
<path d="M164.633 60.9279C165.205 58.7227 167.195 57.1829 169.473 57.1829H286.529C289.194 57.1829 291.39 59.2722 291.523 61.9334L297.848 188.528C297.99 191.384 295.713 193.778 292.854 193.778H136.648C133.377 193.778 130.987 190.689 131.808 187.523L164.633 60.9279Z" fill="white"/>
<path d="M164.633 60.9279C165.205 58.7227 167.195 57.1829 169.473 57.1829H286.529C289.194 57.1829 291.39 59.2722 291.523 61.9334L297.848 188.528C297.99 191.384 295.713 193.778 292.854 193.778H136.648C133.377 193.778 130.987 190.689 131.808 187.523L164.633 60.9279Z" fill="white"/>
<path d="M164.633 60.9279C165.205 58.7227 167.195 57.1829 169.473 57.1829H286.529C289.194 57.1829 291.39 59.2722 291.523 61.9334L297.848 188.528C297.99 191.384 295.713 193.778 292.854 193.778H136.648C133.377 193.778 130.987 190.689 131.808 187.523L164.633 60.9279Z" fill="white"/>
<path d="M164.633 60.9279C165.205 58.7227 167.195 57.1829 169.473 57.1829H286.529C289.194 57.1829 291.39 59.2722 291.523 61.9334L297.848 188.528C297.99 191.384 295.713 193.778 292.854 193.778H136.648C133.377 193.778 130.987 190.689 131.808 187.523L164.633 60.9279Z" fill="white"/>
<path d="M157.792 212.773C158.285 210.465 160.323 208.816 162.682 208.816H293.802C297.179 208.816 299.585 212.095 298.571 215.316L268.995 309.329C268.34 311.412 266.409 312.828 264.226 312.828H142.631C139.45 312.828 137.077 309.897 137.741 306.785L157.792 212.773Z" fill="white"/>
<path d="M157.792 212.773C158.285 210.465 160.323 208.816 162.682 208.816H293.802C297.179 208.816 299.585 212.095 298.571 215.316L268.995 309.329C268.34 311.412 266.409 312.828 264.226 312.828H142.631C139.45 312.828 137.077 309.897 137.741 306.785L157.792 212.773Z" fill="white"/>
<path d="M157.792 212.773C158.285 210.465 160.323 208.816 162.682 208.816H293.802C297.179 208.816 299.585 212.095 298.571 215.316L268.995 309.329C268.34 311.412 266.409 312.828 264.226 312.828H142.631C139.45 312.828 137.077 309.897 137.741 306.785L157.792 212.773Z" fill="white"/>
<path d="M157.792 212.773C158.285 210.465 160.323 208.816 162.682 208.816H293.802C297.179 208.816 299.585 212.095 298.571 215.316L268.995 309.329C268.34 311.412 266.409 312.828 264.226 312.828H142.631C139.45 312.828 137.077 309.897 137.741 306.785L157.792 212.773Z" fill="white"/>
<path d="M117.936 122.094C121.326 118.068 127.835 121.339 126.627 126.462L91.3085 276.246C90.5422 279.495 86.8669 281.095 83.9661 279.442L22.6161 244.475C19.9025 242.928 19.2555 239.3 21.2671 236.911L117.936 122.094Z" fill="white"/>
<path d="M2.41289 294.265C0.0799611 292.888 -0.695257 289.881 0.681388 287.548C2.05803 285.215 5.06524 284.44 7.39817 285.817L149.772 369.83C152.105 371.207 152.88 374.214 151.503 376.547C150.127 378.88 147.12 379.655 144.787 378.279L2.41289 294.265Z" fill="#9F805A"/>
<path d="M603.093 411.828H147.799L195.977 494.537H582.579L603.093 411.828Z" fill="#765127"/>
<path d="M582.578 349.157C582.578 346.396 580.34 344.157 577.578 344.157H568.781C566.019 344.157 563.781 346.396 563.781 349.157V357.955C563.781 360.716 566.019 362.955 568.781 362.955H577.578C580.34 362.955 582.578 360.716 582.578 357.955V349.157Z" fill="#090302"/>
<path d="M532.452 349.157C532.452 346.396 530.213 344.157 527.452 344.157H518.654C515.893 344.157 513.654 346.396 513.654 349.157V357.955C513.654 360.716 515.893 362.955 518.654 362.955H527.452C530.213 362.955 532.452 360.716 532.452 357.955V349.157Z" fill="#090302"/>
<path d="M482.325 349.157C482.325 346.396 480.087 344.157 477.325 344.157H468.528C465.766 344.157 463.528 346.396 463.528 349.157V357.955C463.528 360.716 465.766 362.955 468.528 362.955H477.325C480.087 362.955 482.325 360.716 482.325 357.955V349.157Z" fill="#090302"/>
</svg>
