<svg width="772" height="670" viewBox="0 0 772 670" fill="none" xmlns="http://www.w3.org/2000/svg">
<path d="M5.83854 559.421C3.22441 554.755 6.59699 549 11.9454 549H763.367C767.648 549 770.926 552.809 770.289 557.042L759.897 626.042C759.381 629.467 756.439 632 752.975 632H50.602C48.0688 632 45.7333 630.631 44.4952 628.421L5.83854 559.421Z" fill="#B54028"/>
<path d="M496.659 19.4441C500.484 13.6517 509.5 16.3601 509.5 23.3017V526C509.5 529.866 506.366 533 502.5 533H170.512C164.935 533 161.597 526.796 164.671 522.142L496.659 19.4441Z" fill="white"/>
<path d="M700.657 314.469C704.48 308.673 713.5 311.38 713.5 318.324V526C713.5 529.866 710.366 533 706.5 533H569.504C563.928 533 560.59 526.799 563.66 522.145L700.657 314.469Z" fill="white"/>
<path d="M134.029 552.842C132.632 550.46 133.431 547.397 135.813 546L137.538 544.988C139.92 543.591 142.984 544.39 144.381 546.772L210.143 658.912C211.54 661.294 210.741 664.357 208.359 665.754L206.634 666.766C204.252 668.163 201.188 667.364 199.791 664.982L134.029 552.842Z" fill="#5C4736"/>
<path d="M304.029 552.842C302.632 550.46 303.431 547.397 305.813 546L307.538 544.988C309.92 543.591 312.984 544.39 314.381 546.772L380.143 658.912C381.54 661.294 380.741 664.357 378.359 665.754L376.634 666.766C374.252 668.163 371.188 667.364 369.791 664.982L304.029 552.842Z" fill="#5C4736"/>
<path d="M464.029 552.842C462.632 550.46 463.431 547.397 465.813 546L467.538 544.988C469.92 543.591 472.984 544.39 474.381 546.772L540.143 658.912C541.54 661.294 540.741 664.357 538.359 665.754L536.634 666.766C534.252 668.163 531.188 667.364 529.791 664.982L464.029 552.842Z" fill="#5C4736"/>
<path d="M624.029 552.842C622.632 550.46 623.431 547.397 625.813 546L627.538 544.988C629.92 543.591 632.984 544.39 634.381 546.772L700.143 658.912C701.54 661.294 700.741 664.357 698.359 665.754L696.634 666.766C694.252 668.163 691.188 667.364 689.791 664.982L624.029 552.842Z" fill="#5C4736"/>
</svg>
