<svg width="1024" height="835" viewBox="0 0 1024 835" fill="none" xmlns="http://www.w3.org/2000/svg">
<path d="M198.484 631.465C196.848 628.143 199.266 624.256 202.97 624.256H1018.58C1021.59 624.256 1023.91 626.889 1023.54 629.871L998.674 830.615C998.364 833.119 996.236 835 993.712 835H301.82C299.916 835 298.176 833.918 297.335 832.209L198.484 631.465Z" fill="#252823"/>
<path d="M3.30619 517.631C0.927957 516.227 0.137675 513.162 1.54105 510.784L1.91341 510.153C3.31679 507.774 6.38239 506.984 8.76062 508.387L221.989 634.212C224.367 635.615 225.157 638.681 223.754 641.059L223.382 641.69C221.978 644.068 218.913 644.859 216.534 643.455L3.30619 517.631Z" fill="#252823"/>
<path d="M826.831 472.53C827.313 470.964 828.33 469.616 829.705 468.722L968.732 378.304C973.201 375.397 979.15 378.355 979.53 383.673L995.136 601.977C995.425 606.029 992.216 609.476 988.154 609.476H794.14C789.43 609.476 786.064 604.917 787.45 600.416L826.831 472.53Z" fill="white"/>
<path d="M826.831 472.53C827.313 470.964 828.33 469.616 829.705 468.722L968.732 378.304C973.201 375.397 979.15 378.355 979.53 383.673L995.136 601.977C995.425 606.029 992.216 609.476 988.154 609.476H794.14C789.43 609.476 786.064 604.917 787.45 600.416L826.831 472.53Z" fill="white"/>
<path d="M817.993 217.602C818.672 214.359 821.531 212.036 824.845 212.036H953.375C957.778 212.036 961.088 216.052 960.246 220.374L927.07 390.753C926.43 394.042 923.549 396.415 920.199 396.415H789.18C784.737 396.415 781.419 392.33 782.329 387.981L817.993 217.602Z" fill="white"/>
<path d="M817.993 217.602C818.672 214.359 821.531 212.036 824.845 212.036H953.375C957.778 212.036 961.088 216.052 960.246 220.374L927.07 390.753C926.43 394.042 923.549 396.415 920.199 396.415H789.18C784.737 396.415 781.419 392.33 782.329 387.981L817.993 217.602Z" fill="white"/>
<path d="M551.197 178.34C552.003 175.26 554.786 173.112 557.97 173.112H743.705C747.434 173.112 750.508 176.035 750.696 179.759L760.731 378.82C760.932 382.819 757.744 386.172 753.739 386.172H505.891C501.306 386.172 497.958 381.837 499.119 377.4L551.197 178.34Z" fill="white"/>
<path d="M551.197 178.34C552.003 175.26 554.786 173.112 557.97 173.112H743.705C747.434 173.112 750.508 176.035 750.696 179.759L760.731 378.82C760.932 382.819 757.744 386.172 753.739 386.172H505.891C501.306 386.172 497.958 381.837 499.119 377.4L551.197 178.34Z" fill="white"/>
<path d="M539.934 403.7C540.737 400.616 543.522 398.464 546.708 398.464H732.436C736.165 398.464 739.24 401.388 739.427 405.113L749.465 605.198C749.665 609.197 746.477 612.549 742.473 612.549H494.612C490.03 612.549 486.684 608.219 487.838 603.785L539.934 403.7Z" fill="white"/>
<path d="M539.934 403.7C540.737 400.616 543.522 398.464 546.708 398.464H732.436C736.165 398.464 739.24 401.388 739.427 405.113L749.465 605.198C749.665 609.197 746.477 612.549 742.473 612.549H494.612C490.03 612.549 486.684 608.219 487.838 603.785L539.934 403.7Z" fill="white"/>
<path d="M578.136 5.24311C578.937 2.15586 581.723 0 584.912 0H720.8C724.53 0 727.605 2.92514 727.791 6.65073L735.126 153.47C735.326 157.469 732.138 160.82 728.135 160.82H546.844C542.265 160.82 538.919 156.495 540.068 152.063L578.136 5.24311Z" fill="white"/>
<path d="M578.136 5.24311C578.937 2.15586 581.723 0 584.912 0H720.8C724.53 0 727.605 2.92514 727.791 6.65073L735.126 153.47C735.326 157.469 732.138 160.82 728.135 160.82H546.844C542.265 160.82 538.919 156.495 540.068 152.063L578.136 5.24311Z" fill="white"/>
<path d="M578.136 5.24311C578.937 2.15586 581.723 0 584.912 0H720.8C724.53 0 727.605 2.92514 727.791 6.65073L735.126 153.47C735.326 157.469 732.138 160.82 728.135 160.82H546.844C542.265 160.82 538.919 156.495 540.068 152.063L578.136 5.24311Z" fill="white"/>
<path d="M578.136 5.24311C578.937 2.15586 581.723 0 584.912 0H720.8C724.53 0 727.605 2.92514 727.791 6.65073L735.126 153.47C735.326 157.469 732.138 160.82 728.135 160.82H546.844C542.265 160.82 538.919 156.495 540.068 152.063L578.136 5.24311Z" fill="white"/>
<path d="M321.769 48.2571C322.572 45.1738 325.356 43.022 328.543 43.022H445.273C449.002 43.022 452.077 45.9461 452.264 49.671L458.555 174.98C458.755 178.979 455.567 182.331 451.563 182.331H295.894C291.311 182.331 287.965 178 289.12 173.566L321.769 48.2571Z" fill="white"/>
<path d="M321.769 48.2571C322.572 45.1738 325.356 43.022 328.543 43.022H445.273C449.002 43.022 452.077 45.9461 452.264 49.671L458.555 174.98C458.755 178.979 455.567 182.331 451.563 182.331H295.894C291.311 182.331 287.965 178 289.12 173.566L321.769 48.2571Z" fill="white"/>
<path d="M321.769 48.2571C322.572 45.1738 325.356 43.022 328.543 43.022H445.273C449.002 43.022 452.077 45.9461 452.264 49.671L458.555 174.98C458.755 178.979 455.567 182.331 451.563 182.331H295.894C291.311 182.331 287.965 178 289.12 173.566L321.769 48.2571Z" fill="white"/>
<path d="M321.769 48.2571C322.572 45.1738 325.356 43.022 328.543 43.022H445.273C449.002 43.022 452.077 45.9461 452.264 49.671L458.555 174.98C458.755 178.979 455.567 182.331 451.563 182.331H295.894C291.311 182.331 287.965 178 289.12 173.566L321.769 48.2571Z" fill="white"/>
<path d="M258.52 207.038C259.32 203.95 262.107 201.793 265.297 201.793H455.615C459.345 201.793 462.42 204.718 462.606 208.444L472.898 414.675C473.097 418.673 469.909 422.024 465.906 422.024H211.885C207.307 422.024 203.961 417.701 205.109 413.269L258.52 207.038Z" fill="white"/>
<path d="M258.52 207.038C259.32 203.95 262.107 201.793 265.297 201.793H455.615C459.345 201.793 462.42 204.718 462.606 208.444L472.898 414.675C473.097 418.673 469.909 422.024 465.906 422.024H211.885C207.307 422.024 203.961 417.701 205.109 413.269L258.52 207.038Z" fill="white"/>
<path d="M258.52 207.038C259.32 203.95 262.107 201.793 265.297 201.793H455.615C459.345 201.793 462.42 204.718 462.606 208.444L472.898 414.675C473.097 418.673 469.909 422.024 465.906 422.024H211.885C207.307 422.024 203.961 417.701 205.109 413.269L258.52 207.038Z" fill="white"/>
<path d="M258.52 207.038C259.32 203.95 262.107 201.793 265.297 201.793H455.615C459.345 201.793 462.42 204.718 462.606 208.444L472.898 414.675C473.097 418.673 469.909 422.024 465.906 422.024H211.885C207.307 422.024 203.961 417.701 205.109 413.269L258.52 207.038Z" fill="white"/>
<path d="M247.62 450.103C248.307 446.871 251.162 444.559 254.467 444.559H467.831C472.557 444.559 475.924 449.145 474.511 453.654L426.224 607.644C425.308 610.563 422.604 612.549 419.544 612.549H221.73C217.278 612.549 213.957 608.448 214.883 604.094L247.62 450.103Z" fill="white"/>
<path d="M247.62 450.103C248.307 446.871 251.162 444.559 254.467 444.559H467.831C472.557 444.559 475.924 449.145 474.511 453.654L426.224 607.644C425.308 610.563 422.604 612.549 419.544 612.549H221.73C217.278 612.549 213.957 608.448 214.883 604.094L247.62 450.103Z" fill="white"/>
<path d="M247.62 450.103C248.307 446.871 251.162 444.559 254.467 444.559H467.831C472.557 444.559 475.924 449.145 474.511 453.654L426.224 607.644C425.308 610.563 422.604 612.549 419.544 612.549H221.73C217.278 612.549 213.957 608.448 214.883 604.094L247.62 450.103Z" fill="white"/>
<path d="M247.62 450.103C248.307 446.871 251.162 444.559 254.467 444.559H467.831C472.557 444.559 475.924 449.145 474.511 453.654L426.224 607.644C425.308 610.563 422.604 612.549 419.544 612.549H221.73C217.278 612.549 213.957 608.448 214.883 604.094L247.62 450.103Z" fill="white"/>
<path d="M185.985 303.218C190.722 297.568 199.849 302.137 198.164 309.315L140.42 555.267C139.349 559.826 134.191 562.068 130.127 559.742L29.8235 502.325C26.0384 500.158 25.1347 495.095 27.9366 491.753L185.985 303.218Z" fill="white"/>
<path d="M258.733 697.5H992.428C995.105 697.5 997.19 699.824 996.902 702.486L993.971 729.486C993.723 731.77 991.794 733.5 989.497 733.5H270.882C269.112 733.5 267.505 732.461 266.779 730.847L254.629 703.847C253.289 700.869 255.467 697.5 258.733 697.5Z" fill="white" stroke="#252823"/>
<path d="M457 707.04C457 704.278 459.239 702.04 462 702.04H479.303C482.065 702.04 484.303 704.278 484.303 707.04V723.24C484.303 726.002 482.065 728.24 479.303 728.24H462C459.239 728.24 457 726.002 457 723.24V707.04Z" fill="#090302"/>
<path d="M566 707.04C566 704.278 568.239 702.04 571 702.04H588.303C591.065 702.04 593.303 704.278 593.303 707.04V723.24C593.303 726.002 591.065 728.24 588.303 728.24H571C568.239 728.24 566 726.002 566 723.24V707.04Z" fill="#090302"/>
<path d="M348 707.04C348 704.278 350.239 702.04 353 702.04H370.303C373.065 702.04 375.303 704.278 375.303 707.04V723.24C375.303 726.002 373.065 728.24 370.303 728.24H353C350.239 728.24 348 726.002 348 723.24V707.04Z" fill="#090302"/>
<path d="M784 707.04C784 704.278 786.239 702.04 789 702.04H806.303C809.065 702.04 811.303 704.278 811.303 707.04V723.24C811.303 726.002 809.065 728.24 806.303 728.24H789C786.239 728.24 784 726.002 784 723.24V707.04Z" fill="#090302"/>
<path d="M893 707.04C893 704.278 895.239 702.04 898 702.04H915.303C918.065 702.04 920.303 704.278 920.303 707.04V723.24C920.303 726.002 918.065 728.24 915.303 728.24H898C895.239 728.24 893 726.002 893 723.24V707.04Z" fill="#090302"/>
<path d="M675 707.04C675 704.278 677.239 702.04 680 702.04H697.303C700.065 702.04 702.303 704.278 702.303 707.04V723.24C702.303 726.002 700.065 728.24 697.303 728.24H680C677.239 728.24 675 726.002 675 723.24V707.04Z" fill="#090302"/>
<path d="M283.783 752.5H985.332C988.04 752.5 990.135 754.874 989.797 757.561L986.528 783.561C986.245 785.812 984.332 787.5 982.063 787.5H295.667C293.905 787.5 292.306 786.473 291.574 784.871L279.69 758.871C278.328 755.89 280.506 752.5 283.783 752.5Z" fill="white" stroke="#252823"/>
<path d="M502 762.04C502 759.278 504.239 757.04 507 757.04H524.303C527.065 757.04 529.303 759.278 529.303 762.04V778.24C529.303 781.002 527.065 783.24 524.303 783.24H507C504.239 783.24 502 781.002 502 778.24V762.04Z" fill="#090302"/>
<path d="M611 762.04C611 759.278 613.239 757.04 616 757.04H633.303C636.065 757.04 638.303 759.278 638.303 762.04V778.24C638.303 781.002 636.065 783.24 633.303 783.24H616C613.239 783.24 611 781.002 611 778.24V762.04Z" fill="#090302"/>
<path d="M393 762.04C393 759.278 395.239 757.04 398 757.04H415.303C418.065 757.04 420.303 759.278 420.303 762.04V778.24C420.303 781.002 418.065 783.24 415.303 783.24H398C395.239 783.24 393 781.002 393 778.24V762.04Z" fill="#090302"/>
<path d="M829 762.04C829 759.278 831.239 757.04 834 757.04H851.303C854.065 757.04 856.303 759.278 856.303 762.04V778.24C856.303 781.002 854.065 783.24 851.303 783.24H834C831.239 783.24 829 781.002 829 778.24V762.04Z" fill="#090302"/>
<path d="M938 762.04C938 759.278 940.239 757.04 943 757.04H960.303C963.065 757.04 965.303 759.278 965.303 762.04V778.24C965.303 781.002 963.065 783.24 960.303 783.24H943C940.239 783.24 938 781.002 938 778.24V762.04Z" fill="#090302"/>
<path d="M720 762.04C720 759.278 722.239 757.04 725 757.04H742.303C745.065 757.04 747.303 759.278 747.303 762.04V778.24C747.303 781.002 745.065 783.24 742.303 783.24H725C722.239 783.24 720 781.002 720 778.24V762.04Z" fill="#090302"/>
<path d="M227.9 642.5H1000.4C1003.08 642.5 1005.17 644.84 1004.87 647.511L1001.78 674.511C1001.52 676.784 999.6 678.5 997.312 678.5H240.684C238.944 678.5 237.361 677.498 236.616 675.926L223.832 648.926C222.419 645.94 224.596 642.5 227.9 642.5Z" fill="white" stroke="#252823"/>
<path d="M284 652C284 649.239 286.239 647 289 647H306.303C309.065 647 311.303 649.239 311.303 652V668.201C311.303 670.962 309.065 673.201 306.303 673.201H289C286.239 673.201 284 670.962 284 668.201V652Z" fill="#090302"/>
<path d="M502 652.04C502 649.278 504.239 647.04 507 647.04H524.303C527.065 647.04 529.303 649.278 529.303 652.04V668.24C529.303 671.002 527.065 673.24 524.303 673.24H507C504.239 673.24 502 671.002 502 668.24V652.04Z" fill="#090302"/>
<path d="M611 652.04C611 649.278 613.239 647.04 616 647.04H633.303C636.065 647.04 638.303 649.278 638.303 652.04V668.24C638.303 671.002 636.065 673.24 633.303 673.24H616C613.239 673.24 611 671.002 611 668.24V652.04Z" fill="#090302"/>
<path d="M393 652.04C393 649.278 395.239 647.04 398 647.04H415.303C418.065 647.04 420.303 649.278 420.303 652.04V668.24C420.303 671.002 418.065 673.24 415.303 673.24H398C395.239 673.24 393 671.002 393 668.24V652.04Z" fill="#090302"/>
<path d="M829 652.04C829 649.278 831.239 647.04 834 647.04H851.303C854.065 647.04 856.303 649.278 856.303 652.04V668.24C856.303 671.002 854.065 673.24 851.303 673.24H834C831.239 673.24 829 671.002 829 668.24V652.04Z" fill="#090302"/>
<path d="M938 652.04C938 649.278 940.239 647.04 943 647.04H960.303C963.065 647.04 965.303 649.278 965.303 652.04V668.24C965.303 671.002 963.065 673.24 960.303 673.24H943C940.239 673.24 938 671.002 938 668.24V652.04Z" fill="#090302"/>
<path d="M720 652.04C720 649.278 722.239 647.04 725 647.04H742.303C745.065 647.04 747.303 649.278 747.303 652.04V668.24C747.303 671.002 745.065 673.24 742.303 673.24H725C722.239 673.24 720 671.002 720 668.24V652.04Z" fill="#090302"/>
</svg>
